<svg width="40" height="40" viewBox="0 0 40 40" fill="none" xmlns="http://www.w3.org/2000/svg">
<g id="002-photoshop 1" clip-path="url(#clip0_224_802)">
<g id="Group">
<path id="Vector" d="M7.08336 0.5H32.9167C36.8334 0.5 40 3.66664 40 7.58336V32.4167C40 36.3334 36.8334 39.5001 32.9166 39.5001H7.08336C3.16664 39.5 0 36.3334 0 32.4166V7.58336C0 3.66664 3.16664 0.5 7.08336 0.5Z" fill="#001834"/>
<g id="Group_2">
<path id="Vector_2" d="M9 27.85V10.7C9 10.5834 9.05 10.5166 9.16664 10.5166C9.45 10.5166 9.71664 10.5166 10.1 10.5C10.5 10.4834 10.9166 10.4834 11.3666 10.4666C11.8166 10.4499 12.3 10.45 12.8166 10.4333C13.3333 10.4166 13.8333 10.4166 14.3333 10.4166C15.6999 10.4166 16.8333 10.5833 17.7666 10.9333C18.6 11.2166 19.3666 11.6833 20 12.2999C20.5334 12.8333 20.95 13.4833 21.2166 14.1999C21.4666 14.8999 21.6 15.6166 21.6 16.3666C21.6 17.7999 21.2666 18.9832 20.6 19.9166C19.9334 20.8499 19 21.5499 17.9166 21.9499C16.7833 22.3666 15.5333 22.5166 14.1666 22.5166C13.7666 22.5166 13.5 22.5166 13.3333 22.4999C13.1666 22.4833 12.9333 22.4833 12.6166 22.4833V27.8333C12.6333 27.9499 12.55 28.0499 12.4333 28.0666C12.4166 28.0666 12.3999 28.0666 12.3666 28.0666H9.2C9.06664 28.0666 9 28 9 27.85ZM12.6334 13.7334V19.3334C12.8667 19.35 13.0834 19.3667 13.2834 19.3667H14.1667C15.3176 19.3667 16.6467 19.0963 17.45 18.1834C18.1413 17.3978 18.1433 15.8398 17.5834 14.9834C16.9187 13.9668 15.5895 13.6723 14.45 13.7001C14.0166 13.7001 13.6334 13.7001 13.3166 13.7167C12.9834 13.7 12.75 13.7166 12.6334 13.7334Z" fill="#00A9FF"/>
<path id="Vector_3" d="M31.9996 18.3166C31.4996 18.05 30.9663 17.8666 30.3996 17.75C29.783 17.6166 29.1663 17.5334 28.533 17.5334C28.1996 17.5167 27.8496 17.5667 27.533 17.65C27.3163 17.7 27.133 17.8166 27.0163 17.9834C26.933 18.1167 26.883 18.2834 26.883 18.4334C26.883 18.5834 26.9496 18.7334 27.0496 18.8667C27.1996 19.0501 27.3996 19.2001 27.6163 19.3167C27.9996 19.5167 28.3996 19.7001 28.7996 19.8667C29.6996 20.1667 30.5663 20.5834 31.3663 21.0834C31.9163 21.4334 32.3663 21.9 32.6829 22.4667C32.9495 23.0001 33.0829 23.5834 33.0663 24.1834C33.0829 24.9667 32.8496 25.75 32.4163 26.4C31.9496 27.0666 31.2996 27.5834 30.5496 27.8834C29.733 28.2334 28.733 28.4167 27.533 28.4167C26.7663 28.4167 26.0163 28.3501 25.2663 28.2001C24.683 28.1001 24.0997 27.9167 23.5663 27.6667C23.4497 27.6001 23.3663 27.4834 23.383 27.3501V24.4501C23.383 24.4001 23.3996 24.3334 23.4496 24.3001C23.4996 24.2667 23.5496 24.2834 23.5996 24.3167C24.2496 24.7001 24.933 24.9667 25.6663 25.1334C26.2996 25.3 26.9663 25.3834 27.6329 25.3834C28.2663 25.3834 28.7163 25.3 29.0163 25.15C29.2829 25.0334 29.4663 24.75 29.4663 24.45C29.4663 24.2166 29.3329 24 29.0663 23.7834C28.7996 23.5667 28.2496 23.3167 27.4329 23C26.5829 22.7 25.7995 22.3 25.0663 21.8C24.5496 21.4334 24.1163 20.95 23.7996 20.3834C23.533 19.85 23.3996 19.2667 23.4163 18.6834C23.4163 17.9667 23.6163 17.2834 23.9829 16.6667C24.3995 16.0001 25.0163 15.4667 25.7329 15.1334C26.5163 14.7334 27.4995 14.55 28.6829 14.55C29.3663 14.55 30.0663 14.6 30.7495 14.7C31.2495 14.7666 31.7329 14.9 32.1829 15.0834C32.2495 15.1 32.3163 15.1667 32.3495 15.2334C32.3662 15.3 32.3829 15.3667 32.3829 15.4334V18.15C32.3829 18.2166 32.3495 18.2834 32.2995 18.3166C32.1496 18.35 32.0663 18.35 31.9996 18.3166Z" fill="#00A9FF"/>
</g>
</g>
</g>
<defs>
<clipPath id="clip0_224_802">
<rect width="40" height="40" fill="white"/>
</clipPath>
</defs>
</svg>
