<svg xmlns="http://www.w3.org/2000/svg" width="34" height="34" viewBox="0 0 34 34" fill="none">
  <path d="M29.8091 1.95819H14.702C14.2464 1.95819 13.877 2.32761 13.877 2.78322V7.24519C14.8883 7.67637 15.7391 8.46076 16.2326 9.47684L17.4698 12.0241L21.5804 11.7577C22.8083 11.678 23.9033 12.4473 24.2772 13.571C24.3643 13.6078 24.4498 13.6474 24.533 13.6901V12.1654H29.8091C30.2648 12.1654 30.6342 11.7959 30.6342 11.3403V2.78322C30.6342 2.32761 30.2648 1.95819 29.8091 1.95819ZM23.1244 7.50736C23.1629 7.3035 23.1035 7.08469 22.9457 6.92684C22.6921 6.67323 22.2809 6.67323 22.0273 6.92684C21.7737 7.18044 21.7737 7.59157 22.0273 7.84524C22.1852 8.00309 22.404 8.06252 22.6079 8.02394L24.4419 9.85795L21.0371 8.42218C20.9197 8.37264 20.8434 8.25762 20.8434 8.13012V7.80221C20.8434 7.31598 20.6502 6.84961 20.3063 6.50569L19.4565 5.65582C19.3863 5.5857 19.3863 5.47195 19.4565 5.40182L20.5024 4.35592C20.5725 4.2858 20.6862 4.2858 20.7564 4.35592L21.6062 5.20579C21.9501 5.54964 22.4165 5.74282 22.9028 5.74282H23.2307C23.3581 5.74282 23.4731 5.81918 23.5227 5.93659L24.9584 9.34117L23.1244 7.50736Z" fill="white"/>
  <path d="M8.97035 1.1571C7.3849 1.1571 6.09961 2.44233 6.09961 4.02785C6.09961 5.62213 7.39566 6.89859 8.97035 6.89859C10.5448 6.89859 11.8411 5.62213 11.8411 4.02785C11.8411 2.44233 10.5558 1.1571 8.97035 1.1571Z" fill="white"/>
  <path d="M17.158 20.2346H14.3987C15.092 20.5125 15.583 21.1908 15.583 21.9821V23.6856C15.583 24.1995 15.3758 24.6658 15.0406 25.0058L14.2021 30.9481C14.0738 31.8571 14.7067 32.6979 15.6156 32.8262C16.5267 32.9544 17.3657 32.32 17.4937 31.4127L18.8037 22.1289C18.945 21.1284 18.1668 20.2346 17.158 20.2346Z" fill="white"/>
  <path d="M13.7013 21.2095C11.2416 21.2095 11.1616 21.2095 10.0702 21.2095V12.5948C10.0702 11.5919 9.2573 10.7791 8.2545 10.7791H1.81575C0.812945 10.779 0 11.5919 0 12.5948V22.6426C0 23.6455 0.812945 24.4583 1.81575 24.4583C2.28876 24.4583 5.65575 24.4583 6.1461 24.4583C6.1461 24.9665 6.1461 28.0212 6.1461 28.5271L1.24658 31.3122C0.853453 31.5357 0.715926 32.0354 0.939383 32.4286C1.16291 32.8216 1.66261 32.9593 2.05587 32.7357L6.35089 30.2943V30.9265C6.35089 31.3787 6.71746 31.7452 7.16962 31.7452C7.62178 31.7452 7.98834 31.3787 7.98834 30.9265V30.2943L10.224 31.5651C10.3975 32.2977 11.0554 32.8429 11.841 32.8429C12.759 32.8429 13.5031 32.0988 13.5031 31.1808V25.5679H10.1788V29.656L8.193 28.5272C8.193 28.0214 8.193 24.9665 8.193 24.4584C10.1897 24.4584 8.86942 24.4584 13.7013 24.4584C14.128 24.4584 14.4739 24.1124 14.4739 23.6858V21.9823C14.474 21.5563 14.1279 21.2095 13.7013 21.2095Z" fill="white"/>
  <path d="M32.8901 16.5197C31.7238 16.5197 26.0695 16.5197 25.0374 16.5197C25.0664 16.4056 25.0809 16.2914 25.0809 16.1773C25.0809 15.2826 24.2273 14.5595 23.1346 14.3945C23.1235 13.5868 22.4412 12.9799 21.6617 13.0309L16.6955 13.3527L15.0837 10.0342C14.5278 8.88989 13.3468 8.15039 12.0745 8.15039C5.81795 8.15039 5.54349 8.15039 5.26332 8.15039C4.1062 8.15039 3.0856 8.75661 2.50195 9.66943H8.25406C9.86727 9.66943 11.1793 10.982 11.1793 12.5947V20.0999H12.6723V18.7387C13.05 18.7387 29.7097 18.7387 29.9188 18.7387V31.8194C29.9188 32.3847 30.377 32.8428 30.9422 32.8428C31.5075 32.8428 31.9657 32.3846 31.9657 31.8194V18.7387H32.8901C33.5028 18.7387 33.9996 18.242 33.9996 17.6292C33.9996 17.0165 33.5028 16.5197 32.8901 16.5197ZM12.6723 16.5197C12.6723 15.8289 12.6723 12.204 12.6723 11.4102L14.6103 15.4004C14.8554 15.905 15.3821 16.2139 15.9458 16.1774L20.2514 15.8983C20.2096 16.1015 20.2131 16.3097 20.2665 16.5196C19.2847 16.5197 13.7406 16.5197 12.6723 16.5197Z" fill="white"/>
</svg>