<svg xmlns="http://www.w3.org/2000/svg" width="34" height="34" viewBox="0 0 34 34" fill="none">
  <g clip-path="url(#clip0_224_144)">
    <path d="M15.045 29.0416H18.955C19.2738 28.4112 19.5429 27.625 20.5417 27.625H31.875V10.625C31.875 10.2493 31.7257 9.88892 31.4601 9.62325C31.1944 9.35757 30.8341 9.20831 30.4583 9.20831H24.225C24.3907 10.0873 24.269 10.9963 23.8779 11.8008L25.0537 12.9766C25.529 13.455 25.8181 14.0871 25.8691 14.7595C25.92 15.4318 25.7295 16.1003 25.3318 16.6448C24.9341 17.1893 24.3553 17.5742 23.6993 17.7301C23.0433 17.8861 22.3531 17.803 21.7529 17.4958C20.2569 17.8567 18.824 18.4418 17.5029 19.2312C20.9383 21.9016 21.3846 22.0646 21.4412 22.9075C21.4979 23.7504 21.0871 23.9275 19.0187 25.9958C18.8089 26.2069 18.5378 26.3465 18.2441 26.3948C17.9504 26.4431 17.6489 26.3977 17.3825 26.265C11.1208 23.1058 11.9071 23.4316 11.5104 23.4316C10.1954 23.4316 8.93421 22.9093 8.00435 21.9794C7.07448 21.0495 6.55208 19.7883 6.55208 18.4733C6.55208 16.0862 7.96875 15.0308 9.51292 13.4725C9.75938 13.2193 10.0947 13.0719 10.4479 13.0616C11.1986 11.8513 11.8071 10.5582 12.2612 9.20831H3.54167C3.16594 9.20831 2.80561 9.35757 2.53993 9.62325C2.27426 9.88892 2.125 10.2493 2.125 10.625V27.625H13.4583C14.4358 27.625 14.7121 28.3829 15.045 29.0416Z" fill="white"/>
    <path d="M20.5404 29.0416L19.832 30.4583H14.1654L13.457 29.0416H0.707031V30.4583C0.707031 31.2097 1.00554 31.9304 1.5369 32.4618C2.06825 32.9931 2.78892 33.2916 3.54036 33.2916H30.457C31.2085 33.2916 31.9291 32.9931 32.4605 32.4618C32.9919 31.9304 33.2904 31.2097 33.2904 30.4583V29.0416H20.5404Z" fill="white"/>
    <path d="M22.0495 15.98C22.1811 16.1135 22.3377 16.2197 22.5104 16.2927C22.6831 16.3656 22.8684 16.4039 23.0559 16.4052C23.2434 16.4065 23.4292 16.3709 23.6029 16.3004C23.7766 16.2298 23.9347 16.1258 24.0682 15.9942C24.2017 15.8626 24.3079 15.7059 24.3809 15.5332C24.4538 15.3606 24.4921 15.1752 24.4934 14.9877C24.4947 14.8003 24.4591 14.6144 24.3886 14.4407C24.318 14.267 24.214 14.1089 24.0824 13.9754L16.0428 5.96417C15.777 5.69835 15.4164 5.54901 15.0405 5.54901C14.6646 5.54901 14.304 5.69835 14.0382 5.96417C13.7724 6.23 13.623 6.59053 13.623 6.96647C13.623 7.3424 13.7724 7.70293 14.0382 7.96876L22.0495 15.98Z" fill="white"/>
    <path d="M16.3258 18.2679C17.6224 17.4776 19.0087 16.845 20.4554 16.3837L13.6271 9.5625C13.1704 11.0098 12.5401 12.3964 11.75 13.6921L16.3258 18.2679Z" fill="white"/>
    <path d="M10.5325 14.4783L9.03084 15.98C8.51772 16.5081 8.18196 17.183 8.07027 17.9109C7.95859 18.6387 8.07654 19.3832 8.40771 20.0409C8.73889 20.6986 9.26681 21.2367 9.91805 21.5803C10.5693 21.924 11.3114 22.0561 12.0413 21.9583C13.4933 21.7458 14.1308 20.8462 15.5121 19.465L10.5325 14.4783Z" fill="white"/>
    <path d="M20.0441 22.9925L16.6654 20.3646C15.1212 21.9016 14.6962 22.4258 13.832 22.8721L18.0395 24.9971L20.0441 22.9925Z" fill="white"/>
    <path d="M19.3164 7.23204L22.7802 10.7029C22.9085 10.2231 22.9085 9.71795 22.7801 9.23815C22.6517 8.75836 22.3994 8.32074 22.0486 7.96918C21.6978 7.61762 21.2607 7.36446 20.7811 7.23508C20.3016 7.1057 19.7965 7.10465 19.3164 7.23204Z" fill="white"/>
    <path d="M24.7906 5.66664C25.1802 5.66664 25.0952 5.66664 27.4185 3.33622C27.5519 3.20284 27.6268 3.02193 27.6268 2.8333C27.6268 2.64467 27.5519 2.46377 27.4185 2.33039C27.2851 2.197 27.1042 2.12207 26.9156 2.12207C26.7269 2.12207 26.546 2.197 26.4127 2.33039L24.2877 4.45539C24.1878 4.55446 24.1196 4.68104 24.092 4.81899C24.0643 4.95693 24.0783 5.1 24.1323 5.22993C24.1862 5.35987 24.2777 5.4708 24.3949 5.54858C24.5121 5.62635 24.6499 5.66745 24.7906 5.66664Z" fill="white"/>
    <path d="M21.2487 4.24998V1.41665C21.2487 1.22878 21.1741 1.04862 21.0412 0.915779C20.9084 0.782941 20.7282 0.708313 20.5404 0.708313C20.3525 0.708313 20.1723 0.782941 20.0395 0.915779C19.9067 1.04862 19.832 1.22878 19.832 1.41665V4.24998C19.832 4.43784 19.9067 4.61801 20.0395 4.75085C20.1723 4.88369 20.3525 4.95831 20.5404 4.95831C20.7282 4.95831 20.9084 4.88369 21.0412 4.75085C21.1741 4.61801 21.2487 4.43784 21.2487 4.24998Z" fill="white"/>
  </g>
  <defs>
    <clipPath id="clip0_224_144">
      <rect width="34" height="34" fill="white"/>
    </clipPath>
  </defs>
</svg>