<svg width="40" height="40" viewBox="0 0 40 40" fill="none" xmlns="http://www.w3.org/2000/svg">
<g id="003-coding-language 1">
<g id="Group">
<path id="Vector" d="M13.3629 30.2658C13.2455 30.464 13.3113 30.7191 13.5095 30.8364L20.626 35.0364V35.0373C20.8242 35.1546 21.0802 35.0889 21.1975 34.8898C21.2375 34.8213 21.2562 34.7466 21.2553 34.6729V30.4782C21.2553 30.248 21.0686 30.0604 20.8375 30.0604L13.3629 30.2658Z" fill="#538CE0"/>
<path id="Vector_2" d="M28.8671 19.4444C28.6689 19.3271 28.4138 19.3929 28.2965 19.5911C28.1791 19.7893 28.2449 20.0444 28.4431 20.1617L35.5596 24.3617V24.3626C35.7578 24.48 36.0138 24.4142 36.1311 24.2151C36.1711 24.1466 36.1898 24.072 36.1889 23.9982V19.8035C36.1889 19.5733 36.0022 19.3857 35.7711 19.3857C35.5409 19.3857 35.3533 19.5724 35.3533 19.8035L28.8671 19.4444Z" fill="#89CA75"/>
<path id="Vector_3" d="M24.2898 19.8035C24.2898 19.5733 24.1032 19.3858 23.872 19.3858C23.6978 19.3858 21.1965 17.3671 19.9787 16.4746C20.0898 16.4 20.1636 16.2729 20.1636 16.128C20.1636 15.8978 19.9769 15.7102 19.7458 15.7102H4.27293C3.3236 15.7102 2.46049 16.0986 1.8356 16.7235C1.21071 17.3484 0.822266 18.2115 0.822266 19.1609V27.4435C0.822266 28.3929 1.21071 29.256 1.8356 29.8809C2.46049 30.5058 3.3236 30.8942 4.27293 30.8942H20.8392C21.7885 30.8942 22.6516 30.5058 23.2765 29.8809C23.9014 29.256 24.2898 28.3929 24.2898 27.4435V19.8035Z" fill="#5C9CEE"/>
<path id="Vector_4" d="M0.864043 18.6275C0.836488 18.8018 0.822266 18.9804 0.822266 19.1618V19.4622H7.33515C7.56538 19.4622 7.75293 19.2755 7.75293 19.0444C7.75293 18.8142 7.56627 18.6266 7.33515 18.6266L0.864043 18.6275Z" fill="#538CE0"/>
<path id="Vector_5" d="M24.2483 27.9786C24.2758 27.8044 24.29 27.6258 24.29 27.4444V27.144H17.7772C17.5469 27.144 17.3594 27.3306 17.3594 27.5618C17.3594 27.792 17.546 27.9795 17.7772 27.9795H24.2483V27.9786Z" fill="#538CE0"/>
<g id="Group_2">
<path id="Vector_6" d="M7.40196 20.8418C7.40196 20.6116 7.21529 20.424 6.98418 20.424C6.75396 20.424 6.56641 20.6107 6.56641 20.8418V25.7653C6.56641 25.9956 6.75307 26.1831 6.98418 26.1831C7.21441 26.1831 7.40196 25.9965 7.40196 25.7653V20.8418Z" fill="white"/>
<path id="Vector_7" d="M6.98614 20.424C6.75591 20.424 6.56836 20.6107 6.56836 20.8418C6.56836 21.0729 6.75503 21.2596 6.98614 21.2596H8.34347C8.58436 21.2596 8.80303 21.3582 8.96214 21.5173C9.12125 21.6765 9.21991 21.8951 9.21991 22.136C9.21991 22.3769 9.12125 22.5956 8.96214 22.7547C8.80303 22.9138 8.58436 23.0125 8.34347 23.0125H6.98614C6.75591 23.0125 6.56836 23.1991 6.56836 23.4302C6.56836 23.6605 6.75503 23.848 6.98614 23.848H8.34347C8.81458 23.848 9.24214 23.656 9.55236 23.3458C9.86258 23.0356 10.0546 22.608 10.0546 22.1369C10.0546 21.6658 9.86258 21.2382 9.55236 20.928C9.24214 20.6178 8.81458 20.4258 8.34347 20.4258H6.98614V20.424Z" fill="white"/>
<path id="Vector_8" d="M11.4977 20.8418C11.4977 20.6116 11.311 20.424 11.0799 20.424C10.8497 20.424 10.6621 20.6107 10.6621 20.8418V25.7653C10.6621 25.9956 10.8488 26.1831 11.0799 26.1831C11.3101 26.1831 11.4977 25.9965 11.4977 25.7653V20.8418ZM13.6141 25.7653C13.6141 25.9956 13.8008 26.1831 14.0319 26.1831C14.263 26.1831 14.4497 25.9965 14.4497 25.7653V20.8418C14.4497 20.6116 14.263 20.424 14.0319 20.424C13.8008 20.424 13.6141 20.6107 13.6141 20.8418V25.7653Z" fill="white"/>
<path id="Vector_9" d="M11.0799 22.8853C10.8497 22.8853 10.6621 23.072 10.6621 23.3031C10.6621 23.5333 10.8488 23.7209 11.0799 23.7209H14.031C14.2612 23.7209 14.4488 23.5342 14.4488 23.3031C14.4488 23.0729 14.2621 22.8853 14.031 22.8853H11.0799Z" fill="white"/>
<path id="Vector_10" d="M15.8922 20.8418C15.8922 20.6116 15.7055 20.424 15.4744 20.424C15.2442 20.424 15.0566 20.6107 15.0566 20.8418V25.7653C15.0566 25.9956 15.2433 26.1831 15.4744 26.1831C15.7046 26.1831 15.8922 25.9965 15.8922 25.7653V20.8418Z" fill="white"/>
<path id="Vector_11" d="M15.4744 20.424C15.2442 20.424 15.0566 20.6107 15.0566 20.8418C15.0566 21.0729 15.2433 21.2596 15.4744 21.2596H16.8318C17.0726 21.2596 17.2913 21.3582 17.4504 21.5173C17.6095 21.6765 17.7082 21.8951 17.7082 22.136C17.7082 22.3769 17.6095 22.5956 17.4504 22.7547C17.2913 22.9138 17.0726 23.0125 16.8318 23.0125H15.4744C15.2442 23.0125 15.0566 23.1991 15.0566 23.4302C15.0566 23.6605 15.2433 23.848 15.4744 23.848H16.8318C17.3029 23.848 17.7304 23.656 18.0406 23.3458C18.3509 23.0356 18.5429 22.608 18.5429 22.1369C18.5429 21.6658 18.3509 21.2382 18.0406 20.928C17.7304 20.6178 17.3029 20.4258 16.8318 20.4258H15.4744V20.424Z" fill="white"/>
</g>
<path id="Vector_12" d="M19.2046 5.03644H35.7708C36.7201 5.03644 37.5832 5.42488 38.2081 6.04977C38.833 6.67466 39.2215 7.53777 39.2215 8.48711V16.7698C39.2215 17.7191 38.833 18.5822 38.2081 19.2071C37.5832 19.832 36.7201 20.2204 35.7708 20.2204H19.2046C18.2552 20.2204 17.3921 19.832 16.7672 19.2071C16.1424 18.5822 15.7539 17.7191 15.7539 16.7698V8.48711C15.7539 7.53777 16.1424 6.67466 16.7672 6.04977C17.393 5.42488 18.2552 5.03644 19.2046 5.03644Z" fill="#98DB7C"/>
<path id="Vector_13" d="M25.4754 16.4391C25.6381 16.6018 25.903 16.6018 26.0657 16.4391C26.2283 16.2765 26.2283 16.0116 26.0657 15.8489L22.8452 12.6285L26.0657 9.40802C26.2283 9.24536 26.2283 8.98047 26.0657 8.8178C25.903 8.65513 25.6381 8.65513 25.4754 8.8178L21.9617 12.3316L21.9599 12.3334C21.7972 12.496 21.7972 12.7609 21.9599 12.9236L25.4754 16.4391Z" fill="white"/>
<path id="Vector_14" d="M28.9111 15.8489C28.7484 16.0116 28.7484 16.2765 28.9111 16.4391C29.0737 16.6018 29.3386 16.6018 29.5013 16.4391L33.0168 12.9236C33.1795 12.7609 33.1795 12.496 33.0168 12.3334L33.0151 12.3316L29.5013 8.8178C29.3386 8.65513 29.0737 8.65513 28.9111 8.8178C28.7484 8.98047 28.7484 9.24536 28.9111 9.40802L32.1315 12.6285L28.9111 15.8489Z" fill="white"/>
<path id="Vector_15" d="M28.6209 10.6258C28.6955 10.4089 28.58 10.1724 28.3631 10.0978C28.1462 10.0231 27.9098 10.1387 27.8351 10.3556L26.3586 14.632C26.284 14.8489 26.3995 15.0853 26.6164 15.16C26.8333 15.2347 27.0698 15.1191 27.1444 14.9022L28.6209 10.6258Z" fill="white"/>
<g id="Group_3">
<path id="Vector_16" d="M15.7539 8.78755V8.4871C15.7539 8.30577 15.7681 8.1271 15.7957 7.95288H22.2668C22.497 7.95288 22.6846 8.13955 22.6846 8.37066C22.6846 8.60177 22.4979 8.78844 22.2668 8.78844L15.7539 8.78755Z" fill="#89CA75"/>
<path id="Vector_17" d="M39.2217 16.4693V16.7698C39.2217 16.9511 39.2075 17.1298 39.1799 17.304H32.7088C32.4786 17.304 32.291 17.1173 32.291 16.8862C32.291 16.656 32.4777 16.4684 32.7088 16.4684L39.2217 16.4693Z" fill="#89CA75"/>
</g>
</g>
</g>
</svg>
