<svg width="40" height="40" viewBox="0 0 40 40" fill="none" xmlns="http://www.w3.org/2000/svg">
<g id="003-illustrator 1" clip-path="url(#clip0_224_810)">
<g id="Group">
<path id="Vector" d="M7.08336 0.5H32.9167C36.8334 0.5 40 3.66664 40 7.58336V32.4167C40 36.3334 36.8334 39.5001 32.9166 39.5001H7.08336C3.16664 39.5 0 36.3334 0 32.4166V7.58336C0 3.66664 3.16664 0.5 7.08336 0.5Z" fill="#390000"/>
<g id="Group_2">
<path id="Vector_2" d="M19.3839 23.9H13.1839L11.9172 27.8167C11.8839 27.9667 11.7506 28.0667 11.6006 28.05H8.46724C8.28388 28.05 8.23388 27.95 8.28388 27.75L13.6505 12.3C13.7005 12.1334 13.7505 11.95 13.8172 11.75C13.8838 11.4 13.9172 11.0334 13.9172 10.6667C13.9005 10.5833 13.9672 10.5 14.0505 10.4833H14.1005H18.3672C18.5005 10.4833 18.5672 10.5333 18.5838 10.6167L24.6672 27.7833C24.7172 27.9667 24.6672 28.0499 24.5005 28.0499H21.0172C20.9005 28.0666 20.7838 27.9833 20.7505 27.8666L19.3839 23.9ZM14.1505 20.5167H18.3839L16.2505 13.5667L14.1505 20.5167Z" fill="#FF9A00"/>
<path id="Vector_3" d="M28.301 13.3334C27.751 13.35 27.2176 13.1334 26.8176 12.75C26.4342 12.3334 26.2343 11.7834 26.251 11.2167C26.2343 10.65 26.451 10.1167 26.851 9.73329C27.251 9.34993 27.7843 9.14993 28.3343 9.14993C28.9843 9.14993 29.4843 9.34993 29.851 9.73329C30.2176 10.1333 30.4176 10.6667 30.401 11.2167C30.4176 11.7833 30.2176 12.3333 29.8176 12.75C29.4343 13.15 28.8676 13.3667 28.301 13.3334Z" fill="#FF9A00"/>
<path id="Vector_4" d="M26.4336 27.8V14.9666C26.4336 14.8 26.5002 14.7333 26.6502 14.7333H29.9502C30.1002 14.7333 30.1669 14.8166 30.1669 14.9666V27.8C30.1669 27.9834 30.1002 28.0666 29.9502 28.0666H26.6836C26.5169 28.0666 26.4336 27.9666 26.4336 27.8Z" fill="#FF9A00"/>
</g>
</g>
</g>
<defs>
<clipPath id="clip0_224_810">
<rect width="40" height="40" fill="white"/>
</clipPath>
</defs>
</svg>
