<svg width="40" height="40" viewBox="0 0 40 40" fill="none" xmlns="http://www.w3.org/2000/svg">
<g id="004-seo 1">
<g id="fill">
<g id="50-SEO copy">
<path id="Vector" d="M32.1875 12.5781C30.7196 12.5781 29.2847 13.0134 28.0641 13.8289C26.8436 14.6445 25.8923 15.8036 25.3306 17.1598C24.7688 18.5159 24.6219 20.0082 24.9082 21.4479C25.1946 22.8876 25.9015 24.2101 26.9394 25.2481C27.9774 26.286 29.2999 26.9929 30.7396 27.2793C32.1793 27.5656 33.6716 27.4187 35.0277 26.8569C36.3839 26.2952 37.543 25.3439 38.3586 24.1234C39.1741 22.9029 39.6094 21.4679 39.6094 20C39.6094 18.0316 38.8274 16.1438 37.4356 14.7519C36.0437 13.3601 34.1559 12.5781 32.1875 12.5781ZM32.1875 24.5672C31.2842 24.5672 30.4012 24.2993 29.6501 23.7975C28.899 23.2956 28.3137 22.5823 27.968 21.7478C27.6223 20.9132 27.5318 19.9949 27.7081 19.109C27.8843 18.223 28.3193 17.4092 28.958 16.7705C29.5967 16.1318 30.4105 15.6968 31.2965 15.5206C32.1824 15.3443 33.1007 15.4348 33.9353 15.7805C34.7698 16.1261 35.4831 16.7115 35.985 17.4626C36.4868 18.2137 36.7547 19.0967 36.7547 20C36.7534 21.2109 36.2719 22.3719 35.4156 23.2281C34.5594 24.0844 33.3984 24.5659 32.1875 24.5672Z" fill="#EA4235"/>
<path id="Vector_2" d="M8.95805 20.3179C8.59823 19.9929 8.19848 19.715 7.76844 19.491L4.43016 17.7356C4.2151 17.6248 4.01496 17.4872 3.83453 17.326C3.55398 17.0703 4.12977 15.8455 5.0707 15.7031C5.66734 15.6133 7.15773 15.5809 8.11555 17.2217L10.5469 15.5805C9.26305 13.3811 7.06594 12.2844 4.67141 12.6461C2.67656 12.9474 1.10461 14.1945 0.666641 15.8233C0.301016 17.1827 0.779531 18.5895 1.97914 19.6821C2.33898 20.0071 2.7387 20.2849 3.16867 20.509L6.50781 22.2645C6.72277 22.3753 6.92283 22.5128 7.1032 22.6739C7.38336 22.9297 6.80773 24.1545 5.86719 24.2969C5.27078 24.3869 3.78016 24.4192 2.82234 22.7783L0.390625 24.4195C1.44664 26.2285 3.12016 27.2917 5.01383 27.4107C5.43206 27.4363 5.85182 27.4172 6.26602 27.3538C8.26094 27.0525 9.83281 25.8055 10.2708 24.1767C10.6364 22.817 10.158 21.4105 8.95805 20.3179Z" fill="#4385F5"/>
<path id="Vector_3" d="M17.1094 15.5225V18.2569H22.2656V21.3819H17.1094V24.1163H22.2656V27.2413H13.6719V12.3975H22.2656V15.5225H17.1094Z" fill="#FABC05"/>
</g>
</g>
</g>
</svg>
