<svg xmlns="http://www.w3.org/2000/svg" width="34" height="34" viewBox="0 0 34 34" fill="none">
  <g clip-path="url(#clip0_224_163)">
    <path d="M31.9696 17.1717C31.6834 12.0529 28.7046 7.52204 24.4234 5.04688H28.2069C28.6195 6.2038 29.7148 7.03906 31.0117 7.03906C32.6595 7.03906 34 5.69859 34 4.05078C34 2.40298 32.6595 1.0625 31.0117 1.0625C29.7148 1.0625 28.6195 1.89776 28.2069 3.05469H19.9883V1.0625H14.0117V3.05469H5.79308C5.3805 1.89776 4.2852 1.0625 2.98828 1.0625C1.34048 1.0625 0 2.40298 0 4.05078C0 5.69859 1.34048 7.03906 2.98828 7.03906C4.2852 7.03906 5.3805 6.2038 5.79308 5.04621H9.57671C5.29543 7.5221 2.31671 12.051 2.03037 17.1717C0.853852 17.5734 0 18.6774 0 19.9883C0 21.6361 1.34048 22.9766 2.98828 22.9766C4.63609 22.9766 5.97656 21.6361 5.97656 19.9883C5.97656 18.7183 5.17683 17.6381 4.05736 17.2062C4.4113 11.542 8.5265 6.75916 14.0117 5.44983V7.03906H19.9883V5.44983C25.4735 6.75916 29.5887 11.542 29.9426 17.2062C28.8232 17.6381 28.0234 18.7183 28.0234 19.9883C28.0234 21.6361 29.3639 22.9766 31.0117 22.9766C32.6595 22.9766 34 21.6361 34 19.9883C34 18.6774 33.1461 17.5734 31.9696 17.1717Z" fill="white"/>
    <path d="M10.0273 28.9531H23.9727V32.9375H10.0273V28.9531Z" fill="white"/>
    <path d="M9.88867 19.9445L13.3963 26.961H20.6046L24.1122 19.9445L17.9965 9.75171V20.9844H16.0044V9.75171L9.88867 19.9445Z" fill="white"/>
  </g>
  <defs>
    <clipPath id="clip0_224_163">
      <rect width="34" height="34" fill="white"/>
    </clipPath>
  </defs>
</svg>