<svg xmlns="http://www.w3.org/2000/svg" width="38" height="38" viewBox="0 0 38 38" fill="none">
  <path d="M35.7143 26.7142H25.4286L22.8571 29.2857H15.1429L12.5714 26.7142H2.28571C1.94472 26.7142 1.6177 26.8497 1.37658 27.0908C1.13546 27.3319 1 27.659 1 27.9999C1 29.3639 1.54184 30.672 2.50631 31.6365C3.47078 32.601 4.77889 33.1428 6.14286 33.1428H31.8571C33.2211 33.1428 34.5292 32.601 35.4937 31.6365C36.4582 30.672 37 29.3639 37 27.9999C37 27.659 36.8645 27.3319 36.6234 27.0908C36.3823 26.8497 36.0553 26.7142 35.7143 26.7142Z" fill="white"/>
  <path d="M16.2108 26.7143H21.7908L24.3623 24.1428H34.4294V7.42855C34.4294 6.74656 34.1585 6.09251 33.6763 5.61027C33.194 5.12803 32.54 4.85712 31.858 4.85712H6.14369C5.46171 4.85712 4.80766 5.12803 4.32542 5.61027C3.84318 6.09251 3.57227 6.74656 3.57227 7.42855V24.1428H13.6394L16.2108 26.7143ZM23.2308 13.4843C23.111 13.3644 23.0159 13.2221 22.951 13.0654C22.8861 12.9088 22.8527 12.7409 22.8527 12.5714C22.8527 12.229 22.9887 11.9007 23.2308 11.6585C23.4729 11.4164 23.8013 11.2804 24.1437 11.2804C24.3132 11.2804 24.4811 11.3138 24.6377 11.3787C24.7944 11.4436 24.9367 11.5387 25.0565 11.6585L27.628 14.23C27.7485 14.3495 27.8441 14.4917 27.9094 14.6484C27.9747 14.8051 28.0083 14.9731 28.0083 15.1428C28.0083 15.3126 27.9747 15.4806 27.9094 15.6373C27.8441 15.794 27.7485 15.9362 27.628 16.0557L25.0565 18.6271C24.937 18.7476 24.7948 18.8433 24.6381 18.9085C24.4815 18.9738 24.3134 19.0074 24.1437 19.0074C23.974 19.0074 23.8059 18.9738 23.6492 18.9085C23.4926 18.8433 23.3504 18.7476 23.2308 18.6271C23.1103 18.5076 23.0147 18.3654 22.9494 18.2087C22.8841 18.052 22.8505 17.884 22.8505 17.7143C22.8505 17.5445 22.8841 17.3765 22.9494 17.2198C23.0147 17.0631 23.1103 16.9209 23.2308 16.8014L24.9023 15.1428L23.2308 13.4843ZM16.4937 18.6271L19.0651 10.9128C19.1192 10.7524 19.2042 10.6042 19.3155 10.4767C19.4268 10.3492 19.5622 10.2449 19.7138 10.1697C19.8654 10.0944 20.0304 10.0498 20.1992 10.0384C20.3681 10.0269 20.5376 10.0488 20.698 10.1028C20.8584 10.1569 21.0066 10.242 21.1341 10.3533C21.2616 10.4646 21.3659 10.5999 21.4412 10.7515C21.5164 10.9031 21.561 11.0681 21.5725 11.2369C21.5839 11.4058 21.562 11.5753 21.508 11.7357L18.9366 19.45C18.8439 19.6981 18.6768 19.9116 18.4581 20.0612C18.2395 20.2108 17.98 20.2892 17.7151 20.2857C17.5758 20.2822 17.4375 20.2606 17.3037 20.2214C17.1431 20.1677 16.9946 20.0828 16.8669 19.9716C16.7391 19.8604 16.6346 19.725 16.5593 19.5733C16.4841 19.4216 16.4395 19.2565 16.4283 19.0875C16.417 18.9185 16.4392 18.7489 16.4937 18.5885V18.6271ZM10.3737 16.0557C10.2532 15.9362 10.1575 15.794 10.0923 15.6373C10.027 15.4806 9.99338 15.3126 9.99338 15.1428C9.99338 14.9731 10.027 14.8051 10.0923 14.6484C10.1575 14.4917 10.2532 14.3495 10.3737 14.23L12.9451 11.6585C13.1872 11.4164 13.5156 11.2804 13.858 11.2804C14.2004 11.2804 14.5287 11.4164 14.7708 11.6585C15.0129 11.9007 15.149 12.229 15.149 12.5714C15.149 12.9138 15.0129 13.2422 14.7708 13.4843L13.0994 15.1428L14.7708 16.8014C14.8913 16.9209 14.987 17.0631 15.0523 17.2198C15.1175 17.3765 15.1511 17.5445 15.1511 17.7143C15.1511 17.884 15.1175 18.052 15.0523 18.2087C14.987 18.3654 14.8913 18.5076 14.7708 18.6271C14.6513 18.7476 14.5091 18.8433 14.3524 18.9085C14.1958 18.9738 14.0277 19.0074 13.858 19.0074C13.6883 19.0074 13.5202 18.9738 13.3635 18.9085C13.2068 18.8433 13.0646 18.7476 12.9451 18.6271L10.3737 16.0557Z" fill="white"/>
</svg>