<svg xmlns="http://www.w3.org/2000/svg" width="34" height="34" viewBox="0 0 34 34" fill="none">
  <g clip-path="url(#clip0_224_86)">
    <path fill-rule="evenodd" clip-rule="evenodd" d="M10.1568 10.6317C8.74471 12.1865 7.85559 14.2248 7.76608 16.4688H4.59053C4.35612 15.5863 3.5518 14.9358 2.59542 14.9358C1.45543 14.9358 0.53125 15.8599 0.53125 17C0.53125 18.1401 1.45543 19.0642 2.59549 19.0642C3.55187 19.0642 4.35618 18.4138 4.5906 17.5312H7.78341C7.93508 19.5927 8.76303 21.466 10.0461 22.9306L6.69382 26.2228C6.1206 25.7954 5.40959 25.5424 4.63954 25.5424C2.73946 25.5424 1.1991 27.0827 1.1991 28.9827C1.1991 30.8828 2.73946 32.4232 4.63954 32.4232C6.53962 32.4232 8.07998 30.8829 8.07998 28.9827C8.07998 28.235 7.84132 27.5431 7.43617 26.9787L10.7882 23.6867C12.3067 25.0662 14.2866 25.9464 16.4688 26.07V29.4093C15.5862 29.6437 14.9358 30.4481 14.9358 31.4044C14.9358 32.5446 15.8599 33.4688 17 33.4688C18.1401 33.4688 19.0642 32.5446 19.0642 31.4045C19.0642 30.4482 18.4139 29.6438 17.5312 29.4094V26.0701C19.6542 25.9497 21.5854 25.113 23.087 23.7975L26.3792 27.1498C25.9518 27.7231 25.6988 28.434 25.6988 29.2041C25.6988 31.1042 27.2392 32.6445 29.1392 32.6445C31.0393 32.6445 32.5796 31.1042 32.5796 29.2041C32.5796 27.304 31.0393 25.7637 29.1392 25.7637C28.3915 25.7637 27.6995 26.0024 27.1352 26.4075L23.8432 23.0555C25.1896 21.5733 26.0607 19.6517 26.2166 17.5313H29.4094C29.6438 18.4139 30.4481 19.0643 31.4045 19.0643C32.5446 19.0642 33.4688 18.1401 33.4688 17C33.4688 15.8599 32.5446 14.9358 31.4045 14.9358C30.4481 14.9358 29.6438 15.5862 29.4094 16.4688H26.2339C26.1467 14.2843 25.3017 12.2949 23.954 10.7565L27.3062 7.46426C27.8794 7.89172 28.5904 8.14473 29.3605 8.14473C31.2605 8.14473 32.8009 6.60437 32.8009 4.70435C32.8009 2.80427 31.2605 1.26391 29.3605 1.26391C27.4604 1.26391 25.92 2.8042 25.92 4.70435C25.92 5.45209 26.1587 6.14404 26.5638 6.70836L23.2118 10.0003C21.6933 8.62093 19.7134 7.74064 17.5312 7.61693V4.5906C18.4137 4.35618 19.0642 3.55187 19.0642 2.59549C19.0642 1.45543 18.1401 0.53125 17 0.53125C15.8599 0.53125 14.9358 1.45543 14.9358 2.59549C14.9358 3.55187 15.5862 4.35618 16.4688 4.5906V7.617C14.3457 7.73739 12.4144 8.57404 10.9129 9.88955L7.62072 6.53736C8.04817 5.96408 8.30118 5.25313 8.30118 4.48309C8.30118 2.583 6.76082 1.04264 4.8608 1.04264C2.96072 1.04264 1.42036 2.583 1.42036 4.48309C1.42036 6.38317 2.96066 7.92353 4.8608 7.92353C5.60854 7.92353 6.30049 7.68486 6.86481 7.27972L10.1568 10.6317ZM12.0954 14.1392H14.2418V18.2243L12.0954 18.2244C10.972 18.2244 10.0528 17.3052 10.0528 16.1817C10.0528 15.0583 10.972 14.1392 12.0954 14.1392ZM15.3043 13.8395C16.7348 13.3347 18.0835 12.4803 19.263 11.8171C19.4604 11.7061 19.6847 11.708 19.8802 11.8223C20.0757 11.9367 20.1872 12.1312 20.1872 12.3577V15.0017L20.2462 15.0015C20.9128 15.0015 21.4532 15.5419 21.4532 16.2085C21.4532 16.8751 20.9128 17.4155 20.2462 17.4155L20.1872 17.4153V19.9257C20.1872 20.1579 20.0695 20.3571 19.866 20.4691C19.6626 20.581 19.4313 20.5739 19.2351 20.4496C18.0211 19.6806 16.7414 18.9105 15.3043 18.4752V13.8395ZM21.8993 14.5242C21.6918 14.3167 21.6918 13.9804 21.8993 13.7729L22.5015 13.1707C22.7089 12.9632 23.0453 12.9632 23.2527 13.1707C23.4602 13.3781 23.4602 13.7145 23.2527 13.9219L22.6505 14.5242C22.4431 14.7316 22.1067 14.7316 21.8993 14.5242ZM21.8048 18.605C21.5973 18.3975 21.5973 18.0612 21.8048 17.8537C22.0122 17.6463 22.3486 17.6463 22.556 17.8537L23.1582 18.456C23.3657 18.6634 23.3657 18.9998 23.1582 19.2072C22.9508 19.4147 22.6144 19.4147 22.407 19.2072L21.8048 18.605ZM23.0955 16.7398C22.8021 16.7398 22.5642 16.5019 22.5642 16.2085C22.5642 15.9151 22.8021 15.6773 23.0955 15.6773H23.9472C24.2406 15.6773 24.4785 15.9151 24.4785 16.2085C24.4785 16.5019 24.2406 16.7398 23.9472 16.7398H23.0955ZM14.2418 19.3042V21.952H13.8488C13.2306 21.952 12.7264 21.4477 12.7264 20.8295V19.2869H14.1498C14.1806 19.2925 14.2112 19.2983 14.2418 19.3042Z" fill="white"/>
  </g>
  <defs>
    <clipPath id="clip0_224_86">
      <rect width="34" height="34" fill="white"/>
    </clipPath>
  </defs>
</svg>