<svg width="28" height="28" viewBox="0 0 28 28" fill="none" xmlns="http://www.w3.org/2000/svg">
<path fill-rule="evenodd" clip-rule="evenodd" d="M11.25 7.00002C11.25 6.81232 11.3434 6.43101 11.7096 6.09201C12.0644 5.76341 12.7411 5.41669 14 5.41669C15.2589 5.41669 15.9356 5.76341 16.2904 6.09201C16.6566 6.43101 16.75 6.81232 16.75 7.00002V8.87787H11.25V7.00002ZM9.75 7.00002C9.75 6.40994 10.0066 5.62459 10.6904 4.99137C11.3856 4.34774 12.4589 3.91669 14 3.91669C15.5411 3.91669 16.6144 4.34774 17.3096 4.99137C17.9934 5.62459 18.25 6.40994 18.25 7.00002V8.87787H21.082C21.4963 8.87787 21.832 9.21365 21.832 9.62787V20.661C21.832 21.2799 21.5841 21.8722 21.1448 22.308C20.7057 22.7435 20.1114 22.9871 19.4931 22.9871H8.37023C7.75184 22.9871 7.15757 22.7435 6.71847 22.308C6.27917 21.8722 6.03125 21.2799 6.03125 20.661V9.62787C6.03125 9.21365 6.36704 8.87787 6.78125 8.87787H9.75V7.00002ZM9.75 12.8334V10.3779H7.53125V20.661C7.53125 20.8781 7.61815 21.0876 7.77483 21.243C7.93171 21.3986 8.14577 21.4871 8.37023 21.4871H19.4931C19.7175 21.4871 19.9316 21.3986 20.0885 21.243C20.2451 21.0876 20.332 20.8781 20.332 20.661V10.3779H18.25V12.8334H16.75V10.3779H11.25V12.8334H9.75Z" fill="#3F403F"/>
</svg>
