<svg width="232" height="220" viewBox="0 0 232 220" fill="none" xmlns="http://www.w3.org/2000/svg">
<rect width="232" height="220" fill="#F5F5F5"/>
<g clip-path="url(#clip0_0_1)">
<rect width="1920" height="11580" transform="translate(-364 -4478)" fill="white"/>
<g filter="url(#filter0_d_0_1)">
<g clip-path="url(#clip1_0_1)">
<g filter="url(#filter1_d_0_1)">
<rect x="-64" y="-15" width="1320" height="250" rx="20" fill="white"/>
</g>
<circle cx="95" cy="174" r="255" fill="#F8FAFC"/>
<g clip-path="url(#clip2_0_1)">
<path d="M57.3233 128.561L57.0762 128.303L58.6258 126.822L58.8729 127.081L57.3233 128.561ZM60.4183 125.591L60.1669 125.336C60.6711 124.84 61.1752 124.328 61.6694 123.813L61.9265 124.061C61.4309 124.578 60.9239 125.093 60.4183 125.591ZM63.3933 122.492L63.1291 122.252C63.6033 121.731 64.0803 121.192 64.5473 120.65L64.8173 120.884C64.3474 121.426 63.8689 121.968 63.3933 122.492ZM66.1998 119.238L65.9242 119.011C66.3698 118.467 66.8197 117.905 67.2596 117.34L67.5409 117.561C67.0982 118.127 66.6468 118.692 66.1998 119.238ZM68.8421 115.85L68.5564 115.637C68.9749 115.074 69.3991 114.49 69.8133 113.905L70.1046 114.112C69.6876 114.699 69.2634 115.284 68.8421 115.85ZM71.3272 112.346L71.0316 112.146C71.4315 111.555 71.8257 110.96 72.2127 110.361L72.5127 110.556C72.1242 111.155 71.7285 111.753 71.3272 112.346ZM90.8899 109.866C90.2315 109.866 89.5659 109.739 88.966 109.499L89.0989 109.167C89.6573 109.39 90.2758 109.509 90.8899 109.509C90.9784 109.5 91.0441 109.507 91.1213 109.503L91.1384 109.861C91.0556 109.865 90.957 109.859 90.8899 109.866ZM93.2608 109.256L93.0823 108.947C93.6707 108.606 94.162 108.109 94.5062 107.507L94.8161 107.684C94.4405 108.34 93.9035 108.885 93.2608 109.256ZM73.661 108.739L73.3582 108.551C73.7338 107.944 74.1037 107.334 74.4679 106.72L74.775 106.903C74.4094 107.519 74.038 108.132 73.661 108.739ZM87.1565 108.242C86.6766 107.724 86.2809 107.1 85.981 106.387L86.3095 106.248C86.5923 106.923 86.9651 107.511 87.4178 107.999L87.1565 108.242ZM95.4074 105.553L95.0504 105.546L95.0518 105.45C95.0518 104.914 94.9433 104.389 94.7362 103.931C94.6819 103.812 94.6233 103.695 94.5591 103.582L94.8704 103.406C94.9404 103.529 95.0047 103.655 95.0618 103.784C95.2889 104.287 95.4089 104.864 95.4089 105.45L95.4074 105.553ZM75.9961 105.178L75.7219 104.948C76.1847 104.395 76.6974 103.874 77.243 103.401L77.4772 103.671C76.9459 104.131 76.4475 104.639 75.9961 105.178ZM85.4283 104.27C85.3883 103.931 85.3669 103.584 85.3669 103.236C85.3669 102.857 85.3911 102.471 85.4397 102.088L85.7939 102.132C85.7468 102.501 85.7239 102.873 85.7239 103.236C85.7239 103.569 85.7439 103.903 85.7825 104.227L85.4283 104.27ZM79.1797 102.42L78.9912 102.115C79.5968 101.739 80.2438 101.403 80.9136 101.114L81.055 101.443C80.4023 101.724 79.771 102.053 79.1797 102.42ZM93.1851 102.052C92.6652 101.656 92.0511 101.314 91.3612 101.035L91.494 100.703C92.2153 100.994 92.8566 101.353 93.4008 101.767L93.1851 102.052ZM83.0531 100.746L82.9588 100.402C83.6558 100.211 84.3714 100.07 85.0841 99.9811L85.1283 100.336C84.4328 100.422 83.7344 100.56 83.0531 100.746ZM89.3388 100.449C88.6618 100.32 87.9563 100.246 87.2393 100.229L87.2479 99.871C87.9834 99.8896 88.709 99.9653 89.4045 100.098L89.3388 100.449ZM86.2867 100.088L85.951 99.9682C86.1952 99.2903 86.5123 98.6296 86.8937 98.0046L87.1979 98.192C86.8294 98.7941 86.5223 99.4319 86.2867 100.088ZM88.4704 96.513L88.2091 96.2698C88.3133 96.1583 88.419 96.0481 88.529 95.9395C88.9275 95.5433 89.3674 95.1686 89.8358 94.8268L90.0472 95.1157C89.593 95.4489 89.1674 95.8107 88.7804 96.1955C88.6733 96.2984 88.5704 96.4043 88.4704 96.513ZM91.8497 94.0202L91.6911 93.6998C92.3367 93.3795 93.0151 93.1092 93.7064 92.8975L93.8107 93.2393C93.1365 93.4453 92.4767 93.7084 91.8497 94.0202ZM95.8773 92.7059L95.7888 92.3598C96.4872 92.181 97.1813 91.9936 97.8526 91.802L97.9497 92.1452C97.2756 92.3383 96.5786 92.5271 95.8773 92.7059ZM100.008 91.5303L99.9007 91.1885C100.589 90.9711 101.272 90.7451 101.929 90.5149L102.047 90.8524C101.386 91.0855 100.701 91.3129 100.008 91.5303ZM104.063 90.1101L103.934 89.7769C104.602 89.5166 105.268 89.2449 105.911 88.9674L106.052 89.2949C105.404 89.5752 104.735 89.8498 104.063 90.1101ZM108.007 88.4039L107.853 88.0822L109.78 87.1454L109.936 87.4672L108.007 88.4039ZM111.862 86.529L111.707 86.2072L113.633 85.269L113.789 85.5908L111.862 86.529ZM115.716 84.6526L115.56 84.3308L117.487 83.3927L117.642 83.7144L115.716 84.6526ZM119.569 82.7777L119.413 82.4559L121.34 81.5177L121.496 81.8395L119.569 82.7777ZM123.422 80.9013L123.267 80.5795L125.194 79.6414L125.349 79.9631L123.422 80.9013Z" fill="#19891C"/>
<path d="M116.84 14.4162C116.84 14.4905 116.84 14.5606 116.848 14.635H163.805C163.683 10.7592 160.313 7.65151 156.181 7.65151C154.855 7.65151 153.613 7.97043 152.527 8.52819C152.585 5.51199 151.136 2.62307 148.47 1.07277C144.468 -1.24981 139.233 0.326231 136.782 4.59526C136.045 5.8824 135.64 7.26679 135.548 8.64118C133.596 7.7459 131.177 7.21388 128.551 7.21388C122.083 7.21388 116.84 10.4389 116.84 14.4162Z" fill="white"/>
<path d="M38.7197 124.288H0L0.00428474 124.149C0.107118 120.869 2.90934 118.299 6.38283 118.299C7.37403 118.299 8.35667 118.519 9.24075 118.935C9.26646 116.424 10.5519 114.137 12.6328 112.928C14.1825 112.029 16.0149 111.797 17.7917 112.275C19.7269 112.794 21.3594 114.068 22.3892 115.863C22.9605 116.861 23.3004 117.93 23.4018 119.044C25.0514 118.322 26.9867 117.941 29.0148 117.941C34.3793 117.941 38.7426 120.648 38.7426 123.975C38.7426 124.041 38.7426 124.104 38.734 124.169L38.7197 124.288ZM0.278508 124.019H38.4741C38.4741 124.005 38.4741 123.989 38.4741 123.975C38.4741 120.796 34.2308 118.21 29.0134 118.21C26.9524 118.21 24.99 118.61 23.3375 119.367L23.1604 119.449L23.1476 119.255C23.0719 118.113 22.7377 117.017 22.155 115.999C21.1609 114.267 19.5855 113.037 17.7202 112.537C16.0121 112.077 14.2525 112.301 12.7657 113.163C10.709 114.357 9.4607 116.653 9.50783 119.151L9.51212 119.376L9.31216 119.273C8.41665 118.812 7.40403 118.569 6.3814 118.569C3.10358 118.568 0.449898 120.952 0.278508 124.019Z" fill="#19891C"/>
<mask id="mask0_0_1" style="mask-type:luminance" maskUnits="userSpaceOnUse" x="114" y="64" width="109" height="65">
<path d="M114.434 120.425C114.434 124.995 118.133 128.699 122.696 128.699H214.471C219.034 128.699 222.733 124.995 222.733 120.425V64.5117H114.434V120.425Z" fill="white"/>
</mask>
<g mask="url(#mask0_0_1)">
<path d="M114.434 120.425C114.434 124.995 118.133 128.699 122.696 128.699H214.471C219.034 128.699 222.733 124.995 222.733 120.425V64.5117H114.434V120.425Z" fill="white"/>
</g>
<mask id="mask1_0_1" style="mask-type:luminance" maskUnits="userSpaceOnUse" x="114" y="64" width="109" height="65">
<path d="M114.434 120.425C114.434 124.995 118.133 128.699 122.696 128.699H214.471C219.034 128.699 222.733 124.995 222.733 120.425V64.5117H114.434V120.425Z" fill="white"/>
</mask>
<g mask="url(#mask1_0_1)">
<path d="M108.766 78.7691C110.032 74.7046 114.038 71.5854 118.412 71.255C122.789 70.9247 127.255 73.4045 129.17 77.2288C131.498 77.2073 133.793 78.5002 134.924 80.471C136.056 82.4417 135.976 85.0074 134.724 86.9052C137.498 87.3858 139.986 89.2135 141.213 91.6677C142.44 94.1218 142.373 97.1423 141.039 99.5393C144.091 97.9861 147.993 98.1277 150.921 99.8968C153.849 101.667 155.694 105 155.591 108.338C157.492 105.351 161.137 103.491 164.76 103.657C168.384 103.823 171.839 106.006 173.45 109.153C175.151 104.056 179.687 99.9426 185.053 98.6268C190.42 97.3125 196.44 98.8399 200.457 102.535C206.497 103.482 210.9 110.05 209.326 115.766C212.59 118.47 214.256 122.865 213.575 126.965C212.892 131.064 209.884 134.725 205.911 136.292L101.979 136.224L93.1211 96.5202L108.766 78.7691Z" fill="#AAE0AB"/>
</g>
<mask id="mask2_0_1" style="mask-type:luminance" maskUnits="userSpaceOnUse" x="114" y="64" width="109" height="65">
<path d="M114.434 120.425C114.434 124.995 118.133 128.699 122.696 128.699H214.471C219.034 128.699 222.733 124.995 222.733 120.425V64.5117H114.434V120.425Z" fill="white"/>
</mask>
<g mask="url(#mask2_0_1)">
<g opacity="0.8">
<path d="M107.118 91.9564C108.345 87.8904 112.217 84.7684 116.445 84.4338C120.672 84.0991 124.986 86.5761 126.832 90.399C129.082 90.3761 131.298 91.6661 132.39 93.6368C133.481 95.6076 133.402 98.1733 132.191 100.071C134.87 100.55 137.273 102.375 138.457 104.829C139.641 107.283 139.574 110.302 138.283 112.701C141.232 111.145 145.002 111.284 147.83 113.051C150.658 114.819 152.438 118.151 152.336 121.488C154.175 118.5 157.698 116.637 161.199 116.8C164.699 116.963 168.034 119.144 169.59 122.289C171.236 117.192 175.623 113.073 180.809 111.754C185.995 110.435 191.81 111.959 195.688 115.651C201.522 116.592 205.771 123.157 204.246 128.875C207.397 131.576 209.005 135.97 208.342 140.07C207.68 144.17 204.77 147.833 200.931 149.402L100.518 149.417L91.9902 109.719L107.118 91.9564Z" fill="white"/>
</g>
</g>
<mask id="mask3_0_1" style="mask-type:luminance" maskUnits="userSpaceOnUse" x="114" y="64" width="109" height="65">
<path d="M114.434 120.425C114.434 124.995 118.133 128.699 122.696 128.699H214.471C219.034 128.699 222.733 124.995 222.733 120.425V64.5117H114.434V120.425Z" fill="white"/>
</mask>
<g mask="url(#mask3_0_1)">
<path opacity="0.4" d="M186.948 66.3022C156.868 94.628 135.537 102.265 108.664 104.997L106.879 133.6L135.087 143.253C159.724 142.538 183.38 106.824 197.992 76.1861L186.948 66.3022Z" fill="#AAE0AB"/>
<path d="M191.184 66.6697C186.294 72.4633 178.918 78.0051 170.219 85.4906L182.089 80.6466C180.634 83.0622 178.514 86.4416 177.326 87.8918C180.061 86.6276 184.464 83.8459 185.922 82.37C185.921 84.428 183.446 87.8704 182.366 89.751C188.697 84.325 194.456 77.7019 196.317 71.8826L191.184 66.6697Z" fill="#19891C"/>
<path opacity="0.4" d="M192.571 66.9629C189.678 70.8029 185.348 74.5041 180.23 79.4897L187.157 76.1989C186.289 77.7935 185.027 80.026 184.324 80.987C185.922 80.1318 188.5 78.2669 189.361 77.2872C189.34 78.633 187.87 80.9112 187.225 82.1526C190.948 78.5386 194.353 74.1466 195.491 70.3209L192.571 66.9629Z" fill="white"/>
</g>
<path d="M147.655 86.642C147.694 87.5373 147.654 89.0489 146.761 89.5666C145.27 90.4319 144.096 88.3324 143.549 87.277C142.896 86.017 143.063 84.4538 144.54 83.8918C146.491 83.1495 147.584 84.9701 147.655 86.642Z" fill="#AAE0AB"/>
<path d="M218.37 113.831C218.408 114.726 218.369 116.238 217.476 116.755C215.985 117.621 214.811 115.521 214.264 114.466C213.611 113.206 213.778 111.643 215.255 111.08C217.206 110.338 218.299 112.159 218.37 113.831Z" fill="#AAE0AB"/>
<path d="M139.73 77.7635C140.42 77.7635 140.98 77.2033 140.98 76.5121C140.98 75.821 140.42 75.2607 139.73 75.2607C139.04 75.2607 138.48 75.821 138.48 76.5121C138.48 77.2033 139.04 77.7635 139.73 77.7635Z" fill="#AAE0AB"/>
<path d="M204.137 100.796C205.078 100.327 205.462 99.184 204.995 98.2421C204.527 97.3002 203.385 96.9165 202.444 97.385C201.503 97.8536 201.119 98.9969 201.587 99.9388C202.054 100.881 203.196 101.264 204.137 100.796Z" fill="#AAE0AB"/>
<path d="M214.472 128.878H122.699C118.044 128.878 114.258 125.086 114.258 120.426V64.3333H222.914V120.426C222.913 125.086 219.127 128.878 214.472 128.878ZM114.613 64.6908V120.426C114.613 124.889 118.24 128.52 122.697 128.52H214.472C218.93 128.52 222.556 124.889 222.556 120.426V64.6908H114.613Z" fill="#19891C"/>
<path d="M214.471 42.8508H122.698C118.135 42.8508 114.436 46.5535 114.436 51.1243V64.5135H222.735V51.1243C222.734 46.5535 219.035 42.8508 214.471 42.8508Z" fill="white"/>
<path d="M222.913 64.6908H114.256V51.1229C114.256 46.462 118.042 42.6707 122.697 42.6707H214.472C219.126 42.6707 222.913 46.462 222.913 51.1229V64.6908ZM114.613 64.3333H222.555V51.1229C222.555 46.6594 218.929 43.0282 214.472 43.0282H122.698C118.241 43.0282 114.614 46.6594 114.614 51.1229V64.3333H114.613Z" fill="#19891C"/>
<path d="M129.783 54.5857C130.28 52.1304 128.696 49.736 126.244 49.2376C123.792 48.7393 121.401 50.3258 120.903 52.7811C120.405 55.2364 121.99 57.6308 124.442 58.1291C126.894 58.6274 129.285 57.041 129.783 54.5857Z" fill="#AAE0AB"/>
<path d="M141.89 56.8896C143.659 55.118 143.659 52.2457 141.89 50.4741C140.12 48.7026 137.252 48.7026 135.483 50.4741C133.714 52.2457 133.714 55.118 135.483 56.8896C137.252 58.6612 140.12 58.6612 141.89 56.8896Z" fill="white"/>
<path d="M138.687 58.3965C136.091 58.3965 133.979 56.2813 133.979 53.6813C133.979 51.0813 136.091 48.9661 138.687 48.9661C141.284 48.9661 143.396 51.0813 143.396 53.6813C143.396 56.2813 141.284 58.3965 138.687 58.3965ZM138.687 49.3236C136.288 49.3236 134.336 51.2786 134.336 53.6813C134.336 56.084 136.288 58.039 138.687 58.039C141.087 58.039 143.039 56.084 143.039 53.6813C143.039 51.2786 141.087 49.3236 138.687 49.3236Z" fill="#19891C"/>
<path d="M173.17 58.0105H155.134C152.746 58.0105 150.811 56.0726 150.811 53.6814C150.811 51.2902 152.746 49.3523 155.134 49.3523H173.17C175.558 49.3523 177.493 51.2902 177.493 53.6814C177.493 56.0726 175.558 58.0105 173.17 58.0105Z" fill="white"/>
<path d="M173.171 58.1893H155.135C152.652 58.1893 150.633 56.1671 150.633 53.6814C150.633 51.1958 152.652 49.1736 155.135 49.1736H173.171C175.653 49.1736 177.672 51.1958 177.672 53.6814C177.672 56.1671 175.653 58.1893 173.171 58.1893ZM155.133 49.5311C152.848 49.5311 150.988 51.3932 150.988 53.6814C150.988 55.9697 152.848 57.8318 155.133 57.8318H173.169C175.454 57.8318 177.314 55.9697 177.314 53.6814C177.314 51.3932 175.454 49.5311 173.169 49.5311H155.133Z" fill="#19891C"/>
<path d="M209.98 32.9812C202.747 39.3211 190.273 34.9505 186.396 40.0133L197.473 48.7959L209.98 32.9812Z" fill="#19891C"/>
<path d="M186.397 40.0146C185.843 41.492 186.143 43.1538 187.18 44.3423L195.028 53.3437L197.473 48.7973L186.397 40.0146Z" fill="#0F5E11"/>
<path d="M226.372 45.9797C221.868 54.482 228.975 65.6387 224.941 70.577L213.865 61.7944L226.372 45.9797Z" fill="#19891C"/>
<path d="M224.941 70.577C223.633 71.4552 221.947 71.5438 220.555 70.8059L210.006 65.2197L213.865 61.7944L224.941 70.577Z" fill="#0F5E11"/>
<path d="M232.001 22.0847L222.139 25.7102L230.737 32.5277L232.001 22.0847Z" fill="#19891C"/>
<path d="M230.737 32.5277C229.359 48.1522 217.83 62.7327 203.826 70.8303L191.064 60.7219C196.419 43.8532 206.391 31.7812 222.137 25.7087L230.737 32.5277Z" fill="#AAE0AB"/>
<path d="M191.065 60.7219L185.529 64.5605L201.361 77.1144L203.825 70.8303L191.065 60.7219Z" fill="#19891C"/>
<path d="M219.136 45.1176C222.384 44.7307 224.704 41.7804 224.318 38.5278C223.932 35.2752 220.985 32.952 217.737 33.3389C214.489 33.7257 212.169 36.6761 212.555 39.9287C212.941 43.1813 215.888 45.5044 219.136 45.1176Z" fill="white"/>
<path d="M218.886 43.4386L218.849 43.0825C219.188 43.0468 219.521 42.9653 219.841 42.8408L219.97 43.1741C219.621 43.3114 219.256 43.4 218.886 43.4386ZM217.77 43.41C217.4 43.3514 217.04 43.2441 216.702 43.0897L216.849 42.7636C217.16 42.9038 217.489 43.0024 217.826 43.0568L217.77 43.41ZM220.945 42.6377L220.734 42.3503C221.007 42.1472 221.254 41.9084 221.466 41.6395L221.746 41.8612C221.514 42.1544 221.245 42.4161 220.945 42.6377ZM215.755 42.5005C215.465 42.2616 215.209 41.987 214.994 41.6838L215.285 41.4765C215.482 41.7539 215.716 42.0056 215.982 42.2244L215.755 42.5005ZM222.182 41.1876L221.865 41.0231C222.022 40.7199 222.139 40.3967 222.212 40.062L222.561 40.1378C222.482 40.5039 222.355 40.8558 222.182 41.1876ZM214.475 40.6956C214.347 40.3452 214.265 39.9791 214.232 39.6058L214.588 39.5743C214.618 39.9162 214.692 40.2522 214.811 40.5726L214.475 40.6956ZM222.296 39.0423C222.279 38.6991 222.216 38.3616 222.111 38.0369L222.451 37.9268C222.566 38.2815 222.633 38.6505 222.653 39.0237L222.296 39.0423ZM214.632 38.5532L214.281 38.4903C214.347 38.1213 214.461 37.7638 214.621 37.4262L214.944 37.5793C214.798 37.8882 214.692 38.2157 214.632 38.5532ZM221.671 37.1159C221.484 36.8313 221.259 36.571 221.002 36.3422L221.239 36.0747C221.519 36.3236 221.765 36.6082 221.969 36.92L221.671 37.1159ZM215.499 36.7226L215.228 36.4909C215.471 36.2063 215.749 35.9546 216.058 35.7444L216.259 36.0404C215.978 36.2306 215.722 36.4609 215.499 36.7226ZM220.157 35.7701C219.851 35.6171 219.526 35.507 219.191 35.4412L219.26 35.0908C219.625 35.1637 219.981 35.2853 220.315 35.4512L220.157 35.7701ZM217.17 35.5799L217.053 35.2424C217.405 35.1208 217.773 35.045 218.146 35.0193L218.172 35.3768C217.83 35.3997 217.493 35.4684 217.17 35.5799Z" fill="#19891C"/>
<path d="M189.253 76.4293L188.97 76.2047C188.556 75.8758 188.486 75.268 188.813 74.8532L199.919 60.8091C200.248 60.3943 200.855 60.3242 201.269 60.6517L201.552 60.8763C201.966 61.2052 202.036 61.813 201.709 62.2278L190.603 76.272C190.274 76.6881 189.667 76.7582 189.253 76.4293Z" fill="#AAE0AB"/>
<path d="M208.925 198.862H206.783V198.505H208.925V198.862ZM204.641 198.862H202.498V198.505H204.641V198.862ZM200.356 198.862H198.214V198.505H200.356V198.862ZM196.071 198.862H193.929V198.505H196.071V198.862ZM191.786 198.862H189.644V198.505H191.786V198.862ZM187.502 198.862H185.359V198.505H187.502V198.862ZM183.217 198.862H181.075V198.505H183.217V198.862ZM178.932 198.862H176.79V198.505H178.932V198.862ZM174.648 198.862H172.505V198.505H174.648V198.862ZM170.363 198.862H168.22V198.505H170.363V198.862ZM166.077 198.862C165.337 198.855 164.611 198.732 163.919 198.493L164.034 198.156C164.691 198.38 165.38 198.499 166.081 198.505L166.077 198.862ZM209.184 198.858L209.171 198.5C209.871 198.475 210.555 198.337 211.206 198.093L211.332 198.427C210.644 198.685 209.922 198.831 209.184 198.858ZM161.988 197.459C161.402 197.012 160.895 196.477 160.481 195.869L160.776 195.667C161.169 196.244 161.65 196.751 162.205 197.176L161.988 197.459ZM213.232 197.339L213.007 197.062C213.55 196.621 214.017 196.101 214.393 195.513L214.693 195.706C214.296 196.325 213.803 196.874 213.232 197.339ZM159.551 193.882C159.378 193.275 159.291 192.644 159.291 192.005V191.711H159.648V192.005C159.648 192.61 159.731 193.209 159.894 193.784L159.551 193.882ZM215.564 193.695L215.218 193.606C215.35 193.086 215.417 192.547 215.417 192.005V191.523H215.774V192.005C215.774 192.577 215.704 193.144 215.564 193.695ZM159.648 189.568H159.291V187.422H159.648V189.568ZM215.774 189.377H215.417V187.232H215.774V189.377ZM159.648 185.277H159.291V183.132H159.648V185.277ZM215.774 185.087H215.417V182.942H215.774V185.087ZM159.648 180.987H159.291V178.841H159.648V180.987ZM215.774 180.796H215.417V178.651H215.774V180.796ZM159.648 176.696H159.291V174.551H159.648V176.696ZM215.774 176.506H215.417V174.361H215.774V176.506ZM159.648 172.406H159.291V170.26H159.648V172.406ZM215.774 172.215H215.417V170.07H215.774V172.215ZM159.648 168.115H159.291V166.686C159.291 166.443 159.304 166.196 159.33 165.953L159.685 165.99C159.661 166.22 159.648 166.455 159.648 166.685V168.115ZM215.774 167.925H215.417V166.685C215.417 166.392 215.397 166.096 215.358 165.805L215.712 165.758C215.754 166.063 215.774 166.375 215.774 166.685V167.925ZM160.234 163.985L159.908 163.836C160.214 163.167 160.624 162.553 161.126 162.013L161.388 162.256C160.911 162.769 160.522 163.351 160.234 163.985ZM214.753 163.819C214.446 163.194 214.04 162.623 213.55 162.124L213.804 161.874C214.321 162.4 214.748 163.002 215.073 163.662L214.753 163.819ZM163.024 160.982L162.853 160.668C163.499 160.314 164.194 160.068 164.918 159.938L164.981 160.289C164.296 160.412 163.637 160.645 163.024 160.982ZM211.878 160.894C211.256 160.577 210.592 160.362 209.902 160.258L209.955 159.905C210.684 160.015 211.385 160.241 212.04 160.575L211.878 160.894ZM207.79 160.185H205.648V159.827H207.79V160.185ZM203.505 160.185H201.363V159.827H203.505V160.185ZM199.22 160.185H197.078V159.827H199.22V160.185ZM194.936 160.185H192.793V159.827H194.936V160.185ZM190.651 160.185H188.509V159.827H190.651V160.185ZM186.366 160.185H184.224V159.827H186.366V160.185ZM182.082 160.185H179.939V159.827H182.082V160.185ZM177.797 160.185H175.654V159.827H177.797V160.185ZM173.512 160.185H171.37V159.827H173.512V160.185ZM169.227 160.185H167.085V159.827H169.227V160.185Z" fill="#19891C"/>
<path d="M205.018 192.665H159.436C156.524 192.665 154.164 190.301 154.164 187.387V158.203C154.164 155.287 156.525 152.924 159.436 152.924H205.018C207.93 152.924 210.29 155.288 210.29 158.203V187.387C210.29 190.301 207.93 192.665 205.018 192.665Z" fill="#19891C"/>
<path d="M170.001 176.137H163.924V188.495H170.001V176.137Z" fill="white"/>
<path d="M180.179 176.535H174.102V188.497H180.179V176.535Z" fill="white"/>
<path d="M190.355 170.286H184.277V188.497H190.355V170.286Z" fill="white"/>
<path d="M200.532 164.943H194.455V188.495H200.532V164.943Z" fill="white"/>
<path d="M198.53 158.52H165.922V159.948H198.53V158.52Z" fill="white"/>
<path d="M66.6378 114.127C65.6052 110.54 63.4171 107.395 60.4164 105.18L59.2109 104.29L60.2336 125.491L68.146 119.361L66.6378 114.127Z" fill="#19891C"/>
<path d="M92.0657 139.751L90.3075 136.304C89.8619 135.432 89.0721 134.785 88.128 134.524L82.9563 133.089L69.6508 124.583L68.1469 119.361L60.2344 125.491L60.3058 126.98C60.45 129.967 62.2796 132.61 65.0219 133.796L77.9418 139.376L84.0832 139.513C86.0613 140.197 86.744 141.905 87.9723 141.29C88.4294 141.061 86.6412 138.112 86.6412 138.112L89.6091 141.391L92.0657 139.751Z" fill="#FFBC96"/>
<path d="M69.5007 124.454L67.7617 126.505L68.0742 126.771L69.8132 124.72L69.5007 124.454Z" fill="#D28572"/>
<path d="M68.9219 148.339L78.6025 147.484C84.9039 146.926 90.3856 152.022 90.6926 158.722L92.8807 206.462L79.5266 206.878L68.9219 148.339Z" fill="#2F2F3D"/>
<path d="M80.6016 206.404L81.0115 219.59H100.798L91.0406 211.459L90.4265 205.105L80.6016 206.404Z" fill="#303061"/>
<path d="M90.7935 211.142L86.6309 214.353L87.1303 215.002L91.293 211.791L90.7935 211.142Z" fill="white"/>
<path d="M76.0977 206.404L76.5061 219.59H96.2945L86.5367 211.459L85.9226 205.105L76.0977 206.404Z" fill="#303061"/>
<path d="M86.2896 211.142L82.127 214.353L82.6264 215.002L86.789 211.791L86.2896 211.142Z" fill="white"/>
<path d="M90.8361 207.701H74.4599L62.7882 171.739L61.1543 166.705L37.8182 166.602C36.3771 166.582 34.9974 165.913 33.8263 164.926C31.3454 162.831 30.2028 159.539 30.6527 156.321L32.6994 141.698L67.3686 146.211C73.9443 147.068 79.2531 151.996 80.6042 158.493L90.8361 207.701Z" fill="#101033"/>
<path d="M65.9646 166.705L62.7882 171.741L61.1543 166.705H65.9646Z" fill="#1B1B43"/>
<path d="M61.6785 139.05C61.51 139.727 61.3343 140.403 61.1544 141.084L59.9261 146.105L43.754 145.433L32.111 144.95C29.0245 144.822 26.7893 141.953 27.4192 138.923L32.848 112.764C33.5435 108.316 37.1513 104.892 41.626 104.429L54.9115 103.06L59.2105 104.29C63.4067 106.546 63.411 110.632 63.611 113.309C64.4907 125.026 63.4067 132.123 61.6785 139.05Z" fill="#19891C"/>
<path opacity="0.3" d="M50.7139 138.214C50.5454 138.89 61.3343 140.403 61.1544 141.084L59.9261 146.105L43.7541 145.433C38.1039 141.165 35.9873 131.879 33.9277 120.245L50.7139 138.214Z" fill="#1B1B43"/>
<path d="M47.5012 110.627C48.2096 111.388 49.0166 112.05 49.9178 112.545C50.8162 113.04 51.7931 113.402 52.8057 113.522C53.8069 113.653 54.8652 113.568 55.7436 113.09C56.642 112.642 57.2147 111.697 57.3218 110.673L57.4818 110.683C57.4761 111.218 57.3418 111.761 57.0747 112.243C56.8062 112.725 56.3963 113.124 55.9193 113.4C54.9567 113.958 53.8155 114.058 52.7529 113.924C51.6845 113.775 50.6562 113.402 49.7436 112.844C48.8252 112.296 48.0225 111.567 47.377 110.729L47.5012 110.627Z" fill="#1B1B43"/>
<path d="M63.9685 126.609L63.6629 126.588C63.9571 122.463 63.6586 117.395 62.7773 111.521L63.0816 111.475C63.9656 117.37 64.2641 122.462 63.9685 126.609Z" fill="#1B1B43"/>
<path d="M91.4509 141.153H76.2344V144.159H91.4509V141.153Z" fill="#1B1B43"/>
<path d="M117.789 144.159H87.2207L101.277 117.238H131.846L117.789 144.159Z" fill="#101033"/>
<path d="M50.869 81.538C47.2869 78.0026 40.5313 79.4885 40.6342 85.4323C33.2644 87.3802 32.8559 95.4763 35.8238 99.6266L38.3832 99.8311L38.946 96.8078L40.4299 99.8826L47.594 100.343L50.869 81.538Z" fill="#1B1B43"/>
<path d="M56.8571 94.7585V106.052C56.8571 106.155 56.8528 106.253 56.8443 106.351C56.6686 108.675 54.4205 110.32 52.1239 109.725C48.7375 108.848 46.3838 105.781 46.4124 102.28L46.4695 94.7571H56.8571V94.7585Z" fill="#FFBC96"/>
<path d="M56.8561 99.641V106.052C56.8561 106.155 56.8518 106.253 56.8432 106.351C53.8253 105.855 50.3376 102.358 49.4863 98.5498L56.8561 99.641Z" fill="#1B1B43"/>
<path d="M62.9601 95.5949C62.8045 96.493 62.5959 97.4112 62.3174 98.2836C61.4162 101.15 59.7994 103.527 56.9044 103.113C50.1002 102.138 46.3125 95.1186 46.3125 95.1186L50.9672 89.7898L54.0907 85.5837L63.4543 89.634C63.4557 89.634 63.5043 92.5 62.9601 95.5949Z" fill="#FFBC96"/>
<path d="M48.3258 93.324C51.3123 93.2282 53.6217 91.7051 54.6029 87.3803C54.6029 87.3803 61.5628 93.3927 64.9749 90.182C67.8313 87.4933 62.9853 81.3064 54.9629 80.5684C52.0407 80.2996 49.127 81.2135 46.8376 83.0512C42.9499 86.1704 42.5771 93.427 46.212 95.9384L48.3258 93.324Z" fill="#1B1B43"/>
<path d="M44.8309 85.7397C44.6352 85.0332 44.7809 84.2509 45.0965 83.5773C45.4164 82.8994 45.9092 82.3073 46.4976 81.8496C47.0861 81.3905 47.7773 81.063 48.5029 80.91C49.227 80.7613 49.9954 80.7842 50.6638 81.0759C49.9725 81.299 49.3755 81.535 48.8128 81.8253C48.2515 82.1128 47.7345 82.446 47.2489 82.8207C46.7647 83.1968 46.3148 83.6144 45.9106 84.0878C45.5036 84.5641 45.1465 85.0861 44.8309 85.7397Z" fill="#19891C"/>
<path d="M48.4751 96.421C49.6688 95.9426 50.1684 94.3837 49.5909 92.9391C49.0135 91.4945 47.5777 90.7112 46.384 91.1896C45.1903 91.6681 44.6908 93.227 45.2682 94.6716C45.8456 96.1162 47.2814 96.8994 48.4751 96.421Z" fill="#FFBC96"/>
<path d="M47.431 95.3504C47.4824 94.8512 47.4853 94.3779 47.341 93.9445C47.1996 93.5083 46.924 93.1279 46.6055 92.7375L46.7054 92.613C47.1682 92.8547 47.561 93.2866 47.7281 93.8201C47.8966 94.3535 47.8238 94.9342 47.5838 95.3976L47.431 95.3504Z" fill="#1B1B43"/>
<path d="M58.615 93.8388C58.615 94.2622 58.305 94.6054 57.9237 94.6054C57.5424 94.6054 57.2324 94.2622 57.2324 93.8388C57.2324 93.4155 57.5424 93.0723 57.9237 93.0723C58.305 93.0723 58.615 93.4155 58.615 93.8388Z" fill="#1B1B43"/>
<path d="M62.2458 94.442C62.2001 94.8153 61.8887 95.0856 61.5517 95.0441C61.2146 95.0026 60.9775 94.6651 61.0232 94.2918C61.0689 93.9186 61.3803 93.6483 61.7173 93.6897C62.0558 93.7312 62.2915 94.0687 62.2458 94.442Z" fill="#1B1B43"/>
<path d="M58.5797 91.9151C58.6068 92.2726 58.0355 92.3069 57.1929 92.3327C56.3502 92.3584 55.7675 92.6187 55.7618 92.3928C55.7546 92.1668 56.3788 91.5847 57.21 91.4446C58.0655 91.2987 58.5469 91.4889 58.5797 91.9151Z" fill="#1B1B43"/>
<path d="M61.2716 92.2596C61.2102 92.6129 61.6301 92.703 62.2528 92.8131C62.8755 92.9218 63.2783 93.2393 63.3097 93.0162C63.3411 92.7916 62.9455 92.1524 62.3442 91.9293C61.7243 91.699 61.3458 91.8406 61.2716 92.2596Z" fill="#1B1B43"/>
<path d="M60.2698 95.0786C60.4297 95.2745 60.6068 95.4433 60.7897 95.6178L61.0653 95.8752C61.161 95.9625 61.2638 96.0568 61.3567 96.2013C61.4024 96.2742 61.4381 96.3686 61.4438 96.4745C61.4524 96.5817 61.4181 96.6847 61.3752 96.7648C61.281 96.9235 61.1681 97.0165 61.0453 97.098C60.8011 97.2596 60.5354 97.3254 60.2798 97.3754L60.2198 97.2267C60.4397 97.0837 60.6597 96.9564 60.8296 96.8091C60.9111 96.7362 60.991 96.6475 61.0196 96.5803C61.051 96.5116 61.0425 96.4887 61.0039 96.4087C60.9125 96.2599 60.6811 96.0597 60.5297 95.8523C60.364 95.6464 60.2155 95.4118 60.127 95.1544L60.2698 95.0786Z" fill="#1B1B43"/>
<path d="M56.8047 97.6028C57.2232 98.0805 57.6588 98.5224 58.183 98.8041C58.7028 99.093 59.297 99.1745 59.924 99.1059L59.9668 99.2603C59.664 99.3948 59.3227 99.4677 58.9771 99.4477C58.6314 99.4334 58.2901 99.329 57.9901 99.1631C57.386 98.827 56.9404 98.2835 56.6719 97.69L56.8047 97.6028Z" fill="#1B1B43"/>
<path opacity="0.2" d="M54.3498 97.1682C55.2829 97.1682 56.0394 96.4107 56.0394 95.4763C56.0394 94.5419 55.2829 93.7844 54.3498 93.7844C53.4166 93.7844 52.6602 94.5419 52.6602 95.4763C52.6602 96.4107 53.4166 97.1682 54.3498 97.1682Z" fill="#FE5B52"/>
<path opacity="0.2" d="M62.9605 95.595C62.8049 96.4931 62.5963 97.4113 62.3178 98.2837C62.0564 97.9848 61.8965 97.5943 61.8965 97.1639C61.8965 96.4516 62.3378 95.8452 62.9605 95.595Z" fill="#FE5B52"/>
<path d="M43.6875 115.599L33.9297 120.244L36.989 127.509L47.2209 122.784L43.6875 115.599Z" fill="#19891C"/>
<path d="M79.8305 140.791C79.5606 140.655 79.3906 140.565 79.3906 140.565L79.4877 140.372C79.4877 140.372 79.6677 140.459 79.9291 140.599L79.8305 140.791Z" fill="#C5C5FF"/>
<path d="M83.8762 141.801C83.5605 142.424 81.1454 141.321 80.0199 140.768C80.8926 141.251 82.3951 142.202 81.7267 142.723C81.1896 143.138 80.0028 142.255 76.1137 140.641C76.7035 140.92 80.1784 142.576 79.3029 143.204C78.3489 143.884 74.2555 142.384 74.2555 142.384L70.7063 144.295H66.613L51.882 144.389C50.9565 144.393 50.0396 144.275 49.1512 144.044C47.4031 143.598 45.7577 142.729 44.3609 141.56C43.4811 140.822 42.7227 139.957 42.0885 139.006C41.6144 138.292 41.2087 137.526 40.8731 136.726L36.9883 127.51L47.2188 122.784L52.5576 133.636L70.1622 137.464L75.0753 136.234C76.1322 135.968 77.6262 136.415 78.556 136.985C80.8226 138.374 84.1704 141.207 83.8762 141.801Z" fill="#FFBC96"/>
<path opacity="0.2" d="M49.4182 142.519C49.4182 143.057 49.3239 143.569 49.1525 144.043C47.4043 143.597 45.759 142.728 44.3622 141.559C43.4824 140.821 42.724 139.956 42.0898 139.005C42.864 138.381 43.8466 138.008 44.9149 138.008C47.4029 138.009 49.4182 140.026 49.4182 142.519Z" fill="#FE5B52"/>
<path d="M70.1367 137.387C71.3579 136.981 72.5947 136.631 73.8573 136.366C74.4886 136.236 75.127 136.13 75.7783 136.092C76.1039 136.073 76.4339 136.08 76.7666 136.117C76.9309 136.15 77.0951 136.193 77.2594 136.232C77.4151 136.288 77.5679 136.351 77.7221 136.409C78.9204 136.953 79.9631 137.731 80.9728 138.53C81.9812 139.335 82.9338 140.201 83.8593 141.102L83.9022 141.143L83.9107 141.196C83.9436 141.39 83.9207 141.569 83.8136 141.751C83.7479 141.827 83.6793 141.911 83.5908 141.947C83.5051 142.001 83.4194 142.023 83.3351 142.035C82.9952 142.091 82.6996 142.021 82.4153 141.945C81.8455 141.788 81.3384 141.528 80.8257 141.277C80.3244 141.009 79.8302 140.73 79.3518 140.429C78.8647 140.14 78.402 139.817 77.9278 139.51L78.1449 139.164C78.9818 139.661 79.7974 140.183 80.5758 140.775C80.9628 141.076 81.3456 141.383 81.6741 141.785C81.7526 141.892 81.8326 142 81.8869 142.146C81.9169 142.214 81.934 142.301 81.9355 142.396C81.9283 142.494 81.8969 142.599 81.8298 142.676C81.7012 142.825 81.5456 142.876 81.4142 142.908C81.277 142.944 81.1499 142.951 81.02 142.964L80.98 142.968L80.9357 142.949L76.491 141.084L76.6238 140.771C77.3237 141.094 78.0049 141.442 78.6548 141.87C78.9719 142.097 79.3046 142.301 79.5389 142.693C79.5917 142.792 79.6303 142.944 79.576 143.085C79.5203 143.222 79.4117 143.31 79.3118 143.357C79.1061 143.461 78.899 143.483 78.7005 143.494C77.9035 143.513 77.1551 143.325 76.4139 143.142C75.674 142.946 74.9456 142.716 74.2272 142.454L74.2815 142.304C74.9999 142.545 75.7312 142.758 76.4667 142.934C77.2008 143.098 77.9564 143.261 78.6862 143.224C79.0347 143.21 79.4503 143.057 79.2804 142.826C79.1204 142.557 78.7905 142.329 78.4877 142.127C77.8592 141.725 77.1751 141.388 76.4896 141.083L76.6224 140.77L81.0828 142.595L80.9985 142.58C81.1085 142.567 81.2213 142.562 81.3185 142.533C81.4184 142.512 81.4998 142.467 81.527 142.433C81.5898 142.409 81.5056 142.188 81.3656 142.023C81.0828 141.678 80.7086 141.373 80.333 141.086C79.5746 140.514 78.7605 139.996 77.9378 139.514L78.1549 139.168C78.6262 139.47 79.0818 139.796 79.5617 140.082C80.0345 140.381 80.5172 140.657 81.0071 140.921C81.5013 141.166 82.0012 141.422 82.5182 141.566C82.7724 141.639 83.0423 141.691 83.258 141.654L83.3366 141.639C83.3608 141.632 83.3751 141.618 83.3966 141.609C83.4437 141.595 83.458 141.558 83.4908 141.535C83.5308 141.473 83.5479 141.359 83.5351 141.276L83.5865 141.37C82.681 140.477 81.7269 139.618 80.7443 138.808C79.7588 138.004 78.7305 137.224 77.5964 136.692L77.1637 136.521C77.0166 136.485 76.8695 136.443 76.7209 136.411C76.4167 136.372 76.1039 136.362 75.7897 136.375C75.1599 136.401 74.5286 136.488 73.9016 136.604C72.6476 136.837 71.4064 137.159 70.1853 137.535L70.1367 137.387Z" fill="#D28572"/>
<path d="M37.0524 127.649L36.9238 127.37L47.0201 122.707L42.8139 112.853L43.0967 112.733L47.4186 122.861L37.0524 127.649Z" fill="#1B1B43"/>
<path d="M38.4965 170.806H37.9609V216.994H38.4965V170.806Z" fill="#1B1B43"/>
<path d="M51.1245 172.855H25.3318C23.5793 172.855 22.1582 171.432 22.1582 169.677C22.1582 167.923 23.5793 166.5 25.3318 166.5H51.1245C52.8769 166.5 54.298 167.923 54.298 169.677C54.298 171.434 52.8769 172.855 51.1245 172.855Z" fill="#FFA121"/>
<path d="M49.0782 220H27.3789V219.475C27.3789 216.837 29.5156 214.699 32.1492 214.699H44.3065C46.9416 214.699 49.0768 216.838 49.0768 219.475V220H49.0782Z" fill="#101033"/>
<path d="M69.4432 146.984L68.9902 147.27L114.709 219.835L115.162 219.549L69.4432 146.984Z" fill="#1B1B43"/>
<path d="M114.705 146.991L68.9688 219.539L69.4216 219.825L115.158 147.277L114.705 146.991Z" fill="#1B1B43"/>
<path d="M132.119 144.159H52.0117V150.209H132.119V144.159Z" fill="#FFA121"/>
<path d="M58.7268 47.7116C49.496 47.7116 41.9863 40.1918 41.9863 30.9487C41.9863 21.7056 49.496 14.1858 58.7268 14.1858C67.9576 14.1858 75.4673 21.7056 75.4673 30.9487C75.4673 40.1918 67.9576 47.7116 58.7268 47.7116ZM58.7268 14.5433C49.6931 14.5433 42.3434 21.9029 42.3434 30.9487C42.3434 39.9944 49.6931 47.354 58.7268 47.354C67.7605 47.354 75.1102 39.9944 75.1102 30.9487C75.1102 21.9029 67.7605 14.5433 58.7268 14.5433Z" fill="#19891C"/>
<path d="M70.0465 42.6188C80.106 42.6188 88.2609 34.453 88.2609 24.3799C88.2609 14.3069 80.106 6.14111 70.0465 6.14111C59.9869 6.14111 51.832 14.3069 51.832 24.3799C51.832 34.453 59.9869 42.6188 70.0465 42.6188Z" fill="white"/>
<path d="M70.0542 24.7262L59.9551 16.7988L60.2864 16.377L70.0414 24.034L75.4801 19.4218L75.8258 19.8322L70.0542 24.7262Z" fill="#19891C"/>
<path d="M23.1534 82.8578L20.0398 78.5516H13.5299C11.946 78.5516 10.6562 77.2602 10.6562 75.6741V66.4124C10.6562 64.8263 11.946 63.5349 13.5299 63.5349H22.7792C24.3631 63.5349 25.6528 64.8263 25.6528 66.4124V75.6741C25.6528 77.1186 24.5674 78.3385 23.1534 78.5244V82.8578ZM13.5299 63.8925C12.1416 63.8925 11.0133 65.0223 11.0133 66.4124V75.6741C11.0133 77.0642 12.1416 78.194 13.5299 78.194H20.2226L22.7963 81.7537V78.1955L22.962 78.184C24.2703 78.0896 25.2958 76.987 25.2958 75.6741V66.4124C25.2958 65.0223 24.1675 63.8925 22.7792 63.8925H13.5299Z" fill="#19891C"/>
<path d="M226.645 219.464H7.20312V220H226.645V219.464Z" fill="#1B1B43"/>
</g>
</g>
<rect x="-63.5" y="-14.5" width="1319" height="249" rx="19.5" stroke="#EAF0F5" shape-rendering="crispEdges"/>
</g>
</g>
<defs>
<filter id="filter0_d_0_1" x="-94" y="-35" width="1400" height="330" filterUnits="userSpaceOnUse" color-interpolation-filters="sRGB">
<feFlood flood-opacity="0" result="BackgroundImageFix"/>
<feColorMatrix in="SourceAlpha" type="matrix" values="0 0 0 0 0 0 0 0 0 0 0 0 0 0 0 0 0 0 127 0" result="hardAlpha"/>
<feOffset dx="10" dy="20"/>
<feGaussianBlur stdDeviation="20"/>
<feComposite in2="hardAlpha" operator="out"/>
<feColorMatrix type="matrix" values="0 0 0 0 0.267396 0 0 0 0 0.43381 0 0 0 0 0.629167 0 0 0 0.06 0"/>
<feBlend mode="normal" in2="BackgroundImageFix" result="effect1_dropShadow_0_1"/>
<feBlend mode="normal" in="SourceGraphic" in2="effect1_dropShadow_0_1" result="shape"/>
</filter>
<filter id="filter1_d_0_1" x="-124" y="-75" width="1480" height="410" filterUnits="userSpaceOnUse" color-interpolation-filters="sRGB">
<feFlood flood-opacity="0" result="BackgroundImageFix"/>
<feColorMatrix in="SourceAlpha" type="matrix" values="0 0 0 0 0 0 0 0 0 0 0 0 0 0 0 0 0 0 127 0" result="hardAlpha"/>
<feOffset dx="20" dy="20"/>
<feGaussianBlur stdDeviation="40"/>
<feComposite in2="hardAlpha" operator="out"/>
<feColorMatrix type="matrix" values="0 0 0 0 0.267396 0 0 0 0 0.43381 0 0 0 0 0.629167 0 0 0 0.1 0"/>
<feBlend mode="normal" in2="BackgroundImageFix" result="effect1_dropShadow_0_1"/>
<feBlend mode="normal" in="SourceGraphic" in2="effect1_dropShadow_0_1" result="shape"/>
</filter>
<clipPath id="clip0_0_1">
<rect width="1920" height="11580" fill="white" transform="translate(-364 -4478)"/>
</clipPath>
<clipPath id="clip1_0_1">
<rect x="-64" y="-15" width="1320" height="250" rx="20" fill="white"/>
</clipPath>
<clipPath id="clip2_0_1">
<rect width="232" height="220" fill="white"/>
</clipPath>
</defs>
</svg>
