<svg width="211" height="212" viewBox="0 0 211 212" fill="none" xmlns="http://www.w3.org/2000/svg">
<g id="Frame" clip-path="url(#clip0_260_10029)">
<g id="Group">
<g id="Group_2">
<g id="Group_3">
<g id="Group_4">
<g id="Group_5">
<path id="Vector" d="M163.428 0H160.608L157.773 99.6129H160.593C163.193 99.6129 165.362 97.5092 165.435 94.9134L168.003 4.6926C168.077 2.10373 166.029 0 163.428 0Z" fill="#19891C"/>
</g>
<g id="Group_6">
<path id="Vector_2" d="M165.95 4.6926L163.383 94.9134C163.308 97.5087 161.141 99.6129 158.54 99.6129H69.7398C67.1459 99.6129 65.0978 97.5092 65.1719 94.9134L67.7396 4.6926C67.8132 2.10373 69.9809 0 72.5748 0H161.375C163.976 0 166.024 2.10373 165.95 4.6926Z" fill="#DDF3DD"/>
</g>
</g>
<g id="Group_7">
<path id="Vector_3" d="M158.826 38.593H72.9336L73.8084 7.85547H159.7L158.826 38.593Z" fill="#19891C"/>
</g>
<g id="Group_8">
<path id="Vector_4" d="M95.3071 30.4136C99.4022 26.3838 99.5405 19.8965 95.6158 15.9237C91.6912 11.951 85.1898 11.9972 81.0947 16.027C76.9995 20.0567 76.8612 26.544 80.7859 30.5168C84.7105 34.4896 91.2119 34.4433 95.3071 30.4136Z" fill="white"/>
</g>
<g id="Group_9">
<path id="Vector_5" d="M86.8779 28.8109L86.913 27.5823C86.2061 27.57 85.4809 27.3511 85.0625 27.0469L85.3787 26.2319C85.8089 26.5238 86.4368 26.755 87.1195 26.755C87.9849 26.755 88.5847 26.2561 88.6044 25.5629C88.6237 24.8938 88.1598 24.4802 87.2677 24.1153C86.0381 23.6287 85.2858 23.0691 85.3159 22.0111C85.3446 21.0014 86.0856 20.2353 87.2123 20.0528L87.2474 18.8242H88.0032L87.9696 20.004C88.7002 20.0282 89.1947 20.2229 89.5425 20.43L89.2145 21.2326C88.963 21.0867 88.4705 20.819 87.69 20.819C86.7515 20.819 86.382 21.3786 86.3681 21.8652C86.3498 22.4977 86.792 22.8143 87.8407 23.2521C89.0821 23.7628 89.6981 24.3954 89.6675 25.4781C89.6403 26.439 88.9438 27.3392 87.6821 27.5458L87.6461 28.8109H86.8779Z" fill="#FABE25"/>
</g>
<g id="Group_10">
<g id="Group_11">
<path id="Vector_6" d="M112.978 20.3128H104.252L104.393 15.3604H113.119L112.978 20.3128Z" fill="#E5EAF0"/>
</g>
<g id="Group_12">
<path id="Vector_7" d="M155.085 25.7007H104.098L104.166 23.3096H155.154L155.085 25.7007Z" fill="#E5EAF0"/>
</g>
<g id="Group_13">
<path id="Vector_8" d="M126.342 28.697H104.013L103.945 31.0882H126.274L126.342 28.697Z" fill="#E5EAF0"/>
</g>
<g id="Group_14">
<path id="Vector_9" d="M138.576 28.6973H131.818L131.75 31.0884H138.508L138.576 28.6973Z" fill="#E5EAF0"/>
</g>
<g id="Group_15">
<path id="Vector_10" d="M141.142 28.697L141.074 31.0882H145.352L145.419 28.697H141.142Z" fill="#E5EAF0"/>
</g>
</g>
</g>
<g id="Group_16">
<path id="Vector_11" d="M157.341 90.7331H71.4492L72.7519 44.9683H158.644L157.341 90.7331Z" fill="white"/>
</g>
</g>
<g id="Group_17">
<g id="Group_18">
<g id="Group_19">
<path id="Vector_12" d="M86.1901 49.3101L85.1387 86.3745L85.6932 86.3902L86.7446 49.3257L86.1901 49.3101Z" fill="#E5EAF0"/>
</g>
<g id="Group_20">
<path id="Vector_13" d="M94.317 49.3096L93.2656 86.374L93.8202 86.3897L94.8716 49.3252L94.317 49.3096Z" fill="#E5EAF0"/>
</g>
<g id="Group_21">
<path id="Vector_14" d="M102.442 49.3101L101.391 86.3745L101.945 86.3902L102.997 49.3257L102.442 49.3101Z" fill="#E5EAF0"/>
</g>
<g id="Group_22">
<path id="Vector_15" d="M110.569 49.3096L109.518 86.374L110.072 86.3897L111.124 49.3252L110.569 49.3096Z" fill="#E5EAF0"/>
</g>
<g id="Group_23">
<path id="Vector_16" d="M118.696 49.3096L117.645 86.374L118.199 86.3897L119.25 49.3252L118.696 49.3096Z" fill="#E5EAF0"/>
</g>
<g id="Group_24">
<path id="Vector_17" d="M126.823 49.3096L125.771 86.374L126.326 86.3897L127.377 49.3252L126.823 49.3096Z" fill="#E5EAF0"/>
</g>
<g id="Group_25">
<path id="Vector_18" d="M134.948 49.3101L133.896 86.3745L134.451 86.3902L135.502 49.3257L134.948 49.3101Z" fill="#E5EAF0"/>
</g>
<g id="Group_26">
<path id="Vector_19" d="M143.075 49.3101L142.023 86.3745L142.578 86.3902L143.629 49.3257L143.075 49.3101Z" fill="#E5EAF0"/>
</g>
</g>
<g id="Group_27">
<g id="Group_28">
<path id="Vector_20" d="M148.632 55.6738H80.8164V56.2275H148.632V55.6738Z" fill="#E5EAF0"/>
</g>
<g id="Group_29">
<path id="Vector_21" d="M148.405 63.6069H80.5898V64.1606H148.405V63.6069Z" fill="#E5EAF0"/>
</g>
<g id="Group_30">
<path id="Vector_22" d="M148.181 71.541H80.3652V72.0947H148.181V71.541Z" fill="#E5EAF0"/>
</g>
<g id="Group_31">
<path id="Vector_23" d="M147.954 79.4741H80.1387V80.0278H147.954V79.4741Z" fill="#E5EAF0"/>
</g>
</g>
<g id="Group_32">
<path id="Vector_24" d="M85.8959 80.0467L85.3125 79.4545L97.2745 67.7235L113.137 75.1899L122.566 60.274L131.604 68.2718L148.14 51.6904L148.729 52.2761L131.639 69.4126L122.747 61.5435L113.448 76.2538L97.4439 68.7209L85.8959 80.0467Z" fill="#434C69"/>
</g>
<g id="Group_33">
<path id="Vector_25" d="M149.463 53.6121C150.239 52.8484 150.265 51.6188 149.521 50.8657C148.777 50.1126 147.545 50.1212 146.769 50.8849C145.992 51.6487 145.966 52.8783 146.71 53.6314C147.454 54.3845 148.687 54.3759 149.463 53.6121Z" fill="#19891C"/>
</g>
<g id="Group_34">
<path id="Vector_26" d="M132.85 69.9706C133.626 69.2068 133.652 67.9772 132.908 67.2241C132.164 66.471 130.931 66.4796 130.155 67.2433C129.379 68.0071 129.353 69.2367 130.097 69.9898C130.841 70.7429 132.073 70.7343 132.85 69.9706Z" fill="#19891C"/>
</g>
<g id="Group_35">
<path id="Vector_27" d="M123.76 62.1219C124.536 61.3582 124.562 60.1285 123.818 59.3754C123.074 58.6223 121.842 58.631 121.065 59.3947C120.289 60.1585 120.263 61.3881 121.007 62.1412C121.751 62.8943 122.984 62.8857 123.76 62.1219Z" fill="#19891C"/>
</g>
<g id="Group_36">
<path id="Vector_28" d="M114.627 77.0213C115.403 76.2576 115.429 75.0279 114.685 74.2749C113.941 73.5218 112.709 73.5304 111.933 74.2941C111.157 75.0579 111.13 76.2875 111.874 77.0406C112.618 77.7937 113.851 77.7851 114.627 77.0213Z" fill="#19891C"/>
</g>
<g id="Group_37">
<path id="Vector_29" d="M98.8866 69.9749C99.6628 69.2112 99.6888 67.9816 98.9448 67.2285C98.2009 66.4754 96.9686 66.484 96.1924 67.2477C95.4163 68.0115 95.3902 69.2411 96.1342 69.9942C96.8782 70.7473 98.1105 70.7387 98.8866 69.9749Z" fill="#19891C"/>
</g>
<g id="Group_38">
<path id="Vector_30" d="M86.953 81.1112C87.7292 80.3474 87.7552 79.1178 87.0113 78.3647C86.2673 77.6116 85.035 77.6202 84.2588 78.384C83.4827 79.1477 83.4566 80.3773 84.2006 81.1304C84.9446 81.8835 86.1769 81.8749 86.953 81.1112Z" fill="#19891C"/>
</g>
</g>
<g id="Group_39">
<g id="Group_40">
<path id="Vector_31" d="M51.1452 157.803L30.1867 159.674L10.637 152.594L0.259766 100.474C0.259766 100.474 3.47762 96.5306 18.5527 101.199C33.6278 105.866 42.3334 147.536 42.3334 147.536L51.1452 157.803Z" fill="#C5CCD8"/>
</g>
<g id="Group_41">
<g id="Group_42">
<path id="Vector_32" d="M58.9711 210.357C58.9711 211.238 58.2548 212 57.3152 212C56.6083 212 55.9849 211.554 55.7522 210.895L39.5469 164.268L43.9656 161.251L58.8965 209.874C58.9434 210.031 58.9711 210.199 58.9711 210.357Z" fill="#C5CCD8"/>
</g>
<g id="Group_43">
<path id="Vector_33" d="M0.923828 210.357C0.923828 211.238 1.64011 212 2.57968 212C3.28658 212 3.91 211.554 4.14267 210.895L20.348 164.268L15.9293 161.251L0.998421 209.874C0.951491 210.031 0.923828 210.199 0.923828 210.357Z" fill="#C5CCD8"/>
</g>
</g>
<g id="Group_44">
<g id="Group_45">
<g id="Group_46">
<g id="Group_47">
<g id="Group_48">
<g id="Group_49">
<g id="Group_50">
<g id="Group_51">
<g id="Group_52">
<g id="Group_53">
<g id="Group_54">
<g id="Group_55">
<g id="Group_56">
<g id="Group_57">
<g id="Group_58">
<path id="Vector_34" d="M81.8945 194.357L82.6163 201.104L85.9181 203.958L92.5865 200.576L92.461 194.357H81.8945Z" fill="#FFC69D"/>
</g>
<g id="Group_59">
<g id="Group_60">
<g id="Group_61">
<g id="Group_62">
<g id="Group_63">
<path id="Vector_35" d="M94.4632 203.556C94.4419 203.556 94.4202 203.553 94.3989 203.546C94.3115 203.521 94.2483 203.445 94.2389 203.354C94.2097 203.08 93.9795 200.66 94.7704 199.975C94.9764 199.797 95.2358 199.742 95.5203 199.815C95.8775 199.906 96.0207 200.132 96.078 200.305C96.3961 201.267 94.8183 203.25 94.6371 203.472C94.5951 203.526 94.5299 203.556 94.4632 203.556ZM95.2837 200.234C95.2007 200.234 95.1305 200.261 95.0663 200.317C94.6899 200.642 94.6099 201.793 94.6464 202.719C95.2081 201.936 95.8004 200.897 95.6512 200.447C95.629 200.379 95.5811 200.295 95.4097 200.251C95.3642 200.24 95.3222 200.234 95.2837 200.234Z" fill="#181818"/>
</g>
</g>
<g id="Group_64">
<g id="Group_65">
<g id="Group_66">
<g id="Group_67">
<g id="Group_68">
<path id="Vector_36" d="M107.762 209.363H82.7466L82.6152 201.105C85.3776 202.228 89.6422 202.037 92.5849 200.576L93.5408 202.052L103.328 205.91L105.277 206.676C106.503 207.136 107.412 208.143 107.762 209.363Z" fill="#585D83"/>
</g>
</g>
</g>
<g id="Group_69">
<g id="Group_70">
<g id="Group_71">
<path id="Vector_37" d="M82.75 209.361V211.037C82.75 211.56 83.1743 211.989 83.7019 211.989H106.878C107.46 211.989 107.934 211.511 107.934 210.929V210.515C107.934 210.406 107.929 210.303 107.919 210.199C107.914 210.106 107.904 210.017 107.889 209.928C107.874 209.829 107.855 209.736 107.835 209.642L107.761 209.361H82.75Z" fill="#181818"/>
</g>
</g>
</g>
<g id="Group_72">
<g id="Group_73">
<g id="Group_74">
<path id="Vector_38" d="M94.2055 204.903L100.944 207.343C101.689 207.612 102.533 207.308 102.923 206.612L103.327 205.91L93.5386 202.052L93.255 202.719C92.886 203.584 93.3187 204.577 94.2055 204.903Z" fill="#434C69"/>
</g>
</g>
</g>
</g>
<g id="Group_75">
<g id="Group_76">
<g id="Group_77">
<g id="Group_78">
<path id="Vector_39" d="M100.927 206.393C101.014 206.393 101.097 206.342 101.134 206.256L101.714 204.89C101.762 204.776 101.709 204.643 101.594 204.595C101.48 204.546 101.347 204.599 101.299 204.714L100.719 206.08C100.671 206.194 100.724 206.327 100.839 206.375C100.867 206.387 100.897 206.393 100.927 206.393Z" fill="#181818"/>
</g>
</g>
</g>
<g id="Group_79">
<g id="Group_80">
<g id="Group_81">
<path id="Vector_40" d="M99.1785 205.774C99.2659 205.774 99.3494 205.722 99.3859 205.637L99.9659 204.271C100.014 204.157 99.9609 204.024 99.8463 203.976C99.7317 203.927 99.5998 203.981 99.5509 204.095L98.971 205.461C98.9226 205.575 98.9759 205.708 99.0905 205.756C99.1197 205.769 99.1493 205.774 99.1785 205.774Z" fill="#181818"/>
</g>
</g>
</g>
<g id="Group_82">
<g id="Group_83">
<g id="Group_84">
<path id="Vector_41" d="M97.4324 205.156C97.5198 205.156 97.6033 205.104 97.6398 205.018L98.2198 203.652C98.2682 203.537 98.2149 203.405 98.1002 203.357C97.9856 203.308 97.8533 203.361 97.8048 203.476L97.2249 204.842C97.1765 204.956 97.2298 205.089 97.3444 205.137C97.3731 205.15 97.4027 205.156 97.4324 205.156Z" fill="#181818"/>
</g>
</g>
</g>
<g id="Group_85">
<g id="Group_86">
<g id="Group_87">
<path id="Vector_42" d="M95.6863 204.536C95.7737 204.536 95.8572 204.485 95.8938 204.399L96.4732 203.033C96.5216 202.918 96.4683 202.786 96.3537 202.738C96.2391 202.689 96.1072 202.743 96.0583 202.857L95.4788 204.223C95.4304 204.338 95.4837 204.47 95.5983 204.518C95.627 204.53 95.6571 204.536 95.6863 204.536Z" fill="#181818"/>
</g>
</g>
</g>
</g>
</g>
<g id="Group_88">
<g id="Group_89">
<path id="Vector_43" d="M94.4811 203.327C94.4055 203.327 94.3334 203.289 94.2914 203.223C94.241 203.144 94.2444 203.042 94.3003 202.967C94.4667 202.743 95.9443 200.771 96.9189 200.823C97.1565 200.833 97.3521 200.953 97.4855 201.17C97.6189 201.387 97.6391 201.619 97.5433 201.842C97.1565 202.742 94.7957 203.265 94.528 203.322C94.5122 203.325 94.4964 203.327 94.4811 203.327ZM96.8828 201.272C96.4427 201.272 95.6597 202.028 95.0714 202.722C95.9428 202.476 96.953 202.074 97.1298 201.663C97.1669 201.577 97.158 201.497 97.1017 201.405C97.0325 201.293 96.9604 201.275 96.8996 201.272C96.8937 201.272 96.8883 201.272 96.8828 201.272Z" fill="#181818"/>
</g>
</g>
</g>
</g>
</g>
</g>
<g id="Group_90">
<g id="Group_91">
<path id="Vector_44" d="M53.6348 194.357L54.3565 201.104L57.6578 203.958L64.3267 200.576L64.2012 194.357H53.6348Z" fill="#FFC69D"/>
</g>
<g id="Group_92">
<g id="Group_93">
<g id="Group_94">
<g id="Group_95">
<g id="Group_96">
<path id="Vector_45" d="M66.2053 203.556C66.1841 203.556 66.1624 203.553 66.1411 203.546C66.0537 203.521 65.9905 203.445 65.9811 203.354C65.9519 203.08 65.7217 200.66 66.5126 199.975C66.7186 199.797 66.9779 199.742 67.2625 199.815C67.6196 199.906 67.7629 200.132 67.8202 200.305C68.1383 201.267 66.5605 203.25 66.3792 203.472C66.3367 203.526 66.272 203.556 66.2053 203.556ZM67.0254 200.234C66.9424 200.234 66.8722 200.261 66.808 200.317C66.4316 200.642 66.3511 201.793 66.3881 202.719C66.9498 201.936 67.5421 200.897 67.3929 200.447C67.3707 200.379 67.3228 200.295 67.1513 200.251C67.1059 200.24 67.0639 200.234 67.0254 200.234Z" fill="#181818"/>
</g>
</g>
<g id="Group_97">
<g id="Group_98">
<g id="Group_99">
<g id="Group_100">
<g id="Group_101">
<path id="Vector_46" d="M79.502 209.363H54.4869L54.3555 201.105C57.1179 202.228 61.3825 202.037 64.3252 200.576L65.2811 202.052L75.068 205.91L77.0168 206.676C78.2434 207.136 79.1518 208.143 79.502 209.363Z" fill="#585D83"/>
</g>
</g>
</g>
<g id="Group_102">
<g id="Group_103">
<g id="Group_104">
<path id="Vector_47" d="M54.4902 209.361V211.037C54.4902 211.56 54.9146 211.989 55.4422 211.989H78.6182C79.2001 211.989 79.6739 211.511 79.6739 210.929V210.515C79.6739 210.406 79.6689 210.303 79.659 210.199C79.6541 210.106 79.6442 210.017 79.6294 209.928C79.6146 209.829 79.5948 209.736 79.5751 209.642L79.501 209.361H54.4902Z" fill="#181818"/>
</g>
</g>
</g>
<g id="Group_105">
<g id="Group_106">
<g id="Group_107">
<path id="Vector_48" d="M65.9457 204.903L72.6847 207.343C73.4291 207.612 74.2734 207.308 74.6636 206.612L75.0677 205.91L65.2788 202.052L64.9953 202.719C64.6262 203.584 65.059 204.577 65.9457 204.903Z" fill="#434C69"/>
</g>
</g>
</g>
</g>
<g id="Group_108">
<g id="Group_109">
<g id="Group_110">
<g id="Group_111">
<path id="Vector_49" d="M72.6687 206.393C72.7561 206.393 72.8396 206.342 72.8762 206.256L73.4561 204.89C73.5045 204.776 73.4512 204.643 73.3366 204.595C73.2225 204.546 73.0896 204.599 73.0412 204.714L72.4612 206.08C72.4128 206.194 72.4662 206.327 72.5808 206.375C72.6094 206.387 72.6391 206.393 72.6687 206.393Z" fill="#181818"/>
</g>
</g>
</g>
<g id="Group_112">
<g id="Group_113">
<g id="Group_114">
<path id="Vector_50" d="M70.9207 205.774C71.0081 205.774 71.0916 205.722 71.1281 205.637L71.7081 204.271C71.7565 204.157 71.7031 204.024 71.5885 203.976C71.4739 203.927 71.342 203.981 71.2931 204.095L70.7132 205.461C70.6648 205.575 70.7181 205.708 70.8327 205.756C70.8614 205.769 70.891 205.774 70.9207 205.774Z" fill="#181818"/>
</g>
</g>
</g>
<g id="Group_115">
<g id="Group_116">
<g id="Group_117">
<path id="Vector_51" d="M69.1746 205.156C69.262 205.156 69.3455 205.104 69.382 205.018L69.962 203.652C70.0104 203.537 69.957 203.405 69.8424 203.357C69.7278 203.308 69.5954 203.361 69.547 203.476L68.9671 204.842C68.9187 204.956 68.972 205.089 69.0866 205.137C69.1153 205.15 69.1449 205.156 69.1746 205.156Z" fill="#181818"/>
</g>
</g>
</g>
<g id="Group_118">
<g id="Group_119">
<g id="Group_120">
<path id="Vector_52" d="M67.4285 204.536C67.5159 204.536 67.5994 204.485 67.6359 204.399L68.2154 203.033C68.2638 202.918 68.2104 202.786 68.0958 202.738C67.9812 202.689 67.8493 202.743 67.8004 202.857L67.221 204.223C67.1726 204.338 67.2259 204.47 67.3405 204.518C67.3692 204.53 67.3988 204.536 67.4285 204.536Z" fill="#181818"/>
</g>
</g>
</g>
</g>
</g>
<g id="Group_121">
<g id="Group_122">
<path id="Vector_53" d="M66.2213 203.327C66.1457 203.327 66.0736 203.289 66.0316 203.223C65.9812 203.144 65.9847 203.042 66.0405 202.967C66.207 202.743 67.6845 200.771 68.6591 200.823C68.8968 200.833 69.0924 200.953 69.2258 201.17C69.3591 201.387 69.3794 201.619 69.2836 201.842C68.8968 202.742 66.536 203.265 66.2682 203.322C66.2524 203.325 66.2366 203.327 66.2213 203.327ZM68.6226 201.272C68.1824 201.272 67.3995 202.028 66.8111 202.722C67.6825 202.476 68.6927 202.074 68.8696 201.663C68.9066 201.577 68.8977 201.497 68.8414 201.405C68.7723 201.293 68.7001 201.275 68.6394 201.272C68.6335 201.272 68.628 201.272 68.6226 201.272Z" fill="#181818"/>
</g>
</g>
</g>
</g>
</g>
</g>
<g id="Group_123">
<g id="Group_124">
<g id="Group_125">
<path id="Vector_54" d="M94.3979 195.551H80.8274L69.3298 162.076L67.8651 157.808H53.6871L33.393 144.219L30.1855 142.075V129.866L38.7746 127.347L45.4889 135.646C45.4889 135.646 74.95 139.526 78.5882 141.918C87.0606 147.491 94.3979 195.551 94.3979 195.551Z" fill="#171727"/>
</g>
</g>
<g id="Group_126">
<path id="Vector_55" d="M80.8274 195.551L69.3298 162.076L61.7051 141.719C61.7051 141.719 70.5915 145.129 72.5274 149.853C74.4629 154.571 80.8274 195.551 80.8274 195.551Z" fill="#2F2F3D"/>
</g>
<g id="Group_127">
<path id="Vector_56" d="M53.2908 195.552H68.8929C68.8929 195.552 71.5798 152.759 68.2315 146.816C63.3958 138.234 37.2667 135.028 33.6798 132.403L13.2 132.022C13.2 132.022 12.7544 137.887 12.95 144.056C13.1891 151.725 18.5731 157.805 26.2443 157.805H49.8289L53.2908 195.552Z" fill="#171727"/>
</g>
<g id="Group_128">
<g id="Group_129">
<path id="Vector_57" d="M65.4668 92.1845C65.5883 91.9316 69.5758 83.8174 71.5651 83.5876C73.5895 83.3554 74.1511 84.4302 74.1511 84.4302C74.1511 84.4302 81.4568 75.8477 83.0326 77.096C84.6143 78.3448 77.7014 84.9937 77.7014 84.9937C77.7014 84.9937 80.4545 83.1119 80.6595 84.9287C80.8576 86.6355 79.18 87.3534 78.9883 87.4332C79.2432 87.3534 82.4023 86.4279 82.5752 87.9085C82.754 89.4526 80.4317 90.6048 80.4317 90.6048C80.4317 90.6048 82.3563 90.6393 81.933 92.4093C81.4617 94.3873 76.3711 98.4538 71.1176 98.1402" fill="#FFC69D"/>
</g>
<g id="Group_130">
<path id="Vector_58" d="M74.1494 84.4285C74.5679 85.242 74.8766 86.1146 75.0317 87.0341C75.1063 87.4946 75.13 87.9713 75.0362 88.4565C74.9418 88.9342 74.6074 89.4415 74.104 89.623C73.6219 89.8177 73.0587 89.7669 72.6196 89.5268C72.1789 89.2892 71.8336 88.9421 71.5619 88.5615C71.0082 87.8042 70.6278 86.9547 70.3867 86.0722C70.7869 86.8901 71.2369 87.6874 71.8114 88.3618C72.1014 88.6926 72.4225 89.0018 72.7979 89.1768C73.1639 89.3626 73.5838 89.3883 73.9469 89.2389C74.3179 89.1097 74.5525 88.7705 74.6543 88.3662C74.7556 87.958 74.7422 87.5138 74.7156 87.0726C74.6849 86.6288 74.594 86.1861 74.4952 85.7463C74.4058 85.3031 74.2784 84.8673 74.1494 84.4285Z" fill="#F68B82"/>
</g>
<g id="Group_131">
<path id="Vector_59" d="M78.9725 87.4368C78.0739 87.8721 77.1842 88.3193 76.3444 88.8345C75.93 89.0992 75.519 89.3684 75.1608 89.6869C74.8145 89.9965 74.4658 90.3806 74.4623 90.7647C74.4549 90.9466 74.5473 91.1354 74.6886 91.2823C74.8274 91.4293 75.0279 91.5151 75.2443 91.5663C75.6835 91.6704 76.175 91.6117 76.6517 91.5348C77.1318 91.4524 77.6076 91.3149 78.0769 91.1591C78.5511 91.0137 79.014 90.8322 79.4788 90.6473C78.6267 91.1709 77.7069 91.5915 76.7194 91.8464C76.2264 91.9721 75.7042 92.0475 75.1613 91.9499C74.6239 91.8656 74.0484 91.413 74.0469 90.7583C74.0543 90.4432 74.1956 90.175 74.3551 89.9586C74.5181 89.7402 74.7064 89.5553 74.9054 89.3886C75.308 89.0637 75.7373 88.7896 76.1859 88.5584C77.079 88.0895 78.0107 87.7129 78.9725 87.4368Z" fill="#F68B82"/>
</g>
<g id="Group_132">
<path id="Vector_60" d="M77.1689 91.5696C76.8276 91.9339 76.4991 92.3012 76.2061 92.6799C75.9315 93.0482 75.639 93.5003 75.725 93.838C75.7566 93.9918 75.9077 94.1506 76.0866 94.2497C76.2639 94.3566 76.4877 94.3946 76.7159 94.4128C77.1768 94.4345 77.6668 94.3591 78.1505 94.2403C77.7281 94.5075 77.2455 94.7027 76.7164 94.7368C76.2076 94.7806 75.5323 94.5923 75.3219 93.9376C75.2507 93.6156 75.3555 93.3188 75.4834 93.0876C75.6227 92.8578 75.7778 92.6473 75.9611 92.4693C76.3168 92.1025 76.7288 91.8082 77.1689 91.5696Z" fill="#F68B82"/>
</g>
</g>
<g id="Group_133">
<path id="Vector_61" d="M72.9725 98.8616C72.9725 98.8616 62.6561 116.48 54.2276 117.702C52.1479 118 49.6083 117.409 46.9822 116.371C43.3914 114.938 39.6509 112.673 36.7438 110.711C33.641 108.619 31.4922 106.875 31.4922 106.875L36.7265 91.0196C38.456 91.9889 46.9728 98.1748 53.2875 103.164L65.3019 90.4294L72.9725 98.8616Z" fill="#19891C"/>
</g>
<g id="Group_134">
<path id="Vector_62" d="M46.9845 116.371C43.3937 114.937 39.6532 112.673 36.7461 110.711C37.8665 107.07 40.3828 97.1956 40.3828 97.1956L40.4747 97.6659L42.3534 104.094C42.3534 104.094 44.4909 108.813 45.0654 112.036C45.3237 113.492 46.0593 115.029 46.9845 116.371Z" fill="#4EA050"/>
</g>
<g id="Group_135">
<path id="Vector_63" d="M14.98 138.884C12.9058 138.414 11.5671 137.709 11.4233 136.745L11.3947 135.633L11.0326 120.781C11.0326 120.781 10.5099 117.948 9.93492 114.083C9.86033 113.584 9.78573 113.068 9.71065 112.535C8.6708 105.195 7.6596 95.3319 9.42314 93.4225C14.1803 88.2728 33.3935 86.6848 38.6397 92.5222C41.0183 95.1771 41.2825 105.958 41.2825 105.958C44.7933 111.428 42.9547 116.377 42.9547 116.377L43.9718 121.842L45.7932 131.596L46.2758 134.199C46.874 138.242 23.656 140.863 14.98 138.884Z" fill="#19891C"/>
</g>
<g id="Group_136">
<path id="Vector_64" d="M45.7943 131.596L11.3953 135.633L11.0332 120.781C11.0332 120.781 10.5106 117.948 9.93555 114.083L13.5955 95.3088C13.5955 95.3088 16.8415 99.0361 17.8359 101.427C18.8244 103.818 19.307 120.064 19.307 120.064L43.973 121.842L45.7943 131.596Z" fill="#4EA050"/>
</g>
<g id="Group_137">
<g id="Group_138">
<g id="Group_139">
<g id="Group_140">
<path id="Vector_65" d="M51.425 119.332L50.1594 131.549C50.0878 132.24 49.4698 132.827 48.7782 132.857L41.281 133.183C40.5933 133.213 40.0914 132.675 40.1631 131.984L41.4287 119.766C41.5003 119.075 42.1183 118.489 42.8059 118.459L50.3032 118.133C50.9948 118.103 51.4967 118.641 51.425 119.332Z" fill="#4B5173"/>
</g>
<g id="Group_141">
<path id="Vector_66" d="M44.545 118.383C43.8574 118.413 43.2379 118.999 43.1678 119.691L41.9021 131.908C41.828 132.599 42.3324 133.137 43.02 133.107L41.2807 133.183C40.5931 133.213 40.0927 132.674 40.1628 131.984L41.4284 119.766C41.4986 119.075 42.118 118.489 42.8057 118.458L44.545 118.383Z" fill="#30323E"/>
</g>
</g>
<g id="Group_142">
<path id="Vector_67" d="M48.9441 126.023C48.782 127.308 45.8764 127.572 45.8764 127.572C45.8764 127.572 48.4298 127.487 48.0707 128.834C47.7377 130.074 44.7871 129.923 44.3327 129.893C44.7397 129.951 47.2339 130.34 46.5136 131.37C45.7262 132.487 38.2842 131.727 38.2842 131.727L38.2793 123.518C38.2793 123.518 39.9964 120.819 41.4092 120.793L40.9706 124.194C40.9706 124.194 46.6485 123.046 46.8555 124.533C46.9271 125.049 46.6124 125.387 46.1777 125.61C47.5337 125.396 49.033 125.313 48.9441 126.023Z" fill="#FFC69D"/>
</g>
</g>
<g id="Group_143">
<path id="Vector_68" d="M38.2168 122.102L17.8353 121.847L17.6362 105.67C16.3074 93.8025 9.86674 93.1902 9.86674 93.1902C0.604915 97.9395 4.17152 130.309 11.9553 132.813C17.3853 134.56 30.2606 132.057 38.6688 132.461L38.2168 122.102Z" fill="#19891C"/>
</g>
</g>
</g>
</g>
</g>
</g>
</g>
</g>
</g>
</g>
</g>
</g>
</g>
</g>
</g>
</g>
<g id="Group_144">
<g id="Group_145">
<path id="Vector_69" d="M0.258662 100.472C0.258662 100.472 2.89064 97.7365 6.45676 106.557C10.0229 115.377 10.1222 148.791 19.3277 152.659C29.7563 157.042 51.1451 157.805 51.1451 157.805C51.1451 157.805 49.1326 164.298 40.137 164.305C32.3848 164.31 13.383 166.364 5.68366 159.158C-1.79733 152.156 0.258662 100.472 0.258662 100.472Z" fill="#E5EAF0"/>
</g>
</g>
</g>
<g id="Group_146">
<g id="Group_147">
<path id="Vector_70" d="M16.1671 71.9069C19.868 72.8156 22.1285 76.5443 21.2191 80.2341C21.1302 80.595 21.0156 80.9406 20.8748 81.2719C19.58 84.3375 16.2115 86.0957 12.8717 85.2753C9.17463 84.3676 6.91413 80.6389 7.82455 76.9452C8.41635 74.5436 10.2061 72.751 12.4024 72.0415C13.579 71.658 14.8763 71.5899 16.1671 71.9069Z" fill="#6E302F"/>
</g>
<g id="Group_148">
<path id="Vector_71" d="M16.167 71.9069C19.868 72.8155 22.1285 76.5443 21.2191 80.2341C21.1302 80.595 21.0156 80.9406 20.8748 81.2719C14.7117 80.2883 12.4102 76.2978 12.4023 72.042C13.579 71.6579 14.8762 71.5899 16.167 71.9069Z" fill="#5D1F1E"/>
</g>
<g id="Group_149">
<path id="Vector_72" d="M29.2689 89.8176C28.9695 88.9508 28.6534 87.2484 28.5081 85.9962C28.4256 85.2611 28.3985 84.4791 28.4711 83.6947C24.081 82.8645 19.8865 77.7439 19.7408 77.5679C19.7344 77.5625 19.7344 77.5625 19.7344 77.5625L17.834 89.2506C17.834 91.6309 23.34 95.5958 26.6265 95.2936C28.8391 95.0905 29.2689 91.4194 29.2689 89.8176Z" fill="#FFC69D"/>
</g>
<g id="Group_150">
<path id="Vector_73" d="M28.5076 85.9966C28.2532 85.8542 20.5949 81.5077 19.7344 77.563C19.7344 77.563 19.7344 77.563 19.7408 77.5684C19.886 77.7444 24.0805 82.865 28.4711 83.6952C28.398 84.4796 28.4251 85.2611 28.5076 85.9966Z" fill="#E3965E"/>
</g>
<g id="Group_151">
<path id="Vector_74" d="M32.1685 84.0889C31.0753 84.5488 29.9426 84.6026 28.8148 84.3876C24.1862 83.5165 19.7684 78.1188 19.6162 77.933C19.6113 77.928 19.6113 77.928 19.6113 77.928C16.1889 76.7975 13.1341 71.8698 15.1837 70.0397C18.0078 67.544 20.4595 70.2946 20.4595 70.2946L21.6757 63.2917C21.6757 63.2917 29.1335 57.3951 32.8058 58.9023C34.0758 59.4308 35.0905 62.3036 35.625 65.9441C35.664 66.2035 35.6986 66.4726 35.7327 66.7418C36.5912 73.5579 35.831 82.5427 32.1685 84.0889Z" fill="#FFC69D"/>
</g>
<g id="Group_152">
<path id="Vector_75" d="M26.4459 65.3853C22.9648 65.3853 24.1706 70.8076 23.396 71.5856C22.6165 72.3586 20.4588 70.2938 20.4588 70.2938C20.4588 70.2938 18.0071 67.5438 15.1829 70.0389C13.1334 71.869 16.1882 76.7973 19.6106 77.9273C19.6106 77.9273 19.6106 77.9273 19.6155 77.9322C19.6155 77.9322 12.6794 77.9051 11.0808 70.2909C6.12761 46.6958 39.3223 51.4465 37.044 63.672C36.5984 66.0667 28.7212 65.3853 26.4459 65.3853Z" fill="#6E302F"/>
</g>
<g id="Group_153">
<path id="Vector_76" d="M32.385 77.8944L32.3919 77.9704C32.4438 78.8972 31.9868 79.7448 31.2612 80.2269C30.9149 80.4517 30.5142 80.5987 30.0805 80.6366C29.0081 80.7303 28.0285 80.1382 27.5824 79.2286C27.454 78.9746 27.37 78.6931 27.3379 78.3953L27.333 78.3367C27.3285 78.2839 27.3418 78.2356 27.3379 78.1888C29.1592 77.8111 30.8714 77.6026 32.3549 77.7495C32.3647 77.7958 32.3805 77.8417 32.385 77.8944Z" fill="#E3965E"/>
</g>
<g id="Group_154">
<path id="Vector_77" d="M32.3845 77.8944L32.3914 77.9704C30.6066 78.7074 28.9819 78.7045 27.3379 78.3953L27.333 78.3367C27.3285 78.2839 27.3418 78.2356 27.3379 78.1888C29.1592 77.8111 30.8714 77.6026 32.3549 77.7495C32.3642 77.7958 32.38 77.8417 32.3845 77.8944Z" fill="white"/>
</g>
<g id="Group_155">
<path id="Vector_78" d="M31.5005 75.2566C31.4935 75.2566 31.4871 75.2566 31.4802 75.2566C31.3656 75.2541 31.2742 75.159 31.2767 75.0441C31.2797 74.9297 31.3868 74.8385 31.4891 74.8415C31.662 74.8454 31.826 74.7591 31.9648 74.5989C32.157 74.3771 32.2464 74.063 32.198 73.78C32.156 73.5345 32.0345 73.3111 31.906 73.075C31.8591 72.9887 31.8122 72.9024 31.7692 72.8147C31.1705 71.6033 31.247 70.1277 31.3088 68.942C31.3147 68.8271 31.4125 68.7413 31.5271 68.7452C31.6417 68.7512 31.7302 68.8488 31.7237 68.9632C31.665 70.1011 31.5914 71.5165 32.1422 72.6308C32.1832 72.7136 32.2276 72.7949 32.2721 72.8763C32.4109 73.1317 32.5546 73.3959 32.608 73.7095C32.6776 74.1182 32.5546 74.5516 32.2795 74.8696C32.0636 75.12 31.7875 75.2566 31.5005 75.2566Z" fill="#E3965E"/>
</g>
<g id="Group_156">
<path id="Vector_79" d="M34.0709 71.4812C34.4498 71.448 34.7101 70.8885 34.6524 70.2315C34.5946 69.5746 34.2407 69.0689 33.8618 69.102C33.4829 69.1352 33.2226 69.6947 33.2804 70.3517C33.3381 71.0087 33.6921 71.5143 34.0709 71.4812Z" fill="#1E1D1E"/>
</g>
<g id="Group_157">
<path id="Vector_80" d="M28.5869 70.574C28.6447 71.2312 28.3843 71.7902 28.0054 71.8238C27.6266 71.8568 27.2729 71.3515 27.2151 70.6943C27.1573 70.0371 27.4176 69.478 27.7965 69.4444C28.1754 69.4109 28.5291 69.9172 28.5869 70.574Z" fill="#1E1D1E"/>
</g>
<g id="Group_158">
<path id="Vector_81" d="M32.7879 68.4081C32.7498 68.4081 32.7113 68.3977 32.6767 68.3755C32.5799 68.3144 32.5508 68.1862 32.6125 68.0891C32.6303 68.061 33.0556 67.4028 33.7675 67.2929C34.1972 67.2263 34.627 67.3708 35.0474 67.7223C35.1353 67.7957 35.1472 67.9269 35.0731 68.0146C34.9995 68.1024 34.8676 68.1137 34.7806 68.0403C34.4561 67.7691 34.1375 67.6562 33.8312 67.7026C33.3041 67.7844 32.9672 68.3055 32.9637 68.311C32.9242 68.3741 32.857 68.4081 32.7879 68.4081Z" fill="#1E1D1E"/>
</g>
<g id="Group_159">
<path id="Vector_82" d="M26.4478 68.7198C26.4098 68.7198 26.3708 68.7095 26.3367 68.6873C26.2398 68.6257 26.2112 68.498 26.2725 68.4013C26.2902 68.3732 26.7156 67.715 27.4274 67.6046C27.8557 67.538 28.2869 67.683 28.7073 68.0345C28.7953 68.108 28.8066 68.2391 28.733 68.3269C28.6594 68.4146 28.528 68.426 28.4401 68.3525C28.117 68.0818 27.7979 67.9689 27.4936 68.0143C26.9695 68.0942 26.6271 68.6183 26.6237 68.6237C26.5842 68.6858 26.517 68.7198 26.4478 68.7198Z" fill="#1E1D1E"/>
</g>
</g>
<g id="Group_160">
<g id="Group_161">
<path id="Vector_83" d="M172.448 191.604L171.58 200.942C171.458 202.922 163.287 202.417 163.41 200.437L163.427 191.604H172.448Z" fill="#FFC69D"/>
</g>
<g id="Group_162">
<g id="Group_163">
<g id="Group_164">
<path id="Vector_84" d="M159.683 202.953C159.491 202.716 157.812 200.609 158.15 199.588C158.212 199.404 158.364 199.164 158.744 199.067C159.047 198.99 159.323 199.049 159.543 199.238C160.384 199.965 160.139 202.536 160.108 202.827C160.098 202.923 160.031 203.004 159.938 203.031C159.915 203.038 159.892 203.041 159.87 203.041C159.798 203.041 159.729 203.01 159.683 202.953ZM158.863 199.531C158.68 199.577 158.63 199.666 158.605 199.738C158.447 200.217 159.077 201.32 159.675 202.151C159.714 201.168 159.629 199.946 159.228 199.6C159.159 199.541 159.085 199.512 158.997 199.512C158.956 199.512 158.911 199.519 158.863 199.531Z" fill="#181818"/>
</g>
</g>
<g id="Group_165">
<g id="Group_166">
<g id="Group_167">
<g id="Group_168">
<g id="Group_169">
<path id="Vector_85" d="M172.474 201.831L172.334 209.208H145.721C146.093 207.915 147.059 206.846 148.361 206.354L150.439 205.542L160.851 201.446L163.408 200.44C165.843 201.2 169.304 201.873 171.582 200.94C172.076 200.94 172.474 201.338 172.474 201.831Z" fill="#585D83"/>
</g>
</g>
</g>
<g id="Group_170">
<g id="Group_171">
<g id="Group_172">
<path id="Vector_86" d="M172.335 209.208V210.989C172.335 211.544 171.883 212 171.322 212H146.66C146.041 212 145.537 211.491 145.537 210.874V210.434C145.537 210.319 145.543 210.209 145.553 210.099C145.558 209.999 145.569 209.905 145.585 209.81C145.6 209.706 145.621 209.606 145.642 209.507L145.721 209.208H172.335V209.208Z" fill="#181818"/>
</g>
</g>
</g>
<g id="Group_173">
<g id="Group_174">
<g id="Group_175">
<path id="Vector_87" d="M160.142 204.472L152.972 207.064C152.179 207.35 151.281 207.026 150.866 206.288L150.436 205.542L160.852 201.444L161.154 202.152C161.546 203.071 161.086 204.126 160.142 204.472Z" fill="#434C69"/>
</g>
</g>
</g>
</g>
<g id="Group_176">
<g id="Group_177">
<g id="Group_178">
<g id="Group_179">
<path id="Vector_88" d="M152.992 206.056C152.898 206.056 152.81 206.001 152.771 205.91L152.154 204.459C152.102 204.337 152.159 204.197 152.281 204.146C152.402 204.094 152.544 204.151 152.596 204.272L153.213 205.723C153.264 205.845 153.208 205.986 153.086 206.037C153.055 206.05 153.023 206.056 152.992 206.056Z" fill="#181818"/>
</g>
</g>
</g>
<g id="Group_180">
<g id="Group_181">
<g id="Group_182">
<path id="Vector_89" d="M154.849 205.398C154.756 205.398 154.667 205.343 154.628 205.252L154.011 203.801C153.96 203.679 154.016 203.539 154.138 203.488C154.26 203.436 154.401 203.493 154.453 203.614L155.07 205.065C155.122 205.187 155.065 205.328 154.943 205.379C154.912 205.392 154.881 205.398 154.849 205.398Z" fill="#181818"/>
</g>
</g>
</g>
<g id="Group_183">
<g id="Group_184">
<g id="Group_185">
<path id="Vector_90" d="M156.709 204.74C156.615 204.74 156.527 204.686 156.488 204.595L155.871 203.144C155.819 203.022 155.876 202.881 155.998 202.83C156.12 202.779 156.261 202.835 156.312 202.957L156.929 204.408C156.981 204.529 156.924 204.67 156.802 204.721C156.771 204.734 156.74 204.74 156.709 204.74Z" fill="#181818"/>
</g>
</g>
</g>
<g id="Group_186">
<g id="Group_187">
<g id="Group_188">
<path id="Vector_91" d="M158.567 204.083C158.474 204.083 158.386 204.028 158.347 203.937L157.73 202.486C157.678 202.364 157.735 202.224 157.857 202.172C157.979 202.121 158.119 202.177 158.172 202.299L158.788 203.75C158.84 203.872 158.783 204.012 158.661 204.064C158.631 204.077 158.599 204.083 158.567 204.083Z" fill="#181818"/>
</g>
</g>
</g>
</g>
</g>
<g id="Group_189">
<g id="Group_190">
<path id="Vector_92" d="M159.802 202.793C159.517 202.733 157.005 202.177 156.593 201.22C156.491 200.984 156.512 200.738 156.654 200.507C156.796 200.277 157.005 200.149 157.257 200.138C158.294 200.083 159.867 202.178 160.044 202.416C160.103 202.496 160.107 202.604 160.053 202.687C160.008 202.757 159.931 202.798 159.851 202.798C159.835 202.798 159.818 202.796 159.802 202.793ZM157.279 200.616C157.214 200.619 157.137 200.637 157.063 200.757C157.003 200.855 156.994 200.939 157.033 201.031C157.221 201.468 158.296 201.894 159.224 202.156C158.597 201.418 157.764 200.615 157.296 200.615C157.29 200.615 157.284 200.615 157.279 200.616Z" fill="#181818"/>
</g>
</g>
</g>
<g id="Group_191">
<path id="Vector_93" d="M159.476 152.201C159.57 143.697 167.996 119.674 172.33 109.812H188.85L195.392 112.846L187.075 128.754L176.914 155.339L174.503 194.64C174.503 195.014 172.83 195.259 170.692 195.363C166.927 195.546 159.683 195.306 159.683 194.64C159.728 195.19 159.296 168.372 159.476 152.201Z" fill="#2F2F3D"/>
</g>
<g id="Group_192">
<path id="Vector_94" d="M181.387 143.644L187.077 128.756L183.499 117.24L181.387 143.644Z" fill="#30323E"/>
</g>
<g id="Group_193">
<path id="Vector_95" d="M202.866 191.605L201.998 200.943C201.876 202.923 193.705 202.418 193.828 200.438L193.845 191.605H202.866Z" fill="#FFC69D"/>
</g>
<g id="Group_194">
<path id="Vector_96" d="M205.399 107.822L204.373 196.489C204.373 198.072 191.752 198.072 191.752 196.489L182.725 109.813L205.399 107.822Z" fill="#2F2F3D"/>
</g>
<g id="Group_195">
<g id="Group_196">
<g id="Group_197">
<path id="Vector_97" d="M190.101 202.953C189.909 202.716 188.23 200.609 188.568 199.588C188.63 199.404 188.782 199.164 189.162 199.067C189.465 198.99 189.741 199.049 189.961 199.238C190.802 199.965 190.557 202.536 190.526 202.827C190.516 202.923 190.449 203.004 190.356 203.031C190.333 203.038 190.31 203.041 190.288 203.041C190.216 203.041 190.148 203.01 190.101 202.953ZM189.281 199.531C189.098 199.578 189.048 199.666 189.023 199.738C188.865 200.217 189.495 201.32 190.093 202.152C190.132 201.168 190.047 199.946 189.646 199.6C189.577 199.541 189.503 199.512 189.415 199.512C189.374 199.512 189.329 199.519 189.281 199.531Z" fill="#181818"/>
</g>
</g>
<g id="Group_198">
<g id="Group_199">
<g id="Group_200">
<g id="Group_201">
<g id="Group_202">
<path id="Vector_98" d="M202.893 201.831L202.752 209.209H176.139C176.511 207.915 177.477 206.847 178.779 206.354L180.857 205.542L191.269 201.446L193.826 200.441C196.261 201.2 199.722 201.873 202 200.941C202.494 200.94 202.893 201.338 202.893 201.831Z" fill="#585D83"/>
</g>
</g>
</g>
<g id="Group_203">
<g id="Group_204">
<g id="Group_205">
<path id="Vector_99" d="M202.753 209.208V210.989C202.753 211.544 202.301 212 201.74 212H177.078C176.459 212 175.955 211.492 175.955 210.874V210.434C175.955 210.319 175.961 210.209 175.971 210.099C175.976 209.999 175.987 209.905 176.002 209.81C176.018 209.706 176.039 209.606 176.06 209.507L176.139 209.208H202.753V209.208Z" fill="#181818"/>
</g>
</g>
</g>
<g id="Group_206">
<g id="Group_207">
<g id="Group_208">
<path id="Vector_100" d="M190.56 204.473L183.39 207.065C182.597 207.351 181.699 207.027 181.284 206.289L180.854 205.543L191.27 201.445L191.572 202.153C191.964 203.072 191.504 204.126 190.56 204.473Z" fill="#434C69"/>
</g>
</g>
</g>
</g>
<g id="Group_209">
<g id="Group_210">
<g id="Group_211">
<g id="Group_212">
<path id="Vector_101" d="M183.41 206.056C183.316 206.056 183.228 206.002 183.189 205.91L182.572 204.459C182.52 204.338 182.577 204.197 182.699 204.146C182.82 204.094 182.962 204.151 183.014 204.273L183.631 205.724C183.682 205.845 183.626 205.986 183.504 206.037C183.472 206.05 183.441 206.056 183.41 206.056Z" fill="#181818"/>
</g>
</g>
</g>
<g id="Group_213">
<g id="Group_214">
<g id="Group_215">
<path id="Vector_102" d="M185.267 205.398C185.174 205.398 185.085 205.344 185.046 205.252L184.429 203.802C184.377 203.68 184.434 203.539 184.556 203.488C184.678 203.437 184.819 203.493 184.871 203.615L185.488 205.066C185.54 205.187 185.483 205.328 185.361 205.379C185.33 205.392 185.299 205.398 185.267 205.398Z" fill="#181818"/>
</g>
</g>
</g>
<g id="Group_216">
<g id="Group_217">
<g id="Group_218">
<path id="Vector_103" d="M187.127 204.741C187.033 204.741 186.945 204.686 186.906 204.595L186.289 203.144C186.237 203.022 186.294 202.882 186.416 202.83C186.538 202.779 186.679 202.835 186.73 202.957L187.347 204.408C187.399 204.53 187.342 204.67 187.22 204.721C187.189 204.734 187.158 204.741 187.127 204.741Z" fill="#181818"/>
</g>
</g>
</g>
<g id="Group_219">
<g id="Group_220">
<g id="Group_221">
<path id="Vector_104" d="M188.985 204.083C188.892 204.083 188.804 204.028 188.765 203.937L188.148 202.486C188.096 202.365 188.153 202.224 188.275 202.173C188.397 202.121 188.537 202.178 188.59 202.299L189.206 203.75C189.258 203.872 189.201 204.013 189.079 204.064C189.048 204.077 189.017 204.083 188.985 204.083Z" fill="#181818"/>
</g>
</g>
</g>
</g>
</g>
<g id="Group_222">
<g id="Group_223">
<path id="Vector_105" d="M190.22 202.793C189.934 202.733 187.423 202.177 187.011 201.22C186.909 200.984 186.93 200.738 187.072 200.507C187.214 200.277 187.423 200.149 187.675 200.138C188.712 200.084 190.285 202.178 190.462 202.416C190.521 202.496 190.525 202.604 190.471 202.688C190.426 202.757 190.349 202.798 190.269 202.798C190.253 202.798 190.236 202.797 190.22 202.793ZM187.696 200.616C187.631 200.619 187.554 200.638 187.481 200.757C187.421 200.855 187.412 200.939 187.451 201.031C187.638 201.468 188.713 201.894 189.641 202.156C189.015 201.419 188.181 200.616 187.713 200.616C187.708 200.616 187.702 200.616 187.696 200.616Z" fill="#181818"/>
</g>
</g>
</g>
</g>
<g id="Group_224">
<g id="Group_225">
<g id="Group_226">
<g id="Group_227">
<g id="Group_228">
<g id="Group_229">
<g id="Group_230">
<path id="Vector_106" d="M172.304 33.3333C172.304 33.3333 169.742 41.3711 176.68 41.4963C183.617 41.6216 176.272 32.4868 176.272 32.4868" fill="#30323E"/>
</g>
<g id="Group_231">
<g id="Group_232">
<g id="Group_233">
<g id="Group_234">
<g id="Group_235">
<path id="Vector_107" d="M133.937 61.475C132.955 62.9531 135.388 64.4913 136.031 64.866C135.6 64.6595 134.362 64.1985 133.385 65.2772C132.179 66.6084 143.811 73.9421 143.811 73.9421L149.409 68.7111C149.409 68.7111 145.464 58.7895 143.781 60.6472C143.289 61.191 143.816 62.2441 143.807 62.5602C142.281 61.0964 139.176 57.8207 138.326 58.5795C137.543 59.2781 138.55 60.7749 138.668 61.1344C137.529 59.9955 135.563 58.1664 135.255 59.5646C135.117 60.207 136.319 61.2931 136.59 61.8073C135.739 61.3399 134.347 60.8652 133.937 61.475Z" fill="#FFC69D"/>
</g>
</g>
<g id="Group_236">
<path id="Vector_108" d="M142.729 74.0192C145.346 75.8567 157.146 85.8182 164.127 88.3085C164.964 88.6073 165.73 88.7956 166.406 88.8508C169.074 89.0776 173.416 86.4488 176.798 84.0192C179.609 81.9993 181.761 80.1174 181.761 80.1174L178.777 65.4736C175.872 66.4143 172.046 68.9879 165.53 76.3872L148.479 65.9775L142.729 74.0192Z" fill="#35D399"/>
</g>
<g id="Group_237">
<path id="Vector_109" d="M166.511 84.9989C165.807 86.161 165.053 87.3235 164.127 88.3086C164.964 88.6074 165.729 88.7957 166.406 88.8509C169.073 89.0777 173.415 86.4489 176.798 84.0193C176.099 81.7391 174.957 79.5697 174.147 77.3447C173.87 76.5756 173.537 73.4765 172.145 74.002C171.508 74.2402 171.225 75.7123 170.976 76.2877C170.582 77.2121 170.166 78.1252 169.728 79.0328C168.752 81.0695 167.676 83.0618 166.511 84.9989Z" fill="#00B773"/>
</g>
<g id="Group_238">
<path id="Vector_110" d="M170.606 113.308C170.521 114.484 171.602 115.497 173.421 116.321C173.623 116.411 173.829 116.501 174.047 116.586C174.242 116.665 174.444 116.743 174.651 116.817C183.842 120.095 205.548 119.88 205.906 114.77C205.901 114.435 205.891 114.014 205.883 113.499C205.885 113.401 205.887 113.292 205.883 113.182C205.837 107.742 206.165 94.1088 206.104 83.0794C206.093 81.4505 206.076 79.8802 206.045 78.3952C205.928 72.365 205.628 67.8618 204.981 67.1917C202.187 64.2947 194.282 64.348 194.282 64.348C194.282 64.348 183.691 63.6025 181.759 64.2435C178.249 65.4159 175.691 66.7209 173.836 68.1714C170.163 71.0501 172.973 97.2869 172.973 97.2869C172.973 97.2869 172.486 100.882 171.917 104.843C171.461 107.965 170.96 111.31 170.606 113.308Z" fill="#35D399"/>
</g>
<g id="Group_239">
<path id="Vector_111" d="M170.606 113.308C170.521 114.484 171.602 115.497 173.421 116.32C173.623 116.411 173.829 116.501 174.047 116.586L205.884 113.499C205.886 113.401 205.888 113.292 205.884 113.182C205.838 107.742 206.166 94.1088 206.105 83.0794L197.971 72.999L190.858 98.8108L171.917 104.844C171.461 107.965 170.96 111.31 170.606 113.308Z" fill="#00B773"/>
</g>
<g id="Group_240">
<path id="Vector_112" d="M182.764 64.0718C182.665 66.0508 184.503 65.4636 187.185 65.6682C189.958 65.8802 193.873 65.6593 194.286 64.3479L191.709 51.7334C191.709 51.7334 191.709 51.7334 191.703 51.7388C191.572 51.9104 187.806 56.9067 183.69 57.8572C183.789 58.5953 183.793 59.3348 183.743 60.0325C183.549 62.6189 182.764 64.0718 182.764 64.0718Z" fill="#FFC69D"/>
</g>
<g id="Group_241">
<path id="Vector_113" d="M183.743 60.033C183.978 59.8885 191.046 55.4922 191.708 51.7334C191.708 51.7334 191.708 51.7334 191.702 51.7388C191.572 51.9104 187.805 56.9067 183.689 57.8572C183.789 58.5958 183.793 59.3353 183.743 60.033Z" fill="#E3965E"/>
</g>
<g id="Group_242">
<path id="Vector_114" d="M180.206 58.3745C181.261 58.76 182.333 58.7739 183.393 58.5239C187.512 57.5733 191.293 52.7752 191.786 52.1427C191.816 52.1087 191.833 52.086 191.839 52.0751C195.028 50.8732 197.73 46.1012 195.723 44.456C192.959 42.2019 191.074 45.2478 191.074 45.2478C191.074 45.2478 188.877 44.5842 188.931 41.625C188.984 38.6718 190.133 37.3525 186.376 37.2849C183.738 37.2371 179.48 38.5747 176.736 38.3706C176.711 38.4958 176.68 38.621 176.655 38.7527C176.485 39.5509 176.355 40.4304 176.251 41.3618C175.554 47.9106 176.56 57.0034 180.206 58.3745Z" fill="#FFC69D"/>
</g>
<g id="Group_243">
<path id="Vector_115" d="M176.736 38.3703C179.48 38.5739 183.738 37.2368 186.377 37.2846C190.133 37.3522 188.984 38.6715 188.931 41.6247C188.878 44.5838 191.074 45.2474 191.074 45.2474C191.074 45.2474 191.542 40.3207 190.402 37.3517C189.071 33.8699 182.065 33.0387 178.652 34.6036C177.841 34.9778 177.185 36.3913 176.736 38.3703Z" fill="#FFC69D"/>
</g>
<g id="Group_244">
<path id="Vector_116" d="M179.771 52.5265L179.768 52.5985C179.754 53.476 180.218 54.2595 180.922 54.6869C181.258 54.8861 181.642 55.0098 182.053 55.0291C183.069 55.0769 183.972 54.4803 184.359 53.6042C184.47 53.3592 184.539 53.0905 184.558 52.8075L184.56 52.7518C184.563 52.702 184.548 52.6566 184.55 52.6123C182.815 52.3248 181.19 52.1927 179.795 52.3879C179.787 52.4328 179.774 52.4767 179.771 52.5265Z" fill="#E3965E"/>
</g>
<g id="Group_245">
<path id="Vector_117" d="M179.771 52.5265L179.768 52.5985C181.482 53.2271 183.017 53.1625 184.557 52.808L184.56 52.7523C184.562 52.7025 184.547 52.6571 184.55 52.6128C182.815 52.3253 181.19 52.1932 179.794 52.3884C179.787 52.4328 179.773 52.4767 179.771 52.5265Z" fill="white"/>
</g>
<g id="Group_246">
<path id="Vector_118" d="M180.474 50.0137C180.211 50.0137 179.955 49.8944 179.749 49.674C179.474 49.3817 179.341 48.9734 179.391 48.5815C179.43 48.2812 179.556 48.0253 179.678 47.7779C179.716 47.6995 179.755 47.6206 179.791 47.5412C180.268 46.4699 180.144 45.1372 180.045 44.0664C180.035 43.9525 180.119 43.8514 180.233 43.8406C180.347 43.8312 180.449 43.914 180.459 44.0284C180.563 45.1471 180.692 46.5394 180.171 47.7098C180.133 47.7946 180.092 47.8779 180.051 47.9613C179.939 48.188 179.833 48.4025 179.804 48.6347C179.769 48.901 179.865 49.1904 180.052 49.3905C180.187 49.534 180.344 49.6065 180.502 49.5981C180.614 49.5892 180.715 49.678 180.722 49.7923C180.73 49.9067 180.643 50.0053 180.528 50.0127C180.51 50.0132 180.491 50.0137 180.474 50.0137Z" fill="#E3965E"/>
</g>
<g id="Group_247">
<path id="Vector_119" d="M177.342 45.3742C177.312 45.9969 177.58 46.5156 177.939 46.5324C178.298 46.5491 178.613 46.0581 178.642 45.4354C178.672 44.8127 178.405 44.294 178.046 44.2773C177.686 44.2605 177.371 44.7516 177.342 45.3742Z" fill="#1E1D1E"/>
</g>
<g id="Group_248">
<path id="Vector_120" d="M184.383 45.5266C184.413 44.9037 184.146 44.3851 183.786 44.3681C183.427 44.3512 183.112 44.8424 183.083 45.4652C183.053 46.0881 183.32 46.6067 183.68 46.6237C184.039 46.6406 184.354 46.1494 184.383 45.5266Z" fill="#1E1D1E"/>
</g>
<g id="Group_249">
<path id="Vector_121" d="M179.021 43.5928C178.956 43.5928 178.891 43.5617 178.85 43.504C178.847 43.4991 178.506 43.0209 178.013 42.9661C177.726 42.9361 177.434 43.0534 177.141 43.3186C177.056 43.3956 176.925 43.3896 176.847 43.3048C176.77 43.22 176.776 43.0889 176.861 43.0115C177.247 42.661 177.649 42.5076 178.062 42.554C178.744 42.6319 179.173 43.2412 179.192 43.2674C179.257 43.3615 179.233 43.4902 179.139 43.5558C179.104 43.5804 179.062 43.5928 179.021 43.5928Z" fill="#1E1D1E"/>
</g>
<g id="Group_250">
<path id="Vector_122" d="M185.023 43.6463C184.958 43.6463 184.893 43.6152 184.852 43.5575C184.849 43.5526 184.508 43.0744 184.015 43.0196C183.729 42.9881 183.436 43.1064 183.143 43.3716C183.058 43.4486 182.927 43.4426 182.849 43.3578C182.772 43.273 182.778 43.1419 182.863 43.065C183.249 42.7144 183.651 42.5601 184.065 42.6075C184.747 42.6854 185.176 43.2947 185.194 43.3204C185.259 43.4145 185.236 43.5432 185.142 43.6088C185.106 43.6339 185.064 43.6463 185.023 43.6463Z" fill="#1E1D1E"/>
</g>
<g id="Group_251">
<path id="Vector_123" d="M183.474 62.3906L181.758 64.2449L182.429 69.5646L187.184 65.6687L183.474 62.3906Z" fill="#00B773"/>
</g>
<g id="Group_252">
<path id="Vector_124" d="M194.021 62.4253L195.555 64.4324L190.795 70.8057L187.184 65.6689L194.021 62.4253Z" fill="#00B773"/>
</g>
<g id="Group_253">
<g id="Group_254">
<path id="Vector_125" d="M153.187 127.336C163.31 127.336 171.515 119.147 171.515 109.044C171.515 98.9419 163.31 90.7522 153.187 90.7522C143.065 90.7522 134.859 98.9419 134.859 109.044C134.859 119.147 143.065 127.336 153.187 127.336Z" fill="#F79A1C"/>
</g>
<g id="Group_255">
<path id="Vector_126" d="M153.188 124.697C161.849 124.697 168.871 117.689 168.871 109.044C168.871 100.399 161.849 93.3914 153.188 93.3914C144.526 93.3914 137.504 100.399 137.504 109.044C137.504 117.689 144.526 124.697 153.188 124.697Z" fill="#FABE25"/>
</g>
<g id="Group_256">
<g id="Group_257">
<path id="Vector_127" d="M153.112 116.784C151.934 116.784 150.807 116.616 149.73 116.279C148.652 115.942 147.798 115.509 147.166 114.978L148.135 112.806C148.738 113.28 149.485 113.674 150.376 113.989C151.266 114.305 152.178 114.462 153.112 114.462C153.902 114.462 154.541 114.376 155.029 114.204C155.517 114.032 155.876 113.799 156.106 113.506C156.336 113.212 156.451 112.879 156.451 112.506C156.451 112.047 156.286 111.678 155.956 111.398C155.625 111.119 155.198 110.896 154.674 110.732C154.15 110.567 153.568 110.413 152.929 110.269C152.29 110.126 151.65 109.958 151.012 109.764C150.373 109.57 149.791 109.32 149.267 109.012C148.742 108.704 148.316 108.291 147.985 107.776C147.655 107.259 147.49 106.6 147.49 105.798C147.49 104.981 147.708 104.232 148.147 103.551C148.584 102.871 149.252 102.325 150.15 101.917C151.047 101.509 152.185 101.304 153.564 101.304C154.469 101.304 155.366 101.419 156.257 101.648C157.147 101.878 157.923 102.207 158.584 102.637L157.7 104.809C157.025 104.408 156.329 104.111 155.611 103.917C154.893 103.723 154.203 103.626 153.542 103.626C152.767 103.626 152.139 103.72 151.657 103.906C151.176 104.092 150.825 104.336 150.602 104.637C150.379 104.938 150.268 105.282 150.268 105.669C150.268 106.128 150.43 106.497 150.753 106.776C151.076 107.056 151.5 107.274 152.024 107.432C152.548 107.59 153.133 107.744 153.78 107.894C154.426 108.045 155.068 108.213 155.708 108.4C156.346 108.586 156.928 108.83 157.453 109.131C157.977 109.432 158.401 109.84 158.724 110.357C159.047 110.873 159.209 111.525 159.209 112.313C159.209 113.116 158.99 113.858 158.552 114.538C158.113 115.219 157.442 115.764 156.537 116.172C155.632 116.58 154.49 116.784 153.112 116.784ZM152.444 119.149V98.9392H154.21V119.149H152.444Z" fill="#F79A1C"/>
</g>
</g>
</g>
<g id="Group_258">
<g id="Group_259">
<path id="Vector_128" d="M162.504 108.953C162.743 110.36 165.954 110.512 165.954 110.512C165.954 110.512 163.14 110.541 163.6 112.007C164.026 113.354 167.266 113.047 167.765 112.993C167.319 113.076 164.593 113.623 165.435 114.723C166.356 115.915 174.51 114.723 174.51 114.723L174.121 105.686C174.121 105.686 172.102 102.798 170.545 102.837L171.191 106.56C171.191 106.56 164.887 105.568 164.73 107.214C164.677 107.786 165.039 108.142 165.528 108.367C164.026 108.196 162.371 108.176 162.504 108.953Z" fill="#FFC69D"/>
</g>
</g>
<g id="Group_260">
<path id="Vector_129" d="M174.121 104.125L193.64 99.9802L196.11 80.5556C197.003 67.4308 204.062 66.4487 204.062 66.4487C214.484 71.233 212.162 108.469 203.715 111.597C197.822 113.779 183.356 114.7 174.121 115.548V104.125Z" fill="#35D399"/>
</g>
<g id="Group_261">
<path id="Vector_130" d="M174.305 37.0669C173.693 39.3067 177.323 40.0906 178.48 40.1749C181.224 40.3786 183.738 37.237 186.376 37.2848C190.133 37.3524 188.984 38.6717 188.931 41.6249C188.877 44.584 191.074 45.2477 191.074 45.2477C191.074 45.2477 192.959 42.2013 195.723 44.4559C197.73 46.1011 195.028 50.8731 191.839 52.075C191.833 52.0859 191.816 52.1086 191.787 52.1426L192.651 56.3496C192.651 56.3496 192.651 56.3496 192.657 56.3436C192.948 56.1085 203.715 47.2799 200.454 42.36C201.319 37.0797 199.527 27.6482 190.272 29.2466C187.839 29.6666 184.901 30.0561 180.896 28.8389C176.885 27.6216 175.013 29.6375 172.876 31.6999C170.733 33.7617 174.305 37.0669 174.305 37.0669Z" fill="#30323E"/>
</g>
</g>
</g>
</g>
</g>
</g>
</g>
</g>
</g>
</g>
</g>
</g>
<defs>
<clipPath id="clip0_260_10029">
<rect width="211" height="212" fill="white"/>
</clipPath>
</defs>
</svg>
