<svg width="42" height="48" viewBox="0 0 42 48" fill="none" xmlns="http://www.w3.org/2000/svg">
<g id="Group">
<path id="Vector" d="M35.3734 20.5133C35.3734 12.3483 28.749 5.7292 20.5773 5.7292C12.4057 5.7292 5.78125 12.3483 5.78125 20.5133C5.78125 23.4472 6.63668 26.1816 8.1117 28.4809H33.043C34.5182 26.1816 35.3734 23.4472 35.3734 20.5133Z" fill="#FF0000"/>
<g id="Group_2">
<path id="Vector_2" d="M35.0295 30.386H32.2905H8.84382H6.10481C4.37291 30.386 2.96875 31.7888 2.96875 33.5195V44.8665C2.96875 46.597 4.37269 48 6.10481 48H35.0293C36.7612 48 38.1654 46.5972 38.1654 44.8665V33.5195C38.1656 31.789 36.7614 30.386 35.0295 30.386Z" fill="#FF0000"/>
<g id="Group_3">
<path id="Vector_3" d="M8.62912 43.475C8.60011 43.4462 8.58594 43.4112 8.58594 43.3699V35.0161C8.58594 34.975 8.60033 34.94 8.62912 34.911C8.65791 34.8823 8.69289 34.8679 8.7343 34.8679H10.1814C10.2226 34.8679 10.2576 34.8823 10.2866 34.911C10.3154 34.94 10.3298 34.975 10.3298 35.0161V41.9611C10.3298 42.0025 10.3502 42.0228 10.3916 42.0228H14.4358C14.477 42.0228 14.5119 42.0372 14.541 42.0662C14.5697 42.0952 14.5841 42.1301 14.5841 42.1713V43.3701C14.5841 43.4115 14.5697 43.4464 14.541 43.4752C14.5119 43.5042 14.477 43.5183 14.4358 43.5183H8.7343C8.69289 43.5181 8.65813 43.504 8.62912 43.475Z" fill="white"/>
<path id="Vector_4" d="M15.6997 43.475C15.6706 43.4462 15.6562 43.4112 15.6562 43.3699V35.0161C15.6562 34.975 15.6706 34.94 15.6997 34.911C15.7284 34.8823 15.7634 34.8679 15.8048 34.8679H17.252C17.2931 34.8679 17.3281 34.8823 17.3571 34.911C17.3859 34.94 17.4005 34.975 17.4005 35.0161V43.3699C17.4005 43.4112 17.3862 43.4462 17.3571 43.475C17.3281 43.504 17.2931 43.5181 17.252 43.5181H15.8048C15.7634 43.5181 15.7284 43.504 15.6997 43.475Z" fill="white"/>
<path id="Vector_5" d="M21.0523 43.3947L18.5046 35.0409L18.4922 34.9916C18.4922 34.9093 18.5374 34.8681 18.6282 34.8681H20.1864C20.277 34.8681 20.3348 34.9095 20.3596 34.9916L22.0045 41.0221C22.0127 41.0468 22.0251 41.0592 22.0417 41.0592C22.0581 41.0592 22.0705 41.0468 22.0787 41.0221L23.6989 34.9916C23.7238 34.9093 23.7813 34.8681 23.8721 34.8681H25.3934C25.4428 34.8681 25.48 34.8847 25.5048 34.9174C25.5296 34.9504 25.5336 34.9916 25.5172 35.0409L22.9323 43.3947C22.9075 43.4772 22.8539 43.5181 22.7716 43.5181H21.213C21.1304 43.5181 21.0769 43.477 21.0523 43.3947Z" fill="white"/>
<path id="Vector_6" d="M32.4987 36.3198C32.4697 36.3488 32.4347 36.3629 32.3935 36.3629H28.3369C28.2955 36.3629 28.2751 36.3835 28.2751 36.4247V38.3401C28.2751 38.3815 28.2957 38.4019 28.3369 38.4019H30.996C31.0371 38.4019 31.0721 38.4163 31.1011 38.445C31.1299 38.474 31.1445 38.509 31.1445 38.5501V39.7489C31.1445 39.7903 31.1302 39.8253 31.1011 39.854C31.0721 39.883 31.0371 39.8972 30.996 39.8972H28.3369C28.2955 39.8972 28.2751 39.9177 28.2751 39.9589V41.9609C28.2751 42.0022 28.2957 42.0226 28.3369 42.0226H32.3935C32.4347 42.0226 32.4697 42.037 32.4987 42.066C32.5275 42.095 32.5418 42.1299 32.5418 42.1711V43.3699C32.5418 43.4112 32.5275 43.4462 32.4987 43.475C32.4697 43.504 32.4347 43.5181 32.3935 43.5181H26.6796C26.6382 43.5181 26.6032 43.5037 26.5744 43.475C26.5454 43.4462 26.5312 43.4112 26.5312 43.3699V35.0161C26.5312 34.975 26.5456 34.94 26.5744 34.911C26.6032 34.8823 26.6382 34.8679 26.6796 34.8679H32.3935C32.4347 34.8679 32.4697 34.8823 32.4987 34.911C32.5275 34.94 32.5418 34.975 32.5418 35.0161V36.2149C32.5418 36.2561 32.5275 36.291 32.4987 36.3198Z" fill="white"/>
</g>
</g>
<path id="Vector_7" d="M3.2377 28.9101C2.03173 26.417 1.34836 23.624 1.33064 20.6734C1.26598 10.0044 9.86833 1.34264 20.546 1.32892C31.1845 1.3152 39.813 9.92805 39.813 20.5546C39.813 23.5487 39.1279 26.3829 37.9057 28.9095C37.6925 29.3504 38.0147 29.8624 38.505 29.8624C38.7605 29.8624 38.9932 29.7162 39.1044 29.4863C40.4107 26.7854 41.143 23.7556 41.143 20.5548C41.143 9.2063 31.8996 -0.0159103 20.5418 2.06088e-05C9.19426 0.0157302 0 9.21227 0 20.5546C0 23.7556 0.73253 26.7858 2.03904 29.487C2.14998 29.7166 2.38294 29.8624 2.63804 29.8624C3.12787 29.8624 3.45073 29.3507 3.2377 28.9101Z" fill="#FF0000"/>
<path id="Vector_8" d="M18.45 24.6639L26.1812 19.8508C26.6261 19.5738 26.6261 18.9266 26.1812 18.6496L18.45 13.8365C17.9784 13.5428 17.3672 13.8816 17.3672 14.437V24.063C17.3674 24.6186 17.9784 24.9575 18.45 24.6639Z" fill="white"/>
</g>
</svg>
