<svg width="602" height="243" viewBox="0 0 602 243" fill="none" xmlns="http://www.w3.org/2000/svg">
<g filter="url(#filter0_d_426_6034)">
<g clip-path="url(#clip0_426_6034)">
<g filter="url(#filter1_d_426_6034)">
<rect x="37" y="35" width="522" height="164" rx="10" fill="white"/>
</g>
<path d="M66.3863 78.416V71.508L58.3783 75.27V72.762L60.3363 71.86C59.8523 71.1267 59.1923 70.6207 58.3563 70.342V69.946C58.3563 68.6993 58.7523 67.6067 59.5443 66.668C60.351 65.7293 61.5097 65.26 63.0203 65.26C64.5897 65.26 65.7117 65.81 66.3863 66.91V63.698H68.9383V65.48H71.0503V67.57H68.9383V81.408H66.3863V81.078C66.3863 80.506 66.115 80.22 65.5723 80.22C65.279 80.22 64.7437 80.3153 63.9663 80.506C63.189 80.6967 62.4923 80.792 61.8763 80.792C60.8497 80.792 60.0063 80.4913 59.3463 79.89C58.701 79.2887 58.3783 78.4307 58.3783 77.316C58.3783 76.8173 58.4223 76.37 58.5103 75.974H60.9743C60.9303 76.2527 60.9083 76.5607 60.9083 76.898C60.9083 77.954 61.385 78.482 62.3383 78.482C62.6903 78.482 63.1523 78.4087 63.7243 78.262C64.311 78.1007 64.8097 78.02 65.2203 78.02C65.7337 78.02 66.1223 78.152 66.3863 78.416ZM60.7983 69.374C61.4877 69.7113 62.023 70.2247 62.4043 70.914L66.1443 69.22C65.7337 67.9587 64.8243 67.328 63.4163 67.328C62.7123 67.328 62.1257 67.526 61.6563 67.922C61.2017 68.3033 60.9157 68.7873 60.7983 69.374ZM76.9561 80.154C76.8241 80.1833 76.5748 80.198 76.2081 80.198C75.1961 80.198 74.3455 79.9047 73.6561 79.318C72.9815 78.7167 72.5048 77.976 72.2261 77.096C71.9475 76.2013 71.8008 75.1747 71.7861 74.016C71.7861 70.848 72.3141 68.6993 73.3701 67.57H70.1801V65.48H77.6821V67.57H77.1101C76.5381 67.57 76.0541 67.746 75.6581 68.098C75.2621 68.45 74.9615 68.9487 74.7561 69.594C74.5655 70.2393 74.4335 70.914 74.3601 71.618C74.2868 72.3073 74.2501 73.1067 74.2501 74.016C74.2501 76.6413 74.9981 77.954 76.4941 77.954C76.7141 77.954 76.8681 77.9467 76.9561 77.932V80.154ZM94.2873 73.73C94.2873 75.0793 93.9206 76.128 93.1873 76.876C92.4686 77.624 91.5006 77.998 90.2833 77.998C90.078 77.998 89.9313 77.9907 89.8433 77.976V75.644H90.0633C91.2366 75.644 91.8233 75.006 91.8233 73.73C91.8233 72.894 91.508 72.2633 90.8773 71.838C90.2466 71.4127 89.396 71.2 88.3253 71.2V80H85.7733L78.2053 76.634L78.2273 76.612V74.104L81.7253 71.662L78.2713 69.462V67.57H76.7973V65.48H95.5413V67.57H79.7673L84.0573 70.518V72.806L80.8233 75.16L85.7733 77.47V68.978H88.3253C90.012 68.978 91.4273 69.4033 92.5713 70.254C93.7153 71.09 94.2873 72.2487 94.2873 73.73ZM108.379 80H105.827V70.298C105.827 69.4327 105.636 68.7433 105.255 68.23C104.873 67.7167 104.279 67.46 103.473 67.46C102.842 67.46 102.343 67.658 101.977 68.054C101.61 68.45 101.427 68.9853 101.427 69.66C101.427 70.3787 101.61 70.914 101.977 71.266C102.358 71.6033 102.857 71.772 103.473 71.772C103.839 71.772 104.103 71.7647 104.265 71.75V73.972C103.927 74.0307 103.568 74.06 103.187 74.06C101.764 74.06 100.745 73.6053 100.129 72.696C99.4542 73.6053 98.4642 74.06 97.1588 74.06C96.7482 74.06 96.2935 74.016 95.7948 73.928V71.684C96.1468 71.7427 96.5062 71.772 96.8728 71.772C98.2368 71.772 98.9188 71.068 98.9188 69.66C98.9188 69 98.7208 68.4867 98.3248 68.12C97.9435 67.7533 97.4008 67.57 96.6968 67.57H94.6508V65.48H97.0048C98.3395 65.48 99.3735 65.942 100.107 66.866C100.796 65.7953 101.815 65.26 103.165 65.26C104.353 65.26 105.24 65.6267 105.827 66.36V63.698H108.379V65.48H110.491V67.57H108.379V80ZM121.286 80H118.734V79.956C118.646 79.2373 118.514 78.5333 118.338 77.844C118.177 77.1547 117.949 76.4727 117.656 75.798C117.377 75.1087 117.011 74.5587 116.556 74.148C116.116 73.7227 115.625 73.51 115.082 73.51C114.495 73.51 114.048 73.6933 113.74 74.06C113.447 74.4267 113.3 74.918 113.3 75.534C113.3 75.93 113.337 76.3113 113.41 76.678H110.924C110.807 76.1353 110.748 75.6807 110.748 75.314C110.748 74.1553 111.1 73.1873 111.804 72.41C112.508 71.6327 113.476 71.244 114.708 71.244C116.541 71.244 117.883 72.1827 118.734 74.06V67.57H109.604V65.48H123.244V67.57H121.286V80ZM129.12 67.57H127.03V80H124.478V69.088C124.478 68.516 124.39 68.12 124.214 67.9C124.038 67.68 123.7 67.57 123.202 67.57H122.366V65.48H123.488C124.06 65.48 124.485 65.766 124.764 66.338C124.617 65.5167 124.544 64.798 124.544 64.182V63.698H127.03V65.48H129.12V67.57ZM143.411 80H140.859V73.51C140.859 72.278 140.39 71.662 139.451 71.662C138.468 71.662 137.977 72.4027 137.977 73.884V74.346H135.359V73.752C135.359 72.3733 134.831 71.684 133.775 71.684C133.262 71.684 132.866 71.86 132.587 72.212C132.308 72.564 132.169 73.0333 132.169 73.62C132.169 74.3093 132.352 74.8227 132.719 75.16C133.086 75.4973 133.562 75.666 134.149 75.666C134.457 75.666 134.831 75.6293 135.271 75.556V77.712C134.802 77.8 134.332 77.844 133.863 77.844C132.572 77.844 131.538 77.4627 130.761 76.7C129.998 75.9373 129.617 74.9033 129.617 73.598C129.617 72.41 129.962 71.4347 130.651 70.672C131.355 69.8947 132.323 69.506 133.555 69.506C134.406 69.506 135.102 69.6967 135.645 70.078C136.188 70.4447 136.525 70.9287 136.657 71.53C136.804 70.9287 137.09 70.4373 137.515 70.056C137.94 69.6747 138.49 69.484 139.165 69.484C139.898 69.484 140.463 69.7333 140.859 70.232V67.57H128.231V65.48H145.523V67.57H143.411V80ZM156.706 67.57H154.616V80H152.064V67.57H149.952V65.48H152.064V64.622C152.064 63.1113 152.526 61.9747 153.45 61.212C154.374 60.4347 155.708 60.046 157.454 60.046C159.404 60.046 161.34 60.4053 163.262 61.124V63.104C161.326 62.4587 159.441 62.136 157.608 62.136C156.552 62.136 155.789 62.3413 155.32 62.752C154.865 63.1627 154.638 63.786 154.638 64.622V65.48H156.706V67.57ZM165.233 78.834V77.228L158.325 75.072L158.347 75.05V72.63L161.251 70.804L158.391 68.978V67.57H155.817V65.48H174.473V67.57H160.371L163.561 69.748V71.97L161.031 73.598L165.233 75.028V68.912H167.697C169.384 68.912 170.74 69.2713 171.767 69.99C172.808 70.694 173.329 71.6913 173.329 72.982C173.329 74.082 172.999 74.9547 172.339 75.6C171.694 76.2307 170.806 76.546 169.677 76.546C169.413 76.546 169.237 76.5387 169.149 76.524V74.5H169.435C170.476 74.5 170.997 73.994 170.997 72.982C170.997 72.322 170.696 71.8307 170.095 71.508C169.508 71.1853 168.709 71.024 167.697 71.024V81.76H165.233V81.496C165.233 80.924 164.962 80.638 164.419 80.638C164.14 80.638 163.612 80.7333 162.835 80.924C162.058 81.1147 161.354 81.21 160.723 81.21C159.696 81.21 158.853 80.9093 158.193 80.308C157.548 79.7067 157.225 78.8487 157.225 77.734C157.225 77.2207 157.269 76.7807 157.357 76.414H159.821C159.777 76.678 159.755 76.9787 159.755 77.316C159.755 78.372 160.232 78.9 161.185 78.9C161.537 78.9 161.999 78.8267 162.571 78.68C163.158 78.5187 163.656 78.438 164.067 78.438C164.61 78.438 164.998 78.57 165.233 78.834ZM185.645 67.57H183.555V80H181.003V67.57H178.891V65.48H181.003V64.622C181.003 63.1113 181.465 61.9747 182.389 61.212C183.313 60.4347 184.648 60.046 186.393 60.046C188.344 60.046 190.28 60.4053 192.201 61.124V63.104C190.265 62.4587 188.38 62.136 186.547 62.136C185.491 62.136 184.728 62.3413 184.259 62.752C183.804 63.1627 183.577 63.786 183.577 64.622V65.48H185.645V67.57ZM196.768 80H194.216V75.908C194.216 74.5147 193.747 73.818 192.808 73.818C192.486 73.818 192.185 73.9427 191.906 74.192C191.642 74.4413 191.393 74.7493 191.158 75.116C190.924 75.468 190.66 75.8273 190.366 76.194C190.088 76.5607 189.706 76.8687 189.222 77.118C188.753 77.3673 188.21 77.492 187.594 77.492C187.066 77.492 186.524 77.3967 185.966 77.206V75.072C186.406 75.204 186.832 75.27 187.242 75.27C187.536 75.27 187.814 75.1893 188.078 75.028C188.342 74.8667 188.54 74.698 188.672 74.522C188.819 74.346 189.017 74.0747 189.266 73.708C189.516 73.3413 189.706 73.0773 189.838 72.916C189.662 71.816 189.244 70.9727 188.584 70.386C187.939 69.7993 187.103 69.506 186.076 69.506V67.57H184.756V65.48H198.88V67.57H196.768V80ZM192.28 71.618C193.16 71.618 193.806 71.9113 194.216 72.498V67.57H188.496C189.391 67.922 190.132 68.4573 190.718 69.176C191.305 69.8947 191.701 70.716 191.906 71.64C191.994 71.6253 192.119 71.618 192.28 71.618ZM204.745 67.57H202.655V80H200.103V67.57H197.991V65.48H200.103V64.622C200.103 63.1113 200.565 61.9747 201.489 61.212C202.413 60.4347 203.747 60.046 205.493 60.046C207.443 60.046 209.379 60.4053 211.301 61.124V63.104C209.365 62.4587 207.48 62.136 205.647 62.136C204.591 62.136 203.828 62.3413 203.359 62.752C202.904 63.1627 202.677 63.786 202.677 64.622V65.48H204.745V67.57ZM205.682 74.258L207.64 73.136C207.112 72.1827 206.342 71.5373 205.33 71.2V70.1C205.33 68.8387 205.741 67.7167 206.562 66.734C207.398 65.7513 208.571 65.26 210.082 65.26C211.637 65.26 212.759 65.8173 213.448 66.932V63.698H216V65.48H218.112V67.57H216V80H213.448V72.366L205.682 76.942V74.258ZM207.794 70.122C208.601 70.5033 209.209 71.1267 209.62 71.992L213.338 69.836C213.191 69.1173 212.876 68.5453 212.392 68.12C211.923 67.6947 211.292 67.482 210.5 67.482C209.679 67.482 209.019 67.7313 208.52 68.23C208.036 68.714 207.794 69.3447 207.794 70.122ZM220.541 70.694C220.541 69.2273 221.061 67.9587 222.103 66.888C223.159 65.8173 224.493 65.282 226.107 65.282C227.339 65.282 228.277 65.612 228.923 66.272C229.583 66.932 229.913 67.8633 229.913 69.066V80H227.361V79.934C227.361 79.3473 227.089 79.054 226.547 79.054C226.253 79.054 225.63 79.1933 224.677 79.472C223.723 79.736 222.939 79.868 222.323 79.868C221.223 79.868 220.291 79.5453 219.529 78.9C218.781 78.2547 218.407 77.3087 218.407 76.062C218.407 75.5633 218.451 75.116 218.539 74.72L221.025 74.698C220.981 74.962 220.959 75.314 220.959 75.754C220.959 76.9713 221.523 77.58 222.653 77.58C223.063 77.58 223.687 77.4627 224.523 77.228C225.373 76.9933 225.967 76.876 226.305 76.876C226.73 76.876 227.082 77.0007 227.361 77.25V69.066C227.361 68.5087 227.258 68.1053 227.053 67.856C226.862 67.6067 226.547 67.482 226.107 67.482C225.344 67.482 224.655 67.812 224.039 68.472C223.423 69.1173 223.115 69.858 223.115 70.694C223.115 71.2513 223.261 71.6473 223.555 71.882C223.863 72.1167 224.317 72.234 224.919 72.234C225.315 72.234 225.637 72.212 225.887 72.168V74.39C225.505 74.478 225.058 74.522 224.545 74.522C223.254 74.522 222.264 74.1993 221.575 73.554C220.885 72.894 220.541 71.9407 220.541 70.694ZM251.321 67.57H248.769V80H246.195V78.02C246.195 76.8613 245.902 75.952 245.315 75.292C244.743 74.6173 243.929 74.28 242.873 74.28C242.184 74.28 241.634 74.4413 241.223 74.764C240.827 75.072 240.629 75.512 240.629 76.084C240.629 76.656 240.813 77.0887 241.179 77.382C241.561 77.6607 242.045 77.8 242.631 77.8C242.983 77.8 243.313 77.778 243.621 77.734V79.868C243.181 79.956 242.697 80 242.169 80C240.952 80 239.955 79.6627 239.177 78.988C238.415 78.3133 238.033 77.338 238.033 76.062C238.033 75.094 238.297 74.28 238.825 73.62C239.353 72.96 240.065 72.5053 240.959 72.256C240.827 71.3173 240.497 70.628 239.969 70.188C239.456 69.7333 238.723 69.506 237.769 69.506V67.57H236.383V65.48H251.321V67.57ZM246.195 73.818V67.57H240.167C241.091 67.9513 241.825 68.5453 242.367 69.352C242.91 70.144 243.247 71.0533 243.379 72.08C244.67 72.256 245.609 72.8353 246.195 73.818ZM256.887 67.57H254.797V80H252.245V69.088C252.245 68.516 252.157 68.12 251.981 67.9C251.805 67.68 251.468 67.57 250.969 67.57H250.133V65.48H251.255C251.827 65.48 252.253 65.766 252.531 66.338C252.385 65.5167 252.311 64.798 252.311 64.182V63.698H254.797V65.48H256.887V67.57ZM262.774 80.154C262.642 80.1833 262.393 80.198 262.026 80.198C261.014 80.198 260.164 79.9047 259.474 79.318C258.8 78.7167 258.323 77.976 258.044 77.096C257.766 76.2013 257.619 75.1747 257.604 74.016C257.604 70.848 258.132 68.6993 259.188 67.57H255.998V65.48H263.5V67.57H262.928C262.356 67.57 261.872 67.746 261.476 68.098C261.08 68.45 260.78 68.9487 260.574 69.594C260.384 70.2393 260.252 70.914 260.178 71.618C260.105 72.3073 260.068 73.1067 260.068 74.016C260.068 76.6413 260.816 77.954 262.312 77.954C262.532 77.954 262.686 77.9467 262.774 77.932V80.154ZM279.116 74.038C279.116 75.3873 278.749 76.436 278.016 77.184C277.282 77.932 276.307 78.306 275.09 78.306C274.899 78.306 274.752 78.2987 274.65 78.284V75.952H274.892C276.05 75.952 276.63 75.314 276.63 74.038C276.63 73.202 276.314 72.52 275.684 71.992C275.068 71.4493 274.224 71.1487 273.154 71.09V80H270.668V79.978L270.646 80L263.914 75.16V72.608C266.378 70.5107 268.629 69.2713 270.668 68.89V67.57H262.616V65.48H280.37V67.57H273.154V68.868C274.782 68.8973 276.182 69.3887 277.356 70.342C278.529 71.2807 279.116 72.5127 279.116 74.038ZM270.668 77.25V71.2C269.26 71.6107 267.756 72.5053 266.158 73.884L270.668 77.25ZM270.697 64.446L274.195 60.904H276.703V60.992L273.205 64.534H270.697V64.446ZM284.167 63.126V65.48H294.331C294.346 65.3773 294.353 65.2307 294.353 65.04C294.353 64.3213 293.92 63.962 293.055 63.962C292.615 63.962 291.955 64.006 291.075 64.094C290.21 64.182 289.542 64.226 289.073 64.226C287.87 64.226 286.954 63.9253 286.323 63.324C285.692 62.708 285.318 61.9307 285.201 60.992C284.512 61.388 284.167 62.0993 284.167 63.126ZM297.103 74.17C297.103 75.7247 296.582 77.1033 295.541 78.306C294.514 79.494 293.15 80.088 291.449 80.088C290.334 80.088 289.388 79.758 288.611 79.098C287.848 78.438 287.467 77.5507 287.467 76.436V67.57H284.145V80H281.593V67.57H279.481V65.48H281.593V63.126C281.593 61.6153 282.055 60.4787 282.979 59.716C283.903 58.9387 285.238 58.55 286.983 58.55C288.904 58.55 290.958 58.8433 293.143 59.43V61.366C291.412 60.882 289.447 60.6253 287.247 60.596C287.364 61.1533 287.584 61.5713 287.907 61.85C288.23 62.114 288.706 62.246 289.337 62.246C289.689 62.246 290.342 62.202 291.295 62.114C292.263 62.026 292.989 61.982 293.473 61.982C294.529 61.982 295.321 62.2533 295.849 62.796C296.377 63.3387 296.641 64.0133 296.641 64.82C296.641 64.9667 296.626 65.1867 296.597 65.48H298.489V67.57H290.019V76.436C290.019 76.8907 290.151 77.2427 290.415 77.492C290.679 77.7413 291.024 77.866 291.449 77.866C292.373 77.866 293.121 77.492 293.693 76.744C294.265 75.9813 294.551 75.1233 294.551 74.17C294.551 72.8353 293.832 72.168 292.395 72.168C292.072 72.168 291.772 72.1973 291.493 72.256V70.012C291.933 69.924 292.358 69.88 292.769 69.88C294.133 69.88 295.196 70.276 295.959 71.068C296.722 71.8453 297.103 72.8793 297.103 74.17ZM300.012 71.332C299.322 70.672 298.978 69.8287 298.978 68.802C298.978 67.7753 299.322 66.932 300.012 66.272C300.716 65.612 301.618 65.282 302.718 65.282C303.818 65.282 304.712 65.612 305.402 66.272C306.106 66.932 306.458 67.7753 306.458 68.802C306.458 69.8287 306.106 70.672 305.402 71.332C304.712 71.992 303.818 72.322 302.718 72.322C301.618 72.322 300.716 71.992 300.012 71.332ZM304.192 68.802C304.192 68.318 304.06 67.9293 303.796 67.636C303.546 67.328 303.187 67.174 302.718 67.174C302.248 67.174 301.882 67.328 301.618 67.636C301.354 67.9293 301.222 68.318 301.222 68.802C301.222 69.2713 301.354 69.66 301.618 69.968C301.882 70.2613 302.248 70.408 302.718 70.408C303.172 70.408 303.532 70.2613 303.796 69.968C304.06 69.66 304.192 69.2713 304.192 68.802ZM299.176 75.358V72.784L307.052 77.514V80.044L299.176 75.358Z" fill="#181818"/>
<rect x="57" y="117" width="165" height="62" rx="31" fill="url(#paint0_linear_426_6034)"/>
<path d="M81.208 146.296C81.208 145.261 81.576 144.36 82.312 143.592C83.048 142.824 83.9653 142.44 85.064 142.44C85.9067 142.44 86.5467 142.669 86.984 143.128C87.4213 143.587 87.64 144.253 87.64 145.128V153H86.12V152.904C86.12 152.445 85.912 152.216 85.496 152.216C85.304 152.216 84.8507 152.317 84.136 152.52C83.432 152.723 82.8507 152.824 82.392 152.824C81.592 152.824 80.936 152.589 80.424 152.12C79.912 151.64 79.656 150.963 79.656 150.088C79.656 149.768 79.6827 149.464 79.736 149.176H81.224C81.192 149.592 81.176 149.848 81.176 149.944C81.176 150.947 81.6293 151.448 82.536 151.448C82.856 151.448 83.3413 151.357 83.992 151.176C84.6427 150.995 85.1013 150.904 85.368 150.904C85.6773 150.904 85.928 151 86.12 151.192V145.128C86.12 144.659 86.0347 144.317 85.864 144.104C85.6933 143.891 85.4267 143.784 85.064 143.784C84.4773 143.784 83.9387 144.04 83.448 144.552C82.968 145.053 82.728 145.635 82.728 146.296C82.728 146.765 82.8507 147.096 83.096 147.288C83.352 147.469 83.72 147.56 84.2 147.56C84.3813 147.56 84.6267 147.544 84.936 147.512V148.84C84.584 148.904 84.2693 148.936 83.992 148.936C83.096 148.936 82.408 148.712 81.928 148.264C81.448 147.816 81.208 147.16 81.208 146.296ZM97.8183 153H96.3303V152.984L96.3143 153L89.3863 149.16V147.832H90.6823C91.5356 147.821 92.1969 147.581 92.6663 147.112C93.1463 146.643 93.3863 146.013 93.3863 145.224V145.096C92.9809 145.907 92.3249 146.312 91.4183 146.312C90.6396 146.312 90.0316 146.083 89.5943 145.624C89.1676 145.165 88.9543 144.573 88.9543 143.848C88.9543 143.389 89.0289 142.973 89.1783 142.6H90.6663C90.5489 142.973 90.4903 143.341 90.4903 143.704C90.4903 144.12 90.5969 144.445 90.8103 144.68C91.0343 144.915 91.3329 145.032 91.7063 145.032C92.1223 145.032 92.4369 144.888 92.6503 144.6C92.8743 144.312 92.9863 143.912 92.9863 143.4C92.9863 143.048 92.9756 142.781 92.9543 142.6H94.3943C94.6823 143.581 94.8263 144.456 94.8263 145.224C94.8263 146.184 94.5489 146.995 93.9943 147.656C93.4503 148.307 92.7089 148.717 91.7703 148.888L96.3303 151.464V141.272H97.8183V142.6H99.4983V143.88H97.8183V153ZM103.716 143.88H102.036V153H100.516V143.88H98.8362V142.6H100.516V142.024C100.516 139.827 101.77 138.728 104.276 138.728C105.642 138.728 107.05 138.973 108.5 139.464V140.696C107.124 140.237 105.743 140.008 104.356 140.008C103.514 140.008 102.916 140.179 102.564 140.52C102.223 140.851 102.052 141.352 102.052 142.024V142.6H103.716V143.88ZM111.263 153H109.727V152.952C109.663 152.355 109.567 151.789 109.439 151.256C109.321 150.712 109.156 150.195 108.943 149.704C108.729 149.213 108.452 148.824 108.111 148.536C107.78 148.237 107.401 148.088 106.975 148.088C106.495 148.088 106.127 148.237 105.871 148.536C105.625 148.835 105.503 149.235 105.503 149.736C105.503 149.949 105.524 150.205 105.567 150.504H104.079C104.015 150.237 103.983 149.939 103.983 149.608C103.983 148.787 104.233 148.099 104.735 147.544C105.236 146.989 105.924 146.712 106.799 146.712C108.143 146.712 109.119 147.427 109.727 148.856V143.88H103.071V142.6H112.879V143.88H111.263V153ZM128.073 150.232C128.073 151.171 127.62 151.912 126.713 152.456C125.806 153 124.612 153.272 123.129 153.272C121.241 153.272 119.764 152.888 118.697 152.12C117.641 151.352 117.065 150.339 116.969 149.08H118.569C118.622 149.997 119.054 150.707 119.865 151.208C120.676 151.709 121.769 151.96 123.145 151.96C125.406 151.96 126.537 151.373 126.537 150.2C126.548 149.731 126.372 149.379 126.009 149.144C125.657 148.909 125.15 148.792 124.489 148.792H124.009V147.464H124.441C125.038 147.464 125.502 147.304 125.833 146.984C126.174 146.653 126.345 146.2 126.345 145.624C126.345 144.867 126.057 144.328 125.481 144.008L124.537 145.96H123.209V145.496C123.209 144.291 122.74 143.688 121.801 143.688C121.406 143.688 121.081 143.843 120.825 144.152C120.58 144.451 120.457 144.856 120.457 145.368C120.457 145.933 120.596 146.349 120.873 146.616C121.15 146.883 121.529 147.016 122.009 147.016C122.148 147.016 122.345 147.005 122.601 146.984V148.232C122.377 148.275 122.132 148.296 121.865 148.296C120.916 148.296 120.217 147.976 119.769 147.336C119.342 147.976 118.681 148.296 117.785 148.296C117.476 148.296 117.209 148.275 116.985 148.232V146.968C117.198 147 117.412 147.016 117.625 147.016C118.105 147.016 118.462 146.888 118.697 146.632C118.932 146.365 119.049 145.944 119.049 145.368C119.049 144.376 118.526 143.88 117.481 143.88H115.977V142.584H117.609C118.548 142.584 119.257 142.92 119.737 143.592C120.228 142.867 120.9 142.499 121.753 142.488C122.948 142.488 123.705 143.059 124.025 144.2L124.841 142.44C125.705 142.493 126.425 142.824 127.001 143.432C127.577 144.04 127.865 144.765 127.865 145.608C127.865 146.269 127.705 146.813 127.385 147.24C127.076 147.656 126.644 147.939 126.089 148.088C126.686 148.173 127.166 148.397 127.529 148.76C127.892 149.112 128.073 149.603 128.073 150.232ZM137.722 143.88H136.058V153H134.554L129.594 149.32V147.704C131.151 146.328 132.804 145.411 134.554 144.952V143.88H128.617V142.6H137.722V143.88ZM131.098 151.896C131.29 152.077 131.386 152.301 131.386 152.568C131.386 152.835 131.29 153.059 131.098 153.24C130.916 153.421 130.692 153.512 130.426 153.512C130.159 153.512 129.935 153.421 129.754 153.24C129.572 153.059 129.482 152.835 129.482 152.568C129.482 152.301 129.572 152.077 129.754 151.896C129.935 151.704 130.159 151.608 130.426 151.608C130.692 151.608 130.916 151.704 131.098 151.896ZM134.554 151.288V146.392C133.263 146.861 132.058 147.565 130.938 148.504L134.554 151.288ZM141.438 143.88H137.086V142.6H141.438V143.88ZM137.886 145.816C138.644 145.816 139.236 146.04 139.662 146.488C140.1 146.925 140.318 147.523 140.318 148.28C140.318 148.995 140.089 149.592 139.63 150.072C139.172 150.552 138.548 150.792 137.758 150.792C137.246 150.792 136.788 150.659 136.382 150.392C135.966 150.115 135.689 149.731 135.55 149.24L136.046 147.864C136.046 148.365 136.201 148.765 136.51 149.064C136.809 149.363 137.188 149.512 137.646 149.512C138.041 149.512 138.345 149.395 138.558 149.16C138.782 148.925 138.894 148.616 138.894 148.232C138.894 147.859 138.793 147.576 138.59 147.384C138.388 147.181 138.105 147.08 137.742 147.08C137.518 147.08 137.358 147.091 137.262 147.112V145.864C137.444 145.832 137.652 145.816 137.886 145.816ZM156.315 148.6C156.315 149.56 156.054 150.307 155.531 150.84C155.009 151.363 154.331 151.624 153.499 151.624C153.35 151.624 153.243 151.619 153.179 151.608V150.2H153.371C154.331 150.2 154.811 149.667 154.811 148.6C154.811 147.917 154.55 147.363 154.027 146.936C153.515 146.509 152.833 146.28 151.979 146.248V153H150.475L145.515 149.32V147.704C147.307 146.125 148.961 145.203 150.475 144.936V143.88H144.539V142.6H157.259V143.88H151.979V144.904C153.195 144.925 154.219 145.277 155.051 145.96C155.894 146.632 156.315 147.512 156.315 148.6ZM150.475 151.304V146.312C149.355 146.611 148.145 147.347 146.843 148.52L150.475 151.304ZM165.722 143.88H164.058V153H162.554L157.594 149.32V147.704C159.151 146.328 160.804 145.411 162.554 144.952V143.88H156.617V142.6H165.722V143.88ZM159.098 151.896C159.29 152.077 159.386 152.301 159.386 152.568C159.386 152.835 159.29 153.059 159.098 153.24C158.916 153.421 158.692 153.512 158.426 153.512C158.159 153.512 157.935 153.421 157.754 153.24C157.572 153.059 157.482 152.835 157.482 152.568C157.482 152.301 157.572 152.077 157.754 151.896C157.935 151.704 158.159 151.608 158.426 151.608C158.692 151.608 158.916 151.704 159.098 151.896ZM162.554 151.288V146.392C161.263 146.861 160.058 147.565 158.938 148.504L162.554 151.288ZM169.438 143.88H165.086V142.6H169.438V143.88ZM165.886 145.816C166.644 145.816 167.236 146.04 167.662 146.488C168.1 146.925 168.318 147.523 168.318 148.28C168.318 148.995 168.089 149.592 167.63 150.072C167.172 150.552 166.548 150.792 165.758 150.792C165.246 150.792 164.788 150.659 164.382 150.392C163.966 150.115 163.689 149.731 163.55 149.24L164.046 147.864C164.046 148.365 164.201 148.765 164.51 149.064C164.809 149.363 165.188 149.512 165.646 149.512C166.041 149.512 166.345 149.395 166.558 149.16C166.782 148.925 166.894 148.616 166.894 148.232C166.894 147.859 166.793 147.576 166.59 147.384C166.388 147.181 166.105 147.08 165.742 147.08C165.518 147.08 165.358 147.091 165.262 147.112V145.864C165.444 145.832 165.652 145.816 165.886 145.816ZM176.997 153H175.461V152.952C175.397 152.355 175.301 151.789 175.173 151.256C175.056 150.712 174.89 150.195 174.677 149.704C174.464 149.213 174.186 148.824 173.845 148.536C173.514 148.237 173.136 148.088 172.709 148.088C172.229 148.088 171.861 148.237 171.605 148.536C171.36 148.835 171.237 149.235 171.237 149.736C171.237 149.949 171.258 150.205 171.301 150.504H169.813C169.749 150.237 169.717 149.939 169.717 149.608C169.717 148.787 169.968 148.099 170.469 147.544C170.97 146.989 171.658 146.712 172.533 146.712C173.877 146.712 174.853 147.427 175.461 148.856V143.88H168.805V142.6H178.613V143.88H176.997V153Z" fill="white"/>
<path d="M191.833 143.833L196 148M196 148L191.833 152.167M196 148H186" stroke="white" stroke-width="2" stroke-linecap="round" stroke-linejoin="round"/>
<circle cx="474" cy="88" r="146" fill="#F8FAFC"/>
<g clip-path="url(#clip1_426_6034)">
<path d="M475.466 49H473.715L471.955 111.023H473.706C475.32 111.023 476.666 109.713 476.712 108.097L478.306 51.9218C478.352 50.3099 477.081 49 475.466 49Z" fill="#19891C"/>
<path d="M477.031 51.9218L475.437 108.097C475.391 109.713 474.045 111.023 472.43 111.023H417.298C415.688 111.023 414.416 109.713 414.462 108.097L416.056 51.9218C416.102 50.3099 417.448 49 419.058 49H474.19C475.805 49 477.077 50.3099 477.031 51.9218Z" fill="#DDF3DD"/>
<path d="M472.608 73.0296H419.281L419.824 53.8911H473.151L472.608 73.0296Z" fill="#19891C"/>
<path d="M433.172 67.9368C435.714 65.4277 435.8 61.3884 433.363 58.9148C430.927 56.4412 426.89 56.47 424.348 58.9791C421.805 61.4882 421.719 65.5274 424.156 68.001C426.593 70.4746 430.629 70.4459 433.172 67.9368Z" fill="white"/>
<path d="M427.938 66.9388L427.959 66.1738C427.521 66.1661 427.07 66.0298 426.811 65.8404L427.007 65.333C427.274 65.5147 427.664 65.6587 428.088 65.6587C428.625 65.6587 428.997 65.348 429.01 64.9164C429.022 64.4999 428.734 64.2423 428.18 64.0151C427.416 63.7122 426.949 63.3637 426.968 62.705C426.986 62.0763 427.446 61.5992 428.145 61.4857L428.167 60.7207H428.636L428.615 61.4553C429.069 61.4703 429.376 61.5916 429.592 61.7205L429.388 62.2203C429.232 62.1294 428.926 61.9627 428.442 61.9627C427.859 61.9627 427.63 62.3111 427.621 62.6141C427.61 63.008 427.884 63.205 428.535 63.4776C429.306 63.7957 429.689 64.1895 429.67 64.8636C429.653 65.4619 429.22 66.0225 428.437 66.1511L428.415 66.9388H427.938Z" fill="#FABE25"/>
<path d="M444.144 61.6476H438.727L438.814 58.564H444.232L444.144 61.6476Z" fill="#E5EAF0"/>
<path d="M470.285 65.0024H438.629L438.671 63.5135H470.327L470.285 65.0024Z" fill="#E5EAF0"/>
<path d="M452.44 66.868H438.577L438.535 68.3568H452.398L452.44 66.868Z" fill="#E5EAF0"/>
<path d="M460.035 66.8681H455.839L455.797 68.3569H459.993L460.035 66.8681Z" fill="#E5EAF0"/>
<path d="M461.628 66.868L461.586 68.3568H464.242L464.284 66.868H461.628Z" fill="#E5EAF0"/>
<path d="M471.686 105.494H418.359L419.168 76.9991H472.494L471.686 105.494Z" fill="white"/>
<path d="M427.51 79.7023L426.857 102.78L427.202 102.79L427.854 79.712L427.51 79.7023Z" fill="#E5EAF0"/>
<path d="M432.555 79.7021L431.902 102.78L432.247 102.79L432.899 79.7119L432.555 79.7021Z" fill="#E5EAF0"/>
<path d="M437.6 79.7024L436.947 102.78L437.292 102.79L437.944 79.7122L437.6 79.7024Z" fill="#E5EAF0"/>
<path d="M442.645 79.7021L441.992 102.78L442.336 102.79L442.989 79.7119L442.645 79.7021Z" fill="#E5EAF0"/>
<path d="M447.692 79.7021L447.039 102.78L447.383 102.79L448.036 79.7119L447.692 79.7021Z" fill="#E5EAF0"/>
<path d="M452.737 79.7021L452.084 102.78L452.428 102.79L453.081 79.7119L452.737 79.7021Z" fill="#E5EAF0"/>
<path d="M457.782 79.7024L457.129 102.78L457.473 102.79L458.126 79.7122L457.782 79.7024Z" fill="#E5EAF0"/>
<path d="M462.827 79.7024L462.174 102.78L462.518 102.79L463.171 79.7122L462.827 79.7024Z" fill="#E5EAF0"/>
<path d="M466.277 83.6647H424.174V84.0095H466.277V83.6647Z" fill="#E5EAF0"/>
<path d="M466.137 88.6042H424.033V88.949H466.137V88.6042Z" fill="#E5EAF0"/>
<path d="M465.998 93.5443H423.895V93.889H465.998V93.5443Z" fill="#E5EAF0"/>
<path d="M465.857 98.4837H423.754V98.8285H465.857V98.4837Z" fill="#E5EAF0"/>
<path d="M427.329 98.8403L426.967 98.4716L434.393 91.1674L444.242 95.8163L450.096 86.529L455.707 91.5088L465.973 81.1845L466.339 81.5492L455.729 92.2191L450.208 87.3195L444.435 96.4787L434.499 91.7884L427.329 98.8403Z" fill="#434C69"/>
<path d="M466.793 82.381C467.275 81.9055 467.291 81.1398 466.829 80.6709C466.367 80.202 465.602 80.2074 465.121 80.6829C464.639 81.1585 464.622 81.9241 465.084 82.393C465.546 82.8619 466.311 82.8565 466.793 82.381Z" fill="#19891C"/>
<path d="M456.479 92.5664C456.961 92.0909 456.977 91.3253 456.515 90.8564C456.053 90.3875 455.288 90.3928 454.806 90.8684C454.324 91.3439 454.308 92.1095 454.77 92.5784C455.232 93.0473 455.997 93.042 456.479 92.5664Z" fill="#19891C"/>
<path d="M450.836 87.6795C451.318 87.204 451.334 86.4384 450.872 85.9695C450.41 85.5006 449.645 85.5059 449.164 85.9815C448.682 86.457 448.665 87.2226 449.127 87.6915C449.589 88.1604 450.354 88.1551 450.836 87.6795Z" fill="#19891C"/>
<path d="M445.166 96.9565C445.648 96.481 445.664 95.7154 445.202 95.2465C444.741 94.7776 443.975 94.7829 443.494 95.2585C443.012 95.734 442.996 96.4996 443.457 96.9685C443.919 97.4375 444.684 97.4321 445.166 96.9565Z" fill="#19891C"/>
<path d="M435.393 92.5692C435.875 92.0936 435.891 91.328 435.429 90.8591C434.967 90.3902 434.202 90.3956 433.72 90.8711C433.238 91.3466 433.222 92.1123 433.684 92.5812C434.146 93.0501 434.911 93.0447 435.393 92.5692Z" fill="#19891C"/>
<path d="M427.985 99.503C428.467 99.0275 428.483 98.2619 428.021 97.793C427.559 97.3241 426.794 97.3294 426.312 97.805C425.83 98.2805 425.814 99.0461 426.276 99.5151C426.738 99.984 427.503 99.9786 427.985 99.503Z" fill="#19891C"/>
<path d="M405.754 147.255L392.742 148.42L380.605 144.011L374.162 111.559C374.162 111.559 376.16 109.104 385.519 112.01C394.879 114.917 400.284 140.862 400.284 140.862L405.754 147.255Z" fill="#C5CCD8"/>
<path d="M410.612 179.977C410.612 180.526 410.168 181 409.584 181C409.145 181 408.758 180.723 408.614 180.312L398.553 151.28L401.296 149.401L410.566 179.676C410.595 179.774 410.612 179.879 410.612 179.977Z" fill="#C5CCD8"/>
<path d="M374.574 179.977C374.574 180.526 375.019 181 375.602 181C376.041 181 376.428 180.723 376.573 180.312L386.634 151.28L383.89 149.401L374.621 179.676C374.591 179.774 374.574 179.879 374.574 179.977Z" fill="#C5CCD8"/>
<path d="M424.844 170.015L425.292 174.216L427.342 175.993L431.482 173.887L431.404 170.015H424.844Z" fill="#FFC69D"/>
<path d="M432.647 175.742C432.634 175.742 432.62 175.74 432.607 175.736C432.553 175.72 432.514 175.673 432.508 175.617C432.49 175.446 432.347 173.939 432.838 173.513C432.966 173.402 433.127 173.367 433.303 173.413C433.525 173.47 433.614 173.61 433.65 173.718C433.847 174.317 432.867 175.552 432.755 175.69C432.729 175.724 432.688 175.742 432.647 175.742ZM433.156 173.674C433.105 173.674 433.061 173.691 433.021 173.725C432.788 173.928 432.738 174.645 432.761 175.221C433.109 174.734 433.477 174.087 433.385 173.806C433.371 173.764 433.341 173.712 433.235 173.685C433.206 173.678 433.18 173.674 433.156 173.674Z" fill="#181818"/>
<path d="M440.903 179.358H425.373L425.291 174.217C427.006 174.915 429.654 174.797 431.481 173.887L432.074 174.806L438.15 177.208L439.36 177.685C440.122 177.971 440.686 178.598 440.903 179.358Z" fill="#585D83"/>
<path d="M425.375 179.357V180.401C425.375 180.726 425.638 180.993 425.966 180.993H440.355C440.716 180.993 441.01 180.695 441.01 180.333V180.075C441.01 180.008 441.007 179.943 441.001 179.879C440.998 179.82 440.992 179.765 440.983 179.71C440.974 179.649 440.961 179.59 440.949 179.532L440.903 179.357H425.375Z" fill="#181818"/>
<path d="M432.486 176.581L436.67 178.1C437.133 178.268 437.657 178.078 437.899 177.645L438.15 177.208L432.072 174.806L431.896 175.221C431.667 175.76 431.936 176.378 432.486 176.581Z" fill="#434C69"/>
<path d="M436.659 177.509C436.714 177.509 436.766 177.477 436.788 177.423L437.148 176.573C437.178 176.502 437.145 176.419 437.074 176.389C437.003 176.359 436.921 176.392 436.891 176.463L436.531 177.314C436.501 177.385 436.534 177.468 436.605 177.498C436.623 177.505 436.641 177.509 436.659 177.509Z" fill="#181818"/>
<path d="M435.573 177.123C435.628 177.123 435.68 177.091 435.702 177.038L436.062 176.187C436.092 176.116 436.059 176.034 435.988 176.004C435.917 175.974 435.835 176.007 435.805 176.078L435.445 176.928C435.415 176.999 435.448 177.082 435.519 177.112C435.537 177.12 435.555 177.123 435.573 177.123Z" fill="#181818"/>
<path d="M434.49 176.738C434.544 176.738 434.596 176.706 434.618 176.653L434.978 175.802C435.008 175.731 434.975 175.648 434.904 175.618C434.833 175.588 434.751 175.621 434.721 175.692L434.361 176.543C434.331 176.614 434.364 176.697 434.435 176.727C434.453 176.735 434.471 176.738 434.49 176.738Z" fill="#181818"/>
<path d="M433.406 176.353C433.46 176.353 433.512 176.321 433.534 176.267L433.894 175.417C433.924 175.345 433.891 175.263 433.82 175.233C433.749 175.203 433.667 175.236 433.636 175.307L433.277 176.158C433.247 176.229 433.28 176.311 433.351 176.341C433.369 176.349 433.387 176.353 433.406 176.353Z" fill="#181818"/>
<path d="M432.657 175.6C432.61 175.6 432.566 175.576 432.54 175.535C432.508 175.486 432.51 175.422 432.545 175.376C432.649 175.236 433.566 174.009 434.171 174.04C434.318 174.047 434.44 174.122 434.523 174.257C434.606 174.392 434.618 174.537 434.559 174.675C434.318 175.236 432.853 175.562 432.687 175.597C432.677 175.599 432.667 175.6 432.657 175.6ZM434.149 174.32C433.875 174.32 433.389 174.791 433.024 175.223C433.565 175.07 434.192 174.82 434.302 174.564C434.325 174.51 434.319 174.461 434.284 174.403C434.241 174.333 434.197 174.322 434.159 174.32C434.155 174.32 434.152 174.32 434.149 174.32Z" fill="#181818"/>
<path d="M407.299 170.015L407.747 174.216L409.797 175.993L413.937 173.887L413.859 170.015H407.299Z" fill="#FFC69D"/>
<path d="M415.104 175.742C415.091 175.742 415.077 175.74 415.064 175.736C415.01 175.72 414.971 175.673 414.965 175.617C414.947 175.446 414.804 173.939 415.295 173.513C415.423 173.402 415.584 173.367 415.76 173.413C415.982 173.47 416.071 173.61 416.107 173.718C416.304 174.317 415.325 175.552 415.212 175.69C415.186 175.724 415.145 175.742 415.104 175.742ZM415.613 173.674C415.562 173.674 415.518 173.691 415.478 173.725C415.244 173.928 415.194 174.645 415.217 175.221C415.566 174.734 415.934 174.087 415.841 173.806C415.827 173.764 415.798 173.712 415.691 173.685C415.663 173.678 415.637 173.674 415.613 173.674Z" fill="#181818"/>
<path d="M423.358 179.358H407.828L407.746 174.217C409.461 174.915 412.109 174.797 413.936 173.887L414.529 174.806L420.606 177.208L421.815 177.685C422.577 177.971 423.141 178.598 423.358 179.358Z" fill="#585D83"/>
<path d="M407.83 179.357V180.401C407.83 180.726 408.094 180.993 408.421 180.993H422.81C423.171 180.993 423.465 180.695 423.465 180.333V180.075C423.465 180.008 423.462 179.943 423.456 179.879C423.453 179.82 423.447 179.765 423.438 179.71C423.429 179.649 423.416 179.59 423.404 179.532L423.358 179.357H407.83Z" fill="#181818"/>
<path d="M414.942 176.581L419.125 178.1C419.588 178.268 420.112 178.078 420.354 177.645L420.605 177.208L414.528 174.806L414.351 175.221C414.122 175.76 414.391 176.378 414.942 176.581Z" fill="#434C69"/>
<path d="M419.116 177.509C419.171 177.509 419.223 177.477 419.245 177.423L419.605 176.573C419.635 176.502 419.602 176.419 419.531 176.389C419.46 176.359 419.378 176.392 419.348 176.463L418.988 177.314C418.958 177.385 418.991 177.468 419.062 177.498C419.08 177.505 419.098 177.509 419.116 177.509Z" fill="#181818"/>
<path d="M418.031 177.123C418.085 177.123 418.137 177.091 418.159 177.038L418.519 176.187C418.549 176.116 418.516 176.034 418.445 176.004C418.374 175.974 418.292 176.007 418.262 176.078L417.902 176.928C417.872 176.999 417.905 177.082 417.976 177.112C417.994 177.12 418.012 177.123 418.031 177.123Z" fill="#181818"/>
<path d="M416.947 176.738C417.001 176.738 417.053 176.706 417.075 176.653L417.435 175.802C417.465 175.731 417.432 175.648 417.361 175.618C417.29 175.588 417.208 175.621 417.178 175.692L416.818 176.543C416.788 176.614 416.821 176.697 416.892 176.727C416.91 176.735 416.928 176.738 416.947 176.738Z" fill="#181818"/>
<path d="M415.863 176.353C415.917 176.353 415.969 176.321 415.991 176.267L416.351 175.417C416.381 175.345 416.348 175.263 416.277 175.233C416.206 175.203 416.124 175.236 416.093 175.307L415.734 176.158C415.704 176.229 415.737 176.311 415.808 176.341C415.826 176.349 415.844 176.353 415.863 176.353Z" fill="#181818"/>
<path d="M415.112 175.6C415.066 175.6 415.021 175.576 414.995 175.535C414.963 175.486 414.966 175.422 415 175.376C415.104 175.236 416.021 174.009 416.626 174.04C416.774 174.047 416.895 174.122 416.978 174.257C417.061 174.392 417.073 174.537 417.014 174.675C416.774 175.236 415.308 175.562 415.142 175.597C415.132 175.599 415.122 175.6 415.112 175.6ZM416.603 174.32C416.33 174.32 415.844 174.791 415.479 175.223C416.02 175.07 416.647 174.82 416.757 174.564C416.78 174.51 416.774 174.461 416.739 174.403C416.696 174.333 416.651 174.322 416.614 174.32C416.61 174.32 416.607 174.32 416.603 174.32Z" fill="#181818"/>
<path d="M432.607 170.758H424.181L417.043 149.916L416.134 147.258H407.331L394.732 138.797L392.74 137.461V129.86L398.073 128.292L402.241 133.459C402.241 133.459 420.532 135.874 422.791 137.364C428.051 140.834 432.607 170.758 432.607 170.758Z" fill="#171727"/>
<path d="M424.183 170.758L417.044 149.916L412.311 137.24C412.311 137.24 417.828 139.364 419.03 142.305C420.231 145.242 424.183 170.758 424.183 170.758Z" fill="#2F2F3D"/>
<path d="M407.086 170.759H416.773C416.773 170.759 418.441 144.114 416.362 140.414C413.36 135.07 397.138 133.074 394.911 131.44L382.196 131.203C382.196 131.203 381.919 134.854 382.041 138.696C382.189 143.471 385.532 147.256 390.294 147.256H404.937L407.086 170.759Z" fill="#171727"/>
<path d="M414.645 106.398C414.72 106.24 417.196 101.188 418.431 101.045C419.688 100.901 420.036 101.57 420.036 101.57C420.036 101.57 424.572 96.2259 425.55 97.0032C426.532 97.7808 422.24 101.921 422.24 101.921C422.24 101.921 423.95 100.749 424.077 101.88C424.2 102.943 423.158 103.39 423.039 103.44C423.198 103.39 425.159 102.814 425.266 103.735C425.377 104.697 423.936 105.414 423.936 105.414C423.936 105.414 425.13 105.436 424.868 106.538C424.575 107.769 421.415 110.301 418.153 110.106" fill="#FFC69D"/>
<path d="M420.035 101.569C420.295 102.075 420.487 102.619 420.583 103.191C420.629 103.478 420.644 103.775 420.586 104.077C420.527 104.374 420.32 104.69 420.007 104.803C419.708 104.924 419.358 104.893 419.085 104.743C418.812 104.595 418.598 104.379 418.429 104.142C418.085 103.671 417.849 103.142 417.699 102.592C417.948 103.101 418.227 103.598 418.584 104.018C418.764 104.224 418.963 104.416 419.196 104.525C419.423 104.641 419.684 104.657 419.91 104.564C420.14 104.483 420.286 104.272 420.349 104.021C420.412 103.766 420.403 103.49 420.387 103.215C420.368 102.939 420.311 102.663 420.25 102.389C420.194 102.113 420.115 101.842 420.035 101.569Z" fill="#F68B82"/>
<path d="M423.029 103.442C422.471 103.713 421.919 103.991 421.397 104.312C421.14 104.477 420.885 104.645 420.662 104.843C420.447 105.036 420.231 105.275 420.229 105.514C420.224 105.627 420.281 105.745 420.369 105.836C420.455 105.928 420.58 105.981 420.714 106.013C420.987 106.078 421.292 106.041 421.588 105.993C421.886 105.942 422.181 105.856 422.473 105.759C422.767 105.669 423.055 105.556 423.343 105.441C422.814 105.767 422.243 106.029 421.63 106.187C421.324 106.266 421 106.313 420.663 106.252C420.329 106.199 419.972 105.918 419.971 105.51C419.975 105.314 420.063 105.147 420.162 105.012C420.263 104.876 420.38 104.761 420.504 104.657C420.754 104.455 421.02 104.284 421.299 104.14C421.853 103.848 422.432 103.614 423.029 103.442Z" fill="#F68B82"/>
<path d="M421.909 106.015C421.697 106.242 421.493 106.471 421.311 106.706C421.141 106.936 420.959 107.217 421.013 107.427C421.032 107.523 421.126 107.622 421.237 107.684C421.347 107.75 421.486 107.774 421.628 107.785C421.914 107.799 422.218 107.752 422.518 107.678C422.256 107.844 421.957 107.966 421.628 107.987C421.312 108.014 420.893 107.897 420.762 107.489C420.718 107.289 420.783 107.104 420.863 106.96C420.949 106.817 421.045 106.686 421.159 106.575C421.38 106.347 421.636 106.164 421.909 106.015Z" fill="#F68B82"/>
<path d="M419.306 110.555C419.306 110.555 412.901 121.525 407.668 122.286C406.377 122.472 404.8 122.104 403.17 121.458C400.94 120.565 398.618 119.155 396.813 117.934C394.887 116.63 393.553 115.545 393.553 115.545L396.802 105.673C397.876 106.276 403.164 110.128 407.084 113.234L414.544 105.305L419.306 110.555Z" fill="#19891C"/>
<path d="M403.171 121.458C400.942 120.565 398.619 119.155 396.814 117.933C397.51 115.666 399.072 109.518 399.072 109.518L399.129 109.811L400.296 113.813C400.296 113.813 401.623 116.752 401.98 118.758C402.14 119.665 402.597 120.622 403.171 121.458Z" fill="#4EA050"/>
<path d="M383.3 135.475C382.012 135.182 381.181 134.743 381.092 134.143L381.074 133.451L380.849 124.203C380.849 124.203 380.525 122.439 380.168 120.033C380.122 119.722 380.075 119.401 380.029 119.069C379.383 114.499 378.755 108.358 379.85 107.169C382.804 103.962 394.732 102.974 397.989 106.608C399.466 108.261 399.63 114.974 399.63 114.974C401.81 118.38 400.668 121.461 400.668 121.461L401.3 124.864L402.431 130.937L402.73 132.558C403.102 135.075 388.687 136.707 383.3 135.475Z" fill="#19891C"/>
<path d="M402.431 130.937L381.074 133.451L380.849 124.203C380.849 124.203 380.525 122.439 380.168 120.033L382.44 108.343C382.44 108.343 384.456 110.664 385.073 112.153C385.687 113.642 385.986 123.757 385.986 123.757L401.3 124.864L402.431 130.937Z" fill="#4EA050"/>
<path d="M405.928 123.301L405.142 130.908C405.098 131.338 404.714 131.704 404.285 131.722L399.63 131.925C399.203 131.944 398.891 131.609 398.936 131.179L399.722 123.571C399.766 123.141 400.15 122.776 400.577 122.757L405.231 122.554C405.661 122.536 405.972 122.871 405.928 123.301Z" fill="#4B5173"/>
<path d="M401.656 122.71C401.229 122.729 400.845 123.094 400.801 123.524L400.016 131.132C399.97 131.562 400.283 131.897 400.71 131.878L399.63 131.925C399.203 131.944 398.892 131.609 398.936 131.179L399.721 123.571C399.765 123.141 400.15 122.776 400.577 122.757L401.656 122.71Z" fill="#30323E"/>
<path d="M404.387 127.467C404.286 128.267 402.482 128.431 402.482 128.431C402.482 128.431 404.068 128.379 403.845 129.218C403.638 129.989 401.806 129.895 401.524 129.877C401.777 129.913 403.325 130.155 402.878 130.796C402.389 131.492 397.769 131.019 397.769 131.019L397.766 125.907C397.766 125.907 398.832 124.227 399.709 124.211L399.437 126.328C399.437 126.328 402.962 125.614 403.09 126.54C403.135 126.861 402.939 127.071 402.669 127.21C403.511 127.077 404.442 127.025 404.387 127.467Z" fill="#FFC69D"/>
<path d="M397.727 125.026L385.073 124.867L384.949 114.794C384.124 107.405 380.126 107.024 380.126 107.024C374.376 109.981 376.59 130.136 381.422 131.695C384.794 132.783 392.787 131.224 398.008 131.476L397.727 125.026Z" fill="#19891C"/>
<path d="M374.161 111.558C374.161 111.558 375.795 109.855 378.009 115.347C380.223 120.838 380.284 141.643 386 144.052C392.474 146.781 405.754 147.256 405.754 147.256C405.754 147.256 404.504 151.299 398.919 151.303C394.106 151.306 382.309 152.585 377.529 148.099C372.884 143.739 374.161 111.558 374.161 111.558Z" fill="#E5EAF0"/>
<path d="M384.037 93.7722C386.335 94.338 387.738 96.6597 387.174 98.9571C387.118 99.1818 387.047 99.397 386.96 99.6033C386.156 101.512 384.065 102.607 381.991 102.096C379.696 101.531 378.292 99.2091 378.858 96.9092C379.225 95.414 380.336 94.2978 381.7 93.856C382.43 93.6172 383.236 93.5749 384.037 93.7722Z" fill="#6E302F"/>
<path d="M384.037 93.7722C386.334 94.338 387.738 96.6597 387.173 98.9571C387.118 99.1818 387.047 99.397 386.959 99.6033C383.133 98.9908 381.704 96.5062 381.699 93.8564C382.43 93.6172 383.235 93.5749 384.037 93.7722Z" fill="#5D1F1E"/>
<path d="M392.172 104.924C391.986 104.384 391.79 103.324 391.699 102.545C391.648 102.087 391.631 101.6 391.676 101.112C388.951 100.595 386.347 97.4065 386.256 97.297C386.252 97.2936 386.252 97.2936 386.252 97.2936L385.072 104.571C385.072 106.053 388.491 108.522 390.531 108.334C391.905 108.207 392.172 105.921 392.172 104.924Z" fill="#FFC69D"/>
<path d="M391.699 102.545C391.541 102.456 386.786 99.75 386.252 97.2939C386.252 97.2939 386.252 97.2939 386.256 97.2973C386.346 97.4069 388.95 100.595 391.676 101.112C391.631 101.6 391.648 102.087 391.699 102.545Z" fill="#E3965E"/>
<path d="M393.972 101.357C393.293 101.644 392.59 101.677 391.89 101.543C389.016 101.001 386.273 97.64 386.179 97.5243C386.176 97.5212 386.176 97.5212 386.176 97.5212C384.051 96.8173 382.154 93.7491 383.427 92.6096C385.18 91.0557 386.702 92.7683 386.702 92.7683L387.457 88.408C387.457 88.408 392.088 84.7365 394.367 85.675C395.156 86.0041 395.786 87.7928 396.118 90.0595C396.142 90.221 396.163 90.3886 396.185 90.5562C396.718 94.8002 396.246 100.395 393.972 101.357Z" fill="#FFC69D"/>
<path d="M390.419 89.7116C388.258 89.7116 389.007 93.0877 388.526 93.5721C388.042 94.0534 386.702 92.7678 386.702 92.7678C386.702 92.7678 385.18 91.0555 383.427 92.6091C382.154 93.7486 384.051 96.8172 386.175 97.5207C386.175 97.5207 386.175 97.5207 386.179 97.5238C386.179 97.5238 381.872 97.5069 380.88 92.766C377.805 78.0747 398.414 81.0327 396.999 88.6448C396.722 90.1358 391.832 89.7116 390.419 89.7116Z" fill="#6E302F"/>
<path d="M394.106 97.5003L394.11 97.5476C394.142 98.1247 393.859 98.6524 393.408 98.9526C393.193 99.0926 392.944 99.184 392.675 99.2077C392.009 99.266 391.401 98.8973 391.124 98.331C391.044 98.1729 390.992 97.9976 390.972 97.8122L390.969 97.7756C390.967 97.7428 390.975 97.7127 390.972 97.6835C392.103 97.4484 393.166 97.3185 394.087 97.41C394.093 97.4389 394.103 97.4674 394.106 97.5003Z" fill="#E3965E"/>
<path d="M394.106 97.5003L394.11 97.5476C393.002 98.0065 391.993 98.0046 390.972 97.8122L390.969 97.7756C390.967 97.7428 390.975 97.7127 390.972 97.6835C392.103 97.4484 393.166 97.3185 394.087 97.41C394.093 97.4389 394.103 97.4674 394.106 97.5003Z" fill="white"/>
<path d="M393.557 95.8579C393.552 95.8579 393.548 95.8579 393.544 95.8579C393.473 95.8563 393.416 95.7971 393.418 95.7255C393.42 95.6543 393.486 95.5975 393.55 95.5994C393.657 95.6018 393.759 95.5481 393.845 95.4483C393.964 95.3102 394.02 95.1147 393.99 94.9385C393.964 94.7856 393.888 94.6465 393.808 94.4995C393.779 94.4458 393.75 94.392 393.724 94.3374C393.352 93.5832 393.399 92.6644 393.438 91.9261C393.441 91.8546 393.502 91.8012 393.573 91.8036C393.644 91.8073 393.699 91.8681 393.695 91.9393C393.659 92.6478 393.613 93.5291 393.955 94.2229C393.981 94.2745 394.008 94.3251 394.036 94.3758C394.122 94.5348 394.211 94.6993 394.244 94.8946C394.288 95.149 394.211 95.4189 394.04 95.6169C393.906 95.7728 393.735 95.8579 393.557 95.8579Z" fill="#E3965E"/>
<path d="M395.153 93.5071C395.389 93.4865 395.55 93.1381 395.514 92.729C395.479 92.32 395.259 92.0051 395.024 92.0258C394.788 92.0464 394.627 92.3948 394.663 92.8038C394.698 93.2129 394.918 93.5278 395.153 93.5071Z" fill="#1E1D1E"/>
<path d="M391.747 92.9422C391.783 93.3514 391.622 93.6996 391.386 93.7204C391.151 93.741 390.931 93.4263 390.896 93.0171C390.86 92.6079 391.021 92.2598 391.257 92.239C391.492 92.2181 391.711 92.5333 391.747 92.9422Z" fill="#1E1D1E"/>
<path d="M394.356 91.5936C394.332 91.5936 394.308 91.5872 394.287 91.5734C394.226 91.5353 394.208 91.4555 394.247 91.395C394.258 91.3775 394.522 90.9677 394.964 90.8992C395.231 90.8578 395.497 90.9477 395.758 91.1666C395.813 91.2124 395.82 91.294 395.774 91.3487C395.729 91.4033 395.647 91.4104 395.593 91.3646C395.391 91.1958 395.193 91.1255 395.003 91.1543C394.676 91.2053 394.467 91.5298 394.465 91.5332C394.44 91.5724 394.399 91.5936 394.356 91.5936Z" fill="#1E1D1E"/>
<path d="M390.42 91.7878C390.396 91.7878 390.372 91.7813 390.351 91.7675C390.291 91.7291 390.273 91.6496 390.311 91.5895C390.322 91.572 390.586 91.1621 391.028 91.0934C391.294 91.0519 391.562 91.1422 391.823 91.3611C391.877 91.4068 391.884 91.4885 391.839 91.5431C391.793 91.5977 391.711 91.6048 391.657 91.5591C391.456 91.3905 391.258 91.3202 391.069 91.3485C390.744 91.3982 390.531 91.7245 390.529 91.7279C390.505 91.7666 390.463 91.7878 390.42 91.7878Z" fill="#1E1D1E"/>
<path d="M481.066 168.301L480.527 174.115C480.451 175.348 475.378 175.034 475.454 173.801L475.465 168.301H481.066Z" fill="#FFC69D"/>
<path d="M473.14 175.367C473.02 175.219 471.978 173.908 472.188 173.272C472.226 173.157 472.321 173.008 472.557 172.947C472.745 172.899 472.916 172.936 473.052 173.054C473.575 173.506 473.423 175.107 473.404 175.288C473.397 175.348 473.356 175.399 473.298 175.415C473.284 175.42 473.27 175.422 473.255 175.422C473.211 175.422 473.168 175.402 473.14 175.367ZM472.63 173.236C472.517 173.265 472.486 173.32 472.471 173.365C472.372 173.663 472.763 174.35 473.135 174.868C473.159 174.255 473.106 173.494 472.857 173.279C472.814 173.242 472.768 173.225 472.713 173.225C472.688 173.225 472.66 173.229 472.63 173.236Z" fill="#181818"/>
<path d="M481.081 174.668L480.994 179.262H464.471C464.702 178.456 465.302 177.791 466.11 177.485L467.4 176.979L473.864 174.429L475.452 173.803C476.964 174.276 479.113 174.695 480.527 174.114C480.833 174.114 481.081 174.362 481.081 174.668Z" fill="#585D83"/>
<path d="M480.995 179.262V180.37C480.995 180.716 480.714 181 480.366 181H465.055C464.67 181 464.357 180.684 464.357 180.299V180.025C464.357 179.953 464.361 179.885 464.367 179.816C464.37 179.754 464.377 179.696 464.387 179.637C464.397 179.572 464.41 179.51 464.423 179.448L464.472 179.262H480.995V179.262Z" fill="#181818"/>
<path d="M473.425 176.313L468.973 177.927C468.481 178.105 467.923 177.903 467.666 177.444L467.398 176.979L473.865 174.428L474.053 174.869C474.297 175.441 474.011 176.097 473.425 176.313Z" fill="#434C69"/>
<path d="M468.985 177.299C468.927 177.299 468.872 177.265 468.848 177.208L468.465 176.305C468.433 176.229 468.468 176.141 468.544 176.11C468.619 176.077 468.707 176.113 468.739 176.188L469.122 177.092C469.155 177.168 469.119 177.255 469.043 177.287C469.024 177.295 469.005 177.299 468.985 177.299Z" fill="#181818"/>
<path d="M470.138 176.889C470.08 176.889 470.025 176.855 470 176.799L469.617 175.895C469.585 175.819 469.62 175.732 469.696 175.7C469.772 175.668 469.859 175.703 469.892 175.779L470.275 176.682C470.307 176.758 470.272 176.846 470.196 176.878C470.177 176.885 470.157 176.889 470.138 176.889Z" fill="#181818"/>
<path d="M471.292 176.48C471.234 176.48 471.179 176.446 471.155 176.389L470.772 175.486C470.739 175.41 470.775 175.322 470.851 175.29C470.926 175.259 471.014 175.294 471.046 175.369L471.429 176.273C471.461 176.349 471.426 176.436 471.35 176.468C471.331 176.476 471.311 176.48 471.292 176.48Z" fill="#181818"/>
<path d="M472.448 176.071C472.39 176.071 472.335 176.037 472.311 175.98L471.928 175.076C471.896 175 471.931 174.913 472.007 174.881C472.083 174.849 472.17 174.884 472.202 174.96L472.585 175.863C472.617 175.939 472.582 176.027 472.506 176.059C472.487 176.067 472.467 176.071 472.448 176.071Z" fill="#181818"/>
<path d="M473.213 175.267C473.036 175.23 471.477 174.884 471.221 174.288C471.158 174.141 471.171 173.988 471.259 173.844C471.347 173.701 471.477 173.621 471.634 173.614C472.277 173.58 473.254 174.884 473.364 175.033C473.4 175.082 473.403 175.15 473.369 175.202C473.341 175.245 473.294 175.27 473.244 175.27C473.234 175.27 473.224 175.269 473.213 175.267ZM471.647 173.912C471.606 173.914 471.559 173.925 471.513 174C471.476 174.061 471.47 174.113 471.494 174.17C471.611 174.442 472.278 174.708 472.854 174.871C472.465 174.411 471.948 173.911 471.658 173.911C471.654 173.911 471.65 173.911 471.647 173.912Z" fill="#181818"/>
<path d="M473.012 143.767C473.07 138.471 478.302 123.514 480.992 117.374H491.249L495.31 119.263L490.147 129.168L483.839 145.721L482.342 170.191C482.342 170.424 481.303 170.577 479.975 170.641C477.638 170.755 473.14 170.606 473.14 170.191C473.168 170.534 472.9 153.836 473.012 143.767Z" fill="#2F2F3D"/>
<path d="M486.615 138.439L490.148 129.169L487.926 121.998L486.615 138.439Z" fill="#30323E"/>
<path d="M499.95 168.301L499.411 174.115C499.335 175.348 494.262 175.034 494.339 173.801L494.349 168.301H499.95Z" fill="#FFC69D"/>
<path d="M501.523 116.135L500.886 171.342C500.886 172.328 493.05 172.328 493.05 171.342L487.445 117.374L501.523 116.135Z" fill="#2F2F3D"/>
<path d="M492.025 175.367C491.905 175.219 490.862 173.908 491.073 173.272C491.111 173.157 491.205 173.008 491.442 172.948C491.63 172.899 491.801 172.936 491.937 173.054C492.46 173.507 492.308 175.107 492.288 175.289C492.282 175.348 492.24 175.399 492.182 175.416C492.168 175.42 492.154 175.422 492.14 175.422C492.096 175.422 492.053 175.402 492.025 175.367ZM491.515 173.236C491.402 173.265 491.37 173.321 491.355 173.365C491.257 173.663 491.648 174.35 492.019 174.868C492.044 174.256 491.991 173.495 491.742 173.279C491.699 173.243 491.653 173.225 491.598 173.225C491.573 173.225 491.545 173.229 491.515 173.236Z" fill="#181818"/>
<path d="M499.966 174.668L499.879 179.262H483.355C483.587 178.457 484.186 177.791 484.994 177.485L486.285 176.979L492.749 174.429L494.337 173.803C495.849 174.276 497.997 174.695 499.412 174.114C499.718 174.114 499.966 174.362 499.966 174.668Z" fill="#585D83"/>
<path d="M499.879 179.262V180.371C499.879 180.716 499.599 181 499.251 181H483.94C483.555 181 483.242 180.684 483.242 180.299V180.025C483.242 179.953 483.246 179.885 483.252 179.816C483.255 179.754 483.262 179.696 483.272 179.637C483.281 179.572 483.294 179.51 483.308 179.448L483.356 179.262H499.879V179.262Z" fill="#181818"/>
<path d="M492.31 176.313L487.858 177.927C487.366 178.105 486.808 177.903 486.55 177.444L486.283 176.979L492.75 174.428L492.938 174.869C493.181 175.441 492.896 176.097 492.31 176.313Z" fill="#434C69"/>
<path d="M487.87 177.299C487.812 177.299 487.757 177.265 487.733 177.208L487.35 176.305C487.318 176.229 487.353 176.142 487.429 176.11C487.504 176.077 487.592 176.113 487.624 176.189L488.007 177.092C488.039 177.168 488.004 177.255 487.928 177.287C487.909 177.295 487.889 177.299 487.87 177.299Z" fill="#181818"/>
<path d="M489.022 176.89C488.964 176.89 488.909 176.856 488.885 176.799L488.502 175.895C488.47 175.819 488.505 175.732 488.581 175.7C488.657 175.668 488.744 175.703 488.776 175.779L489.159 176.682C489.192 176.758 489.156 176.846 489.081 176.878C489.062 176.886 489.042 176.89 489.022 176.89Z" fill="#181818"/>
<path d="M490.177 176.48C490.119 176.48 490.064 176.446 490.04 176.389L489.656 175.486C489.624 175.41 489.66 175.322 489.735 175.291C489.811 175.259 489.898 175.294 489.931 175.369L490.314 176.273C490.346 176.349 490.311 176.436 490.235 176.468C490.216 176.476 490.196 176.48 490.177 176.48Z" fill="#181818"/>
<path d="M491.333 176.071C491.275 176.071 491.22 176.037 491.195 175.98L490.813 175.076C490.781 175.001 490.816 174.913 490.892 174.881C490.967 174.849 491.054 174.884 491.087 174.96L491.47 175.863C491.502 175.939 491.466 176.027 491.391 176.059C491.372 176.067 491.352 176.071 491.333 176.071Z" fill="#181818"/>
<path d="M492.098 175.267C491.921 175.23 490.361 174.884 490.106 174.288C490.043 174.141 490.056 173.988 490.144 173.844C490.232 173.701 490.361 173.621 490.519 173.614C491.162 173.58 492.138 174.884 492.248 175.033C492.285 175.082 492.288 175.15 492.254 175.202C492.226 175.245 492.179 175.271 492.129 175.271C492.119 175.271 492.108 175.27 492.098 175.267ZM490.531 173.912C490.491 173.914 490.443 173.925 490.398 174C490.36 174.061 490.355 174.113 490.379 174.17C490.496 174.442 491.163 174.708 491.739 174.871C491.35 174.412 490.833 173.912 490.542 173.912C490.538 173.912 490.535 173.912 490.531 173.912Z" fill="#181818"/>
<path d="M480.976 69.7547C480.976 69.7547 479.386 74.7593 483.693 74.8373C488 74.9153 483.44 69.2276 483.44 69.2276" fill="#30323E"/>
<path d="M457.155 87.2769C456.546 88.1972 458.056 89.155 458.455 89.3883C458.188 89.2597 457.419 88.9727 456.812 89.6443C456.064 90.4732 463.285 95.0394 463.285 95.0394L466.761 91.7824C466.761 91.7824 464.312 85.6048 463.267 86.7615C462.961 87.1001 463.289 87.7558 463.283 87.9526C462.336 87.0412 460.408 85.0016 459.88 85.474C459.394 85.909 460.019 86.841 460.092 87.0648C459.385 86.3557 458.165 85.2168 457.973 86.0874C457.888 86.4874 458.634 87.1636 458.802 87.4838C458.274 87.1928 457.41 86.8972 457.155 87.2769Z" fill="#FFC69D"/>
<path d="M462.613 95.0874C464.238 96.2315 471.564 102.434 475.899 103.985C476.419 104.171 476.894 104.288 477.314 104.322C478.97 104.463 481.665 102.827 483.765 101.314C485.511 100.056 486.847 98.8844 486.847 98.8844L484.994 89.7666C483.19 90.3523 480.815 91.9547 476.77 96.5618L466.184 90.0803L462.613 95.0874Z" fill="#35D399"/>
<path d="M477.379 101.924C476.942 102.647 476.473 103.371 475.898 103.985C476.418 104.171 476.893 104.288 477.314 104.322C478.969 104.463 481.665 102.827 483.765 101.314C483.332 99.8941 482.622 98.5434 482.119 97.1581C481.947 96.6792 481.741 94.7495 480.877 95.0768C480.481 95.225 480.305 96.1417 480.15 96.4999C479.906 97.0755 479.648 97.644 479.376 98.2091C478.77 99.4773 478.102 100.718 477.379 101.924Z" fill="#00B773"/>
<path d="M479.921 119.55C479.868 120.282 480.539 120.913 481.669 121.426C481.794 121.482 481.922 121.538 482.057 121.591C482.178 121.64 482.303 121.689 482.432 121.735C488.138 123.776 501.614 123.642 501.837 120.461C501.834 120.252 501.827 119.99 501.823 119.669C501.824 119.608 501.825 119.54 501.823 119.472C501.794 116.085 501.998 107.596 501.96 100.729C501.953 99.7144 501.942 98.7367 501.923 97.8121C501.851 94.0575 501.664 91.2535 501.262 90.8364C499.528 89.0326 494.62 89.0657 494.62 89.0657C494.62 89.0657 488.044 88.6016 486.845 89.0006C484.666 89.7306 483.078 90.5432 481.926 91.4463C479.645 93.2388 481.391 109.575 481.391 109.575C481.391 109.575 481.088 111.813 480.735 114.28C480.451 116.223 480.141 118.306 479.921 119.55Z" fill="#35D399"/>
<path d="M479.921 119.55C479.868 120.282 480.539 120.913 481.669 121.426C481.794 121.482 481.922 121.538 482.057 121.591L501.823 119.669C501.824 119.608 501.825 119.54 501.823 119.472C501.794 116.085 501.998 107.596 501.96 100.729L496.911 94.4522L492.494 110.524L480.735 114.28C480.451 116.223 480.141 118.306 479.921 119.55Z" fill="#00B773"/>
<path d="M487.469 88.8938C487.408 90.126 488.549 89.7604 490.214 89.8878C491.936 90.0198 494.366 89.8822 494.623 89.0657L493.023 81.2114C493.023 81.2114 493.023 81.2114 493.019 81.2147C492.938 81.3216 490.6 84.4325 488.045 85.0243C488.106 85.4839 488.108 85.9443 488.077 86.3787C487.957 87.9891 487.469 88.8938 487.469 88.8938Z" fill="#FFC69D"/>
<path d="M488.078 86.379C488.224 86.2891 492.612 83.5518 493.024 81.2114C493.024 81.2114 493.024 81.2114 493.02 81.2147C492.939 81.3216 490.6 84.4325 488.045 85.0243C488.107 85.4842 488.109 85.9446 488.078 86.379Z" fill="#E3965E"/>
<path d="M485.882 85.3464C486.537 85.5865 487.203 85.5951 487.861 85.4394C490.418 84.8476 492.766 81.8601 493.072 81.4662C493.09 81.445 493.101 81.4309 493.105 81.4242C495.084 80.6758 496.762 77.7045 495.516 76.6801C493.8 75.2766 492.629 77.1731 492.629 77.1731C492.629 77.1731 491.266 76.76 491.299 74.9175C491.332 73.0787 492.045 72.2572 489.713 72.2152C488.075 72.1854 485.432 73.0182 483.728 72.8911C483.712 72.9691 483.693 73.0471 483.677 73.129C483.572 73.626 483.491 74.1737 483.427 74.7536C482.994 78.8311 483.619 84.4927 485.882 85.3464Z" fill="#FFC69D"/>
<path d="M483.727 72.8909C485.43 73.0177 488.074 72.1852 489.712 72.215C492.044 72.257 491.331 73.0785 491.298 74.9173C491.265 76.7598 492.628 77.173 492.628 77.173C492.628 77.173 492.919 74.1053 492.211 72.2567C491.385 70.0889 487.035 69.5713 484.916 70.5456C484.413 70.7786 484.005 71.6587 483.727 72.8909Z" fill="#FFC69D"/>
<path d="M485.612 81.7052L485.61 81.75C485.601 82.2964 485.889 82.7842 486.326 83.0504C486.535 83.1744 486.773 83.2514 487.028 83.2634C487.659 83.2932 488.22 82.9217 488.46 82.3762C488.529 82.2237 488.572 82.0564 488.583 81.8802L488.585 81.8455C488.586 81.8145 488.577 81.7862 488.579 81.7586C487.502 81.5796 486.493 81.4974 485.626 81.6189C485.622 81.6469 485.613 81.6742 485.612 81.7052Z" fill="#E3965E"/>
<path d="M485.612 81.7052L485.609 81.75C486.674 82.1414 487.627 82.1012 488.583 81.8805L488.585 81.8458C488.586 81.8148 488.577 81.7865 488.578 81.7589C487.501 81.5799 486.492 81.4977 485.626 81.6192C485.621 81.6469 485.613 81.6742 485.612 81.7052Z" fill="white"/>
<path d="M486.048 80.1406C485.885 80.1406 485.726 80.0663 485.598 79.9291C485.427 79.7471 485.344 79.4929 485.376 79.2488C485.4 79.0619 485.478 78.9026 485.554 78.7485C485.577 78.6997 485.602 78.6506 485.624 78.6011C485.92 77.9341 485.843 77.1043 485.782 76.4376C485.775 76.3666 485.827 76.3037 485.898 76.297C485.969 76.2911 486.032 76.3427 486.039 76.4139C486.103 77.1104 486.183 77.9774 485.86 78.7061C485.836 78.7589 485.811 78.8108 485.785 78.8627C485.716 79.0039 485.65 79.1374 485.632 79.282C485.61 79.4478 485.669 79.628 485.786 79.7526C485.87 79.8419 485.967 79.8871 486.065 79.8818C486.135 79.8763 486.198 79.9316 486.202 80.0028C486.206 80.074 486.153 80.1354 486.081 80.14C486.07 80.1403 486.059 80.1406 486.048 80.1406Z" fill="#E3965E"/>
<path d="M484.103 77.252C484.085 77.6397 484.25 77.9626 484.473 77.9731C484.696 77.9835 484.892 77.6778 484.91 77.29C484.929 76.9023 484.763 76.5794 484.54 76.569C484.317 76.5585 484.121 76.8643 484.103 77.252Z" fill="#1E1D1E"/>
<path d="M488.475 77.3467C488.494 76.9589 488.328 76.636 488.105 76.6254C487.882 76.6149 487.686 76.9207 487.668 77.3085C487.65 77.6964 487.816 78.0193 488.039 78.0298C488.262 78.0404 488.457 77.7345 488.475 77.3467Z" fill="#1E1D1E"/>
<path d="M485.145 76.1427C485.104 76.1427 485.064 76.1233 485.039 76.0874C485.037 76.0843 484.825 75.7866 484.519 75.7525C484.341 75.7338 484.16 75.8068 483.978 75.972C483.925 76.0199 483.844 76.0162 483.795 75.9634C483.747 75.9106 483.751 75.8289 483.804 75.7807C484.044 75.5625 484.293 75.467 484.55 75.4959C484.973 75.5444 485.24 75.9238 485.251 75.9401C485.291 75.9987 485.277 76.0788 485.218 76.1196C485.196 76.135 485.171 76.1427 485.145 76.1427Z" fill="#1E1D1E"/>
<path d="M488.872 76.176C488.831 76.176 488.791 76.1566 488.766 76.1207C488.763 76.1177 488.552 75.8199 488.246 75.7858C488.068 75.7662 487.886 75.8398 487.704 76.005C487.652 76.0529 487.57 76.0492 487.522 75.9964C487.474 75.9436 487.478 75.8619 487.531 75.8141C487.77 75.5958 488.02 75.4997 488.277 75.5292C488.7 75.5777 488.967 75.9571 488.978 75.9731C489.018 76.0317 489.004 76.1118 488.945 76.1526C488.923 76.1683 488.897 76.176 488.872 76.176Z" fill="#1E1D1E"/>
<path d="M487.911 87.847L486.846 89.0016L487.263 92.3138L490.214 89.8881L487.911 87.847Z" fill="#00B773"/>
<path d="M494.458 87.8686L495.41 89.1183L492.455 93.0866L490.213 89.8882L494.458 87.8686Z" fill="#00B773"/>
<path d="M469.108 128.285C475.392 128.285 480.487 123.186 480.487 116.896C480.487 110.605 475.392 105.506 469.108 105.506C462.823 105.506 457.729 110.605 457.729 116.896C457.729 123.186 462.823 128.285 469.108 128.285Z" fill="#F79A1C"/>
<path d="M469.108 126.642C474.486 126.642 478.846 122.278 478.846 116.896C478.846 111.513 474.486 107.149 469.108 107.149C463.731 107.149 459.371 111.513 459.371 116.896C459.371 122.278 463.731 126.642 469.108 126.642Z" fill="#FABE25"/>
<path d="M469.061 121.715C468.329 121.715 467.629 121.61 466.961 121.4C466.292 121.19 465.762 120.921 465.369 120.59L465.971 119.238C466.345 119.533 466.809 119.778 467.362 119.974C467.915 120.171 468.481 120.269 469.061 120.269C469.551 120.269 469.948 120.215 470.251 120.108C470.554 120.001 470.777 119.856 470.92 119.673C471.062 119.491 471.134 119.283 471.134 119.051C471.134 118.765 471.031 118.535 470.826 118.361C470.621 118.187 470.356 118.049 470.03 117.946C469.705 117.844 469.344 117.748 468.947 117.658C468.55 117.569 468.153 117.464 467.757 117.344C467.36 117.223 466.999 117.067 466.674 116.875C466.348 116.683 466.083 116.427 465.878 116.106C465.672 115.784 465.57 115.374 465.57 114.874C465.57 114.365 465.706 113.899 465.978 113.475C466.25 113.052 466.664 112.712 467.222 112.458C467.779 112.204 468.485 112.076 469.341 112.076C469.903 112.076 470.46 112.148 471.013 112.291C471.566 112.434 472.047 112.639 472.458 112.906L471.909 114.259C471.49 114.009 471.058 113.824 470.612 113.703C470.166 113.582 469.738 113.522 469.328 113.522C468.846 113.522 468.456 113.58 468.158 113.696C467.859 113.812 467.641 113.964 467.503 114.151C467.364 114.339 467.295 114.553 467.295 114.794C467.295 115.08 467.395 115.309 467.596 115.483C467.797 115.657 468.06 115.793 468.385 115.892C468.711 115.99 469.074 116.086 469.475 116.18C469.876 116.274 470.275 116.378 470.672 116.494C471.069 116.61 471.43 116.762 471.756 116.949C472.081 117.137 472.344 117.391 472.545 117.713C472.745 118.034 472.846 118.44 472.846 118.931C472.846 119.43 472.71 119.892 472.438 120.316C472.166 120.74 471.749 121.08 471.187 121.334C470.625 121.588 469.917 121.715 469.061 121.715ZM468.646 123.187V110.604H469.743V123.187H468.646Z" fill="#F79A1C"/>
<path d="M474.891 116.839C475.04 117.715 477.034 117.809 477.034 117.809C477.034 117.809 475.286 117.827 475.572 118.74C475.836 119.579 477.848 119.388 478.158 119.354C477.881 119.406 476.189 119.746 476.712 120.431C477.283 121.173 482.346 120.431 482.346 120.431L482.104 114.805C482.104 114.805 480.85 113.006 479.884 113.031L480.285 115.348C480.285 115.348 476.371 114.731 476.274 115.756C476.241 116.112 476.465 116.334 476.769 116.474C475.836 116.367 474.809 116.355 474.891 116.839Z" fill="#FFC69D"/>
<path d="M482.104 113.833L494.222 111.252L495.755 99.1573C496.31 90.9852 500.692 90.3737 500.692 90.3737C507.163 93.3527 505.721 116.537 500.477 118.485C496.818 119.844 487.837 120.417 482.104 120.945V113.833Z" fill="#35D399"/>
<path d="M482.218 72.0794C481.838 73.474 484.092 73.9621 484.811 74.0146C486.514 74.1414 488.075 72.1853 489.713 72.2151C492.045 72.2571 491.332 73.0786 491.299 74.9174C491.266 76.7599 492.629 77.1731 492.629 77.1731C492.629 77.1731 493.8 75.2763 495.516 76.6801C496.762 77.7045 495.084 80.6757 493.105 81.4241C493.101 81.4308 493.09 81.445 493.072 81.4661L493.609 84.0856C493.609 84.0856 493.609 84.0856 493.612 84.0819C493.793 83.9355 500.478 78.4384 498.453 75.3751C498.99 72.0874 497.878 66.2149 492.132 67.2101C490.621 67.4717 488.797 67.7142 486.311 66.9563C483.82 66.1983 482.658 67.4536 481.331 68.7377C480.001 70.0214 482.218 72.0794 482.218 72.0794Z" fill="#30323E"/>
</g>
</g>
<rect x="37.5" y="35.5" width="521" height="163" rx="9.5" stroke="#EAF0F5"/>
</g>
<defs>
<filter id="filter0_d_426_6034" x="0.537556" y="0.407425" width="600.534" height="242.534" filterUnits="userSpaceOnUse" color-interpolation-filters="sRGB">
<feFlood flood-opacity="0" result="BackgroundImageFix"/>
<feColorMatrix in="SourceAlpha" type="matrix" values="0 0 0 0 0 0 0 0 0 0 0 0 0 0 0 0 0 0 127 0" result="hardAlpha"/>
<feMorphology radius="7.47948" operator="erode" in="SourceAlpha" result="effect1_dropShadow_426_6034"/>
<feOffset dx="2.8048" dy="4.67467"/>
<feGaussianBlur stdDeviation="23.3734"/>
<feColorMatrix type="matrix" values="0 0 0 0 0 0 0 0 0 0 0 0 0 0 0 0 0 0 0.07 0"/>
<feBlend mode="normal" in2="BackgroundImageFix" result="effect1_dropShadow_426_6034"/>
<feBlend mode="normal" in="SourceGraphic" in2="effect1_dropShadow_426_6034" result="shape"/>
</filter>
<filter id="filter1_d_426_6034" x="0.537556" y="0.407425" width="600.534" height="242.534" filterUnits="userSpaceOnUse" color-interpolation-filters="sRGB">
<feFlood flood-opacity="0" result="BackgroundImageFix"/>
<feColorMatrix in="SourceAlpha" type="matrix" values="0 0 0 0 0 0 0 0 0 0 0 0 0 0 0 0 0 0 127 0" result="hardAlpha"/>
<feMorphology radius="7.47948" operator="erode" in="SourceAlpha" result="effect1_dropShadow_426_6034"/>
<feOffset dx="2.8048" dy="4.67467"/>
<feGaussianBlur stdDeviation="23.3734"/>
<feColorMatrix type="matrix" values="0 0 0 0 0 0 0 0 0 0 0 0 0 0 0 0 0 0 0.07 0"/>
<feBlend mode="normal" in2="BackgroundImageFix" result="effect1_dropShadow_426_6034"/>
<feBlend mode="normal" in="SourceGraphic" in2="effect1_dropShadow_426_6034" result="shape"/>
</filter>
<linearGradient id="paint0_linear_426_6034" x1="46.0663" y1="162.23" x2="222" y2="162.23" gradientUnits="userSpaceOnUse">
<stop stop-color="#017A07"/>
<stop offset="1" stop-color="#4FB354"/>
</linearGradient>
<clipPath id="clip0_426_6034">
<rect x="37" y="35" width="522" height="164" rx="10" fill="white"/>
</clipPath>
<clipPath id="clip1_426_6034">
<rect width="131" height="132" fill="white" transform="translate(374 49)"/>
</clipPath>
</defs>
</svg>
