<svg width="32" height="32" viewBox="0 0 32 32" fill="none" xmlns="http://www.w3.org/2000/svg">
<g id="002-exam 1">
<g id="Layer_10">
<path id="Vector" d="M18.8847 7.215H10.2847C9.46769 7.215 8.80469 6.552 8.80469 5.735V3.48C8.80469 2.663 9.46769 2 10.2847 2H18.8847C19.7017 2 20.3647 2.663 20.3647 3.48V5.735C20.3647 6.553 19.7017 7.215 18.8847 7.215Z" fill="white"/>
<path id="Vector_2" d="M28.8285 17.99C27.9085 17.07 26.4085 17.07 25.4885 17.99L24.3965 19.088L27.7385 22.4291L28.8285 21.3391C29.7585 20.4101 29.7585 18.92 28.8285 17.99Z" fill="white"/>
<path id="Vector_3" d="M23.339 20.1499L17.509 25.9699C17.389 26.0999 17.309 26.2599 17.279 26.4299L16.839 29.0199C16.739 29.5899 17.239 30.0799 17.809 29.9899L20.399 29.5499C20.569 29.5199 20.729 29.4399 20.849 29.3199L26.679 23.4899L23.339 20.1499Z" fill="white"/>
<path id="Vector_4" d="M23.1087 4.61011H21.8637V5.73511C21.8637 7.37811 20.5268 8.71511 18.8837 8.71511H10.2837C8.63975 8.71511 7.30375 7.37811 7.30375 5.73511V4.61011H6.03875C4.06875 4.61011 2.46875 6.21011 2.46875 8.18011V26.4301C2.46875 28.4001 4.06875 30.0001 6.03875 30.0001H15.4957C15.3437 29.6091 15.2867 29.1851 15.3607 28.7621L15.7997 26.1791C15.8777 25.7211 16.0877 25.2981 16.4037 24.9531L22.7687 18.5971L24.4237 16.9331C25.0387 16.3171 25.8277 15.9521 26.6767 15.8471V8.19011C26.6787 6.20011 25.0888 4.61011 23.1087 4.61011ZM13.0267 19.4431H8.68775C8.19075 19.4431 7.78775 19.0401 7.78775 18.5431C7.78775 18.0461 8.19075 17.6431 8.68775 17.6431H13.0267C13.5237 17.6431 13.9267 18.0461 13.9267 18.5431C13.9267 19.0401 13.5237 19.4431 13.0267 19.4431ZM18.3387 14.3351H8.68875C8.19175 14.3351 7.78875 13.9321 7.78875 13.4351C7.78875 12.9381 8.19175 12.5351 8.68875 12.5351H18.3387C18.8357 12.5351 19.2387 12.9381 19.2387 13.4351C19.2387 13.9321 18.8357 14.3351 18.3387 14.3351Z" fill="white"/>
</g>
</g>
</svg>
