<svg width="280" height="266" viewBox="0 0 280 266" fill="none" xmlns="http://www.w3.org/2000/svg">
<g clip-path="url(#clip0_1214_1612)">
<path d="M69.1888 155.442L68.8906 155.129L70.7609 153.34L71.0591 153.653L69.1888 155.442ZM72.9242 151.851L72.6208 151.543C73.2293 150.943 73.8378 150.324 74.4342 149.701L74.7445 150C74.1463 150.626 73.5344 151.249 72.9242 151.851ZM76.5147 148.104L76.1959 147.813C76.7681 147.184 77.3439 146.532 77.9075 145.876L78.2333 146.16C77.6662 146.815 77.0888 147.471 76.5147 148.104ZM79.9019 144.17L79.5692 143.895C80.107 143.238 80.65 142.558 81.1809 141.875L81.5205 142.141C80.9861 142.826 80.4414 143.509 79.9019 144.17ZM83.0908 140.073L82.7461 139.816C83.2511 139.134 83.7631 138.429 84.263 137.721L84.6146 137.972C84.1113 138.681 83.5993 139.388 83.0908 140.073ZM86.0902 135.837L85.7333 135.595C86.216 134.88 86.6917 134.161 87.1589 133.437L87.5209 133.672C87.052 134.396 86.5745 135.119 86.0902 135.837ZM109.7 132.838C108.906 132.838 108.102 132.684 107.378 132.394L107.539 131.993C108.213 132.262 108.959 132.406 109.7 132.406C109.807 132.396 109.886 132.404 109.98 132.399L110 132.831C109.9 132.836 109.781 132.83 109.7 132.838ZM112.562 132.1L112.346 131.726C113.056 131.315 113.649 130.713 114.065 129.985L114.439 130.199C113.986 130.993 113.337 131.652 112.562 132.1ZM88.9068 131.476L88.5413 131.247C88.9947 130.514 89.4411 129.776 89.8807 129.034L90.2513 129.255C89.81 130.001 89.3618 130.741 88.9068 131.476ZM105.194 130.874C104.615 130.248 104.138 129.494 103.776 128.631L104.172 128.463C104.514 129.28 104.963 129.99 105.51 130.58L105.194 130.874ZM115.153 127.623L114.722 127.614L114.723 127.498C114.723 126.85 114.592 126.215 114.342 125.662C114.277 125.519 114.206 125.377 114.129 125.24L114.504 125.027C114.589 125.176 114.666 125.328 114.735 125.484C115.009 126.093 115.154 126.79 115.154 127.498L115.153 127.623ZM91.7251 127.17L91.3941 126.892C91.9526 126.222 92.5714 125.593 93.2299 125.021L93.5126 125.347C92.8714 125.904 92.2698 126.518 91.7251 127.17ZM103.109 126.072C103.06 125.662 103.035 125.242 103.035 124.822C103.035 124.363 103.064 123.897 103.122 123.433L103.55 123.487C103.493 123.933 103.466 124.382 103.466 124.822C103.466 125.225 103.49 125.627 103.536 126.02L103.109 126.072ZM95.5673 123.834L95.3398 123.466C96.0706 123.011 96.8515 122.605 97.6599 122.256L97.8306 122.653C97.0428 122.994 96.2809 123.392 95.5673 123.834ZM112.47 123.39C111.843 122.911 111.102 122.498 110.269 122.16L110.429 121.759C111.3 122.11 112.074 122.544 112.731 123.046L112.47 123.39ZM100.242 121.811L100.128 121.394C100.97 121.164 101.833 120.993 102.693 120.886L102.747 121.315C101.907 121.419 101.064 121.586 100.242 121.811ZM107.828 121.451C107.011 121.296 106.16 121.206 105.294 121.185L105.305 120.753C106.192 120.775 107.068 120.867 107.908 121.028L107.828 121.451ZM104.145 121.016L103.74 120.87C104.034 120.051 104.417 119.252 104.877 118.496L105.244 118.723C104.8 119.451 104.429 120.222 104.145 121.016ZM106.78 116.693L106.465 116.399C106.591 116.264 106.718 116.131 106.851 115.999C107.332 115.52 107.863 115.067 108.428 114.654L108.683 115.003C108.135 115.406 107.621 115.844 107.154 116.309C107.025 116.433 106.901 116.561 106.78 116.693ZM110.859 113.679L110.667 113.291C111.446 112.904 112.265 112.577 113.1 112.321L113.225 112.735C112.412 112.984 111.615 113.302 110.859 113.679ZM115.72 112.09L115.613 111.671C116.456 111.455 117.293 111.228 118.104 110.997L118.221 111.412C117.407 111.645 116.566 111.873 115.72 112.09ZM120.705 110.668L120.575 110.255C121.406 109.992 122.23 109.719 123.023 109.441L123.166 109.849C122.368 110.13 121.541 110.405 120.705 110.668ZM125.598 108.951L125.443 108.548C126.25 108.234 127.053 107.905 127.829 107.57L128 107.966C127.217 108.304 126.41 108.636 125.598 108.951ZM130.359 106.888L130.173 106.499L132.499 105.367L132.686 105.756L130.359 106.888ZM135.012 104.621L134.824 104.232L137.149 103.098L137.337 103.487L135.012 104.621ZM139.662 102.353L139.475 101.963L141.8 100.829L141.988 101.218L139.662 102.353ZM144.313 100.086L144.125 99.6965L146.451 98.5622L146.638 98.9512L144.313 100.086ZM148.964 97.8169L148.776 97.4278L151.101 96.2935L151.289 96.6825L148.964 97.8169Z" fill="#19891C"/>
<path d="M141.016 17.4303C141.016 17.5202 141.016 17.6049 141.026 17.6949H197.698C197.551 13.0087 193.483 9.25121 188.496 9.25121C186.897 9.25121 185.397 9.63682 184.087 10.3112C184.156 6.66434 182.408 3.17137 179.19 1.29693C174.36 -1.51128 168.042 0.394289 165.084 5.55593C164.195 7.1122 163.705 8.78606 163.595 10.4478C161.239 9.36534 158.319 8.72208 155.15 8.72208C147.343 8.72208 141.016 12.6214 141.016 17.4303Z" fill="white"/>
<path d="M46.7307 150.276H0L0.00517124 150.108C0.129281 146.141 3.51127 143.034 7.70342 143.034C8.8997 143.034 10.0856 143.3 11.1526 143.803C11.1837 140.767 12.735 138.002 15.2465 136.541C17.1168 135.453 19.3284 135.173 21.4727 135.75C23.8084 136.378 25.7786 137.919 27.0214 140.089C27.7109 141.296 28.1212 142.588 28.2436 143.935C30.2345 143.061 32.5702 142.601 35.0179 142.601C41.4923 142.601 46.7583 145.875 46.7583 149.897C46.7583 149.976 46.7583 150.052 46.748 150.132L46.7307 150.276ZM0.33613 149.95H46.4343C46.4343 149.933 46.4343 149.914 46.4343 149.897C46.4343 146.053 41.313 142.926 35.0162 142.926C32.5288 142.926 30.1604 143.411 28.166 144.325L27.9523 144.424L27.9367 144.19C27.8454 142.809 27.442 141.484 26.7387 140.253C25.539 138.159 23.6377 136.672 21.3865 136.067C19.3249 135.512 17.2013 135.781 15.4068 136.824C12.9246 138.268 11.4181 141.043 11.475 144.064L11.4801 144.336L11.2388 144.211C10.158 143.654 8.9359 143.36 7.70169 143.36C3.7457 143.359 0.54298 146.241 0.33613 149.95Z" fill="#19891C"/>
<mask id="mask0_1214_1612" style="mask-type:luminance" maskUnits="userSpaceOnUse" x="138" y="78" width="131" height="78">
<path d="M138.117 145.605C138.117 151.13 142.582 155.608 148.089 155.608H258.852C264.359 155.608 268.824 151.13 268.824 145.605V78.0004H138.117V145.605Z" fill="white"/>
</mask>
<g mask="url(#mask0_1214_1612)">
<path d="M138.117 145.605C138.117 151.13 142.582 155.608 148.089 155.608H258.852C264.359 155.608 268.824 151.13 268.824 145.605V78.0004H138.117V145.605Z" fill="white"/>
</g>
<mask id="mask1_1214_1612" style="mask-type:luminance" maskUnits="userSpaceOnUse" x="138" y="78" width="131" height="78">
<path d="M138.117 145.605C138.117 151.13 142.582 155.608 148.089 155.608H258.852C264.359 155.608 268.824 151.13 268.824 145.605V78.0004H138.117V145.605Z" fill="white"/>
</mask>
<g mask="url(#mask1_1214_1612)">
<path d="M131.28 95.2387C132.808 90.3243 137.643 86.5529 142.923 86.1535C148.204 85.7541 153.594 88.7525 155.906 93.3763C158.715 93.3504 161.486 94.9136 162.851 97.2964C164.216 99.6792 164.119 102.781 162.609 105.076C165.957 105.657 168.96 107.867 170.44 110.834C171.921 113.802 171.84 117.454 170.23 120.352C173.914 118.474 178.623 118.645 182.157 120.784C185.69 122.925 187.917 126.954 187.793 130.99C190.088 127.379 194.487 125.13 198.86 125.33C203.233 125.531 207.403 128.171 209.347 131.975C211.4 125.813 216.875 120.839 223.351 119.249C229.829 117.659 237.094 119.506 241.941 123.974C249.231 125.119 254.545 133.06 252.646 139.971C256.585 143.241 258.596 148.555 257.774 153.512C256.95 158.468 253.32 162.895 248.524 164.789L123.089 164.707L112.398 116.701L131.28 95.2387Z" fill="#AAE0AB"/>
</g>
<mask id="mask2_1214_1612" style="mask-type:luminance" maskUnits="userSpaceOnUse" x="138" y="78" width="131" height="78">
<path d="M138.117 145.605C138.117 151.13 142.582 155.608 148.089 155.608H258.852C264.359 155.608 268.824 151.13 268.824 145.605V78.0004H138.117V145.605Z" fill="white"/>
</mask>
<g mask="url(#mask2_1214_1612)">
<g opacity="0.8">
<path d="M129.289 111.183C130.77 106.267 135.443 102.493 140.545 102.088C145.647 101.683 150.853 104.678 153.082 109.3C155.797 109.273 158.472 110.832 159.789 113.215C161.106 115.598 161.011 118.7 159.549 120.995C162.783 121.574 165.683 123.781 167.112 126.748C168.541 129.715 168.46 133.366 166.901 136.265C170.461 134.384 175.012 134.552 178.425 136.689C181.838 138.826 183.985 142.855 183.863 146.89C186.081 143.277 190.334 141.024 194.559 141.221C198.784 141.418 202.809 144.055 204.686 147.858C206.673 141.695 211.967 136.715 218.226 135.121C224.485 133.526 231.504 135.368 236.184 139.833C243.225 140.971 248.353 148.908 246.512 155.821C250.315 159.087 252.256 164.399 251.456 169.357C250.656 174.315 247.145 178.743 242.512 180.64L121.324 180.659L111.031 132.66L129.289 111.183Z" fill="white"/>
</g>
</g>
<mask id="mask3_1214_1612" style="mask-type:luminance" maskUnits="userSpaceOnUse" x="138" y="78" width="131" height="78">
<path d="M138.117 145.605C138.117 151.13 142.582 155.608 148.089 155.608H258.852C264.359 155.608 268.824 151.13 268.824 145.605V78.0004H138.117V145.605Z" fill="white"/>
</mask>
<g mask="url(#mask3_1214_1612)">
<path opacity="0.4" d="M225.635 80.1653C189.331 114.414 163.587 123.648 131.155 126.95L129 161.534L163.044 173.206C192.779 172.342 221.329 129.16 238.965 92.1157L225.635 80.1653Z" fill="#AAE0AB"/>
<path d="M230.748 80.6097C224.846 87.6147 215.945 94.3153 205.445 103.366L219.771 97.5091C218.015 100.43 215.457 104.516 214.023 106.269C217.324 104.741 222.638 101.377 224.398 99.5928C224.396 102.081 221.409 106.243 220.106 108.517C227.747 101.957 234.697 93.9487 236.943 86.9126L230.748 80.6097Z" fill="#19891C"/>
<path opacity="0.4" d="M232.424 80.9641C228.934 85.607 223.707 90.0821 217.531 96.1101L225.891 92.1312C224.843 94.0593 223.32 96.7586 222.471 97.9206C224.4 96.8865 227.512 94.6316 228.551 93.4471C228.525 95.0743 226.752 97.8289 225.972 99.3299C230.466 94.9602 234.576 89.6498 235.949 85.0243L232.424 80.9641Z" fill="white"/>
</g>
<path d="M178.207 104.758C178.253 105.84 178.205 107.668 177.128 108.294C175.328 109.34 173.911 106.802 173.251 105.526C172.463 104.002 172.665 102.112 174.447 101.433C176.802 100.535 178.121 102.736 178.207 104.758Z" fill="#AAE0AB"/>
<path d="M263.558 137.631C263.605 138.714 263.557 140.542 262.479 141.168C260.68 142.214 259.263 139.675 258.603 138.399C257.815 136.876 258.016 134.986 259.799 134.306C262.153 133.409 263.472 135.61 263.558 137.631Z" fill="#AAE0AB"/>
<path d="M168.649 94.023C169.482 94.023 170.157 93.3456 170.157 92.51C170.157 91.6744 169.482 90.9969 168.649 90.9969C167.816 90.9969 167.141 91.6744 167.141 92.51C167.141 93.3456 167.816 94.023 168.649 94.023Z" fill="#AAE0AB"/>
<path d="M246.372 121.87C247.508 121.304 247.973 119.921 247.409 118.783C246.845 117.644 245.467 117.181 244.331 117.748C243.195 118.315 242.73 119.697 243.294 120.836C243.858 121.974 245.236 122.437 246.372 121.87Z" fill="#AAE0AB"/>
<path d="M258.847 155.825H148.086C142.468 155.825 137.898 151.241 137.898 145.605V77.7845H269.036V145.605C269.034 151.241 264.464 155.825 258.847 155.825ZM138.328 78.2168V145.605C138.328 151.002 142.704 155.392 148.084 155.392H258.847C264.227 155.392 268.603 151.002 268.603 145.605V78.2168H138.328Z" fill="#19891C"/>
<path d="M258.85 51.8104H148.089C142.582 51.8104 138.117 56.2873 138.117 61.8138V78.0025H268.824V61.8138C268.822 56.2873 264.357 51.8104 258.85 51.8104Z" fill="white"/>
<path d="M269.036 78.2169H137.898V61.8121C137.898 56.1766 142.468 51.5925 148.086 51.5925H258.848C264.466 51.5925 269.036 56.1766 269.036 61.8121V78.2169ZM138.329 77.7846H268.605V61.8121C268.605 56.4152 264.228 52.0248 258.848 52.0248H148.088C142.708 52.0248 138.331 56.4152 138.331 61.8121V77.7846H138.329Z" fill="#19891C"/>
<path d="M156.64 65.9988C157.241 63.0301 155.329 60.135 152.369 59.5325C149.41 58.93 146.524 60.8481 145.923 63.8168C145.323 66.7855 147.235 69.6806 150.194 70.2831C153.154 70.8856 156.04 68.9675 156.64 65.9988Z" fill="#AAE0AB"/>
<path d="M171.255 68.7844C173.39 66.6424 173.39 63.1696 171.255 61.0276C169.12 58.8856 165.658 58.8856 163.522 61.0276C161.387 63.1696 161.387 66.6424 163.522 68.7844C165.658 70.9265 169.12 70.9265 171.255 68.7844Z" fill="white"/>
<path d="M167.386 70.6066C164.253 70.6066 161.703 68.0492 161.703 64.9055C161.703 61.7618 164.253 59.2043 167.386 59.2043C170.52 59.2043 173.07 61.7618 173.07 64.9055C173.07 68.0492 170.52 70.6066 167.386 70.6066ZM167.386 59.6366C164.49 59.6366 162.134 62.0005 162.134 64.9055C162.134 67.8105 164.49 70.1743 167.386 70.1743C170.282 70.1743 172.639 67.8105 172.639 64.9055C172.639 62.0005 170.282 59.6366 167.386 59.6366Z" fill="#19891C"/>
<path d="M209.001 70.1398H187.233C184.351 70.1398 182.016 67.7967 182.016 64.9055C182.016 62.0143 184.351 59.6713 187.233 59.6713H209.001C211.883 59.6713 214.219 62.0143 214.219 64.9055C214.219 67.7967 211.883 70.1398 209.001 70.1398Z" fill="white"/>
<path d="M209.005 70.356H187.238C184.242 70.356 181.805 67.911 181.805 64.9056C181.805 61.9003 184.242 59.4552 187.238 59.4552H209.005C212.001 59.4552 214.439 61.9003 214.439 64.9056C214.439 67.911 212.001 70.356 209.005 70.356ZM187.236 59.8875C184.478 59.8875 182.234 62.1389 182.234 64.9056C182.234 67.6723 184.478 69.9237 187.236 69.9237H209.004C211.762 69.9237 214.006 67.6723 214.006 64.9056C214.006 62.1389 211.762 59.8875 209.004 59.8875H187.236Z" fill="#19891C"/>
<path d="M253.431 39.8771C244.702 47.5426 229.647 42.2582 224.969 48.3795L238.336 58.9985L253.431 39.8771Z" fill="#19891C"/>
<path d="M224.971 48.3812C224.302 50.1675 224.664 52.1768 225.916 53.6138L235.388 64.4973L238.339 59.0002L224.971 48.3812Z" fill="#0F5E11"/>
<path d="M273.212 55.5935C267.775 65.8736 276.353 79.363 271.485 85.3339L258.117 74.7149L273.212 55.5935Z" fill="#19891C"/>
<path d="M271.486 85.3339C269.907 86.3957 267.873 86.5029 266.193 85.6106L253.461 78.8564L258.119 74.715L271.486 85.3339Z" fill="#0F5E11"/>
<path d="M280.012 26.7023L268.109 31.0858L278.486 39.3288L280.012 26.7023Z" fill="#19891C"/>
<path d="M278.482 39.3288C276.819 58.2202 262.905 75.8493 246.003 85.64L230.602 73.4181C237.064 53.0223 249.099 38.4261 268.103 31.084L278.482 39.3288Z" fill="#AAE0AB"/>
<path d="M230.603 73.4181L223.922 78.0592L243.03 93.2381L246.003 85.64L230.603 73.4181Z" fill="#19891C"/>
<path d="M264.482 54.551C268.402 54.0833 271.202 50.516 270.736 46.5834C270.27 42.6507 266.714 39.8418 262.794 40.3095C258.873 40.7772 256.073 44.3444 256.54 48.2771C257.006 52.2098 260.562 55.0187 264.482 54.551Z" fill="white"/>
<path d="M264.178 52.5211L264.134 52.0905C264.544 52.0473 264.946 51.9487 265.332 51.7983L265.487 52.2012C265.066 52.3672 264.625 52.4744 264.178 52.5211ZM262.832 52.4865C262.386 52.4156 261.951 52.2859 261.543 52.0991L261.72 51.7049C262.096 51.8744 262.493 51.9937 262.899 52.0594L262.832 52.4865ZM266.664 51.5527L266.409 51.2052C266.738 50.9596 267.036 50.6708 267.293 50.3457L267.631 50.6138C267.35 50.9683 267.026 51.2847 266.664 51.5527ZM260.4 51.3867C260.05 51.0979 259.742 50.7659 259.481 50.3993L259.833 50.1486C260.071 50.4841 260.353 50.7884 260.674 51.053L260.4 51.3867ZM268.157 49.7993L267.774 49.6005C267.964 49.2339 268.105 48.8431 268.193 48.4384L268.614 48.5301C268.519 48.9728 268.365 49.3981 268.157 49.7993ZM258.856 49.2045C258.7 48.7808 258.602 48.3381 258.562 47.8868L258.992 47.8488C259.028 48.2621 259.118 48.6684 259.261 49.0558L258.856 49.2045ZM268.295 47.2055C268.274 46.7905 268.198 46.3824 268.071 45.9899L268.481 45.8568C268.621 46.2856 268.702 46.7317 268.726 47.183L268.295 47.2055ZM259.045 46.6141L258.621 46.5381C258.7 46.0919 258.838 45.6596 259.031 45.2515L259.421 45.4366C259.245 45.8101 259.118 46.2061 259.045 46.6141ZM267.54 44.8763C267.314 44.5322 267.043 44.2175 266.733 43.9408L267.019 43.6175C267.357 43.9183 267.654 44.2624 267.9 44.6394L267.54 44.8763ZM260.091 44.4008L259.764 44.1206C260.057 43.7765 260.393 43.4722 260.765 43.218L261.009 43.576C260.669 43.8059 260.36 44.0843 260.091 44.4008ZM265.713 43.2491C265.344 43.0641 264.951 42.931 264.547 42.8514L264.63 42.4278C265.071 42.516 265.501 42.6629 265.904 42.8635L265.713 43.2491ZM262.108 43.0192L261.967 42.6111C262.391 42.4641 262.836 42.3724 263.286 42.3413L263.317 42.7736C262.905 42.8013 262.498 42.8843 262.108 43.0192Z" fill="#19891C"/>
<path d="M228.42 92.4097L228.079 92.1383C227.579 91.7406 227.494 91.0056 227.889 90.5042L241.293 73.5235C241.689 73.022 242.422 72.9373 242.922 73.3333L243.263 73.6048C243.763 74.0025 243.848 74.7374 243.453 75.2389L230.049 92.2195C229.653 92.7227 228.92 92.8075 228.42 92.4097Z" fill="#AAE0AB"/>
<path d="M252.154 240.442H249.568V240.01H252.154V240.442ZM246.982 240.442H244.397V240.01H246.982V240.442ZM241.811 240.442H239.226V240.01H241.811V240.442ZM236.64 240.442H234.054V240.01H236.64V240.442ZM231.469 240.442H228.883V240.01H231.469V240.442ZM226.297 240.442H223.712V240.01H226.297V240.442ZM221.126 240.442H218.541V240.01H221.126V240.442ZM215.955 240.442H213.369V240.01H215.955V240.442ZM210.784 240.442H208.198V240.01H210.784V240.442ZM205.612 240.442H203.027V240.01H205.612V240.442ZM200.44 240.442C199.547 240.434 198.671 240.285 197.835 239.996L197.975 239.588C198.767 239.86 199.598 240.003 200.445 240.01L200.44 240.442ZM252.466 240.437L252.45 240.005C253.295 239.974 254.12 239.808 254.906 239.512L255.058 239.917C254.227 240.228 253.357 240.404 252.466 240.437ZM195.504 238.746C194.798 238.205 194.186 237.558 193.686 236.823L194.043 236.579C194.517 237.276 195.098 237.89 195.766 238.404L195.504 238.746ZM257.351 238.601L257.08 238.265C257.735 237.733 258.299 237.103 258.752 236.393L259.114 236.626C258.635 237.375 258.04 238.039 257.351 238.601ZM192.564 234.421C192.355 233.686 192.25 232.924 192.25 232.151V231.796H192.681V232.151C192.681 232.882 192.781 233.607 192.977 234.302L192.564 234.421ZM260.166 234.195L259.748 234.088C259.907 233.458 259.988 232.806 259.988 232.151V231.568H260.419V232.151C260.419 232.843 260.334 233.529 260.166 234.195ZM192.681 229.204H192.25V226.61H192.681V229.204ZM260.419 228.974H259.988V226.381H260.419V228.974ZM192.681 224.017H192.25V221.423H192.681V224.017ZM260.419 223.787H259.988V221.193H260.419V223.787ZM192.681 218.829H192.25V216.235H192.681V218.829ZM260.419 218.599H259.988V216.005H260.419V218.599ZM192.681 213.642H192.25V211.048H192.681V213.642ZM260.419 213.412H259.988V210.818H260.419V213.412ZM192.681 208.454H192.25V205.86H192.681V208.454ZM260.419 208.224H259.988V205.63H260.419V208.224ZM192.681 203.266H192.25V201.539C192.25 201.245 192.266 200.946 192.297 200.652L192.726 200.697C192.696 200.975 192.681 201.259 192.681 201.537V203.266ZM260.419 203.036H259.988V201.537C259.988 201.183 259.964 200.825 259.917 200.474L260.345 200.417C260.395 200.785 260.419 201.162 260.419 201.537V203.036ZM193.388 198.272L192.995 198.093C193.364 197.283 193.858 196.542 194.465 195.888L194.78 196.182C194.205 196.803 193.736 197.506 193.388 198.272ZM259.186 198.072C258.816 197.316 258.326 196.626 257.735 196.023L258.042 195.72C258.666 196.357 259.181 197.085 259.573 197.882L259.186 198.072ZM196.756 194.641L196.549 194.262C197.328 193.834 198.168 193.536 199.042 193.379L199.117 193.804C198.29 193.953 197.495 194.235 196.756 194.641ZM255.717 194.536C254.967 194.152 254.165 193.892 253.333 193.766L253.396 193.339C254.276 193.472 255.122 193.745 255.913 194.15L255.717 194.536ZM250.783 193.678H248.198V193.246H250.783V193.678ZM245.612 193.678H243.026V193.246H245.612V193.678ZM240.441 193.678H237.855V193.246H240.441V193.678ZM235.27 193.678H232.684V193.246H235.27V193.678ZM230.098 193.678H227.513V193.246H230.098V193.678ZM224.927 193.678H222.341V193.246H224.927V193.678ZM219.756 193.678H217.17V193.246H219.756V193.678ZM214.585 193.678H211.999V193.246H214.585V193.678ZM209.413 193.678H206.828V193.246H209.413V193.678ZM204.242 193.678H201.656V193.246H204.242V193.678Z" fill="#19891C"/>
<path d="M247.438 232.95H192.425C188.91 232.95 186.062 230.091 186.062 226.567V191.281C186.062 187.756 188.912 184.899 192.425 184.899H247.438C250.953 184.899 253.801 187.757 253.801 191.281V226.567C253.801 230.091 250.953 232.95 247.438 232.95Z" fill="#19891C"/>
<path d="M205.17 212.965H197.836V227.907H205.17V212.965Z" fill="white"/>
<path d="M217.452 213.446H210.117V227.909H217.452V213.446Z" fill="white"/>
<path d="M229.733 205.891H222.398V227.909H229.733V205.891Z" fill="white"/>
<path d="M242.022 199.431H234.688V227.907H242.022V199.431Z" fill="white"/>
<path d="M239.605 191.665H200.25V193.391H239.605V191.665Z" fill="white"/>
<path d="M80.4322 137.99C79.186 133.653 76.5452 129.85 72.9236 127.172L71.4688 126.096L72.703 151.73L82.2525 144.319L80.4322 137.99Z" fill="#19891C"/>
<path d="M111.12 168.971L108.998 164.804C108.46 163.749 107.507 162.968 106.368 162.651L100.126 160.917L84.0678 150.632L82.2527 144.318L72.7031 151.73L72.7893 153.53C72.9634 157.142 75.1715 160.337 78.4811 161.771L94.0741 168.518L101.486 168.684C103.874 169.511 104.698 171.576 106.18 170.832C106.732 170.555 104.573 166.99 104.573 166.99L108.155 170.955L111.12 168.971Z" fill="#FFBC96"/>
<path d="M83.8878 150.477L81.7891 152.956L82.1662 153.277L84.265 150.798L83.8878 150.477Z" fill="#D28572"/>
<path d="M83.1875 179.355L94.871 178.321C102.476 177.647 109.092 183.808 109.463 191.909L112.103 249.632L95.9863 250.135L83.1875 179.355Z" fill="#2F2F3D"/>
<path d="M97.2812 249.561L97.776 265.504H121.657L109.88 255.674L109.139 247.991L97.2812 249.561Z" fill="#303061"/>
<path d="M109.586 255.29L104.562 259.173L105.165 259.958L110.189 256.075L109.586 255.29Z" fill="white"/>
<path d="M91.8516 249.561L92.3446 265.504H116.227L104.45 255.674L103.709 247.991L91.8516 249.561Z" fill="#303061"/>
<path d="M104.149 255.29L99.125 259.172L99.7278 259.957L104.752 256.075L104.149 255.29Z" fill="white"/>
<path d="M109.634 251.129H89.8695L75.783 207.648L73.811 201.562L45.6468 201.437C43.9075 201.413 42.2424 200.604 40.8289 199.411C37.8348 196.877 36.4558 192.897 36.9987 189.006L39.4689 171.325L81.3111 176.782C89.2472 177.818 95.6543 183.777 97.285 191.633L109.634 251.129Z" fill="#101033"/>
<path d="M79.6181 201.562L75.7845 207.65L73.8125 201.562H79.6181Z" fill="#1B1B43"/>
<path d="M74.445 168.124C74.2416 168.942 74.0296 169.76 73.8124 170.583L72.33 176.654L52.812 175.842L38.76 175.257C35.035 175.103 32.3373 171.635 33.0975 167.97L39.6495 136.342C40.4889 130.964 44.8431 126.824 50.2436 126.264L66.2779 124.609L71.4664 126.096C76.5307 128.823 76.5359 133.764 76.7772 137.001C77.8391 151.168 76.5307 159.748 74.445 168.124Z" fill="#19891C"/>
<path opacity="0.3" d="M61.2123 167.113C61.0089 167.931 74.0301 169.76 73.8129 170.583L72.3305 176.654L52.8125 175.842C45.9934 170.682 43.4388 159.454 40.9531 145.387L61.2123 167.113Z" fill="#1B1B43"/>
<path d="M57.3297 133.758C58.1846 134.678 59.1585 135.479 60.2462 136.077C61.3305 136.675 62.5095 137.113 63.7316 137.258C64.94 137.417 66.2173 137.314 67.2774 136.736C68.3616 136.195 69.0528 135.052 69.1821 133.814L69.3752 133.826C69.3683 134.472 69.2063 135.13 68.8839 135.712C68.5599 136.295 68.0651 136.777 67.4894 137.111C66.3276 137.786 64.9503 137.907 63.6679 137.744C62.3785 137.564 61.1374 137.113 60.0359 136.439C58.9276 135.776 57.9588 134.894 57.1797 133.881L57.3297 133.758Z" fill="#1B1B43"/>
<path d="M77.211 153.082L76.8422 153.056C77.1972 148.069 76.837 141.941 75.7734 134.839L76.1406 134.784C77.2076 141.912 77.5679 148.067 77.211 153.082Z" fill="#1B1B43"/>
<path d="M110.38 170.666H92.0156V174.301H110.38V170.666Z" fill="#1B1B43"/>
<path d="M142.167 174.301H105.273L122.239 141.751H159.132L142.167 174.301Z" fill="#101033"/>
<path d="M61.3975 98.5867C57.0743 94.3121 48.921 96.1087 49.0451 103.295C40.1506 105.65 39.6576 115.439 43.2396 120.458L46.3285 120.705L47.0077 117.049L48.7986 120.767L57.445 121.324L61.3975 98.5867Z" fill="#1B1B43"/>
<path d="M68.6295 114.572V128.227C68.6295 128.351 68.6243 128.469 68.614 128.588C68.402 131.398 65.6888 133.387 62.917 132.668C58.83 131.608 55.9893 127.898 56.0237 123.665L56.0927 114.57H68.6295V114.572Z" fill="#FFBC96"/>
<path d="M68.6289 120.475V128.227C68.6289 128.351 68.6237 128.469 68.6134 128.588C64.9711 127.988 60.7617 123.76 59.7344 119.156L68.6289 120.475Z" fill="#1B1B43"/>
<path d="M75.9904 115.583C75.8025 116.669 75.5509 117.779 75.2147 118.834C74.127 122.299 72.1758 125.173 68.6817 124.673C60.4698 123.494 55.8984 115.007 55.8984 115.007L61.5161 108.564L65.286 103.478L76.5868 108.375C76.5885 108.375 76.6472 111.841 75.9904 115.583Z" fill="#FFBC96"/>
<path d="M58.3276 112.837C61.9319 112.721 64.7192 110.88 65.9035 105.651C65.9035 105.651 74.3033 112.92 78.4213 109.038C81.8688 105.787 76.0201 98.3067 66.3378 97.4144C62.8111 97.0893 59.2946 98.1943 56.5315 100.416C51.8394 104.188 51.3895 112.962 55.7765 115.998L58.3276 112.837Z" fill="#1B1B43"/>
<path d="M54.107 103.667C53.8709 102.813 54.0467 101.867 54.4276 101.052C54.8137 100.233 55.4084 99.5168 56.1186 98.9635C56.8288 98.4084 57.6631 98.0124 58.5388 97.8274C59.4127 97.6475 60.3401 97.6752 61.1468 98.028C60.3125 98.2977 59.592 98.583 58.9128 98.9341C58.2354 99.2816 57.6114 99.6845 57.0253 100.138C56.441 100.592 55.898 101.097 55.4102 101.67C54.9189 102.245 54.488 102.877 54.107 103.667Z" fill="#19891C"/>
<path d="M58.5073 116.582C59.9479 116.003 60.5508 114.118 59.8539 112.372C59.157 110.625 57.4242 109.678 55.9835 110.257C54.5429 110.835 53.94 112.72 54.6369 114.467C55.3338 116.213 57.0666 117.16 58.5073 116.582Z" fill="#FFBC96"/>
<path d="M57.2463 115.287C57.3084 114.684 57.3118 114.111 57.1377 113.587C56.9671 113.06 56.6344 112.6 56.25 112.128L56.3707 111.978C56.9292 112.27 57.4032 112.792 57.6049 113.437C57.8083 114.082 57.7204 114.784 57.4308 115.344L57.2463 115.287Z" fill="#1B1B43"/>
<path d="M70.7545 113.46C70.7545 113.972 70.3805 114.387 69.9202 114.387C69.46 114.387 69.0859 113.972 69.0859 113.46C69.0859 112.948 69.46 112.533 69.9202 112.533C70.3805 112.533 70.7545 112.948 70.7545 113.46Z" fill="#1B1B43"/>
<path d="M75.1308 114.189C75.0756 114.64 74.6998 114.967 74.293 114.917C73.8862 114.867 73.6001 114.459 73.6552 114.007C73.7104 113.556 74.0862 113.229 74.493 113.279C74.9015 113.33 75.1859 113.738 75.1308 114.189Z" fill="#1B1B43"/>
<path d="M70.7057 111.134C70.7385 111.566 70.049 111.608 69.032 111.639C68.0149 111.67 67.3117 111.984 67.3048 111.711C67.2961 111.438 68.0494 110.734 69.0526 110.565C70.0852 110.388 70.6661 110.618 70.7057 111.134Z" fill="#1B1B43"/>
<path d="M73.9525 111.55C73.8784 111.977 74.3852 112.086 75.1367 112.219C75.8883 112.351 76.3744 112.735 76.4123 112.465C76.4502 112.194 75.9727 111.421 75.247 111.151C74.4989 110.872 74.0421 111.044 73.9525 111.55Z" fill="#1B1B43"/>
<path d="M72.7505 114.959C72.9436 115.196 73.1573 115.4 73.3779 115.611L73.7106 115.922C73.8261 116.027 73.9502 116.142 74.0623 116.316C74.1174 116.404 74.1605 116.518 74.1674 116.646C74.1778 116.776 74.1364 116.901 74.0847 116.997C73.9709 117.189 73.8347 117.302 73.6865 117.4C73.3917 117.596 73.0711 117.675 72.7626 117.736L72.6902 117.556C72.9556 117.383 73.2211 117.229 73.4262 117.051C73.5245 116.963 73.621 116.856 73.6555 116.774C73.6934 116.691 73.683 116.664 73.6365 116.567C73.5262 116.387 73.2469 116.145 73.0642 115.894C72.8643 115.645 72.685 115.362 72.5781 115.05L72.7505 114.959Z" fill="#1B1B43"/>
<path d="M68.5666 118.011C69.0716 118.588 69.5974 119.123 70.23 119.463C70.8574 119.813 71.5745 119.911 72.3312 119.828L72.3829 120.015C72.0175 120.177 71.6055 120.266 71.1884 120.241C70.7712 120.224 70.3592 120.098 69.9973 119.897C69.2681 119.491 68.7303 118.834 68.4062 118.116L68.5666 118.011Z" fill="#1B1B43"/>
<path opacity="0.2" d="M65.6017 117.485C66.7279 117.485 67.6409 116.569 67.6409 115.439C67.6409 114.31 66.7279 113.394 65.6017 113.394C64.4755 113.394 63.5625 114.31 63.5625 115.439C63.5625 116.569 64.4755 117.485 65.6017 117.485Z" fill="#FE5B52"/>
<path opacity="0.2" d="M75.9951 115.583C75.8072 116.669 75.5556 117.779 75.2194 118.834C74.904 118.472 74.7109 118 74.7109 117.48C74.7109 116.619 75.2436 115.886 75.9951 115.583Z" fill="#FE5B52"/>
<path d="M52.7298 139.769L40.9531 145.386L44.6454 154.17L56.9943 148.457L52.7298 139.769Z" fill="#19891C"/>
<path d="M96.3512 170.229C96.0254 170.065 95.8203 169.956 95.8203 169.956L95.9375 169.722C95.9375 169.722 96.1547 169.828 96.4702 169.997L96.3512 170.229Z" fill="#C5C5FF"/>
<path d="M101.229 171.45C100.849 172.204 97.9337 170.87 96.5753 170.201C97.6286 170.786 99.4419 171.936 98.6352 172.565C97.9871 173.067 96.5547 172 91.8609 170.047C92.5728 170.385 96.7667 172.387 95.71 173.146C94.5586 173.969 89.6183 172.155 89.6183 172.155L85.3348 174.465H80.3945L62.6158 174.58C61.4989 174.585 60.3922 174.441 59.32 174.163C57.2102 173.623 55.2244 172.572 53.5386 171.159C52.4768 170.267 51.5615 169.221 50.7961 168.071C50.2238 167.208 49.7343 166.281 49.3292 165.315L44.6406 154.172L56.9878 148.457L63.4312 161.578L84.6781 166.207L90.6077 164.72C91.8833 164.398 93.6863 164.938 94.8085 165.628C97.5441 167.307 101.585 170.732 101.229 171.45Z" fill="#FFBC96"/>
<path opacity="0.2" d="M59.6492 172.318C59.6492 172.968 59.5355 173.587 59.3286 174.161C57.2187 173.622 55.233 172.571 53.5472 171.158C52.4853 170.266 51.57 169.219 50.8047 168.07C51.739 167.316 52.9249 166.864 54.2143 166.864C57.217 166.866 59.6492 169.304 59.6492 172.318Z" fill="#FE5B52"/>
<path d="M84.6484 166.114C86.1222 165.623 87.615 165.199 89.1388 164.879C89.9007 164.722 90.6712 164.594 91.4572 164.547C91.8502 164.525 92.2484 164.533 92.6501 164.578C92.8483 164.618 93.0465 164.67 93.2448 164.717C93.4326 164.784 93.6171 164.86 93.8032 164.931C95.2495 165.588 96.5078 166.529 97.7265 167.495C98.9435 168.469 100.093 169.515 101.21 170.604L101.262 170.655L101.272 170.719C101.312 170.954 101.284 171.17 101.155 171.39C101.076 171.481 100.993 171.583 100.886 171.626C100.783 171.692 100.679 171.718 100.578 171.734C100.167 171.801 99.8105 171.716 99.4675 171.625C98.7797 171.434 98.1678 171.12 97.5489 170.817C96.9439 170.492 96.3475 170.155 95.77 169.792C95.1822 169.442 94.6237 169.052 94.0515 168.68L94.3135 168.261C95.3236 168.863 96.3078 169.494 97.2473 170.21C97.7144 170.573 98.1764 170.945 98.5728 171.431C98.6677 171.561 98.7642 171.69 98.8297 171.867C98.8659 171.95 98.8866 172.055 98.8883 172.169C98.8797 172.289 98.8418 172.415 98.7607 172.508C98.6056 172.688 98.4177 172.75 98.2591 172.788C98.0937 172.832 97.9402 172.84 97.7834 172.856L97.7351 172.861L97.6817 172.839L92.3174 170.584L92.4777 170.205C93.3223 170.596 94.1446 171.016 94.9289 171.533C95.3115 171.808 95.7132 172.055 95.9959 172.529C96.0596 172.648 96.1062 172.832 96.0407 173.003C95.9734 173.169 95.8424 173.274 95.7218 173.331C95.4736 173.458 95.2236 173.484 94.984 173.497C94.0222 173.52 93.1189 173.293 92.2243 173.072C91.3314 172.835 90.4523 172.557 89.5852 172.24L89.6507 172.059C90.5178 172.349 91.4003 172.607 92.2881 172.82C93.1741 173.018 94.0859 173.216 94.9668 173.171C95.3874 173.153 95.889 172.968 95.6839 172.69C95.4908 172.365 95.0926 172.088 94.7272 171.844C93.9687 171.358 93.1431 170.95 92.3157 170.582L92.476 170.203L97.8592 172.41L97.7575 172.392C97.8902 172.377 98.0264 172.37 98.1436 172.335C98.2643 172.309 98.3626 172.256 98.3953 172.214C98.4712 172.185 98.3694 171.919 98.2005 171.718C97.8592 171.301 97.4076 170.933 96.9543 170.585C96.0389 169.894 95.0564 169.268 94.0635 168.685L94.3255 168.267C94.8944 168.631 95.4443 169.026 96.0234 169.372C96.594 169.733 97.1766 170.067 97.7679 170.387C98.3643 170.682 98.9676 170.992 99.5916 171.166C99.8984 171.255 100.224 171.317 100.484 171.272L100.579 171.255C100.609 171.246 100.626 171.229 100.652 171.218C100.709 171.201 100.726 171.156 100.765 171.128C100.814 171.054 100.834 170.916 100.819 170.815L100.881 170.93C99.7881 169.849 98.6366 168.811 97.4507 167.831C96.2613 166.859 95.0202 165.917 93.6516 165.273L93.1293 165.066C92.9517 165.023 92.7742 164.972 92.5949 164.933C92.2277 164.886 91.8502 164.874 91.471 164.889C90.7109 164.921 89.949 165.026 89.1922 165.166C87.6788 165.448 86.1808 165.837 84.707 166.292L84.6484 166.114Z" fill="#D28572"/>
<path d="M44.7176 154.339L44.5625 154.002L56.7477 148.363L51.6712 136.449L52.0125 136.304L57.2286 148.55L44.7176 154.339Z" fill="#1B1B43"/>
<path d="M46.4667 206.519H45.8203V262.365H46.4667V206.519Z" fill="#1B1B43"/>
<path d="M61.7015 208.997H30.5723C28.4573 208.997 26.7422 207.277 26.7422 205.155C26.7422 203.033 28.4573 201.313 30.5723 201.313H61.7015C63.8165 201.313 65.5316 203.033 65.5316 205.155C65.5316 207.279 63.8165 208.997 61.7015 208.997Z" fill="#FFA121"/>
<path d="M59.2279 266H33.0391V265.366C33.0391 262.175 35.6178 259.59 38.7964 259.59H53.4689C56.6492 259.59 59.2262 262.177 59.2262 265.366V266H59.2279Z" fill="#101033"/>
<path d="M83.8124 177.716L83.2656 178.062L138.444 265.801L138.991 265.455L83.8124 177.716Z" fill="#1B1B43"/>
<path d="M138.441 177.725L83.2422 265.443L83.7888 265.789L138.988 178.071L138.441 177.725Z" fill="#1B1B43"/>
<path d="M159.455 174.301H62.7734V181.616H159.455V174.301Z" fill="#FFA121"/>
<path d="M273.538 265.351H8.69531V266H273.538V265.351Z" fill="#1B1B43"/>
</g>
<defs>
<clipPath id="clip0_1214_1612">
<rect width="280" height="266" fill="white"/>
</clipPath>
</defs>
</svg>
