<svg width="249" height="250" viewBox="0 0 249 250" fill="none" xmlns="http://www.w3.org/2000/svg">
<g clip-path="url(#clip0_1214_2146)">
<path d="M169.861 8H166.533L163.188 125.468H166.515C169.584 125.468 172.142 122.987 172.229 119.926L175.259 13.5337C175.347 10.4808 172.93 8 169.861 8Z" fill="#19891C"/>
<path d="M172.837 13.5337L169.806 119.926C169.719 122.987 167.161 125.468 164.092 125.468H59.2991C56.238 125.468 53.8211 122.987 53.9085 119.926L56.9388 13.5337C57.0256 10.4808 59.5836 8 62.6447 8H167.438C170.507 8 172.924 10.4808 172.837 13.5337Z" fill="#DDF3DD"/>
<path d="M164.423 53.5106H63.0625L64.0949 17.2635H165.456L164.423 53.5106Z" fill="#19891C"/>
<path d="M89.4755 43.8651C94.3082 39.113 94.4713 31.4629 89.8399 26.778C85.2084 22.0932 77.5362 22.1477 72.7035 26.8998C67.8708 31.6518 67.7077 39.302 72.3391 43.9868C76.9706 48.6717 84.6428 48.6172 89.4755 43.8651Z" fill="white"/>
<path d="M79.5252 41.9751L79.5666 40.5263C78.7324 40.5117 77.8766 40.2536 77.3828 39.8949L77.7559 38.9338C78.2637 39.278 79.0046 39.5507 79.8102 39.5507C80.8316 39.5507 81.5393 38.9623 81.5626 38.1449C81.5853 37.3559 81.0379 36.8681 79.9851 36.4379C78.5342 35.8641 77.6463 35.2042 77.6819 33.9565C77.7157 32.7658 78.5901 31.8623 79.9198 31.6472L79.9612 30.1984H80.8531L80.8135 31.5896C81.6757 31.6181 82.2592 31.8478 82.6696 32.092L82.2826 33.0385C81.9858 32.8664 81.4046 32.5507 80.4836 32.5507C79.3759 32.5507 78.9399 33.2106 78.9236 33.7844C78.902 34.5303 79.4237 34.9036 80.6614 35.4199C82.1263 36.0222 82.8533 36.7681 82.8171 38.0449C82.7851 39.178 81.9631 40.2396 80.4742 40.4832L80.4317 41.9751H79.5252Z" fill="#FABE25"/>
<path d="M110.329 31.9538H100.031L100.197 26.1136H110.495L110.329 31.9538Z" fill="#E5EAF0"/>
<path d="M160.014 38.3074H99.8438L99.9242 35.4877H160.095L160.014 38.3074Z" fill="#E5EAF0"/>
<path d="M126.094 41.8409H99.7445L99.6641 44.6607H126.014L126.094 41.8409Z" fill="#E5EAF0"/>
<path d="M140.532 41.8412H132.557L132.477 44.661H140.452L140.532 41.8412Z" fill="#E5EAF0"/>
<path d="M143.556 41.8409L143.477 44.6607H148.524L148.604 41.8409H143.556Z" fill="#E5EAF0"/>
<path d="M162.673 114.997H61.3125L62.8498 61.0286H164.211L162.673 114.997Z" fill="white"/>
<path d="M75.7095 65.1484L74.4688 108.856L75.1231 108.875L76.3639 65.1668L75.7095 65.1484Z" fill="#E5EAF0"/>
<path d="M85.2954 65.1481L84.0547 108.856L84.7091 108.875L85.9498 65.1666L85.2954 65.1481Z" fill="#E5EAF0"/>
<path d="M94.8892 65.1487L93.6484 108.857L94.3028 108.875L95.5436 65.1672L94.8892 65.1487Z" fill="#E5EAF0"/>
<path d="M104.475 65.1481L103.234 108.856L103.889 108.875L105.13 65.1666L104.475 65.1481Z" fill="#E5EAF0"/>
<path d="M114.069 65.1481L112.828 108.856L113.483 108.875L114.723 65.1666L114.069 65.1481Z" fill="#E5EAF0"/>
<path d="M123.663 65.1481L122.422 108.856L123.076 108.875L124.317 65.1666L123.663 65.1481Z" fill="#E5EAF0"/>
<path d="M133.249 65.1487L132.008 108.857L132.662 108.875L133.903 65.1672L133.249 65.1487Z" fill="#E5EAF0"/>
<path d="M142.835 65.1487L141.594 108.857L142.248 108.875L143.489 65.1672L142.835 65.1487Z" fill="#E5EAF0"/>
<path d="M149.404 72.653H69.375V73.3059H149.404V72.653Z" fill="#E5EAF0"/>
<path d="M149.13 82.0081H69.1016V82.661H149.13V82.0081Z" fill="#E5EAF0"/>
<path d="M148.865 91.3643H68.8359V92.0172H148.865V91.3643Z" fill="#E5EAF0"/>
<path d="M148.599 100.719H68.5703V101.372H148.599V100.719Z" fill="#E5EAF0"/>
<path d="M75.3603 101.395L74.6719 100.696L88.7881 86.8627L107.507 95.6673L118.634 78.0778L129.3 87.5092L148.814 67.9557L149.51 68.6464L129.342 88.8545L118.848 79.5749L107.874 96.922L88.9881 88.0388L75.3603 101.395Z" fill="#434C69"/>
<path d="M150.385 70.2216C151.301 69.321 151.331 67.871 150.453 66.9829C149.575 66.0948 148.121 66.105 147.205 67.0056C146.289 67.9062 146.259 69.3563 147.137 70.2444C148.015 71.1325 149.469 71.1223 150.385 70.2216Z" fill="#19891C"/>
<path d="M130.775 89.5123C131.691 88.6117 131.722 87.1616 130.844 86.2735C129.966 85.3854 128.512 85.3956 127.596 86.2963C126.68 87.1969 126.649 88.6469 127.527 89.535C128.405 90.4231 129.859 90.4129 130.775 89.5123Z" fill="#19891C"/>
<path d="M120.049 80.2568C120.965 79.3562 120.995 77.9061 120.117 77.018C119.239 76.1299 117.785 76.1401 116.869 77.0408C115.953 77.9414 115.923 79.3914 116.801 80.2795C117.679 81.1676 119.133 81.1574 120.049 80.2568Z" fill="#19891C"/>
<path d="M109.275 97.8269C110.191 96.9262 110.222 95.4762 109.344 94.5881C108.466 93.7 107.012 93.7102 106.096 94.6108C105.18 95.5115 105.149 96.9615 106.027 97.8496C106.905 98.7377 108.359 98.7275 109.275 97.8269Z" fill="#19891C"/>
<path d="M90.6972 89.5174C91.6131 88.6168 91.6439 87.1667 90.7659 86.2786C89.8879 85.3906 88.4337 85.4007 87.5178 86.3014C86.6019 87.202 86.5711 88.6521 87.4491 89.5401C88.327 90.4282 89.7813 90.4181 90.6972 89.5174Z" fill="#19891C"/>
<path d="M76.6112 102.65C77.5272 101.749 77.5579 100.299 76.68 99.411C75.802 98.5229 74.3478 98.5331 73.4319 99.4337C72.5159 100.334 72.4852 101.784 73.3631 102.672C74.2411 103.561 75.6953 103.55 76.6112 102.65Z" fill="#19891C"/>
<path d="M60.3543 186.088L35.6213 188.295L12.5508 179.946L0.304688 118.483C0.304688 118.483 4.10206 113.833 21.8921 119.338C39.6821 124.843 49.9556 173.982 49.9556 173.982L60.3543 186.088Z" fill="#C5CCD8"/>
<path d="M69.5864 248.062C69.5864 249.102 68.7412 250 67.6324 250C66.7982 250 66.0625 249.475 65.7879 248.697L46.6641 193.712L51.8786 190.154L69.4984 247.493C69.5538 247.679 69.5864 247.876 69.5864 248.062Z" fill="#C5CCD8"/>
<path d="M1.08594 248.062C1.08594 249.102 1.93122 250 3.04 250C3.87421 250 4.6099 249.475 4.88447 248.697L24.0083 193.712L18.7938 190.154L1.17396 247.493C1.11858 247.679 1.08594 247.876 1.08594 248.062Z" fill="#C5CCD8"/>
<path d="M96.6484 229.195L97.5001 237.151L101.397 240.517L109.266 236.529L109.118 229.195H96.6484Z" fill="#FFC69D"/>
<path d="M111.484 240.042C111.459 240.042 111.433 240.039 111.408 240.031C111.305 240.001 111.23 239.911 111.219 239.804C111.185 239.482 110.913 236.627 111.846 235.82C112.09 235.61 112.396 235.544 112.731 235.631C113.153 235.738 113.322 236.004 113.39 236.208C113.765 237.343 111.903 239.681 111.689 239.944C111.64 240.007 111.563 240.042 111.484 240.042ZM112.452 236.125C112.354 236.125 112.271 236.157 112.196 236.222C111.751 236.606 111.657 237.963 111.7 239.055C112.363 238.132 113.062 236.907 112.886 236.376C112.86 236.296 112.803 236.197 112.601 236.146C112.547 236.132 112.498 236.125 112.452 236.125Z" fill="#181818"/>
<path d="M127.175 246.89H97.6551L97.5 237.153C100.76 238.476 105.793 238.251 109.265 236.529L110.393 238.269L121.943 242.818L124.242 243.722C125.689 244.264 126.762 245.451 127.175 246.89Z" fill="#585D83"/>
<path d="M97.6562 246.888V248.865C97.6562 249.481 98.157 249.987 98.7796 249.987H126.13C126.816 249.987 127.375 249.423 127.375 248.737V248.249C127.375 248.121 127.369 247.999 127.358 247.876C127.352 247.766 127.34 247.661 127.323 247.557C127.305 247.44 127.282 247.33 127.259 247.219L127.171 246.888H97.6562Z" fill="#181818"/>
<path d="M111.176 241.631L119.128 244.508C120.007 244.826 121.003 244.467 121.464 243.647L121.941 242.819L110.389 238.269L110.054 239.055C109.619 240.076 110.129 241.246 111.176 241.631Z" fill="#434C69"/>
<path d="M119.11 243.388C119.213 243.388 119.311 243.327 119.355 243.226L120.039 241.616C120.096 241.481 120.033 241.325 119.898 241.268C119.763 241.211 119.606 241.273 119.549 241.408L118.865 243.019C118.808 243.154 118.871 243.31 119.006 243.367C119.04 243.382 119.075 243.388 119.11 243.388Z" fill="#181818"/>
<path d="M117.047 242.658C117.15 242.658 117.249 242.597 117.292 242.496L117.976 240.886C118.034 240.751 117.971 240.595 117.835 240.537C117.7 240.48 117.544 240.543 117.487 240.678L116.802 242.289C116.745 242.423 116.808 242.58 116.943 242.637C116.978 242.652 117.013 242.658 117.047 242.658Z" fill="#181818"/>
<path d="M114.985 241.929C115.088 241.929 115.186 241.868 115.23 241.767L115.914 240.155C115.971 240.021 115.908 239.864 115.773 239.807C115.638 239.75 115.481 239.812 115.424 239.948L114.74 241.559C114.683 241.694 114.746 241.85 114.881 241.907C114.915 241.922 114.95 241.929 114.985 241.929Z" fill="#181818"/>
<path d="M112.922 241.199C113.025 241.199 113.124 241.138 113.167 241.036L113.851 239.426C113.908 239.29 113.845 239.135 113.71 239.078C113.575 239.021 113.419 239.083 113.361 239.218L112.677 240.829C112.62 240.964 112.683 241.12 112.818 241.177C112.852 241.192 112.888 241.199 112.922 241.199Z" fill="#181818"/>
<path d="M111.5 239.772C111.411 239.772 111.326 239.727 111.276 239.65C111.217 239.557 111.221 239.436 111.287 239.348C111.483 239.084 113.227 236.759 114.377 236.819C114.657 236.831 114.888 236.973 115.046 237.229C115.203 237.485 115.227 237.759 115.114 238.021C114.657 239.083 111.871 239.7 111.556 239.767C111.537 239.77 111.518 239.772 111.5 239.772ZM114.334 237.349C113.815 237.349 112.891 238.241 112.197 239.059C113.225 238.768 114.417 238.295 114.626 237.81C114.67 237.709 114.659 237.615 114.593 237.506C114.511 237.374 114.426 237.352 114.354 237.349C114.347 237.349 114.341 237.349 114.334 237.349Z" fill="#181818"/>
<path d="M63.2969 229.195L64.1486 237.151L68.0445 240.517L75.9144 236.529L75.7663 229.195H63.2969Z" fill="#FFC69D"/>
<path d="M78.1323 240.042C78.1072 240.042 78.0816 240.039 78.0565 240.031C77.9533 240.001 77.8787 239.911 77.8676 239.804C77.8332 239.482 77.5616 236.627 78.4949 235.82C78.738 235.61 79.044 235.544 79.3798 235.631C79.8013 235.738 79.9704 236.004 80.038 236.208C80.4134 237.343 78.5514 239.681 78.3375 239.944C78.2874 240.007 78.211 240.042 78.1323 240.042ZM79.1 236.125C79.0021 236.125 78.9193 236.157 78.8435 236.222C78.3993 236.606 78.3043 237.963 78.348 239.055C79.0108 238.132 79.7098 236.907 79.5337 236.376C79.5075 236.296 79.4509 236.197 79.2487 236.146C79.195 236.132 79.1455 236.125 79.1 236.125Z" fill="#181818"/>
<path d="M93.8238 246.89H64.3035L64.1484 237.153C67.4083 238.476 72.441 238.251 75.9136 236.529L77.0417 238.269L88.5912 242.818L90.8909 243.722C92.3384 244.264 93.4105 245.451 93.8238 246.89Z" fill="#585D83"/>
<path d="M64.3047 246.888V248.865C64.3047 249.481 64.8054 249.987 65.428 249.987H92.778C93.4647 249.987 94.0237 249.423 94.0237 248.737V248.249C94.0237 248.121 94.0179 247.999 94.0063 247.876C94.0004 247.766 93.9888 247.661 93.9713 247.557C93.9538 247.44 93.9305 247.33 93.9072 247.219L93.8197 246.888H64.3047Z" fill="#181818"/>
<path d="M77.8242 241.631L85.7769 244.508C86.6554 244.826 87.6517 244.467 88.1122 243.647L88.5891 242.819L77.0372 238.269L76.7026 239.055C76.2671 240.076 76.7778 241.246 77.8242 241.631Z" fill="#434C69"/>
<path d="M85.7581 243.388C85.8613 243.388 85.9598 243.327 86.0029 243.226L86.6873 241.616C86.7445 241.481 86.6815 241.325 86.5463 241.268C86.4116 241.211 86.2548 241.273 86.1977 241.408L85.5133 243.019C85.4561 243.154 85.5191 243.31 85.6543 243.367C85.6882 243.382 85.7231 243.388 85.7581 243.388Z" fill="#181818"/>
<path d="M83.7034 242.658C83.8066 242.658 83.9051 242.597 83.9483 242.496L84.6326 240.886C84.6898 240.751 84.6268 240.595 84.4916 240.537C84.3563 240.48 84.2007 240.543 84.143 240.678L83.4586 242.289C83.4014 242.423 83.4644 242.58 83.5997 242.637C83.6335 242.652 83.6684 242.658 83.7034 242.658Z" fill="#181818"/>
<path d="M81.6409 241.929C81.7441 241.929 81.8426 241.868 81.8858 241.767L82.5701 240.156C82.6273 240.021 82.5643 239.864 82.4291 239.807C82.2938 239.75 82.1376 239.813 82.0805 239.948L81.3961 241.559C81.3389 241.694 81.4019 241.85 81.5372 241.907C81.571 241.922 81.6059 241.929 81.6409 241.929Z" fill="#181818"/>
<path d="M79.5784 241.199C79.6816 241.199 79.7801 241.138 79.8233 241.036L80.5071 239.426C80.5642 239.29 80.5012 239.135 80.366 239.078C80.2307 239.021 80.0751 239.083 80.0174 239.218L79.3336 240.829C79.2764 240.964 79.3394 241.12 79.4747 241.177C79.5085 241.192 79.5434 241.199 79.5784 241.199Z" fill="#181818"/>
<path d="M78.1486 239.772C78.0594 239.772 77.9743 239.727 77.9247 239.65C77.8653 239.557 77.8693 239.436 77.9352 239.348C78.1317 239.084 79.8753 236.759 81.0255 236.819C81.3059 236.831 81.5367 236.973 81.6941 237.229C81.8515 237.485 81.8754 237.759 81.7623 238.021C81.3059 239.083 78.5199 239.7 78.204 239.767C78.1853 239.77 78.1667 239.772 78.1486 239.772ZM80.9823 237.349C80.4629 237.349 79.5389 238.241 78.8446 239.059C79.873 238.768 81.0651 238.295 81.2738 237.81C81.3175 237.709 81.307 237.615 81.2406 237.506C81.159 237.374 81.0739 237.352 81.0021 237.349C80.9952 237.349 80.9887 237.349 80.9823 237.349Z" fill="#181818"/>
<path d="M111.402 230.603H95.3872L81.819 191.128L80.0905 186.094H63.3591L39.4101 170.07L35.625 167.541V153.144L45.7608 150.174L53.6844 159.96C53.6844 159.96 88.4512 164.535 92.7447 167.356C102.743 173.928 111.402 230.603 111.402 230.603Z" fill="#171727"/>
<path d="M95.3865 230.603L81.8182 191.128L72.8203 167.121C72.8203 167.121 83.3071 171.143 85.5917 176.713C87.8757 182.277 95.3865 230.603 95.3865 230.603Z" fill="#2F2F3D"/>
<path d="M62.891 230.604H81.3031C81.3031 230.604 84.4738 180.14 80.5225 173.133C74.816 163.012 43.9811 159.231 39.7483 156.136L15.5801 155.687C15.5801 155.687 15.0543 162.603 15.2852 169.878C15.5673 178.922 21.9209 186.091 30.9736 186.091H58.8057L62.891 230.604Z" fill="#171727"/>
<path d="M77.2578 108.708C77.4012 108.41 82.1068 98.8413 84.4544 98.5704C86.8433 98.2965 87.5062 99.564 87.5062 99.564C87.5062 99.564 96.1275 89.443 97.9871 90.9151C99.8537 92.3878 91.6959 100.228 91.6959 100.228C91.6959 100.228 94.9447 98.0093 95.1866 100.152C95.4204 102.165 93.4406 103.011 93.2145 103.105C93.5153 103.011 97.2433 101.92 97.4473 103.666C97.6583 105.487 94.9179 106.845 94.9179 106.845C94.9179 106.845 97.189 106.886 96.6895 108.973C96.1333 111.306 90.126 116.101 83.9262 115.731" fill="#FFC69D"/>
<path d="M87.5029 99.5619C87.9966 100.521 88.361 101.55 88.544 102.635C88.6321 103.178 88.66 103.74 88.5493 104.312C88.4379 104.875 88.0433 105.474 87.4492 105.687C86.8803 105.917 86.2157 105.857 85.6975 105.574C85.1775 105.294 84.77 104.885 84.4494 104.436C83.7959 103.543 83.347 102.541 83.0625 101.5C83.5347 102.465 84.0658 103.405 84.7437 104.2C85.0859 104.59 85.4649 104.955 85.9079 105.161C86.3399 105.38 86.8354 105.411 87.2639 105.235C87.7017 105.082 87.9786 104.682 88.0987 104.205C88.2182 103.724 88.2024 103.2 88.1709 102.68C88.1348 102.157 88.0275 101.635 87.9109 101.116C87.8054 100.593 87.655 100.079 87.5029 99.5619Z" fill="#F68B82"/>
<path d="M93.1955 103.109C92.1351 103.623 91.0852 104.15 90.0941 104.758C89.605 105.07 89.12 105.387 88.6974 105.763C88.2887 106.128 87.8772 106.581 87.8731 107.034C87.8643 107.248 87.9734 107.471 88.1401 107.644C88.3039 107.818 88.5406 107.919 88.7959 107.979C89.3141 108.102 89.8942 108.033 90.4567 107.942C91.0234 107.845 91.5848 107.683 92.1386 107.499C92.6982 107.327 93.2444 107.113 93.793 106.895C92.7874 107.513 91.7019 108.009 90.5366 108.309C89.9548 108.458 89.3386 108.547 88.698 108.431C88.0637 108.332 87.3846 107.798 87.3828 107.026C87.3916 106.655 87.5583 106.338 87.7466 106.083C87.939 105.826 88.1611 105.608 88.396 105.411C88.8711 105.028 89.3777 104.705 89.907 104.432C90.961 103.879 92.0605 103.435 93.1955 103.109Z" fill="#F68B82"/>
<path d="M91.0662 107.983C90.6634 108.413 90.2758 108.846 89.9301 109.292C89.6059 109.727 89.2608 110.26 89.3623 110.658C89.3996 110.839 89.578 111.027 89.789 111.143C89.9983 111.27 90.2623 111.314 90.5317 111.336C91.0756 111.362 91.6539 111.273 92.2246 111.132C91.7261 111.448 91.1566 111.678 90.5323 111.718C89.9318 111.77 89.1349 111.548 88.8866 110.775C88.8026 110.396 88.9262 110.046 89.0772 109.773C89.2416 109.502 89.4246 109.254 89.6409 109.044C90.0606 108.612 90.5468 108.264 91.0662 107.983Z" fill="#F68B82"/>
<path d="M86.1148 116.582C86.1148 116.582 73.9404 137.359 63.994 138.799C61.5398 139.151 58.5428 138.454 55.4438 137.23C51.2063 135.54 46.7922 132.869 43.3615 130.556C39.6999 128.088 37.1641 126.032 37.1641 126.032L43.3411 107.334C45.382 108.478 55.4327 115.772 62.8846 121.655L77.0627 106.639L86.1148 116.582Z" fill="#19891C"/>
<path d="M55.4495 137.23C51.212 135.54 46.7979 132.869 43.3672 130.556C44.6893 126.262 47.6589 114.617 47.6589 114.617L47.7673 115.172L49.9843 122.752C49.9843 122.752 52.5068 128.317 53.1847 132.118C53.4896 133.835 54.3576 135.648 55.4495 137.23Z" fill="#4EA050"/>
<path d="M17.6752 163.778C15.2274 163.224 13.6476 162.392 13.478 161.256L13.4441 159.944L13.0168 142.43C13.0168 142.43 12.4001 139.09 11.7215 134.532C11.6335 133.944 11.5455 133.335 11.4568 132.706C10.2297 124.051 9.03642 112.42 11.1176 110.168C16.7314 104.095 39.4049 102.223 45.5959 109.106C48.4028 112.237 48.7147 124.95 48.7147 124.95C52.8577 131.401 50.688 137.237 50.688 137.237L51.8883 143.681L54.0376 155.184L54.6072 158.254C55.3131 163.021 27.9137 166.112 17.6752 163.778Z" fill="#19891C"/>
<path d="M54.0433 155.184L13.4492 159.944L13.0219 142.43C13.0219 142.43 12.4051 139.09 11.7266 134.532L16.0457 112.393C16.0457 112.393 19.8763 116.788 21.0498 119.608C22.2163 122.427 22.7858 141.585 22.7858 141.585L51.8939 143.682L54.0433 155.184Z" fill="#4EA050"/>
<path d="M60.6889 140.721L59.1953 155.129C59.1108 155.944 58.3815 156.635 57.5654 156.671L48.7179 157.055C47.9064 157.091 47.3141 156.456 47.3987 155.641L48.8922 141.234C48.9767 140.419 49.706 139.727 50.5175 139.692L59.365 139.308C60.1811 139.273 60.7734 139.907 60.6889 140.721Z" fill="#4B5173"/>
<path d="M52.5698 139.603C51.7583 139.638 51.0273 140.329 50.9445 141.145L49.4509 155.552C49.3635 156.367 49.9587 157.001 50.7702 156.966L48.7176 157.055C47.9061 157.09 47.3156 156.456 47.3984 155.641L48.8919 141.233C48.9747 140.419 49.7057 139.727 50.5172 139.692L52.5698 139.603Z" fill="#30323E"/>
<path d="M57.7651 148.612C57.5739 150.127 54.145 150.438 54.145 150.438C54.145 150.438 57.1583 150.339 56.7344 151.927C56.3415 153.389 52.8595 153.21 52.3232 153.176C52.8036 153.244 55.7469 153.703 54.897 154.917C53.9677 156.235 45.1855 155.339 45.1855 155.339L45.1797 145.657C45.1797 145.657 47.206 142.475 48.8733 142.445L48.3556 146.455C48.3556 146.455 55.0561 145.102 55.3004 146.855C55.3849 147.464 55.0136 147.862 54.5006 148.125C56.1008 147.873 57.87 147.775 57.7651 148.612Z" fill="#FFC69D"/>
<path d="M45.1017 143.988L21.0495 143.687L20.8146 124.61C19.2464 110.616 11.6459 109.894 11.6459 109.894C0.716023 115.495 4.92496 153.666 14.1106 156.62C20.5184 158.68 35.7126 155.727 45.6351 156.205L45.1017 143.988Z" fill="#19891C"/>
<path d="M0.305246 118.481C0.305246 118.481 3.41123 115.255 7.61959 125.656C11.8279 136.058 11.9451 175.46 22.8085 180.023C35.1153 185.191 60.3561 186.091 60.3561 186.091C60.3561 186.091 57.9811 193.748 47.3655 193.755C38.2172 193.762 15.7932 196.184 6.70726 187.687C-2.12101 179.43 0.305246 118.481 0.305246 118.481Z" fill="#E5EAF0"/>
<path d="M19.0749 84.796C23.4424 85.8675 26.11 90.2646 25.0368 94.6158C24.9319 95.0413 24.7966 95.4489 24.6305 95.8396C23.1026 99.4547 19.1274 101.528 15.186 100.561C10.8232 99.4902 8.1556 95.0931 9.22999 90.7373C9.92837 87.9053 12.0404 85.7913 14.6322 84.9547C16.0208 84.5024 17.5517 84.4221 19.0749 84.796Z" fill="#6E302F"/>
<path d="M19.0755 84.7958C23.443 85.8673 26.1106 90.2644 25.0374 94.6156C24.9325 95.0412 24.7972 95.4487 24.6311 95.8394C17.3581 94.6795 14.6421 89.9737 14.6328 84.9551C16.0214 84.5022 17.5523 84.422 19.0755 84.7958Z" fill="#5D1F1E"/>
<path d="M34.5333 105.917C34.18 104.895 33.8069 102.887 33.6356 101.411C33.5382 100.544 33.5061 99.6216 33.5918 98.6966C28.4111 97.7175 23.4612 91.6792 23.2893 91.4716C23.2817 91.4652 23.2817 91.4652 23.2817 91.4652L21.0391 105.248C21.0391 108.055 27.5367 112.731 31.4151 112.375C34.0261 112.135 34.5333 107.806 34.5333 105.917Z" fill="#FFC69D"/>
<path d="M33.6423 101.411C33.3421 101.243 24.3046 96.1174 23.2891 91.4657C23.2891 91.4657 23.2891 91.4657 23.2966 91.4721C23.468 91.6797 28.4179 97.718 33.5992 98.6971C33.5129 99.6221 33.545 100.544 33.6423 101.411Z" fill="#E3965E"/>
<path d="M37.958 99.1614C36.6679 99.7039 35.3312 99.7672 34.0003 99.5137C28.538 98.4864 23.3247 92.1213 23.1451 91.9021C23.1393 91.8963 23.1393 91.8963 23.1393 91.8963C19.1006 90.5632 15.4956 84.7521 17.9143 82.594C21.247 79.6509 24.1402 82.8946 24.1402 82.8946L25.5755 74.6364C25.5755 74.6364 34.3763 67.6829 38.71 69.4603C40.2088 70.0835 41.4062 73.4713 42.0369 77.7643C42.083 78.0701 42.1238 78.3876 42.164 78.705C43.1772 86.7428 42.28 97.3382 37.958 99.1614Z" fill="#FFC69D"/>
<path d="M31.2044 77.1053C27.0963 77.1053 28.5193 83.4995 27.6052 84.4169C26.6853 85.3285 24.1389 82.8936 24.1389 82.8936C24.1389 82.8936 21.2457 79.6506 17.913 82.5931C15.4943 84.7512 19.0993 90.5628 23.138 91.8954C23.138 91.8954 23.138 91.8954 23.1438 91.9012C23.1438 91.9012 14.9586 91.8692 13.0721 82.8902C7.22683 55.0657 46.3997 60.6681 43.7111 75.0849C43.1853 77.9088 33.8895 77.1053 31.2044 77.1053Z" fill="#6E302F"/>
<path d="M38.213 91.8566L38.2211 91.9462C38.2823 93.0392 37.7431 94.0386 36.8867 94.6072C36.4781 94.8723 36.0053 95.0456 35.4935 95.0904C34.2279 95.2008 33.0719 94.5026 32.5455 93.4299C32.3939 93.1305 32.2948 92.7985 32.2569 92.4473L32.2511 92.3782C32.2458 92.3159 32.2616 92.259 32.2569 92.2037C34.4063 91.7584 36.4268 91.5125 38.1774 91.6857C38.1891 91.7404 38.2077 91.7944 38.213 91.8566Z" fill="#E3965E"/>
<path d="M38.2124 91.8566L38.2205 91.9462C36.1143 92.8154 34.197 92.8119 32.2569 92.4473L32.2511 92.3782C32.2458 92.3159 32.2616 92.259 32.2569 92.2037C34.4063 91.7584 36.4268 91.5125 38.1774 91.6857C38.1885 91.7404 38.2071 91.7944 38.2124 91.8566Z" fill="white"/>
<path d="M37.1733 88.746C37.1651 88.746 37.1575 88.746 37.1494 88.746C37.0141 88.7431 36.9063 88.6309 36.9092 88.4954C36.9127 88.3606 37.0392 88.253 37.1599 88.2565C37.3639 88.2611 37.5574 88.1594 37.7212 87.9704C37.948 87.7088 38.0535 87.3385 37.9964 87.0047C37.9468 86.7152 37.8034 86.4518 37.6519 86.1734C37.5965 86.0716 37.5411 85.9699 37.4904 85.8664C36.7839 84.4379 36.8742 82.6978 36.9471 81.2995C36.9541 81.164 37.0695 81.0629 37.2047 81.0675C37.34 81.0745 37.4443 81.1896 37.4368 81.3245C37.3674 82.6664 37.2805 84.3356 37.9305 85.6495C37.9789 85.7472 38.0314 85.8431 38.0838 85.9391C38.2477 86.2402 38.4173 86.5518 38.4803 86.9216C38.5624 87.4036 38.4173 87.9146 38.0926 88.2896C37.8378 88.585 37.512 88.746 37.1733 88.746Z" fill="#E3965E"/>
<path d="M40.197 84.2938C40.6441 84.2547 40.9513 83.5949 40.8831 82.8202C40.815 82.0455 40.3973 81.4491 39.9502 81.4882C39.5031 81.5274 39.1959 82.1871 39.264 82.9619C39.3322 83.7366 39.7499 84.3329 40.197 84.2938Z" fill="#1E1D1E"/>
<path d="M33.7299 83.224C33.7981 83.999 33.4909 84.6583 33.0438 84.6978C32.5966 84.7368 32.1792 84.1408 32.111 83.3658C32.0428 82.5908 32.3501 81.9315 32.7972 81.892C33.2443 81.8525 33.6617 82.4495 33.7299 83.224Z" fill="#1E1D1E"/>
<path d="M38.6905 80.6698C38.6457 80.6698 38.6002 80.6576 38.5594 80.6314C38.4451 80.5593 38.4107 80.4081 38.4836 80.2936C38.5046 80.2605 39.0065 79.4843 39.8465 79.3546C40.3537 79.2762 40.8609 79.4465 41.357 79.861C41.4607 79.9477 41.4747 80.1023 41.3873 80.2058C41.3004 80.3093 41.1448 80.3227 41.0422 80.236C40.6592 79.9163 40.2832 79.7831 39.9217 79.8378C39.2997 79.9343 38.9022 80.5488 38.8981 80.5552C38.8514 80.6296 38.7722 80.6698 38.6905 80.6698Z" fill="#1E1D1E"/>
<path d="M31.2059 81.0375C31.161 81.0375 31.115 81.0253 31.0747 80.9992C30.9605 80.9265 30.9267 80.7759 30.999 80.6619C31.0199 80.6288 31.5219 79.8526 32.3619 79.7224C32.8673 79.6439 33.3762 79.8148 33.8723 80.2294C33.9761 80.316 33.9895 80.4707 33.9027 80.5742C33.8158 80.6776 33.6607 80.691 33.557 80.6044C33.1757 80.2852 32.7991 80.1521 32.44 80.2055C31.8215 80.2997 31.4175 80.9178 31.4134 80.9242C31.3668 80.9974 31.2875 81.0375 31.2059 81.0375Z" fill="#1E1D1E"/>
<path d="M203.504 225.949L202.48 236.96C202.335 239.295 192.692 238.7 192.838 236.365L192.858 225.949H203.504Z" fill="#FFC69D"/>
<path d="M188.448 239.331C188.221 239.052 186.239 236.568 186.639 235.363C186.711 235.146 186.891 234.863 187.34 234.749C187.697 234.658 188.022 234.727 188.282 234.951C189.275 235.808 188.986 238.84 188.949 239.183C188.938 239.296 188.858 239.391 188.748 239.423C188.721 239.432 188.695 239.435 188.668 239.435C188.584 239.436 188.502 239.398 188.448 239.331ZM187.48 235.296C187.264 235.351 187.205 235.455 187.176 235.54C186.989 236.105 187.732 237.405 188.438 238.386C188.484 237.226 188.384 235.785 187.91 235.377C187.829 235.308 187.742 235.274 187.638 235.274C187.589 235.274 187.537 235.282 187.48 235.296Z" fill="#181818"/>
<path d="M203.54 238.008L203.375 246.708H171.969C172.408 245.183 173.548 243.923 175.084 243.342L177.537 242.384L189.824 237.554L192.841 236.369C195.715 237.265 199.8 238.058 202.488 236.958C203.07 236.958 203.54 237.427 203.54 238.008Z" fill="#585D83"/>
<path d="M203.374 246.708V248.808C203.374 249.462 202.841 250 202.179 250H173.076C172.345 250 171.75 249.401 171.75 248.672V248.154C171.75 248.018 171.756 247.888 171.769 247.758C171.774 247.641 171.787 247.53 171.806 247.418C171.825 247.295 171.849 247.177 171.874 247.06L171.967 246.708H203.374V246.708Z" fill="#181818"/>
<path d="M188.986 241.123L180.524 244.18C179.589 244.517 178.529 244.135 178.039 243.265L177.531 242.385L189.823 237.552L190.18 238.387C190.643 239.471 190.1 240.715 188.986 241.123Z" fill="#434C69"/>
<path d="M180.55 242.991C180.44 242.991 180.336 242.926 180.29 242.819L179.562 241.108C179.501 240.964 179.568 240.798 179.712 240.738C179.855 240.677 180.022 240.744 180.083 240.887L180.811 242.598C180.872 242.742 180.805 242.908 180.661 242.968C180.624 242.983 180.587 242.991 180.55 242.991Z" fill="#181818"/>
<path d="M182.738 242.215C182.628 242.215 182.523 242.151 182.477 242.043L181.749 240.332C181.688 240.188 181.755 240.023 181.899 239.962C182.043 239.902 182.209 239.968 182.27 240.112L182.998 241.823C183.06 241.966 182.993 242.132 182.849 242.192C182.813 242.208 182.775 242.215 182.738 242.215Z" fill="#181818"/>
<path d="M184.933 241.439C184.823 241.439 184.719 241.375 184.673 241.267L183.945 239.556C183.883 239.413 183.95 239.247 184.094 239.187C184.238 239.126 184.404 239.192 184.466 239.336L185.194 241.047C185.255 241.191 185.188 241.356 185.044 241.417C185.007 241.432 184.97 241.439 184.933 241.439Z" fill="#181818"/>
<path d="M187.128 240.664C187.018 240.664 186.913 240.6 186.867 240.492L186.14 238.781C186.079 238.637 186.146 238.472 186.29 238.411C186.434 238.35 186.599 238.417 186.661 238.561L187.389 240.272C187.45 240.415 187.382 240.581 187.239 240.641C187.203 240.656 187.165 240.664 187.128 240.664Z" fill="#181818"/>
<path d="M188.58 239.143C188.244 239.072 185.28 238.417 184.793 237.288C184.673 237.01 184.698 236.719 184.866 236.447C185.034 236.175 185.28 236.025 185.578 236.011C186.802 235.947 188.657 238.417 188.866 238.698C188.936 238.792 188.941 238.92 188.877 239.018C188.824 239.1 188.734 239.149 188.639 239.149C188.62 239.149 188.6 239.147 188.58 239.143ZM185.603 236.575C185.526 236.579 185.436 236.601 185.349 236.742C185.278 236.857 185.267 236.957 185.313 237.065C185.535 237.58 186.803 238.083 187.898 238.392C187.159 237.522 186.176 236.575 185.624 236.575C185.617 236.575 185.61 236.575 185.603 236.575Z" fill="#181818"/>
<path d="M188.2 179.482C188.312 169.454 198.256 141.126 203.369 129.495H222.865L230.585 133.073L220.77 151.833L208.78 183.183L205.934 229.529C205.934 229.97 203.959 230.259 201.436 230.382C196.994 230.597 188.445 230.314 188.445 229.529C188.498 230.177 187.988 198.552 188.2 179.482Z" fill="#2F2F3D"/>
<path d="M214.055 169.392L220.77 151.835L216.547 138.254L214.055 169.392Z" fill="#30323E"/>
<path d="M239.402 225.949L238.378 236.961C238.233 239.295 228.591 238.7 228.736 236.365L228.756 225.949H239.402Z" fill="#FFC69D"/>
<path d="M242.391 127.149L241.18 231.708C241.18 233.576 226.286 233.576 226.286 231.708L215.633 129.496L242.391 127.149Z" fill="#2F2F3D"/>
<path d="M224.339 239.331C224.111 239.052 222.13 236.568 222.53 235.363C222.602 235.146 222.782 234.864 223.23 234.749C223.588 234.658 223.913 234.728 224.172 234.951C225.166 235.808 224.877 238.84 224.84 239.183C224.828 239.296 224.749 239.392 224.639 239.424C224.612 239.432 224.585 239.435 224.558 239.435C224.474 239.436 224.393 239.399 224.339 239.331ZM223.37 235.296C223.155 235.351 223.095 235.456 223.067 235.54C222.879 236.105 223.623 237.406 224.329 238.386C224.375 237.227 224.274 235.785 223.801 235.378C223.72 235.308 223.633 235.274 223.528 235.274C223.48 235.274 223.427 235.282 223.37 235.296Z" fill="#181818"/>
<path d="M239.439 238.008L239.274 246.708H207.867C208.307 245.183 209.446 243.923 210.983 243.342L213.435 242.385L225.723 237.554L228.74 236.369C231.614 237.265 235.698 238.058 238.386 236.958C238.968 236.958 239.439 237.428 239.439 238.008Z" fill="#585D83"/>
<path d="M239.272 246.708V248.808C239.272 249.463 238.739 250 238.077 250H208.974C208.243 250 207.648 249.401 207.648 248.672V248.154C207.648 248.018 207.655 247.888 207.667 247.758C207.673 247.641 207.686 247.53 207.704 247.418C207.723 247.295 207.748 247.178 207.773 247.06L207.865 246.708H239.272V246.708Z" fill="#181818"/>
<path d="M224.885 241.124L216.423 244.18C215.488 244.517 214.428 244.135 213.937 243.265L213.43 242.385L225.722 237.553L226.078 238.388C226.542 239.471 225.998 240.715 224.885 241.124Z" fill="#434C69"/>
<path d="M216.449 242.991C216.339 242.991 216.234 242.927 216.188 242.819L215.46 241.108C215.399 240.964 215.466 240.799 215.61 240.738C215.753 240.677 215.92 240.744 215.981 240.888L216.709 242.599C216.771 242.742 216.704 242.908 216.56 242.968C216.523 242.984 216.486 242.991 216.449 242.991Z" fill="#181818"/>
<path d="M218.644 242.215C218.534 242.215 218.43 242.151 218.384 242.043L217.655 240.332C217.594 240.189 217.661 240.023 217.805 239.962C217.949 239.902 218.115 239.968 218.177 240.112L218.905 241.823C218.966 241.966 218.899 242.132 218.755 242.193C218.719 242.208 218.681 242.215 218.644 242.215Z" fill="#181818"/>
<path d="M220.839 241.44C220.729 241.44 220.625 241.375 220.579 241.268L219.851 239.557C219.79 239.413 219.857 239.247 220.001 239.187C220.145 239.126 220.311 239.193 220.372 239.336L221.1 241.047C221.161 241.191 221.094 241.357 220.95 241.417C220.914 241.432 220.876 241.44 220.839 241.44Z" fill="#181818"/>
<path d="M223.026 240.664C222.916 240.664 222.812 240.6 222.766 240.492L222.038 238.781C221.977 238.638 222.044 238.472 222.188 238.411C222.332 238.35 222.498 238.417 222.559 238.561L223.287 240.272C223.348 240.415 223.281 240.581 223.137 240.642C223.1 240.657 223.063 240.664 223.026 240.664Z" fill="#181818"/>
<path d="M224.479 239.143C224.142 239.072 221.178 238.417 220.692 237.288C220.572 237.01 220.597 236.719 220.765 236.447C220.932 236.176 221.178 236.025 221.477 236.012C222.7 235.948 224.556 238.417 224.764 238.698C224.834 238.792 224.839 238.92 224.775 239.019C224.722 239.101 224.632 239.149 224.537 239.149C224.518 239.149 224.498 239.147 224.479 239.143ZM221.501 236.576C221.424 236.579 221.334 236.601 221.247 236.742C221.176 236.858 221.165 236.957 221.211 237.065C221.433 237.58 222.701 238.083 223.796 238.392C223.057 237.522 222.073 236.575 221.521 236.575C221.514 236.575 221.508 236.575 221.501 236.576Z" fill="#181818"/>
<path d="M203.335 39.3082C203.335 39.3082 200.311 48.7867 208.498 48.9344C216.685 49.082 208.018 38.3099 208.018 38.3099" fill="#30323E"/>
<path d="M158.06 72.4942C156.902 74.2372 159.772 76.0512 160.531 76.493C160.023 76.2494 158.562 75.7058 157.408 76.9779C155.985 78.5477 169.712 87.1959 169.712 87.1959L176.318 81.0273C176.318 81.0273 171.663 69.3273 169.677 71.518C169.096 72.1593 169.718 73.4012 169.707 73.7738C167.907 72.0477 164.242 68.1849 163.239 69.0796C162.316 69.9035 163.504 71.6686 163.643 72.0924C162.299 70.7494 159.979 68.5924 159.615 70.2413C159.453 70.9988 160.871 72.2796 161.191 72.886C160.187 72.3349 158.544 71.775 158.06 72.4942Z" fill="#FFC69D"/>
<path d="M168.43 87.2868C171.518 89.4537 185.443 101.201 193.682 104.137C194.67 104.49 195.573 104.712 196.372 104.777C199.519 105.044 204.643 101.944 208.635 99.0792C211.953 96.6973 214.491 94.4781 214.491 94.4781L210.971 77.2095C207.542 78.3188 203.027 81.3537 195.338 90.0792L175.216 77.8037L168.43 87.2868Z" fill="#35D399"/>
<path d="M196.501 100.235C195.67 101.605 194.781 102.976 193.688 104.137C194.676 104.49 195.579 104.712 196.377 104.777C199.525 105.044 204.649 101.944 208.64 99.0793C207.816 96.3904 206.468 93.8322 205.512 91.2084C205.185 90.3014 204.792 86.6467 203.15 87.2665C202.397 87.5473 202.064 89.2834 201.77 89.9619C201.305 91.052 200.814 92.1287 200.297 93.1991C199.145 95.6008 197.876 97.9502 196.501 100.235Z" fill="#00B773"/>
<path d="M201.334 133.618C201.233 135.005 202.509 136.199 204.656 137.17C204.893 137.277 205.137 137.383 205.395 137.483C205.625 137.576 205.862 137.669 206.106 137.755C216.953 141.621 242.568 141.368 242.991 135.342C242.985 134.947 242.973 134.45 242.964 133.844C242.966 133.728 242.968 133.599 242.964 133.469C242.909 127.054 243.296 110.977 243.225 97.971C243.212 96.0501 243.191 94.1984 243.154 92.4472C243.017 85.3362 242.663 80.0257 241.899 79.2356C238.601 75.8193 229.274 75.8821 229.274 75.8821C229.274 75.8821 216.774 75.003 214.494 75.7588C210.353 77.1414 207.334 78.6803 205.146 80.3908C200.81 83.7856 204.127 114.725 204.127 114.725C204.127 114.725 203.552 118.964 202.88 123.636C202.342 127.317 201.752 131.262 201.334 133.618Z" fill="#35D399"/>
<path d="M201.334 133.617C201.233 135.005 202.509 136.199 204.656 137.17C204.893 137.277 205.137 137.383 205.395 137.483L242.964 133.844C242.967 133.728 242.969 133.599 242.964 133.469C242.91 127.054 243.297 110.977 243.225 97.9709L233.627 86.0837L225.233 116.522L202.88 123.637C202.342 127.317 201.752 131.262 201.334 133.617Z" fill="#00B773"/>
<path d="M215.676 75.5563C215.56 77.8901 217.73 77.1976 220.894 77.4389C224.167 77.6889 228.786 77.4284 229.274 75.8819L226.233 61.0063C226.233 61.0063 226.233 61.0063 226.226 61.0127C226.072 61.2151 221.627 67.1069 216.77 68.2279C216.887 69.0982 216.891 69.9703 216.832 70.793C216.603 73.843 215.676 75.5563 215.676 75.5563Z" fill="#FFC69D"/>
<path d="M216.836 70.7936C217.114 70.6232 225.455 65.4389 226.237 61.0063C226.237 61.0063 226.237 61.0063 226.23 61.0127C226.075 61.2151 221.63 67.1069 216.773 68.2279C216.891 69.0988 216.895 69.9709 216.836 70.7936Z" fill="#E3965E"/>
<path d="M212.661 68.8378C213.905 69.2924 215.171 69.3087 216.422 69.014C221.282 67.893 225.745 62.2349 226.327 61.489C226.361 61.4488 226.382 61.4221 226.389 61.4093C230.151 59.9919 233.341 54.3645 230.972 52.4244C227.71 49.7663 225.485 53.3581 225.485 53.3581C225.485 53.3581 222.893 52.5756 222.956 49.0861C223.019 45.6035 224.375 44.0477 219.942 43.968C216.829 43.9116 211.804 45.489 208.566 45.2483C208.536 45.3959 208.499 45.5436 208.469 45.6988C208.27 46.6401 208.116 47.6773 207.994 48.7756C207.171 56.4983 208.358 67.2209 212.661 68.8378Z" fill="#FFC69D"/>
<path d="M208.562 45.2479C211.801 45.488 216.825 43.9113 219.939 43.9677C224.372 44.0473 223.016 45.6031 222.953 49.0857C222.89 52.5752 225.482 53.3578 225.482 53.3578C225.482 53.3578 226.034 47.5479 224.689 44.0467C223.119 39.9409 214.85 38.9607 210.823 40.806C209.867 41.2473 209.092 42.9142 208.562 45.2479Z" fill="#FFC69D"/>
<path d="M212.145 61.9416L212.141 62.0264C212.125 63.0613 212.673 63.9852 213.503 64.4892C213.899 64.7241 214.352 64.87 214.837 64.8927C216.037 64.9491 217.102 64.2456 217.558 63.2125C217.69 62.9235 217.771 62.6067 217.793 62.2729L217.796 62.2073C217.799 62.1485 217.782 62.095 217.785 62.0427C215.737 61.7038 213.819 61.5479 212.172 61.7782C212.164 61.8311 212.148 61.8828 212.145 61.9416Z" fill="#E3965E"/>
<path d="M212.145 61.9416L212.141 62.0265C214.163 62.7677 215.975 62.6916 217.793 62.2736L217.796 62.2079C217.799 62.1491 217.781 62.0957 217.784 62.0433C215.737 61.7044 213.819 61.5486 212.172 61.7788C212.163 61.8311 212.148 61.8829 212.145 61.9416Z" fill="white"/>
<path d="M212.977 58.9784C212.668 58.9784 212.366 58.8377 212.122 58.5778C211.798 58.233 211.64 57.7516 211.7 57.2894C211.745 56.9354 211.895 56.6336 212.038 56.3418C212.083 56.2493 212.13 56.1563 212.171 56.0627C212.734 54.7993 212.588 53.2278 212.472 51.965C212.459 51.8307 212.559 51.7115 212.693 51.6987C212.827 51.6877 212.948 51.7854 212.96 51.9202C213.082 53.2394 213.234 54.8813 212.62 56.2615C212.575 56.3615 212.526 56.4598 212.478 56.558C212.346 56.8255 212.222 57.0784 212.187 57.3522C212.146 57.6662 212.258 58.0074 212.48 58.2435C212.639 58.4127 212.824 58.4981 213.01 58.4883C213.143 58.4778 213.262 58.5824 213.27 58.7173C213.279 58.8522 213.176 58.9685 213.041 58.9772C213.02 58.9778 212.998 58.9784 212.977 58.9784Z" fill="#E3965E"/>
<path d="M209.284 53.5075C209.249 54.2418 209.564 54.8534 209.988 54.8732C210.412 54.8929 210.784 54.3139 210.818 53.5796C210.853 52.8453 210.538 52.2336 210.114 52.2139C209.69 52.1941 209.318 52.7732 209.284 53.5075Z" fill="#1E1D1E"/>
<path d="M217.59 53.687C217.625 52.9525 217.31 52.3409 216.886 52.3209C216.462 52.3009 216.09 52.8801 216.055 53.6146C216.02 54.3491 216.336 54.9608 216.76 54.9807C217.184 55.0007 217.555 54.4215 217.59 53.687Z" fill="#1E1D1E"/>
<path d="M211.262 51.4065C211.185 51.4065 211.109 51.3699 211.061 51.3019C211.057 51.2961 210.654 50.7321 210.073 50.6676C209.733 50.6321 209.389 50.7705 209.044 51.0833C208.943 51.174 208.789 51.167 208.697 51.067C208.605 50.967 208.613 50.8123 208.713 50.7211C209.169 50.3077 209.643 50.1269 210.131 50.1815C210.935 50.2734 211.442 50.992 211.464 51.0228C211.541 51.1338 211.513 51.2856 211.402 51.3629C211.36 51.392 211.311 51.4065 211.262 51.4065Z" fill="#1E1D1E"/>
<path d="M218.348 51.4697C218.271 51.4697 218.194 51.4331 218.147 51.365C218.143 51.3592 217.74 50.7953 217.159 50.7307C216.821 50.6935 216.475 50.8331 216.13 51.1459C216.029 51.2366 215.874 51.2296 215.783 51.1296C215.691 51.0296 215.699 50.8749 215.799 50.7842C216.255 50.3709 216.73 50.1889 217.217 50.2447C218.022 50.3366 218.529 51.0552 218.55 51.0854C218.627 51.1964 218.599 51.3482 218.488 51.4255C218.446 51.4552 218.397 51.4697 218.348 51.4697Z" fill="#1E1D1E"/>
<path d="M216.518 73.5739L214.492 75.7605L215.284 82.0337L220.895 77.4395L216.518 73.5739Z" fill="#00B773"/>
<path d="M228.968 73.6147L230.778 75.9816L225.16 83.4973L220.898 77.4397L228.968 73.6147Z" fill="#00B773"/>
<path d="M180.777 150.161C192.723 150.161 202.406 140.503 202.406 128.59C202.406 116.677 192.723 107.019 180.777 107.019C168.832 107.019 159.148 116.677 159.148 128.59C159.148 140.503 168.832 150.161 180.777 150.161Z" fill="#F79A1C"/>
<path d="M180.774 147.049C190.996 147.049 199.282 138.785 199.282 128.59C199.282 118.396 190.996 110.131 180.774 110.131C170.552 110.131 162.266 118.396 162.266 128.59C162.266 138.785 170.552 147.049 180.774 147.049Z" fill="#FABE25"/>
<path d="M180.688 137.717C179.299 137.717 177.968 137.518 176.697 137.121C175.426 136.724 174.418 136.213 173.672 135.588L174.816 133.027C175.527 133.585 176.409 134.049 177.46 134.421C178.51 134.793 179.587 134.979 180.688 134.979C181.62 134.979 182.375 134.878 182.951 134.675C183.527 134.472 183.951 134.198 184.222 133.851C184.493 133.505 184.629 133.112 184.629 132.672C184.629 132.131 184.434 131.696 184.044 131.366C183.654 131.036 183.15 130.774 182.532 130.58C181.913 130.386 181.226 130.204 180.473 130.035C179.718 129.866 178.964 129.667 178.21 129.439C177.456 129.21 176.77 128.915 176.151 128.552C175.532 128.188 175.028 127.702 174.638 127.094C174.248 126.485 174.054 125.708 174.054 124.761C174.054 123.798 174.311 122.915 174.829 122.112C175.346 121.31 176.134 120.667 177.193 120.185C178.252 119.704 179.595 119.463 181.222 119.463C182.29 119.463 183.349 119.598 184.4 119.868C185.45 120.139 186.366 120.528 187.146 121.035L186.103 123.596C185.306 123.123 184.485 122.772 183.638 122.543C182.79 122.315 181.976 122.201 181.197 122.201C180.281 122.201 179.54 122.311 178.972 122.531C178.404 122.75 177.989 123.038 177.727 123.393C177.463 123.748 177.333 124.153 177.333 124.61C177.333 125.151 177.523 125.586 177.905 125.916C178.286 126.245 178.786 126.503 179.405 126.689C180.023 126.875 180.714 127.056 181.476 127.234C182.239 127.412 182.997 127.61 183.752 127.83C184.506 128.05 185.192 128.337 185.811 128.692C186.43 129.048 186.93 129.529 187.311 130.138C187.693 130.746 187.883 131.516 187.883 132.445C187.883 133.391 187.625 134.266 187.108 135.069C186.591 135.872 185.799 136.514 184.731 136.996C183.663 137.477 182.315 137.717 180.688 137.717ZM179.9 140.506V116.674H181.985V140.506H179.9Z" fill="#F79A1C"/>
<path d="M191.774 128.482C192.057 130.141 195.846 130.32 195.846 130.32C195.846 130.32 192.525 130.355 193.068 132.083C193.571 133.673 197.394 133.31 197.983 133.246C197.458 133.344 194.24 133.989 195.234 135.286C196.32 136.692 205.943 135.286 205.943 135.286L205.484 124.63C205.484 124.63 203.101 121.224 201.264 121.27L202.027 125.66C202.027 125.66 194.587 124.49 194.402 126.432C194.339 127.106 194.766 127.526 195.344 127.791C193.571 127.589 191.618 127.566 191.774 128.482Z" fill="#FFC69D"/>
<path d="M205.484 122.789L228.518 117.901L231.433 94.9948C232.487 79.5175 240.817 78.3594 240.817 78.3594C253.116 84.0012 250.376 127.911 240.407 131.6C233.453 134.174 216.382 135.26 205.484 136.259V122.789Z" fill="#35D399"/>
<path d="M205.697 43.711C204.975 46.3523 209.259 47.2767 210.624 47.3761C213.863 47.6162 216.83 43.9116 219.943 43.968C224.376 44.0476 223.02 45.6034 222.957 49.086C222.894 52.5755 225.486 53.3581 225.486 53.3581C225.486 53.3581 227.711 49.7656 230.973 52.4244C233.341 54.3645 230.152 59.9918 226.39 61.4092C226.383 61.422 226.362 61.4488 226.327 61.4889L227.347 66.4499C227.347 66.4499 227.347 66.4499 227.354 66.443C227.698 66.1656 240.404 55.7546 236.556 49.9528C237.576 43.7261 235.462 32.604 224.54 34.4889C221.669 34.9842 218.202 35.4435 213.475 34.0081C208.742 32.5726 206.533 34.9499 204.011 37.3819C201.482 39.8133 205.697 43.711 205.697 43.711Z" fill="#30323E"/>
</g>
<defs>
<clipPath id="clip0_1214_2146">
<rect width="249" height="250" fill="white"/>
</clipPath>
</defs>
</svg>
