<svg width="48" height="48" viewBox="0 0 48 48" fill="none" xmlns="http://www.w3.org/2000/svg">
<path d="M3.75169 2.99652C2.51816 2.99652 1.50391 4.01623 1.50391 5.24976V29.2502C1.50391 30.4837 2.51816 31.498 3.75169 31.498H41.2498C42.4834 31.498 43.5032 30.4837 43.5032 29.2502V5.24976C43.5032 4.01623 42.4834 2.99652 41.2498 2.99652H3.75169Z" fill="#E7EBEF"/>
<path d="M38.2495 2.99615C39.483 2.99615 40.5024 4.01699 40.5024 5.25051V27.7505C40.5024 28.984 39.483 29.9976 38.2495 29.9976H3.75097C2.51744 29.9976 1.50391 28.984 1.50391 27.7505V29.2505C1.50391 30.484 2.51744 31.4975 3.75097 31.4975H41.2495C42.483 31.4975 43.5024 30.484 43.5024 29.2505V5.25051C43.5024 4.01699 42.483 2.99615 41.2495 2.99615H38.2495Z" fill="#DBE1E7"/>
<path d="M8.2576 32.9983C6.19307 32.9983 4.50391 34.682 4.50391 36.7465V37.4994C4.50391 39.5639 6.19307 41.2476 8.2576 41.2476C10.3221 41.2476 12.0058 39.5639 12.0058 37.4994V36.7465C12.0058 34.682 10.3221 32.9983 8.2576 32.9983Z" fill="#FDD5A6"/>
<path d="M39.7482 32.9983C37.6836 32.9983 36 34.682 36 36.7465V37.4994C36 39.5639 37.6836 41.2476 39.7482 41.2476C41.8127 41.2476 43.5018 39.5639 43.5018 37.4994V36.7465C43.5018 34.682 41.8127 32.9983 39.7482 32.9983Z" fill="#FDD5A6"/>
<path d="M8.25927 32.9975C7.72542 32.9975 7.21875 33.1144 6.75781 33.3169C8.07847 33.8976 9.00781 35.215 9.00781 36.7461V37.499C9.00781 39.0301 8.07847 40.3475 6.75781 40.9282C7.21875 41.1309 7.72542 41.2476 8.25927 41.2476C10.3238 41.2476 12.0078 39.5635 12.0078 37.499V36.7461C12.0078 34.6816 10.3238 32.9975 8.25927 32.9975Z" fill="#FDCC93"/>
<path d="M39.7554 32.9975C39.2215 32.9975 38.7148 33.1144 38.2539 33.3169C39.5746 33.8976 40.5039 35.215 40.5039 36.7461V37.499C40.5039 39.0301 39.5746 40.3475 38.2539 40.9282C38.7148 41.1309 39.2215 41.2476 39.7554 41.2476C41.8199 41.2476 43.5039 39.5635 43.5039 37.499V36.7461C43.5039 34.6816 41.8199 32.9975 39.7554 32.9975Z" fill="#FDCC93"/>
<path d="M23.9998 32.9983C21.9353 32.9983 20.2461 34.682 20.2461 36.7465V37.4994C20.2461 39.5639 21.9353 41.2476 23.9998 41.2476C26.0643 41.2476 27.7479 39.5639 27.7479 37.4994V36.7465C27.7479 34.682 26.0643 32.9983 23.9998 32.9983Z" fill="#FDD5A6"/>
<path d="M23.9976 32.9975C23.4637 32.9975 22.957 33.1144 22.4961 33.3169C23.8168 33.8976 24.7461 35.215 24.7461 36.7461V37.499C24.7461 39.0301 23.8168 40.3475 22.4961 40.9282C22.957 41.1309 23.4637 41.2476 23.9976 41.2476C26.0621 41.2476 27.7461 39.5635 27.7461 37.499V36.7461C27.7461 34.6816 26.0621 32.9975 23.9976 32.9975Z" fill="#FDCC93"/>
<path d="M5.25296 5.99717C5.15397 5.99679 5.05589 6.01604 4.96436 6.05374C4.87284 6.09145 4.78968 6.1469 4.71969 6.21689C4.64969 6.28689 4.59425 6.37001 4.55654 6.46153C4.51884 6.55306 4.49962 6.65122 4.50001 6.75021V27.7498C4.50035 27.8483 4.52011 27.9458 4.55814 28.0367C4.59617 28.1276 4.65173 28.21 4.72166 28.2794C4.79158 28.3488 4.87449 28.4038 4.96565 28.4412C5.05681 28.4786 5.15444 28.4975 5.25296 28.4972H39.7504C39.8489 28.4975 39.9465 28.4786 40.0377 28.4412C40.1288 28.4038 40.2118 28.3488 40.2817 28.2794C40.3516 28.21 40.4072 28.1276 40.4452 28.0367C40.4832 27.9458 40.503 27.8483 40.5033 27.7498V6.75021C40.5037 6.65122 40.4845 6.55306 40.4468 6.46153C40.4091 6.37001 40.3536 6.28689 40.2836 6.21689C40.2136 6.1469 40.1305 6.09145 40.039 6.05374C39.9474 6.01604 39.8494 5.99679 39.7504 5.99717H5.25296Z" fill="#46A648"/>
<path d="M6.00502 39.7472C3.52501 39.7472 1.50395 41.7683 1.50391 44.2483V45.7486C1.50353 45.8476 1.52275 45.9458 1.56046 46.0373C1.59816 46.1288 1.65361 46.212 1.7236 46.282C1.7936 46.3519 1.87675 46.4074 1.96828 46.4451C2.0598 46.4828 2.15788 46.502 2.25686 46.5016H14.2543C14.3533 46.502 14.4513 46.4828 14.5429 46.4451C14.6344 46.4074 14.7175 46.3519 14.7875 46.282C14.8575 46.212 14.913 46.1288 14.9507 46.0373C14.9884 45.9458 15.0076 45.8476 15.0072 45.7486V44.2483C15.0072 41.7682 12.9861 39.7472 10.5061 39.7472H6.00502Z" fill="#FC6067"/>
<path d="M26.2522 39.7472C28.7322 39.7472 30.7533 41.7683 30.7533 44.2483V45.7486C30.7537 45.8476 30.7345 45.9458 30.6968 46.0373C30.6591 46.1288 30.6036 46.212 30.5336 46.282C30.4636 46.3519 30.3805 46.4074 30.289 46.4451C30.1974 46.4828 30.0994 46.502 30.0004 46.5016H18.003C17.904 46.502 17.8059 46.4828 17.7144 46.4451C17.6228 46.4074 17.5397 46.3519 17.4697 46.282C17.3997 46.212 17.3443 46.1288 17.3065 46.0373C17.2688 45.9458 17.2496 45.8476 17.25 45.7486V44.2483C17.25 41.7682 19.2711 39.7472 21.7511 39.7472H26.2522Z" fill="#46A648"/>
<path d="M42.01 39.7472C44.49 39.7472 46.5056 41.7683 46.5056 44.2483V45.7486C46.506 45.8472 46.4869 45.9449 46.4496 46.036C46.4122 46.1272 46.3573 46.21 46.2879 46.28C46.2185 46.3499 46.136 46.4054 46.0451 46.4435C45.9542 46.4815 45.8567 46.5012 45.7582 46.5016H33.7608C33.6618 46.502 33.5637 46.4828 33.4722 46.4451C33.3807 46.4074 33.2975 46.3519 33.2275 46.282C33.1575 46.212 33.1021 46.1288 33.0644 46.0373C33.0267 45.9458 33.0074 45.8476 33.0078 45.7486V44.2483C33.0078 41.7682 35.0289 39.7472 37.5089 39.7472H42.01Z" fill="#59E78B"/>
<path d="M27 45.002H18.0029C17.5864 45.0035 17.2484 44.6656 17.25 44.2491V45.7491C17.2485 46.1656 17.5864 46.5036 18.0029 46.502H30C30.4165 46.5036 30.7545 46.1656 30.7529 45.7491V44.2476C30.7529 41.7676 28.7315 39.7476 26.2515 39.7476H23.2515C25.7315 39.7476 27.7529 41.7676 27.7529 44.2484C27.7544 44.6656 27.4165 45.0036 27 45.002Z" fill="#19891C"/>
<path d="M42.75 45.002H33.7529C33.3364 45.0035 32.9984 44.6656 33 44.2491V45.7491C32.9985 46.1656 33.3364 46.5036 33.7529 46.502H45.75C46.1665 46.5036 46.5045 46.1656 46.5029 45.7491V44.2476C46.5029 41.7676 44.4815 39.7476 42.0015 39.7476H39.0015C41.4815 39.7476 43.5029 41.7676 43.5029 44.2484C43.5044 44.6656 43.1665 45.0036 42.75 45.002Z" fill="#41E37A"/>
<path d="M11.2539 45.002H2.25684C1.84033 45.0035 1.50231 44.6656 1.50391 44.2491V45.7491C1.50241 46.1656 1.84035 46.5036 2.25684 46.502H14.2539C14.6704 46.5036 15.0084 46.1656 15.0068 45.7491V44.2476C15.0068 41.7676 12.9854 39.7476 10.5054 39.7476H7.50538C9.98539 39.7476 12.0068 41.7676 12.0068 44.2484C12.0083 44.6656 11.6704 45.0036 11.2539 45.002Z" fill="#FB4F56"/>
<path d="M5.2544 5.99763C4.83734 5.99539 4.49842 6.33344 4.50001 6.7505V27.7506C4.50151 28.1653 4.83963 28.5 5.2544 28.4976H8.2544C7.84006 28.4991 7.50148 28.1649 7.50001 27.7506V8.25052C7.49851 7.83403 7.8379 7.49604 8.2544 7.49765H39.7515C40.168 7.49615 40.506 7.83403 40.5044 8.25052V6.7505C40.5059 6.33403 40.168 5.99604 39.7515 5.99763H5.2544Z" fill="#19891C"/>
<path d="M24.751 1.50201C23.5175 1.50201 22.5039 2.5155 22.5039 3.74902V15.7461C22.5039 16.9796 23.5175 18.0005 24.751 18.0005H25.498V21.7476C25.4973 21.8916 25.538 22.0329 25.6154 22.1544C25.6928 22.2759 25.8035 22.3726 25.9344 22.4329C26.0653 22.4931 26.2107 22.5144 26.3533 22.4942C26.496 22.474 26.6298 22.4131 26.7388 22.3189L31.7764 18.0005H44.2495C45.483 18.0005 46.5039 16.9796 46.5039 15.7461V3.74902C46.5039 2.5155 45.483 1.50201 44.2495 1.50201H24.751Z" fill="#FC6067"/>
<path d="M30.7539 5.99758V13.4991C30.754 14.087 31.3998 14.4463 31.8994 14.1363L37.9009 10.3877C38.3718 10.0941 38.3718 9.40843 37.9009 9.11476L31.8994 5.36038C31.449 5.07861 30.7539 5.35188 30.7539 5.99758Z" fill="#E7EBEF"/>
<path d="M41.2515 1.50201C42.485 1.50201 43.5059 2.5155 43.5059 3.74902V14.2462C43.5059 15.4797 42.485 16.5005 41.2515 16.5005H31.7783L26.7407 20.8188C26.2534 21.2403 25.4963 20.8917 25.5 20.2475V21.7476C25.4963 22.3918 26.2534 22.7403 26.7407 22.3189L31.7783 18.0005H44.2515C45.485 18.0005 46.5059 16.9796 46.5059 15.7461V3.74902C46.5059 2.5155 45.485 1.50201 44.2515 1.50201H41.2515Z" fill="#FB4F56"/>
<path d="M12.0015 22.5035C9.52145 22.5035 7.5 24.5175 7.5 26.9976V28.4961H24.0044V26.9976C24.0044 24.5175 21.9844 22.5035 19.5044 22.5035H12.0015Z" fill="#FCBC60"/>
<path d="M16.5039 22.5035C18.9839 22.5035 21.0039 24.5175 21.0039 26.9976V28.4961H24.0039V26.9976C24.0039 24.5175 21.9839 22.5035 19.5039 22.5035H16.5039Z" fill="#FBB04F"/>
<path d="M12.754 19.5019V23.2505C12.7532 23.3081 12.7594 23.3656 12.7715 23.422C12.7715 23.422 12.9037 23.9784 13.3472 24.4899C13.7907 25.0013 14.6087 25.4977 15.7554 25.4977C16.9022 25.4977 17.7143 25.0013 18.1578 24.4899C18.6012 23.9784 18.7335 23.422 18.7335 23.422C18.7459 23.3658 18.7519 23.3083 18.751 23.2505V19.5019H12.754Z" fill="#FDD5A6"/>
<path d="M12.7539 19.5019V22.4302C13.6394 22.9472 14.6637 23.249 15.7554 23.249C16.8455 23.249 17.8671 22.9477 18.751 22.4316V19.5019H12.7539Z" fill="#FDCC93"/>
<path d="M11.2539 14.2475V17.249C11.2539 19.7291 13.2754 21.749 15.7554 21.749C18.2354 21.749 20.251 19.729 20.251 17.249V14.2475H11.2539Z" fill="#FDD5A6"/>
<path d="M17.2495 14.2475V17.249C17.2495 19.2026 15.997 20.8666 14.2539 21.4868C14.7241 21.6541 15.2274 21.749 15.7539 21.749C18.2339 21.749 20.2495 19.729 20.2495 17.249V14.2475H17.2495Z" fill="#FDCC93"/>
<path d="M15.0015 8.99899C12.5214 8.99899 10.5 11.0204 10.5 13.5004V15.7475C10.4978 16.1646 10.8359 16.5036 11.2529 16.502H13.5C15.4148 16.502 17.3931 15.522 17.8916 15.2012L18.9712 16.2793C19.1117 16.4213 19.3031 16.5016 19.5029 16.5021H20.25C20.6671 16.5036 21.0053 16.1648 21.0029 15.7477V13.5006C21.0029 11.0206 18.9815 8.99917 16.5015 8.99917L15.0015 8.99899Z" fill="#5A626E"/>
<path d="M15.0039 8.99899C14.7479 8.99899 14.4984 9.0274 14.2539 9.06794C16.3781 9.42723 18.0054 11.2765 18.0054 13.5005V15.3125L18.9736 16.2793C19.1141 16.4213 19.3055 16.5016 19.5054 16.5021H20.2524C20.6695 16.5036 21.0078 16.1648 21.0054 15.7477V13.5007C21.0054 11.0206 18.9839 8.99917 16.5039 8.99917L15.0039 8.99899Z" fill="#515663"/>
</svg>
