<svg xmlns="http://www.w3.org/2000/svg" width="16" height="16" viewBox="0 0 16 16" fill="none">
  <g clip-path="url(#clip0_224_1464)">
    <path d="M14.5271 1H7.49792C6.68579 1 6.02502 1.66077 6.02502 2.4729V6.98206L4.71985 6.33301C4.67578 6.31104 4.63098 6.29028 4.58582 6.27063C4.96899 5.87061 5.2052 5.32861 5.2052 4.7323C5.2052 3.50488 4.20667 2.50623 2.97925 2.50623C1.75171 2.50623 0.753174 3.50488 0.753174 4.7323C0.753174 5.39929 1.04846 5.99841 1.51477 6.40674C0.656006 6.88989 0 7.8324 0 9V10.5062C0 11.1547 0.421021 11.7065 1.00415 11.9027V14.5229C1.00415 14.7817 1.21399 14.9917 1.4729 14.9917H4.48535C4.74426 14.9917 4.9541 14.7817 4.9541 14.5229V9.25623L6.45483 10.0065C7.02917 10.2936 7.80823 10.1224 8.16052 9.46875H9.84119L8.06152 14.3627C7.97302 14.606 8.09863 14.875 8.34192 14.9634C8.62 15.0646 8.86731 14.8901 8.94263 14.6831L10.8387 9.46875H11.1674L13.0829 14.6846C13.1556 14.8824 13.4011 15.067 13.6846 14.9629C13.9275 14.8737 14.0522 14.6044 13.9629 14.3613L12.166 9.46875H14.5271C15.3235 9.46875 16 8.82629 16 7.99585V2.4729C16 1.64233 15.3235 1 14.5271 1ZM1.69067 4.7323C1.69067 4.02173 2.26868 3.44373 2.97913 3.44373C3.6897 3.44373 4.2677 4.02173 4.2677 4.7323C4.2677 5.44275 3.6897 6.02075 2.97913 6.02075C2.26868 6.02075 1.69067 5.44275 1.69067 4.7323ZM7.35938 8.96753C7.35815 8.97095 7.35693 8.97449 7.35583 8.97803C7.32385 9.06726 7.25159 9.14246 7.16309 9.17883C7.06946 9.21692 6.96411 9.21289 6.87415 9.16797C5.98279 8.72205 4.69482 8.07861 4.69482 8.07861C4.38379 7.9231 4.0166 8.14966 4.0166 8.49792V14.0542H1.94165V11.5104C1.94165 11.2516 1.73169 11.0416 1.4729 11.0416C1.17761 11.0416 0.9375 10.8015 0.9375 10.5062V9C0.9375 7.85461 1.87012 6.95837 2.97913 6.95837H3.39331C3.70752 6.95837 4.02136 7.0321 4.30176 7.17212C4.30176 7.17212 6.62683 8.32837 7.21899 8.62329C7.34583 8.68628 7.40613 8.83423 7.35938 8.96753ZM15.0625 7.99585C15.0625 8.13904 15.007 8.27344 14.9059 8.37451C14.8064 8.47412 14.6683 8.53125 14.5271 8.53125H8.26245C8.2616 8.52869 8.26099 8.52612 8.26013 8.52368L9.42346 6.19714C9.53918 5.96558 9.44543 5.68408 9.21387 5.56824C8.98242 5.45251 8.70081 5.54626 8.58496 5.77783L7.59277 7.76208C7.40784 7.66992 7.19287 7.56287 6.96252 7.44836V2.4729C6.96252 2.17773 7.20264 1.9375 7.49792 1.9375H14.5271C14.6683 1.9375 14.8064 1.99463 14.906 2.09448C15.007 2.19531 15.0625 2.32971 15.0625 2.4729V7.99585Z" fill="#646464"/>
    <path d="M13.5228 3.0083H8.50195C8.24304 3.0083 8.0332 3.21814 8.0332 3.47705C8.0332 3.73596 8.24304 3.9458 8.50195 3.9458H13.5228C13.7816 3.9458 13.9916 3.73596 13.9916 3.47705C13.9916 3.21814 13.7817 3.0083 13.5228 3.0083Z" fill="#646464"/>
    <path d="M13.5222 4.76562H11.0117C10.7529 4.76562 10.543 4.97546 10.543 5.23438C10.543 5.49329 10.7529 5.70312 11.0117 5.70312H13.5222C13.781 5.70312 13.991 5.49329 13.991 5.23438C13.991 4.97546 13.7811 4.76562 13.5222 4.76562Z" fill="#646464"/>
    <path d="M13.5222 6.52295H11.0117C10.7529 6.52295 10.543 6.73279 10.543 6.9917C10.543 7.25049 10.7529 7.46045 11.0117 7.46045H13.5222C13.781 7.46045 13.991 7.25049 13.991 6.9917C13.991 6.73279 13.7811 6.52295 13.5222 6.52295Z" fill="#646464"/>
  </g>
  <defs>
    <clipPath id="clip0_224_1464">
      <rect width="16" height="16" fill="white"/>
    </clipPath>
  </defs>
</svg>