<svg width="32" height="32" viewBox="0 0 32 32" fill="none" xmlns="http://www.w3.org/2000/svg">
<g id="004-lifetime 1" clip-path="url(#clip0_224_253)">
<g id="Group">
<path id="Vector" d="M29.62 2.359C28.0988 0.837812 26.0763 0 23.925 0C21.7737 0 19.7511 0.837812 18.2299 2.359L15.9993 4.58956L13.7688 2.359C12.2476 0.837812 10.225 6.25e-05 8.07369 6.25e-05C5.92237 0 3.89981 0.837812 2.37862 2.359C-0.761625 5.49931 -0.761625 10.6089 2.37862 13.7492L5.55106 16.9216C7.47888 13.1036 11.4381 10.4789 15.9993 10.4789C20.5605 10.4789 24.5198 13.1036 26.4476 16.9216L29.6201 13.7492C32.7603 10.6089 32.7603 5.49931 29.62 2.359Z" fill="white"/>
<g id="Group_2">
<path id="Vector_2" d="M15.9995 16.563C12.9046 16.563 10.3867 19.0809 10.3867 22.1757C10.3867 25.2706 12.9046 27.7886 15.9995 27.7886C19.0943 27.7886 21.6123 25.2706 21.6123 22.1757C21.6123 19.0809 19.0943 16.563 15.9995 16.563ZM16.9358 23.112H13.3923V21.2394H15.0632V18.6004H16.9358V23.112H16.9358Z" fill="white"/>
<path id="Vector_3" d="M16 12.3516C10.5829 12.3516 6.17578 16.7587 6.17578 22.1759C6.17578 27.5929 10.5829 32 16 32C21.417 32 25.8242 27.5929 25.8242 22.1758C25.8242 16.7587 21.417 12.3516 16 12.3516ZM16 29.6612C11.8725 29.6612 8.51459 26.3032 8.51459 22.1758C8.51459 18.0483 11.8725 14.6904 16 14.6904C20.1274 14.6904 23.4854 18.0484 23.4854 22.1758C23.4854 26.3032 20.1274 29.6612 16 29.6612Z" fill="white"/>
</g>
</g>
</g>
<defs>
<clipPath id="clip0_224_253">
<rect width="32" height="32" fill="white"/>
</clipPath>
</defs>
</svg>
