<svg width="30" height="86" viewBox="0 0 30 86" fill="none" xmlns="http://www.w3.org/2000/svg">
<g id="Group">
<path id="Vector" d="M9.66095 86L10.628 86C14.8897 86 18.3434 82.5395 18.3434 78.2693C18.3434 71.0161 20.2498 63.8875 23.8692 57.6102L26.19 53.5822C28.0412 50.3708 29.022 46.7096 29.022 43C29.022 39.2904 28.0412 35.6292 26.19 32.4178L23.8692 28.3898C20.2498 22.1056 18.3434 14.9839 18.3434 7.73073C18.3434 3.46049 14.8897 -6.08079e-07 10.628 -4.21791e-07L9.66095 -3.79521e-07C4.86731 -1.69985e-07 0.978521 3.89651 0.978521 8.69966L0.978524 77.3003C0.971617 82.1035 4.8604 86 9.66095 86Z" fill="#5BBEA6"/>
</g>
</svg>
