<svg width="656" height="576" viewBox="0 0 656 576" fill="none" xmlns="http://www.w3.org/2000/svg">
<g clip-path="url(#clip0_670_50)">
<path d="M647.303 441.234C637.089 420.162 628.806 398.443 625.41 375.937C619.139 334.358 630.315 295.66 635.767 256.173C641.219 216.685 639.17 169.844 612.879 136.409C583.875 99.5269 537.621 93.7756 498.372 96.1851C459.124 98.5946 417.721 105.266 379.748 83.0772C353.339 67.6469 332.6 40.2683 307.258 22.0958C254.997 -15.3815 185.714 -3.92615 157.106 46.9245C144.628 69.1072 139.357 96.974 124.827 117.297C111.25 136.285 90.8298 146.995 73.2106 161.137C32.7105 193.647 6.38844 246.428 1.03224 305.878C-4.32396 365.326 11.3376 430.839 43.9825 485.526C59.7477 511.936 79.7942 536.227 103.796 552.242H593.05C627.603 552.242 655.614 519.052 655.614 478.111C655.612 465.17 652.743 452.456 647.303 441.234Z" fill="url(#paint0_linear_670_50)"/>
<mask id="mask0_670_50" style="mask-type:luminance" maskUnits="userSpaceOnUse" x="13" y="40" width="589" height="536">
<path d="M602 40H13V576H602V40Z" fill="white"/>
</mask>
<g mask="url(#mask0_670_50)">
<path d="M490.342 275.348H483.021V534.444H490.342V275.348Z" fill="#181818"/>
<path d="M132.999 275.348H125.678V534.444H132.999V275.348Z" fill="#181818"/>
<path d="M305.464 503.213C305.464 503.213 295.497 529.53 301.841 532.933C308.182 536.335 367.309 532.933 367.309 532.933C367.309 532.933 372.52 522.649 356.662 518.829C340.804 515.008 333.554 505.481 333.554 505.481L305.464 503.213Z" fill="#181818"/>
<path d="M202.525 503.213C202.525 503.213 192.557 529.53 198.902 532.933C205.243 536.335 264.37 532.933 264.37 532.933C264.37 532.933 269.581 522.649 253.722 518.829C237.864 515.008 230.615 505.481 230.615 505.481L202.525 503.213Z" fill="#181818"/>
<path d="M599.954 280.969H15.0423C13.9123 280.969 13 280.052 13 278.924V276.498C13 275.367 13.9161 274.453 15.0423 274.453H599.954C601.084 274.453 601.996 275.37 601.996 276.498V278.924C602 280.052 601.084 280.969 599.954 280.969Z" fill="#181818"/>
<path opacity="0.51" d="M599.954 274.453H15.0423C13.9123 274.453 13 275.37 13 276.498V278.311C13 277.179 13.9161 276.265 15.0423 276.265H599.954C601.084 276.265 601.996 277.183 601.996 278.311V276.498C602 275.367 601.084 274.453 599.954 274.453Z" fill="#181818"/>
<path d="M583.495 275.348H576.174V534.444H583.495V275.348Z" fill="#181818"/>
<path d="M398.504 196.316C398.504 196.316 416.51 226.528 416.51 245.854C416.51 256.818 403.764 268.933 403.764 268.933L332.199 268.832C332.199 268.832 373.989 257.108 363.469 231.397C352.946 205.686 346.439 196.316 346.439 196.316H398.504Z" fill="#3F403F"/>
<path d="M266.293 322.848C266.293 322.848 344.927 328.308 373.396 353.293C382.342 366.875 387.223 367.957 336.243 505.928C336.243 505.928 316.176 515.704 302.616 503.213C318.342 447.264 325.937 391.86 325.937 391.86C325.937 391.86 266.278 398.38 252.176 390.773C238.079 383.171 241.36 337.486 266.293 322.848Z" fill="#332E48"/>
<path d="M163.406 322.848C163.406 322.848 242.04 328.308 270.509 353.293C279.456 366.875 284.336 367.957 233.357 505.928C233.357 505.928 213.29 515.704 199.729 503.213C215.456 447.264 223.051 391.86 223.051 391.86C223.051 391.86 180.886 393.872 166.624 386.581C141.124 373.545 138.474 337.486 163.406 322.848Z" fill="#332E48"/>
<path d="M39.8463 275.348H32.5254V534.444H39.8463V275.348Z" fill="#181818"/>
<path d="M363.92 244.361C363.92 244.361 378.915 238.819 386.412 243.301C394.818 248.325 398.614 255.123 400.649 266.113C402.278 274.912 390.478 260.409 388.038 259.323C385.598 258.236 380.45 268.828 373.396 266.113C366.342 263.398 362.816 245.854 362.816 245.854" fill="#FBB1A6"/>
<path d="M582.159 201.794H521.077L490.344 274.306H551.427L582.159 201.794Z" fill="#F1F2F2"/>
<path opacity="0.46" d="M558.417 201.794H521.061L496.271 260.281C502.124 263.335 508.676 265.045 515.599 265.045C540.347 265.045 560.406 243.185 560.406 216.221C560.406 211.198 559.712 206.351 558.417 201.794Z" fill="#F1F2F2"/>
<path d="M582.159 201.794L592.235 274.306H551.426L582.159 201.794Z" fill="#D1D3D4"/>
<path d="M562.567 230.22H519.381C518.541 230.22 517.97 229.359 518.3 228.584C518.484 228.148 518.912 227.866 519.381 227.866H562.567C563.408 227.866 563.979 228.727 563.649 229.502C563.465 229.938 563.037 230.22 562.567 230.22Z" fill="#D1D3D4"/>
<path d="M559.249 238.048H516.063C515.222 238.048 514.652 237.187 514.982 236.413C515.166 235.977 515.594 235.695 516.063 235.695H559.249C560.09 235.695 560.661 236.556 560.33 237.33C560.146 237.766 559.718 238.048 559.249 238.048Z" fill="#D1D3D4"/>
<path d="M555.931 245.88H512.745C511.904 245.88 511.333 245.019 511.664 244.245C511.847 243.809 512.275 243.527 512.745 243.527H555.931C556.772 243.527 557.342 244.388 557.012 245.162C556.828 245.598 556.4 245.88 555.931 245.88Z" fill="#D1D3D4"/>
<path d="M536.941 252.509H509.936C509.095 252.509 508.525 251.648 508.855 250.874C509.039 250.438 509.463 250.156 509.936 250.156H536.941C537.782 250.156 538.353 251.017 538.022 251.791C537.838 252.227 537.41 252.509 536.941 252.509Z" fill="#D1D3D4"/>
<path d="M546.529 268.061H519.524C518.683 268.061 518.112 267.2 518.443 266.425C518.627 265.989 519.051 265.707 519.524 265.707H546.529C547.37 265.707 547.94 266.568 547.61 267.343C547.426 267.779 546.998 268.061 546.529 268.061Z" fill="#D1D3D4"/>
<path d="M530.724 210.017L525.993 221.181H523.414L528.144 210.017H530.724Z" fill="#D1D3D4"/>
<path d="M533.768 210.017L532.874 212.119H533.858H537.552L529.717 221.181H532.521L540.683 211.691L541.393 210.017H533.768Z" fill="#D1D3D4"/>
<path d="M92.8569 236.338C92.9696 234.224 91.2914 232.45 89.1777 232.45H73.0979H64.9849H48.9089C46.7952 232.45 45.1208 234.224 45.2296 236.338C45.6389 244.117 47.7563 261.936 58.3397 274.453H64.9886H73.1017H79.7506C90.3303 261.932 92.4477 244.117 92.8569 236.338Z" fill="#3F403F"/>
<path d="M62.6617 232.45C62.6617 232.45 41.142 206.099 45.2267 148.575C78.4862 183.404 69.0441 232.45 69.0441 232.45H62.6617Z" fill="#3DA642"/>
<path opacity="0.19" d="M45.2261 148.575C45.2224 148.642 45.2186 148.71 45.2148 148.778C71.251 181.772 63.9376 222.7 61.9591 231.51C62.4059 232.138 62.6612 232.45 62.6612 232.45H69.0473C69.0435 232.45 78.4856 183.404 45.2261 148.575Z" fill="url(#paint1_linear_670_50)"/>
<path d="M84.8686 120.269C84.8686 120.269 54.3986 153.662 69.0479 232.45H73.1026C73.1026 232.45 95.0241 173.098 84.8686 120.269Z" fill="#1E8F24"/>
<path d="M106.616 164.273C106.616 164.273 81.2635 182.881 73.1016 232.45H76.3078C76.3078 232.45 109.222 199.143 106.616 164.273Z" fill="#3DA642"/>
<path opacity="0.52" d="M73.1028 274.453H79.7517C82.1507 271.614 84.1142 268.501 85.7211 265.294C61.2805 263.305 58.8552 245.681 58.8927 238.488C58.9002 236.811 57.5374 235.454 55.863 235.454H45.2946C45.242 235.74 45.2157 236.033 45.2308 236.338C45.64 244.117 47.7574 261.936 58.3408 274.453H64.9897H73.1028Z" fill="#181818"/>
<path d="M219.791 200.542L242.317 40H523.639L501.113 200.542H219.791Z" fill="#3F403F"/>
<path d="M497.488 196.316H224.602L245.945 44.2263H518.831L497.488 196.316Z" fill="white"/>
<path d="M434.347 117.97H309.198C307.59 117.97 306.287 119.273 306.287 120.88C306.287 122.488 307.59 123.791 309.198 123.791H434.347C435.954 123.791 437.257 122.488 437.257 120.88C437.257 119.273 435.954 117.97 434.347 117.97Z" fill="#F0F3FD"/>
<path d="M434.347 132.522H309.198C307.59 132.522 306.287 133.825 306.287 135.432C306.287 137.04 307.59 138.343 309.198 138.343H434.347C435.954 138.343 437.257 137.04 437.257 135.432C437.257 133.825 435.954 132.522 434.347 132.522Z" fill="#F0F3FD"/>
<path d="M387.78 147H356.492C354.885 147 353.582 148.303 353.582 149.91C353.582 151.518 354.885 152.821 356.492 152.821H387.78C389.387 152.821 390.69 151.518 390.69 149.91C390.69 148.303 389.387 147 387.78 147Z" fill="#19891C"/>
<path d="M374 108C383.941 108 392 99.9411 392 90C392 80.0589 383.941 72 374 72C364.059 72 356 80.0589 356 90C356 99.9411 364.059 108 374 108Z" fill="#F0F3FD"/>
<path d="M267.678 98.7956C267.678 98.7956 269.101 106.917 265.824 118.047C264.131 123.792 264.423 129.955 266.867 135.418C266.886 135.46 266.905 135.497 266.92 135.539C267.637 137.122 267.059 138.987 265.565 139.87C265.193 140.088 264.773 140.306 264.292 140.517C262.914 141.119 261.889 142.322 261.563 143.792L259.592 152.677L244.586 149.782L240.426 116.468L252.901 93.2909L267.678 98.7956Z" fill="#FBB1A6"/>
<path d="M236.975 151.511C236.975 151.511 231.974 157.478 231.163 169.428L196 167.255L201.02 151.049L223.707 107.504L236.978 106.146C236.975 106.146 240.755 123.815 236.975 151.511Z" fill="#FBB1A6"/>
<path d="M258.99 156.29C258.396 159.851 254.897 162.163 251.402 161.276C244.697 159.577 235.397 155.598 236.449 146.702C238.074 132.94 240.064 110.128 231.208 110.67C222.347 111.211 223.797 121.897 227.772 130.226C231.748 138.554 214.936 153.038 201.015 151.049C201.015 151.049 202.01 142.269 194.87 132.399C185.142 118.957 182.758 110.854 182.214 103.428C181.673 96.0057 184.744 86.2258 194.505 83.1501C197.546 74.19 213.517 59.9094 259.237 75.5887C260.638 76.07 262.064 76.461 263.529 76.6904C270.861 77.8334 275.861 75.5473 275.861 75.5473C275.861 75.5473 277.87 87.4027 271.972 95.2913C269.52 98.57 265.515 100.315 261.445 99.9086C252.059 98.9761 247.438 103.751 245.669 110.674C243.679 118.461 240.789 144.352 248.019 148.154C255.25 151.955 259.59 152.681 259.59 152.681L258.99 156.29Z" fill="#181818"/>
<path d="M437.34 268.933H318.377V274.453H437.34V268.933Z" fill="#3F403F"/>
<path opacity="0.3" d="M318.2 509.523C330.754 467.925 345.321 388.856 345.321 388.856L325.937 391.86C325.937 391.86 319.619 437.958 306.572 488.519C305.731 493.757 304.921 499.269 304.26 504.593C308.649 507.958 313.563 509.278 318.2 509.523Z" fill="#181818"/>
<path d="M272.836 391.597L265.816 393.924C263.657 394.642 262.531 397.019 263.342 399.147L320.978 550.338C321.635 552.056 323.377 553.105 325.202 552.88C327.698 552.567 329.29 550.052 328.502 547.657L277.886 394.135C277.191 392.04 274.931 390.901 272.836 391.597Z" fill="#3F403F"/>
<path d="M214.328 388.931L221.582 390.375C223.812 390.818 225.223 393.037 224.679 395.252L186.1 552.41C185.66 554.196 184.061 555.455 182.221 555.455C179.706 555.455 177.818 553.154 178.306 550.68L209.632 392.082C210.06 389.912 212.162 388.502 214.328 388.931Z" fill="#3F403F"/>
<path d="M167.887 390.739L175.876 392.935C178.336 393.612 179.732 396.203 178.947 398.632L123.278 571.123C122.644 573.086 120.756 574.361 118.702 574.214C115.89 574.011 113.964 571.289 114.707 568.566L162.391 393.883C163.044 391.491 165.507 390.085 167.887 390.739Z" fill="#3F403F"/>
<path opacity="0.26" d="M222.693 168.905L231.163 169.428C231.978 157.478 236.975 151.511 236.975 151.511C237.256 149.455 237.493 147.454 237.696 145.514C234.426 147.236 223.959 154.365 222.693 168.905Z" fill="#FBB1A6"/>
<path d="M182.155 168.638C182.155 168.638 158.894 168.909 137.742 211.277C116.59 253.645 117.412 257.631 117.412 257.631C117.412 257.631 106.284 301.446 171.365 281.349L182.155 168.638Z" fill="#19891C"/>
<path opacity="0.33" d="M179.199 211.269C176.334 200.847 173.984 193.864 173.984 193.864C173.984 193.864 116.997 254.19 140.199 286.515C148.016 287.034 158.486 285.673 172.49 281.349L179.199 211.269Z" fill="#9AE29B"/>
<path d="M146.962 261.496C146.962 261.496 146.422 238.139 154.013 209.352C161.604 180.565 163.793 162.882 214.221 166.292C264.653 169.702 261.007 172.958 267.983 177.85C273.614 181.798 298.581 223.73 307.974 239.714C310.189 243.485 314.319 245.7 318.681 245.463C331.634 244.756 358.068 243.369 361.732 243.572C366.613 243.843 375.018 256.608 373.123 267.745C331.904 282.409 311.469 290.287 295.836 285.669C277.594 280.281 264.334 242.519 260.174 241.128C259.051 250.554 254.877 295.302 265.193 317.445C276.584 341.889 197.383 382.625 146.951 354.925C147.507 295.716 146.962 261.496 146.962 261.496Z" fill="#19891C"/>
<path opacity="0.33" d="M371.334 255.717C366.341 258.841 313.578 290.82 291.499 261.605C268.312 230.919 258.675 199.407 238.653 221.798C218.631 244.189 216.848 305.556 217.325 308.045C217.647 309.718 227.187 336.542 233.401 353.918C255.555 344.025 270.103 329 264.764 317.547C254.447 295.404 258.622 250.656 259.745 241.229C263.904 242.621 277.165 280.383 295.407 285.771C311.04 290.388 331.475 282.511 372.693 267.847C373.388 263.793 372.708 259.522 371.334 255.717Z" fill="#73AB74"/>
<path d="M129.606 332.655C129.606 332.655 122.015 254.98 187.636 254.98C259.291 254.98 248.922 328.308 267.983 356.012C275.968 373.282 289.566 386.961 302.601 393.755C315.632 400.553 222.574 431.021 172.454 402.452C131.235 378.959 129.606 332.655 129.606 332.655Z" fill="#3F403F"/>
<path d="M302.845 393.755C289.814 386.957 276.212 373.278 268.227 356.012C249.17 328.308 259.535 254.98 187.88 254.98C165.456 254.98 151.58 264.053 143.031 275.991C150.69 271.618 160.357 268.933 172.559 268.933C244.214 268.933 233.844 342.261 252.905 369.965C260.241 385.833 272.319 398.666 284.344 405.915C299.125 401.316 307.365 396.113 302.845 393.755Z" fill="#181818"/>
<path d="M235.886 390.266C231.125 391.213 228.114 395.947 229.274 400.67L271.477 572.59C271.968 574.59 273.759 576 275.82 576C278.64 576 280.754 573.421 280.205 570.653L245.902 396.977C244.99 392.353 240.503 389.348 235.886 390.266Z" fill="#3F403F"/>
<path d="M560.309 220.045H551.426L555.195 211.149H564.078L560.309 220.045Z" fill="#19891C"/>
<g opacity="0.1">
<path d="M259.072 155.798L259.591 152.677C259.591 152.677 255.251 151.951 248.02 148.15C241.945 144.958 243.015 126.18 244.69 115.637C242.313 116.047 239.85 117.103 237.312 118.946C238.551 126.721 237.433 138.37 236.449 146.702C235.428 155.354 244.19 159.351 250.843 161.129C254.616 162.141 258.43 159.655 259.072 155.798Z" fill="url(#paint2_linear_670_50)"/>
<path d="M194.014 131.207C194.291 131.602 194.577 131.997 194.866 132.399C202.007 142.265 201.012 151.049 201.012 151.049C214.933 153.042 231.745 138.554 227.769 130.226C227.457 129.571 227.161 128.902 226.886 128.225C215.886 136.106 204.034 135.05 194.014 131.207Z" fill="url(#paint3_linear_670_50)"/>
</g>
</g>
</g>
<defs>
<linearGradient id="paint0_linear_670_50" x1="327.807" y1="2.3278e-05" x2="327.807" y2="552.242" gradientUnits="userSpaceOnUse">
<stop stop-color="#E3F8F3"/>
<stop offset="1" stop-color="#F3FCF4" stop-opacity="0"/>
</linearGradient>
<linearGradient id="paint1_linear_670_50" x1="43.3661" y1="128.938" x2="81.2549" y2="274.289" gradientUnits="userSpaceOnUse">
<stop stop-color="#6AD0FB"/>
<stop offset="0.2275" stop-color="#6ACDFA"/>
<stop offset="0.3874" stop-color="#69C4F5"/>
<stop offset="0.5266" stop-color="#69B4EE"/>
<stop offset="0.654" stop-color="#689EE4"/>
<stop offset="0.7733" stop-color="#6682D6"/>
<stop offset="0.8849" stop-color="#6560C6"/>
<stop offset="0.9917" stop-color="#6337B3"/>
<stop offset="0.9947" stop-color="#6336B2"/>
</linearGradient>
<linearGradient id="paint2_linear_670_50" x1="240.497" y1="74.4513" x2="247.723" y2="147.804" gradientUnits="userSpaceOnUse">
<stop stop-color="#43295D"/>
<stop offset="1" stop-color="#774B88"/>
</linearGradient>
<linearGradient id="paint3_linear_670_50" x1="205.744" y1="76.4427" x2="213.219" y2="152.321" gradientUnits="userSpaceOnUse">
<stop stop-color="#43295D"/>
<stop offset="1" stop-color="#774B88"/>
</linearGradient>
<clipPath id="clip0_670_50">
<rect width="656" height="576" fill="white"/>
</clipPath>
</defs>
</svg>
