<svg xmlns="http://www.w3.org/2000/svg" width="36" height="36" viewBox="0 0 36 36" fill="none">
  <path d="M32.6275 16.5V25.5C32.7156 26.26 32.6307 27.03 32.3791 27.7526C32.1276 28.4751 31.7159 29.1314 31.175 29.6724C30.634 30.2134 29.9776 30.6251 29.2551 30.8766C28.5326 31.1282 27.7625 31.2131 27.0025 31.125H9.0025C8.24251 31.2131 7.47244 31.1282 6.74989 30.8766C6.02735 30.6251 5.37103 30.2134 4.83004 29.6724C4.28905 29.1314 3.87738 28.4751 3.62585 27.7526C3.37431 27.03 3.28941 26.26 3.3775 25.5V10.5C3.28941 9.73999 3.37431 8.96992 3.62585 8.24737C3.87738 7.52483 4.28905 6.86851 4.83004 6.32752C5.37103 5.78653 6.02735 5.37487 6.74989 5.12333C7.47244 4.87179 8.24251 4.78689 9.0025 4.87498H21.0025C21.3009 4.87498 21.587 4.9935 21.798 5.20448C22.009 5.41546 22.1275 5.70161 22.1275 5.99998C22.1275 6.29835 22.009 6.5845 21.798 6.79547C21.587 7.00645 21.3009 7.12498 21.0025 7.12498H9.0025C6.637 7.12498 5.6275 8.13448 5.6275 10.5V24.375L9.4375 20.565C9.72071 20.284 10.1035 20.1263 10.5025 20.1263C10.9015 20.1263 11.2843 20.284 11.5675 20.565L12.9775 21.975C13.1177 22.1124 13.3062 22.1894 13.5025 22.1894C13.6988 22.1894 13.8873 22.1124 14.0275 21.975L21.4375 14.565C21.7207 14.284 22.1035 14.1263 22.5025 14.1263C22.9015 14.1263 23.2843 14.284 23.5675 14.565L30.3775 21.375V16.5C30.3775 16.2016 30.496 15.9155 30.707 15.7045C30.918 15.4935 31.2041 15.375 31.5025 15.375C31.8009 15.375 32.087 15.4935 32.298 15.7045C32.509 15.9155 32.6275 16.2016 32.6275 16.5ZM11.992 11.625C11.494 11.6264 11.0169 11.8254 10.6655 12.1783C10.314 12.5311 10.1171 13.0091 10.1177 13.5071C10.1184 14.0051 10.3168 14.4825 10.6692 14.8344C11.0216 15.1863 11.4992 15.384 11.9972 15.384C12.4953 15.384 12.9729 15.1863 13.3253 14.8344C13.6777 14.4825 13.876 14.0051 13.8767 13.5071C13.8774 13.0091 13.6805 12.5311 13.329 12.1783C12.9776 11.8254 12.5005 11.6264 12.0025 11.625H11.992ZM27.7975 7.54498L28.1275 7.21648V10.5C28.1275 10.7983 28.246 11.0845 28.457 11.2955C28.668 11.5065 28.9541 11.625 29.2525 11.625C29.5509 11.625 29.837 11.5065 30.048 11.2955C30.259 11.0845 30.3775 10.7983 30.3775 10.5V7.21648L30.7075 7.54498C30.9208 7.7437 31.2028 7.85188 31.4943 7.84674C31.7857 7.8416 32.0638 7.72353 32.2699 7.51741C32.476 7.31129 32.5941 7.03321 32.5993 6.74176C32.6044 6.45031 32.4962 6.16824 32.2975 5.95498L30.0475 3.70498C29.8364 3.49467 29.5505 3.37659 29.2525 3.37659C28.9545 3.37659 28.6686 3.49467 28.4575 3.70498L26.2075 5.95498C26.0088 6.16824 25.9006 6.45031 25.9057 6.74176C25.9109 7.03321 26.0289 7.31129 26.2351 7.51741C26.4412 7.72353 26.7193 7.8416 27.0107 7.84674C27.3022 7.85188 27.5842 7.7437 27.7975 7.54498Z" fill="#66697B"/>
</svg>