<svg xmlns="http://www.w3.org/2000/svg" width="80" height="80" viewBox="0 0 80 80" fill="none">
  <path d="M64.9969 41.6667H74.9969C77.1802 41.65 77.1802 38.35 74.9969 38.3333H64.9969C62.8135 38.35 62.8135 41.65 64.9969 41.6667Z" fill="#19891C"/>
  <path d="M63.3295 28.3333C63.7629 28.3333 64.1795 28.1666 64.5128 27.85L69.5128 22.85C70.1628 22.2 70.1628 21.15 69.5128 20.5C68.8629 19.85 67.8128 19.85 67.1628 20.5L62.1629 25.5C61.0962 26.4833 61.8962 28.3833 63.3295 28.3333Z" fill="#19891C"/>
  <path d="M67.1516 59.5167C68.7016 61.05 71.0516 58.7 69.5016 57.1667L64.5016 52.1667C63.8516 51.5167 62.8016 51.5167 62.1516 52.1667C61.5016 52.8167 61.5016 53.8667 62.1516 54.5167L67.1516 59.5167Z" fill="#19891C"/>
  <path d="M42.1333 62.2667C42.7167 62.8167 46.3167 67.15 47.0333 67.45C50.2667 69.7667 55.1167 67.2 55 63.2V16.8C55.1167 12.7667 50.1833 10.2 46.95 12.6C44.3667 14.85 41.5167 18.9333 38.7333 20.9333C33.5167 25.35 26.8 27.85 20 28.2833V51.7167C22.45 51.9167 24.9 52.25 27.25 52.9667C32.95 54.6 38.15 57.8833 42.1333 62.2667Z" fill="#19891C"/>
  <path d="M3.48323 44.8333C4.16656 48.7 7.71657 51.7 11.6666 51.6667H16.6666V28.3333H11.6666C7.06656 28.3333 3.33323 32.0667 3.33323 36.6667C3.38323 37.8333 3.1999 43.8167 3.48323 44.8333Z" fill="#19891C"/>
  <path d="M11.6693 55C10.5026 55 9.38594 54.8167 8.33594 54.5167V63.3334C8.5026 69.9167 18.1693 69.9334 18.3359 63.3334V55C17.2359 55 12.8526 55 11.6693 55Z" fill="#19891C"/>
</svg>