<svg width="24" height="24" viewBox="0 0 24 24" fill="none" xmlns="http://www.w3.org/2000/svg">
<path d="M20.1911 14.0608L19.0611 12.1808C18.8111 11.7708 18.5911 10.9808 18.5911 10.5008V8.63078C18.5911 5.00078 15.6411 2.05078 12.0211 2.05078C8.39118 2.06078 5.44118 5.00078 5.44118 8.63078V10.4908C5.44118 10.9708 5.22118 11.7608 4.98118 12.1708L3.85118 14.0508C3.42118 14.7808 3.32118 15.6108 3.59118 16.3308C3.86118 17.0608 4.47118 17.6408 5.27118 17.9008C6.35118 18.2608 7.44118 18.5208 8.55118 18.7108C8.66118 18.7308 8.77118 18.7408 8.88118 18.7608C9.02118 18.7808 9.17118 18.8008 9.32118 18.8208C9.58118 18.8608 9.84118 18.8908 10.1111 18.9108C10.7411 18.9708 11.3811 19.0008 12.0211 19.0008C12.6511 19.0008 13.2811 18.9708 13.9011 18.9108C14.1311 18.8908 14.3611 18.8708 14.5811 18.8408C14.7611 18.8208 14.9411 18.8008 15.1211 18.7708C15.2311 18.7608 15.3411 18.7408 15.4511 18.7208C16.5711 18.5408 17.6811 18.2608 18.7611 17.9008C19.5311 17.6408 20.1211 17.0608 20.4011 16.3208C20.6812 15.5708 20.6011 14.7508 20.1911 14.0608ZM12.7511 10.0008C12.7511 10.4208 12.4111 10.7608 11.9911 10.7608C11.5711 10.7608 11.2311 10.4208 11.2311 10.0008V6.90078C11.2311 6.48078 11.5711 6.14078 11.9911 6.14078C12.4111 6.14078 12.7511 6.48078 12.7511 6.90078V10.0008ZM14.8316 20.01C14.4116 21.17 13.3016 22 12.0016 22C11.2116 22 10.4316 21.68 9.88164 21.11C9.56164 20.81 9.32164 20.41 9.18164 20C9.31164 20.02 9.44164 20.03 9.58164 20.05C9.81164 20.08 10.0516 20.11 10.2916 20.13C10.8616 20.18 11.4416 20.21 12.0216 20.21C12.5916 20.21 13.1616 20.18 13.7216 20.13C13.9316 20.11 14.1416 20.1 14.3416 20.07C14.5016 20.05 14.6616 20.03 14.8316 20.01Z" fill="#929EAE"/>
</svg>
