<svg width="32" height="32" viewBox="0 0 32 32" fill="none" xmlns="http://www.w3.org/2000/svg">
<g id="001-online-education 1">
<g id="Group">
<path id="Vector" fill-rule="evenodd" clip-rule="evenodd" d="M4.66602 6.66659C4.66602 4.82564 6.1584 3.33325 7.99935 3.33325H23.9994C25.8403 3.33325 27.3327 4.82564 27.3327 6.66659V14.6666C27.3327 16.5075 25.8403 17.9999 23.9994 17.9999H7.99935C6.1584 17.9999 4.66602 16.5075 4.66602 14.6666V6.66659ZM15.0824 7.58684C14.646 7.23764 13.9994 7.54841 13.9994 8.10741V13.2258C13.9994 13.7847 14.646 14.0955 15.0824 13.7463L18.2815 11.1872C18.6151 10.9203 18.6151 10.4129 18.2815 10.146L15.0824 7.58684Z" fill="white"/>
<path id="Vector_2" d="M18.6654 22.6667C18.6654 24.1395 17.4715 25.3333 15.9987 25.3333C14.5259 25.3333 13.332 24.1395 13.332 22.6667C13.332 21.1939 14.5259 20 15.9987 20C17.4715 20 18.6654 21.1939 18.6654 22.6667Z" fill="white"/>
<path id="Vector_3" fill-rule="evenodd" clip-rule="evenodd" d="M15.9987 25.3333C17.4715 25.3333 18.6654 24.1395 18.6654 22.6667C18.6654 21.1939 17.4715 20 15.9987 20C14.5259 20 13.332 21.1939 13.332 22.6667C13.332 24.1395 14.5259 25.3333 15.9987 25.3333Z" fill="white"/>
<path id="Vector_4" d="M27.9993 22.6667C27.9993 24.1395 26.8055 25.3333 25.3327 25.3333C23.8599 25.3333 22.666 24.1395 22.666 22.6667C22.666 21.1939 23.8599 20 25.3327 20C26.8055 20 27.9993 21.1939 27.9993 22.6667Z" fill="white"/>
<path id="Vector_5" fill-rule="evenodd" clip-rule="evenodd" d="M25.3327 25.3333C26.8055 25.3333 27.9993 24.1395 27.9993 22.6667C27.9993 21.1939 26.8055 20 25.3327 20C23.8599 20 22.666 21.1939 22.666 22.6667C22.666 24.1395 23.8599 25.3333 25.3327 25.3333Z" fill="white"/>
<path id="Vector_6" d="M9.33333 22.6667C9.33333 24.1395 8.13943 25.3333 6.66667 25.3333C5.19391 25.3333 4 24.1395 4 22.6667C4 21.1939 5.19391 20 6.66667 20C8.13943 20 9.33333 21.1939 9.33333 22.6667Z" fill="white"/>
<g id="Group_2">
<path id="Vector_7" fill-rule="evenodd" clip-rule="evenodd" d="M6.66667 25.3333C8.13943 25.3333 9.33333 24.1395 9.33333 22.6667C9.33333 21.1939 8.13943 20 6.66667 20C5.19391 20 4 21.1939 4 22.6667C4 24.1395 5.19391 25.3333 6.66667 25.3333Z" fill="white"/>
<path id="Vector_8" fill-rule="evenodd" clip-rule="evenodd" d="M9.33243 29.3333C10.0688 29.3333 10.6875 28.7199 10.4466 28.0241C9.90436 26.4579 8.4164 25.3333 6.66576 25.3333C4.91513 25.3333 3.42716 26.4579 2.88492 28.0241C2.64401 28.7199 3.26272 29.3333 3.99909 29.3333H9.33243Z" fill="white"/>
<path id="Vector_9" fill-rule="evenodd" clip-rule="evenodd" d="M18.6645 29.3335C19.4009 29.3335 20.0195 28.7202 19.7786 28.0243C19.2363 26.4582 17.7485 25.3335 15.9978 25.3335C14.2471 25.3335 12.7592 26.4582 12.217 28.0243C11.976 28.7202 12.5948 29.3335 13.3311 29.3335H18.6645Z" fill="white"/>
<path id="Vector_10" fill-rule="evenodd" clip-rule="evenodd" d="M28.0004 29.3335C28.7368 29.3335 29.3554 28.7202 29.1145 28.0243C28.5722 26.4582 27.0844 25.3335 25.3337 25.3335C23.583 25.3335 22.095 26.4582 21.5529 28.0243C21.312 28.7202 21.9306 29.3335 22.667 29.3335H28.0004Z" fill="white"/>
</g>
</g>
</g>
</svg>
