<svg width="18" height="18" viewBox="0 0 18 18" fill="none" xmlns="http://www.w3.org/2000/svg">
<g id="001-presentation 1" clip-path="url(#clip0_224_1419)">
<path id="Vector" d="M16.343 1.125H8.43517C7.52151 1.125 6.77815 1.86836 6.77815 2.78201V7.85481L5.30983 7.12463C5.26025 7.09991 5.20985 7.07657 5.15904 7.05446C5.59012 6.60443 5.85585 5.99469 5.85585 5.32384C5.85585 3.94299 4.7325 2.8195 3.35165 2.8195C1.97067 2.8195 0.847321 3.94299 0.847321 5.32384C0.847321 6.0742 1.17952 6.74821 1.70412 7.20758C0.738007 7.75113 0 8.81145 0 10.125V11.8195C0 12.549 0.473648 13.1699 1.12967 13.3905V16.3383C1.12967 16.6295 1.36574 16.8657 1.65701 16.8657H5.04602C5.3373 16.8657 5.57336 16.6295 5.57336 16.3383V10.4133L7.26169 11.2573C7.90782 11.5803 8.78426 11.3877 9.18059 10.6523H11.0713L9.06921 16.158C8.96965 16.4317 9.11096 16.7344 9.38466 16.8338C9.69749 16.9476 9.97572 16.7514 10.0605 16.5185L12.1936 10.6523H12.5633L14.7182 16.5201C14.8001 16.7428 15.0763 16.9504 15.3951 16.8333C15.6684 16.7329 15.8088 16.4299 15.7083 16.1565L13.6868 10.6523H16.343C17.2389 10.6523 18 9.92958 18 8.99533V2.78201C18 1.84763 17.2389 1.125 16.343 1.125ZM1.90201 5.32384C1.90201 4.52444 2.55226 3.87419 3.35152 3.87419C4.15091 3.87419 4.80116 4.52444 4.80116 5.32384C4.80116 6.12309 4.15091 6.77335 3.35152 6.77335C2.55226 6.77335 1.90201 6.12309 1.90201 5.32384ZM8.2793 10.0885C8.27792 10.0923 8.27655 10.0963 8.27531 10.1003C8.23933 10.2007 8.15804 10.2853 8.05847 10.3262C7.95314 10.369 7.83463 10.3645 7.73341 10.314C6.73064 9.8123 5.28168 9.08844 5.28168 9.08844C4.93176 8.91348 4.51868 9.16837 4.51868 9.56017V15.811H2.18436V12.9492C2.18436 12.658 1.94815 12.4218 1.65701 12.4218C1.32481 12.4218 1.05469 12.1517 1.05469 11.8195V10.125C1.05469 8.83644 2.10388 7.82817 3.35152 7.82817H3.81747C4.17096 7.82817 4.52403 7.91112 4.83948 8.06863C4.83948 8.06863 7.45518 9.36942 8.12137 9.7012C8.26405 9.77206 8.33189 9.93851 8.2793 10.0885ZM16.9453 8.99533C16.9453 9.15642 16.8828 9.30762 16.7691 9.42133C16.6572 9.53339 16.5019 9.59766 16.343 9.59766H9.29526C9.2943 9.59477 9.29361 9.59189 9.29265 9.58914L10.6014 6.97179C10.7316 6.71127 10.6261 6.39459 10.3656 6.26427C10.1052 6.13408 9.78841 6.23955 9.65808 6.50006L8.54187 8.73235C8.33382 8.62866 8.09198 8.50822 7.83284 8.37941V2.78201C7.83284 2.44995 8.10297 2.17969 8.43517 2.17969H16.343C16.5019 2.17969 16.6572 2.24396 16.7693 2.35629C16.8828 2.46973 16.9453 2.62093 16.9453 2.78201V8.99533Z" fill="#646464"/>
<path id="Vector_2" d="M15.2129 3.38428H9.56445C9.27318 3.38428 9.03711 3.62035 9.03711 3.91162C9.03711 4.2029 9.27318 4.43896 9.56445 4.43896H15.2129C15.5041 4.43896 15.7403 4.2029 15.7403 3.91162C15.7403 3.62035 15.5042 3.38428 15.2129 3.38428Z" fill="#646464"/>
<path id="Vector_3" d="M15.213 5.36133H12.3887C12.0975 5.36133 11.8613 5.5974 11.8613 5.88867C11.8613 6.17995 12.0975 6.41602 12.3887 6.41602H15.213C15.5041 6.41602 15.7403 6.17995 15.7403 5.88867C15.7403 5.5974 15.5043 5.36133 15.213 5.36133Z" fill="#646464"/>
<path id="Vector_4" d="M15.213 7.33838H12.3887C12.0975 7.33838 11.8613 7.57445 11.8613 7.86572C11.8613 8.15686 12.0975 8.39307 12.3887 8.39307H15.213C15.5041 8.39307 15.7403 8.15686 15.7403 7.86572C15.7403 7.57445 15.5043 7.33838 15.213 7.33838Z" fill="#646464"/>
</g>
<defs>
<clipPath id="clip0_224_1419">
<rect width="18" height="18" fill="white"/>
</clipPath>
</defs>
</svg>
