<svg viewBox="0 0 24 24" xmlns="http://www.w3.org/2000/svg"><rect height="4" rx="2" width="16" x="4" y="1" fill="#37c46f" class="fill-e08344"></rect><rect height="4" rx="2" width="16" x="4" y="19" fill="#37c46f" class="fill-c47037"></rect><path d="M6 5h12v1a6 6 0 0 1-6 6 6 6 0 0 1-6-6V5Z" fill="#5dc6d1" class="fill-5dc6d1"></path><path d="M18 18v1H6v-1a5.8 5.8 0 0 1 .35-2 5.989 5.989 0 0 1 9.89-2.24A6.059 6.059 0 0 1 18 18Z" fill="#2eb1b7" class="fill-2eb1b7"></path><path d="M17.65 16H6.35a5.989 5.989 0 0 1 9.89-2.24A5.769 5.769 0 0 1 17.65 16Z" fill="#5dc6d1" class="fill-5dc6d1"></path><path d="M5 18v.184A2.993 2.993 0 0 0 6 24h12a2.993 2.993 0 0 0 1-5.816V18a7 7 0 0 0-3.413-6A7 7 0 0 0 19 6v-.184A2.993 2.993 0 0 0 18 0H6a2.993 2.993 0 0 0-1 5.816V6a7 7 0 0 0 3.413 6A7 7 0 0 0 5 18Zm13 4H6a1 1 0 0 1 0-2h12a1 1 0 0 1 0 2ZM6 2h12a1 1 0 0 1 0 2H6a1 1 0 0 1 0-2Zm1 4h10A5 5 0 0 1 7 6Zm10 12H7a5 5 0 0 1 10 0Z" data-name="Layer 4" fill="#19891c" class="fill-6c2e7c"></path></svg>