<svg xmlns="http://www.w3.org/2000/svg" width="42" height="42" viewBox="0 0 42 42" fill="none">
  <g opacity="0.1">
    <path d="M33.3419 16.746C34.2039 14.5709 35.5663 12.4176 37.3909 10.345C37.9715 9.68558 38.0452 8.74414 37.5742 8.00265C37.2115 7.43228 36.6014 7.10736 35.9554 7.10736C35.7734 7.10736 35.5881 7.13299 35.4055 7.18619C31.5385 8.31604 22.5182 12.3292 22.276 25.1568C22.1824 30.1101 25.8052 34.3654 30.5227 34.8448C33.1227 35.105 35.724 34.2603 37.6517 32.5178C39.582 30.7734 40.6895 28.283 40.6895 25.6842C40.6895 21.3488 37.612 17.5574 33.3419 16.746ZM35.8919 30.5702C34.6659 31.6783 33.1227 32.2685 31.4866 32.2685C31.2552 32.2685 31.0219 32.257 30.788 32.2326C27.419 31.8911 24.8331 28.8046 24.901 25.2068C25.0683 16.3308 29.8741 12.3349 33.8539 10.5475C32.5946 12.251 31.6051 14.0031 30.9015 15.779C30.6272 16.4705 30.6727 17.2433 31.0258 17.8996C31.3956 18.5879 32.055 19.0762 32.8337 19.2397C35.865 19.8735 38.0645 22.5844 38.0645 25.6842C38.0645 27.5415 37.2723 29.3224 35.8919 30.5702Z" fill="#19891C"/>
    <path d="M16.6126 8.00285C16.2499 7.43248 15.6398 7.10756 14.9938 7.10756C14.8118 7.10756 14.6272 7.13319 14.4439 7.18639C10.5769 8.31624 1.55733 12.3294 1.31508 25.157L1.31508 25.1576C1.2228 30.1109 4.84498 34.3656 9.56306 34.845C12.1663 35.1097 14.7631 34.2612 16.6908 32.518C18.6211 30.7736 19.7285 28.2832 19.7285 25.6844C19.7285 21.349 16.6511 17.5576 12.3816 16.7462C13.2442 14.5692 14.6067 12.4159 16.4306 10.3446C17.0113 9.68449 17.0843 8.74369 16.6126 8.00285ZM9.94119 15.7779C9.66691 16.4694 9.71177 17.2423 10.0642 17.8985C10.4347 18.5874 11.0935 19.0758 11.8728 19.2398C14.9041 19.8737 17.1035 22.5845 17.1035 25.6844C17.1035 27.5423 16.3114 29.3226 14.931 30.5704C13.7057 31.6785 12.1624 32.2687 10.5257 32.2687C10.295 32.2687 10.0617 32.2572 9.82711 32.2328C6.4587 31.8913 3.87216 28.8048 3.94009 25.207C4.10671 16.3303 8.91323 12.3351 12.893 10.5477C11.6344 12.2499 10.6461 14.002 9.94119 15.7779Z" fill="#19891C"/>
  </g>
</svg>