<svg width="656" height="600" viewBox="0 0 656 600" fill="none" xmlns="http://www.w3.org/2000/svg">
<g clip-path="url(#clip0_670_110)">
<path d="M647.303 441.234C637.089 420.162 628.806 398.443 625.41 375.937C619.139 334.358 630.315 295.66 635.767 256.173C641.219 216.685 639.17 169.844 612.879 136.409C583.875 99.5269 537.621 93.7756 498.372 96.1851C459.124 98.5946 417.721 105.266 379.748 83.0772C353.339 67.6469 332.6 40.2683 307.258 22.0958C254.997 -15.3815 185.714 -3.92615 157.106 46.9245C144.628 69.1072 139.357 96.974 124.827 117.297C111.25 136.285 90.8298 146.995 73.2106 161.137C32.7105 193.647 6.38844 246.428 1.03224 305.878C-4.32396 365.326 11.3376 430.839 43.9825 485.526C59.7477 511.936 79.7942 536.227 103.796 552.242H593.05C627.603 552.242 655.614 519.052 655.614 478.111C655.612 465.17 652.743 452.456 647.303 441.234Z" fill="url(#paint0_linear_670_110)"/>
<mask id="mask0_670_110" style="mask-type:luminance" maskUnits="userSpaceOnUse" x="119" y="4" width="646" height="573">
<path d="M765 4H119V577H765V4Z" fill="white"/>
</mask>
<g mask="url(#mask0_670_110)">
<path d="M442 577C620.388 577 765 566.676 765 553.941C765 541.205 620.388 530.881 442 530.881C263.612 530.881 119 541.205 119 553.941C119 566.676 263.612 577 442 577Z" fill="#EDFAFD"/>
<path d="M388 150.6C388 150.6 376.792 173.507 376.036 172.991C375.252 172.503 350 150.329 350 150.329L358.399 117H365.881L385.083 123.134L388 150.6Z" fill="#E8978B"/>
<path d="M411.937 157.402C433.83 158.273 472.847 270.478 457.597 272.634C437.055 286.875 376.493 163.064 411.937 157.402Z" fill="#CE9789"/>
<path d="M267.92 551.197C266.33 551.045 265.175 549.651 265.328 548.061L281.514 383.162C281.666 381.594 283.061 380.44 284.629 380.593C286.219 380.745 287.374 382.139 287.221 383.728L271.036 548.628C270.883 550.195 269.489 551.349 267.92 551.197Z" fill="#3F403F"/>
<path d="M323.428 551.197C321.838 551.045 320.683 549.651 320.836 548.062L337.022 383.162C337.174 381.594 338.568 380.44 340.137 380.593C341.727 380.745 342.882 382.139 342.729 383.728L326.543 548.628C326.391 550.195 324.997 551.349 323.428 551.197Z" fill="#3F403F"/>
<path d="M458.557 551.197C460.147 551.045 461.302 549.651 461.149 548.062L444.963 383.162C444.811 381.594 443.417 380.44 441.848 380.593C440.258 380.745 439.103 382.139 439.256 383.728L455.442 548.628C455.572 550.195 456.967 551.349 458.557 551.197Z" fill="#3F403F"/>
<path d="M387.192 551.197C388.782 551.045 389.936 549.651 389.784 548.062L373.598 383.162C373.446 381.594 372.051 380.44 370.483 380.593C368.893 380.745 367.738 382.139 367.89 383.728L384.076 548.628C384.229 550.195 385.623 551.349 387.192 551.197Z" fill="#3F403F"/>
<path d="M461.257 385.165C461.257 393.679 454.352 400.582 445.834 400.582H275.74C271.492 400.582 267.614 398.862 264.826 396.074C262.037 393.287 260.316 389.411 260.316 385.165C260.316 383.728 260.512 382.335 260.905 381.028C262.691 374.539 268.66 369.771 275.74 369.771H445.834C450.082 369.771 453.96 371.491 456.748 374.278C458.6 376.129 459.972 378.437 460.669 381.028C461.061 382.335 461.257 383.728 461.257 385.165Z" fill="#3F403F"/>
<path d="M460.669 381.028C458.883 387.517 452.914 392.286 445.834 392.286H275.74C271.492 392.286 267.614 390.565 264.826 387.778C262.974 385.927 261.601 383.619 260.904 381.028C262.691 374.539 268.66 369.771 275.74 369.771H445.834C450.082 369.771 453.959 371.491 456.748 374.278C458.599 376.129 459.972 378.437 460.669 381.028Z" fill="#181818"/>
<path d="M256.22 282.258C256.22 328.333 270.162 365.677 320.398 365.677C368.171 365.677 384.575 328.333 384.575 282.258C384.575 236.183 388.583 157.294 320.398 157.294C249.968 157.294 256.22 236.183 256.22 282.258Z" fill="#3F403F"/>
<path d="M265.74 282.258C265.74 328.333 279.683 365.677 329.918 365.677C377.691 365.677 394.095 328.333 394.095 282.258C394.095 236.183 398.104 157.294 329.918 157.294C259.51 157.294 265.74 236.183 265.74 282.258Z" fill="#181818"/>
<path d="M362.792 335.236C356.627 362.041 384.838 355.378 407.929 356.053C444.528 355.835 513.062 372.863 521.536 360.342C542.319 326.483 382.943 304.011 374.294 312.656C370.307 316.728 366.016 326.548 362.792 335.236Z" fill="#CE9789"/>
<path d="M518.42 345.078C491.582 326.156 494.827 483.848 502.278 519.689C509.706 555.53 517.048 501.137 521.797 443.739C526.546 386.341 528.986 352.525 518.42 345.078Z" fill="#CE9789"/>
<path d="M493.391 511.11L495.83 529.705L519.053 529.553L519.358 510.5L493.391 511.11Z" fill="#FBB1A6"/>
<path d="M518.966 529.858C518.966 529.858 522.211 537.849 536.023 548.366C549.834 558.884 553.451 556.597 553.777 560.517C554.082 564.436 496.419 561.039 496.419 561.039L495.809 529.793C495.809 529.793 518.966 529.03 518.966 529.858Z" fill="#181818"/>
<path d="M522.255 514.899L490.885 515.095C490.885 515.095 479.906 426.711 484.001 386.123C484.001 386.123 433.679 382.335 395.055 378.045C391.242 377.631 387.561 377.196 384.032 376.76C379.391 376.194 375.035 375.628 371.135 375.062C334.232 369.727 314.234 368.508 322.229 324.654C322.229 324.654 334.014 318.753 347.063 312.264C348.501 311.545 349.96 310.827 351.42 310.086H351.442C365.624 303.01 379.871 295.955 380.873 295.541C382.921 294.735 417.558 311.132 417.558 311.132C417.558 311.132 512.299 322.193 525.827 344.316C539.356 366.483 522.255 514.899 522.255 514.899Z" fill="#332E48"/>
<path d="M414.138 506.82L414.225 524.436L385.992 524.654L386.058 509.107L414.138 506.82Z" fill="#FBB1A6"/>
<path d="M414.508 524.196C414.878 531.164 422.133 554.942 422.285 560.974C377.409 562.106 378.672 571.143 385.905 524.327L414.508 524.196Z" fill="#181818"/>
<path d="M417.558 511.567L383.029 511.828C374.838 454.039 374.925 389.433 373.683 386.559C373.378 385.84 371.527 385.383 368.412 384.991H368.39C359.022 383.837 338.414 383.38 315.061 378.764C283.887 372.623 297.002 332.057 297.002 332.057L321.161 322.912L342.444 310.173C342.444 310.173 421.261 329.183 427.404 352.961C434.68 381.072 417.558 511.567 417.558 511.567Z" fill="#332E48"/>
<path d="M369.196 384.556L368.412 384.991H368.39C359.022 383.837 338.414 383.38 315.061 378.764C283.887 372.623 297.002 332.057 297.002 332.057L321.161 322.912C319.963 324.741 307.197 345.144 316.15 359.667C325.518 374.888 353.816 384.251 369.196 384.556Z" fill="#E8E4D8"/>
<path d="M470.473 270.761C470.473 270.761 445.247 289.422 444.637 289.204C444.441 289.139 441.064 283.804 436.533 276.532C426.512 260.484 410.805 234.898 410.805 234.898L410.391 180.505L410.195 152.939C410.195 152.939 422.7 157.642 434.376 179.373C446.075 201.082 470.473 270.761 470.473 270.761Z" fill="#19891C"/>
<path d="M436.532 276.532C426.511 260.484 410.805 234.898 410.805 234.898L410.391 180.505C416.97 175.65 423.636 170.772 423.636 170.772C423.636 170.772 427.731 187.103 427.535 199.711C427.317 213.233 427.012 220.201 427.731 240.495C427.884 244.741 431.609 264.294 436.532 276.532Z" fill="#66A368"/>
<path d="M386.428 147.822C390.567 148.105 398.213 149.15 401.633 149.89C412.961 152.307 420.368 157.947 424.137 171.795C429.06 189.825 417.58 311.153 417.58 311.153C335.779 302.552 306.239 335.127 298.876 333.276C291.491 331.425 293.342 328.355 298.266 298.241C303.189 268.105 308.962 186.537 313.036 169.139C316.695 153.418 334.951 149.977 345.538 149.302C350.069 149.019 355.799 148.801 355.799 148.801C355.799 148.801 382.942 166.831 386.428 147.822Z" fill="#19891C"/>
<path d="M335.452 192.177C335.452 192.177 319.07 238.034 317.218 243.565C315.367 249.095 316.39 253.603 324.603 257.087C332.794 260.571 311.685 266.929 311.271 265.688C310.857 264.468 283.583 240.69 285.238 239.253C286.872 237.838 335.452 192.177 335.452 192.177Z" fill="#66A368"/>
<path d="M328.154 161.975C342.749 178.306 289.203 284.349 277.069 274.92C252.539 270.043 299.442 140.462 328.154 161.975Z" fill="#CE9789"/>
<path d="M391.073 85.699L368.469 76L350.056 91.615C350.056 91.615 350.111 96.559 350.489 102.854C348.786 104.177 346.947 105.771 347.001 106.311C347.082 107.257 352.355 121.656 352.977 121.872C355.734 132.787 368.442 143.134 376.635 142.999C388.531 142.81 389.423 129.869 391.235 119.711C393.046 109.58 391.073 85.699 391.073 85.699Z" fill="#FBB1A6"/>
<path d="M386.671 113.389C387.695 113.389 388.524 112.02 388.524 110.332C388.524 108.643 387.695 107.274 386.671 107.274C385.648 107.274 384.818 108.643 384.818 110.332C384.818 112.02 385.648 113.389 386.671 113.389Z" fill="#3F403F"/>
<path d="M368.525 113.652C369.548 113.652 370.378 112.283 370.378 110.594C370.378 108.905 369.548 107.536 368.525 107.536C367.501 107.536 366.672 108.905 366.672 110.594C366.672 112.283 367.501 113.652 368.525 113.652Z" fill="#3F403F"/>
<path d="M383.188 101.995C382.992 101.727 383.051 101.352 383.32 101.154C385.277 99.7339 387.891 99.6149 389.98 100.85C390.265 101.019 390.36 101.389 390.19 101.675C390.017 101.959 389.644 102.047 389.36 101.885C387.689 100.895 385.595 100.989 384.034 102.127C383.756 102.326 383.379 102.259 383.188 101.995Z" fill="#3F403F"/>
<path d="M368.508 130.291C368.499 136.578 378.14 137.765 380.435 130.789C377.042 132.48 371.562 131.777 368.508 130.291Z" fill="#3F403F"/>
<path d="M374.718 125.387C374.401 125.284 374.228 124.946 374.334 124.628C374.436 124.317 374.766 124.135 375.097 124.245C379.647 125.721 381.83 124.807 379.523 120.659C377.989 117.902 377.609 113.624 377.594 113.442C377.565 113.111 377.812 112.819 378.145 112.792C378.528 112.745 378.771 113.011 378.799 113.339C378.803 113.382 379.172 117.545 380.581 120.075C383.053 124.52 381.229 127.506 374.718 125.387Z" fill="#3F403F"/>
<path d="M364.135 104.376C363.924 104.119 363.965 103.739 364.224 103.53C366.103 102.018 368.705 101.771 370.861 102.906C371.156 103.061 371.267 103.426 371.111 103.72C370.953 104.017 370.584 104.124 370.293 103.97C368.574 103.067 366.491 103.255 364.985 104.465C364.711 104.682 364.337 104.626 364.135 104.376Z" fill="#3F403F"/>
<path d="M348.478 117.529C345.8 112.184 343.933 106.19 343.094 94.203C342.553 86.346 344.258 76.8428 350.318 73.333C356.377 69.8232 361.923 71.0921 366.306 66.9344C370.716 62.7496 375.585 62.0746 380.671 64.0995C385.757 66.1244 386.839 72.955 391.79 73.09C396.714 73.198 405.019 85.671 392.142 91.152C390.816 91.719 387.867 88.992 387.867 88.992C387.867 88.992 377.668 92.421 370.229 91.827C362.789 91.233 359.056 89.991 359.056 89.991L358.028 106.568C358.028 106.568 352.103 101.168 350.047 104.948C348.776 107.27 353.997 123.496 355.376 127.573C356.215 130.165 349.831 120.229 348.478 117.529Z" fill="#181818"/>
<path d="M268.792 265.209C268.835 268.714 270.992 271.872 274.042 273.614C297.787 287.266 402.832 288.987 399.891 281.605C400.044 275.987 268.443 238.883 268.792 265.209Z" fill="#F3B0A6"/>
<path d="M384.794 275.29L383.727 274.376L386.602 272.873H386.624L391.722 270.522C393.029 269.934 394.466 269.651 395.904 269.738L401.982 271.632C401.982 271.632 402.919 273.352 399.303 273.178C398.366 273.135 397.037 273.875 395.991 274.528L399.52 275.182L407.406 276.836C409.585 277.381 407.276 287.506 403.071 288.137L400.849 288.616C397.734 288.812 395.36 289.531 392.419 288.486L384.663 284.98L384.794 275.29Z" fill="#F3B0A6"/>
<path d="M298.614 176.15C284.388 196.706 258.574 258.894 268.399 271.502C278.223 284.109 347.738 287.789 347.738 287.789L354.513 263.205L306.238 250.293C306.238 250.293 331.16 207.571 335.452 192.198C335.452 192.198 351.877 158.513 339.678 152.96C338.044 152.22 334.602 151.022 332.903 151.414C320.42 154.441 307.415 163.434 298.614 176.15Z" fill="#19891C"/>
<path d="M351.157 264.229L344.709 289.553C344.644 289.814 344.818 290.097 345.079 290.141L349.676 291.034C349.916 291.077 350.177 290.925 350.242 290.685L356.756 265.949C356.865 265.514 356.603 265.056 356.146 264.947L351.746 263.88C351.484 263.815 351.223 263.968 351.157 264.229Z" fill="#66A368"/>
<path d="M220.494 551.197C218.926 551.045 217.749 549.651 217.902 548.083L240.841 302.4C240.994 300.832 242.388 299.656 243.956 299.809C245.525 299.961 246.701 301.355 246.549 302.922L223.631 548.606C223.479 550.174 222.085 551.35 220.494 551.197Z" fill="#181818"/>
<path d="M665.314 551.197C666.882 551.045 668.059 549.651 667.906 548.083L644.967 302.4C644.814 300.832 643.42 299.656 641.852 299.809C640.283 299.961 639.107 301.355 639.259 302.922L662.199 548.606C662.329 550.174 663.745 551.35 665.314 551.197Z" fill="#181818"/>
<path d="M664.246 303.358H221.562C216.573 303.358 212.543 299.33 212.543 294.343C212.543 289.357 216.573 285.329 221.562 285.329H664.246C669.235 285.329 673.265 289.357 673.265 294.343C673.265 299.33 669.235 303.358 664.246 303.358Z" fill="#181818"/>
<path d="M389.891 285.329H474.153V280.081H395.141C392.243 280.081 389.891 282.432 389.891 285.329Z" fill="#3F403F"/>
<path d="M541.207 285.329H433.068L443.438 218.894C443.743 216.978 445.398 215.541 447.337 215.541H547.459C549.877 215.541 551.751 217.696 551.359 220.113L541.207 285.329Z" fill="#3F403F"/>
<g filter="url(#filter0_d_670_110)">
<path d="M730.472 196.14H454.962C451.085 196.14 447.926 192.982 447.926 189.106V11.0332C447.926 7.1573 451.085 4 454.962 4H730.472C734.349 4 737.508 7.1573 737.508 11.0332V189.128C737.486 193.004 734.349 196.14 730.472 196.14Z" fill="white"/>
</g>
<path d="M669.226 101H516.772C514.814 101 513.227 102.587 513.227 104.545V104.545C513.227 106.504 514.814 108.091 516.772 108.091H669.226C671.184 108.091 672.772 106.504 672.772 104.545C672.772 102.587 671.184 101 669.226 101Z" fill="#F0F3FD"/>
<path d="M669.226 118.727H516.772C514.814 118.727 513.227 120.314 513.227 122.272V122.273C513.227 124.231 514.814 125.818 516.772 125.818H669.226C671.184 125.818 672.772 124.231 672.772 122.272C672.772 120.314 671.184 118.727 669.226 118.727Z" fill="#F0F3FD"/>
<path d="M669.226 136.455H516.772C514.814 136.455 513.227 138.042 513.227 140V140C513.227 141.959 514.814 143.546 516.772 143.546H669.226C671.184 143.546 672.772 141.959 672.772 140C672.772 138.042 671.184 136.455 669.226 136.455Z" fill="#F0F3FD"/>
<path d="M669.226 154.182H516.772C514.814 154.182 513.227 155.769 513.227 157.727V157.727C513.227 159.686 514.814 161.273 516.772 161.273H669.226C671.184 161.273 672.772 159.686 672.772 157.727C672.772 155.769 671.184 154.182 669.226 154.182Z" fill="#F0F3FD"/>
<path d="M612.499 171.909H574.385C572.427 171.909 570.84 173.496 570.84 175.454C570.84 177.412 572.427 179 574.385 179H612.499C614.457 179 616.044 177.412 616.044 175.454C616.044 173.496 614.457 171.909 612.499 171.909Z" fill="#19891C"/>
<path d="M737.486 32.7643H447.926V11.0332C447.926 7.1573 451.085 4 454.962 4H730.472C734.349 4 737.508 7.1573 737.508 11.0332V32.7643H737.486Z" fill="#19891C"/>
<path d="M173.287 334.234C170.629 321.649 167.906 308.649 167.405 296.346L167.318 294.191L165.815 295.759C165.532 296.042 159.062 302.857 159.062 312.83C159.062 315.552 159.236 317.969 159.41 320.32C159.846 326.2 160.216 331.273 157.297 337.936C153.115 347.452 150.37 355.77 155.903 368.769C156.469 370.119 157.014 371.36 157.515 372.536C161.719 382.248 163.462 386.254 161.85 394.028C160.02 402.977 166.055 416.499 176.62 420.919C176.228 438.579 175.705 453.255 175.705 453.56L176.642 453.581L177.579 453.603C177.6 452.928 179.91 386.428 178.537 365.786C177.884 356.009 175.662 345.427 173.287 334.234Z" fill="#19891C"/>
<path d="M122.746 339.482L121.788 338.742L121.308 339.852C121.134 340.288 116.843 350.674 123.596 359.014C126.45 362.541 127.06 367.005 127.735 372.166C128.519 378.045 129.391 384.686 134.118 390.936C137.974 396.031 142.091 398.84 145.38 401.083C149.607 403.957 152.656 406.047 153.375 411.23C153.506 412.144 153.615 413.037 153.724 413.864C154.77 422.052 155.336 426.581 167.274 430.631C170.738 444.066 172.328 453.451 172.371 453.734L173.286 453.581L174.201 453.429C174.092 452.58 159.649 368.399 122.746 339.482Z" fill="#19891C"/>
<path d="M204.591 362.868L204.308 361.562L203.175 362.28C191.215 369.967 183.613 387.561 180.585 414.561C178.341 434.55 179.583 452.536 179.604 452.71L181.456 452.58C181.434 452.362 181.02 445.982 181.151 436.641C182.044 435.269 185.508 429.999 188.122 425.906C189.908 423.119 189.429 420.68 188.928 418.089C188.471 415.78 187.948 413.168 188.732 409.509C189.647 405.198 191.063 403.521 192.697 401.54C194.026 399.929 195.551 398.121 197.01 394.724C198.535 391.197 198.513 387.974 198.492 385.122C198.47 381.725 198.448 378.785 200.931 375.976C206.073 370.141 204.657 363.151 204.591 362.868Z" fill="#19891C"/>
<path d="M193.72 547.016H160.869L151.785 450.707H202.805L193.72 547.016Z" fill="#181818"/>
<path d="M596 89C608.15 89 618 79.1503 618 67C618 54.8497 608.15 45 596 45C583.85 45 574 54.8497 574 67C574 79.1503 583.85 89 596 89Z" fill="#F0F3FD"/>
</g>
</g>
<defs>
<filter id="filter0_d_670_110" x="403.984" y="-38.0721" width="383.076" height="285.634" filterUnits="userSpaceOnUse" color-interpolation-filters="sRGB">
<feFlood flood-opacity="0" result="BackgroundImageFix"/>
<feColorMatrix in="SourceAlpha" type="matrix" values="0 0 0 0 0 0 0 0 0 0 0 0 0 0 0 0 0 0 127 0" result="hardAlpha"/>
<feOffset dx="2.8048" dy="4.67467"/>
<feGaussianBlur stdDeviation="23.3734"/>
<feColorMatrix type="matrix" values="0 0 0 0 0 0 0 0 0 0 0 0 0 0 0 0 0 0 0.07 0"/>
<feBlend mode="normal" in2="BackgroundImageFix" result="effect1_dropShadow_670_110"/>
<feBlend mode="normal" in="SourceGraphic" in2="effect1_dropShadow_670_110" result="shape"/>
</filter>
<linearGradient id="paint0_linear_670_110" x1="327.807" y1="2.3278e-05" x2="327.807" y2="552.242" gradientUnits="userSpaceOnUse">
<stop stop-color="#E3F8F3"/>
<stop offset="1" stop-color="#F3FCF4" stop-opacity="0"/>
</linearGradient>
<clipPath id="clip0_670_110">
<rect width="656" height="600" fill="white"/>
</clipPath>
</defs>
</svg>
