<svg width="34" height="34" viewBox="0 0 34 34" fill="none" xmlns="http://www.w3.org/2000/svg">
<g id="003-skills 1" clip-path="url(#clip0_224_241)">
<g id="Group">
<path id="Vector" d="M30.6278 21.4179C29.5032 20.7687 28.1279 20.9363 27.1921 21.7348L24.6336 20.2576C25.0624 19.2569 25.3 18.1557 25.3 17C25.3 15.8443 25.0622 14.7431 24.6336 13.7424L27.1922 12.2652C28.128 13.0637 29.5033 13.2313 30.6279 12.5821C32.0549 11.7582 32.5455 9.92694 31.7216 8.5C30.8978 7.073 29.0666 6.58232 27.6396 7.40622C26.515 8.05554 25.9726 9.33034 26.1961 10.54L23.635 12.0187C22.3076 10.2549 20.2945 9.03543 17.9953 8.75918V5.80523C19.1547 5.39405 19.9875 4.28686 19.9875 2.98828C19.9875 1.34054 18.647 0 16.9992 0C15.3515 0 14.011 1.34054 14.011 2.98828C14.011 4.28686 14.8438 5.39405 16.0031 5.80523V8.75918C13.704 9.03543 11.6909 10.2549 10.3635 12.0187L7.80238 10.54C8.02597 9.33034 7.48349 8.05554 6.3589 7.40622C4.93183 6.58232 3.10061 7.073 2.27671 8.5C1.45288 9.927 1.94348 11.7582 3.37049 12.5821C4.49508 13.2313 5.87035 13.0637 6.80615 12.2652L9.36472 13.7424C8.93613 14.7431 8.6984 15.8443 8.6984 17C8.6984 18.1557 8.93593 19.2569 9.36472 20.2576L6.80615 21.7348C5.87035 20.9363 4.49508 20.7687 3.37049 21.4179C1.94355 22.2418 1.45288 24.073 2.27671 25.5C3.10055 26.927 4.93177 27.4177 6.35877 26.5938C7.48336 25.9445 8.02577 24.6697 7.80224 23.46L10.3641 21.9809C10.5365 22.2098 10.7199 22.43 10.9145 22.6398C11.3918 20.898 12.5979 19.4545 14.1839 18.6602C13.6613 18.0283 13.3468 17.2181 13.3468 16.3359C13.3468 14.322 14.9853 12.6836 16.9992 12.6836C19.0131 12.6836 20.6515 14.322 20.6515 16.3359C20.6515 17.2181 20.337 18.0283 19.8143 18.6602C21.4004 19.4545 22.6065 20.898 23.0838 22.6398C23.2784 22.43 23.4618 22.2098 23.6342 21.9809L26.196 23.46C25.9725 24.6697 26.5149 25.9445 27.6395 26.5938C29.0665 27.4177 30.8977 26.9269 31.7216 25.5C32.5455 24.073 32.0548 22.2418 30.6278 21.4179Z" fill="white"/>
<path id="Vector_2" d="M17 17.9961C17.9169 17.9961 18.6602 17.2528 18.6602 16.3359C18.6602 15.4191 17.9169 14.6758 17 14.6758C16.0831 14.6758 15.3398 15.4191 15.3398 16.3359C15.3398 17.2528 16.0831 17.9961 17 17.9961Z" fill="white"/>
<path id="Vector_3" d="M21.3094 24.0911C21.1977 21.8099 19.3069 19.9883 16.9985 19.9883C14.69 19.9883 12.7992 21.8099 12.6875 24.0911C13.6761 24.6944 14.8003 25.0957 16.0024 25.2402V28.1948C14.843 28.606 14.0102 29.7132 14.0102 31.0118C14.0102 32.6595 15.3507 34.0001 16.9985 34.0001C18.6462 34.0001 19.9867 32.6595 19.9867 31.0118C19.9867 29.7132 19.1539 28.606 17.9946 28.1948V25.2402C19.1966 25.0957 20.3209 24.6944 21.3094 24.0911Z" fill="white"/>
</g>
</g>
<defs>
<clipPath id="clip0_224_241">
<rect width="34" height="34" fill="white"/>
</clipPath>
</defs>
</svg>
