<svg width="16" height="16" viewBox="0 0 16 16" fill="none" xmlns="http://www.w3.org/2000/svg">
<g id="002-minute 1" clip-path="url(#clip0_224_1450)">
<g id="Group">
<g id="Group_2">
<path id="Vector" d="M8 0C3.57841 0 0 3.57803 0 8C0 12.4216 3.57803 16 8 16C12.4216 16 16 12.422 16 8C16 3.57844 12.422 0 8 0ZM8 14.9333C4.17697 14.9333 1.06666 11.8231 1.06666 8C1.06666 4.17694 4.17697 1.06666 8 1.06666C11.823 1.06666 14.9333 4.17697 14.9333 8C14.9333 11.823 11.823 14.9333 8 14.9333Z" fill="#646464"/>
</g>
</g>
<g id="Group_3">
<g id="Group_4">
<path id="Vector_2" d="M9.64997 7.84027H7.90653V4.86977C7.90653 4.57524 7.66775 4.33643 7.37319 4.33643C7.07863 4.33643 6.83984 4.57521 6.83984 4.86977V8.37358C6.83984 8.66811 7.07863 8.90693 7.37319 8.90693H9.64994C9.94447 8.90693 10.1833 8.66814 10.1833 8.37358C10.1833 8.07902 9.9445 7.84027 9.64997 7.84027Z" fill="#646464"/>
</g>
</g>
</g>
<defs>
<clipPath id="clip0_224_1450">
<rect width="16" height="16" fill="white"/>
</clipPath>
</defs>
</svg>
